<?xml version="1.0" encoding="UTF-8" standalone="no"?>
<!DOCTYPE svg PUBLIC "-//W3C//DTD SVG 1.1//EN"
 "http://www.w3.org/Graphics/SVG/1.1/DTD/svg11.dtd">
<!-- Generated by graphviz version 2.43.0 (0)
 -->
<!-- Title: src/7Semi_Interface.h Pages: 1 -->
<svg width="351pt" height="192pt"
 viewBox="0.00 0.00 351.00 192.00" xmlns="http://www.w3.org/2000/svg" xmlns:xlink="http://www.w3.org/1999/xlink">
<g id="graph0" class="graph" transform="scale(1 1) rotate(0) translate(4 188)">
<title>src/7Semi_Interface.h</title>
<!-- Node1 -->
<g id="Node000001" class="node">
<title>Node1</title>
<g id="a_Node000001"><a xlink:title=" ">
<polygon fill="#999999" stroke="#666666" points="232.5,-184 110.5,-184 110.5,-165 232.5,-165 232.5,-184"/>
<text text-anchor="middle" x="171.5" y="-172" font-family="Helvetica,sans-Serif" font-size="10.00">src/7Semi_Interface.h</text>
</a>
</g>
</g>
<!-- Node2 -->
<g id="Node000002" class="node">
<title>Node2</title>
<g id="a_Node000002"><a xlink:href="7Semi__I2C__Interface_8h.html" target="_top" xlink:title=" ">
<polygon fill="white" stroke="#666666" points="143,-129 0,-129 0,-110 143,-110 143,-129"/>
<text text-anchor="middle" x="71.5" y="-117" font-family="Helvetica,sans-Serif" font-size="10.00">src/7Semi_I2C_Interface.h</text>
</a>
</g>
</g>
<!-- Node1&#45;&gt;Node2 -->
<g id="edge1_Node000001_Node000002" class="edge">
<title>Node1&#45;&gt;Node2</title>
<g id="a_edge1_Node000001_Node000002"><a xlink:title=" ">
<path fill="none" stroke="#63b8ff" d="M146.47,-160.23C128.13,-150.51 103.76,-137.6 87.86,-129.17"/>
<polygon fill="#63b8ff" stroke="#63b8ff" points="144.96,-163.39 155.43,-164.98 148.24,-157.21 144.96,-163.39"/>
</a>
</g>
</g>
<!-- Node3 -->
<g id="Node000003" class="node">
<title>Node3</title>
<g id="a_Node000003"><a xlink:href="DevLab__ICM20948_8h.html" target="_top" xlink:title=" ">
<polygon fill="white" stroke="#666666" points="238.5,-74 104.5,-74 104.5,-55 238.5,-55 238.5,-74"/>
<text text-anchor="middle" x="171.5" y="-62" font-family="Helvetica,sans-Serif" font-size="10.00">src/DevLab_ICM20948.h</text>
</a>
</g>
</g>
<!-- Node1&#45;&gt;Node3 -->
<g id="edge6_Node000001_Node000003" class="edge">
<title>Node1&#45;&gt;Node3</title>
<g id="a_edge6_Node000001_Node000003"><a xlink:title=" ">
<path fill="none" stroke="#63b8ff" d="M171.5,-154.48C171.5,-130.84 171.5,-91.5 171.5,-74.16"/>
<polygon fill="#63b8ff" stroke="#63b8ff" points="168,-154.66 171.5,-164.66 175,-154.66 168,-154.66"/>
</a>
</g>
</g>
<!-- Node5 -->
<g id="Node000005" class="node">
<title>Node5</title>
<g id="a_Node000005"><a xlink:href="7Semi__SPI__Interface_8h.html" target="_top" xlink:title=" ">
<polygon fill="white" stroke="#666666" points="343,-129 200,-129 200,-110 343,-110 343,-129"/>
<text text-anchor="middle" x="271.5" y="-117" font-family="Helvetica,sans-Serif" font-size="10.00">src/7Semi_SPI_Interface.h</text>
</a>
</g>
</g>
<!-- Node1&#45;&gt;Node5 -->
<g id="edge4_Node000001_Node000005" class="edge">
<title>Node1&#45;&gt;Node5</title>
<g id="a_edge4_Node000001_Node000005"><a xlink:title=" ">
<path fill="none" stroke="#63b8ff" d="M196.53,-160.23C214.87,-150.51 239.24,-137.6 255.14,-129.17"/>
<polygon fill="#63b8ff" stroke="#63b8ff" points="194.76,-157.21 187.57,-164.98 198.04,-163.39 194.76,-157.21"/>
</a>
</g>
</g>
<!-- Node2&#45;&gt;Node3 -->
<g id="edge2_Node000002_Node000003" class="edge">
<title>Node2&#45;&gt;Node3</title>
<g id="a_edge2_Node000002_Node000003"><a xlink:title=" ">
<path fill="none" stroke="#63b8ff" d="M96.53,-105.23C114.87,-95.51 139.24,-82.6 155.14,-74.17"/>
<polygon fill="#63b8ff" stroke="#63b8ff" points="94.76,-102.21 87.57,-109.98 98.04,-108.39 94.76,-102.21"/>
</a>
</g>
</g>
<!-- Node4 -->
<g id="Node000004" class="node">
<title>Node4</title>
<g id="a_Node000004"><a xlink:href="DevLab__ICM20948_8cpp.html" target="_top" xlink:title=" ">
<polygon fill="white" stroke="#666666" points="244,-19 99,-19 99,0 244,0 244,-19"/>
<text text-anchor="middle" x="171.5" y="-7" font-family="Helvetica,sans-Serif" font-size="10.00">src/DevLab_ICM20948.cpp</text>
</a>
</g>
</g>
<!-- Node3&#45;&gt;Node4 -->
<g id="edge3_Node000003_Node000004" class="edge">
<title>Node3&#45;&gt;Node4</title>
<g id="a_edge3_Node000003_Node000004"><a xlink:title=" ">
<path fill="none" stroke="#63b8ff" d="M171.5,-44.66C171.5,-35.93 171.5,-25.99 171.5,-19.09"/>
<polygon fill="#63b8ff" stroke="#63b8ff" points="168,-44.75 171.5,-54.75 175,-44.75 168,-44.75"/>
</a>
</g>
</g>
<!-- Node5&#45;&gt;Node3 -->
<g id="edge5_Node000005_Node000003" class="edge">
<title>Node5&#45;&gt;Node3</title>
<g id="a_edge5_Node000005_Node000003"><a xlink:title=" ">
<path fill="none" stroke="#63b8ff" d="M246.47,-105.23C228.13,-95.51 203.76,-82.6 187.86,-74.17"/>
<polygon fill="#63b8ff" stroke="#63b8ff" points="244.96,-108.39 255.43,-109.98 248.24,-102.21 244.96,-108.39"/>
</a>
</g>
</g>
</g>
</svg>
