<?xml version="1.0" encoding="UTF-8" standalone="no"?>
<!DOCTYPE svg PUBLIC "-//W3C//DTD SVG 1.1//EN"
 "http://www.w3.org/Graphics/SVG/1.1/DTD/svg11.dtd">
<!-- Generated by graphviz version 2.43.0 (0)
 -->
<!-- Title: src/BusIO_7Semi.h Pages: 1 -->
<svg width="1846pt" height="148pt"
 viewBox="0.00 0.00 1845.50 148.00" xmlns="http://www.w3.org/2000/svg" xmlns:xlink="http://www.w3.org/1999/xlink">
<g id="graph0" class="graph" transform="scale(1 1) rotate(0) translate(4 144)">
<title>src/BusIO_7Semi.h</title>
<!-- Node1 -->
<g id="Node000001" class="node">
<title>Node1</title>
<g id="a_Node000001"><a xlink:title=" ">
<polygon fill="#999999" stroke="#666666" points="951.5,-140 844.5,-140 844.5,-121 951.5,-121 951.5,-140"/>
<text text-anchor="middle" x="898" y="-128" font-family="Helvetica,sans-Serif" font-size="10.00">src/BusIO_7Semi.h</text>
</a>
</g>
</g>
<!-- Node2 -->
<g id="Node000002" class="node">
<title>Node2</title>
<g id="a_Node000002"><a xlink:href="DevLab__ICM20948_8h.html" target="_top" xlink:title=" ">
<polygon fill="white" stroke="#666666" points="965,-85 831,-85 831,-66 965,-66 965,-85"/>
<text text-anchor="middle" x="898" y="-73" font-family="Helvetica,sans-Serif" font-size="10.00">src/DevLab_ICM20948.h</text>
</a>
</g>
</g>
<!-- Node1&#45;&gt;Node2 -->
<g id="edge1_Node000001_Node000002" class="edge">
<title>Node1&#45;&gt;Node2</title>
<g id="a_edge1_Node000001_Node000002"><a xlink:title=" ">
<path fill="none" stroke="#63b8ff" d="M898,-110.66C898,-101.93 898,-91.99 898,-85.09"/>
<polygon fill="#63b8ff" stroke="#63b8ff" points="894.5,-110.75 898,-120.75 901.5,-110.75 894.5,-110.75"/>
</a>
</g>
</g>
<!-- Node3 -->
<g id="Node000003" class="node">
<title>Node3</title>
<g id="a_Node000003"><a xlink:href="gyr__test_8ino.html" target="_top" xlink:title="Gyroscope DLPF and full&#45;scale sweep for the DevLab ICM&#45;20948.">
<polygon fill="white" stroke="#666666" points="126,-30 0,-30 0,0 126,0 126,-30"/>
<text text-anchor="start" x="8" y="-18" font-family="Helvetica,sans-Serif" font-size="10.00">examples/gyr_test/gyr</text>
<text text-anchor="middle" x="63" y="-7" font-family="Helvetica,sans-Serif" font-size="10.00">_test.ino</text>
</a>
</g>
</g>
<!-- Node2&#45;&gt;Node3 -->
<g id="edge2_Node000002_Node000003" class="edge">
<title>Node2&#45;&gt;Node3</title>
<g id="a_edge2_Node000002_Node000003"><a xlink:title=" ">
<path fill="none" stroke="#63b8ff" d="M820.81,-73.41C682.72,-70.69 384.49,-61.39 135,-30 132.09,-29.63 129.13,-29.22 126.14,-28.77"/>
<polygon fill="#63b8ff" stroke="#63b8ff" points="820.81,-76.91 830.87,-73.6 820.94,-69.91 820.81,-76.91"/>
</a>
</g>
</g>
<!-- Node4 -->
<g id="Node000004" class="node">
<title>Node4</title>
<g id="a_Node000004"><a xlink:href="i2c__accel_8ino.html" target="_top" xlink:title=" ">
<polygon fill="white" stroke="#666666" points="257.5,-30 144.5,-30 144.5,0 257.5,0 257.5,-30"/>
<text text-anchor="start" x="152.5" y="-18" font-family="Helvetica,sans-Serif" font-size="10.00">examples/i2c_accel</text>
<text text-anchor="middle" x="201" y="-7" font-family="Helvetica,sans-Serif" font-size="10.00">/i2c_accel.ino</text>
</a>
</g>
</g>
<!-- Node2&#45;&gt;Node4 -->
<g id="edge3_Node000002_Node000004" class="edge">
<title>Node2&#45;&gt;Node4</title>
<g id="a_edge3_Node000002_Node000004"><a xlink:title=" ">
<path fill="none" stroke="#63b8ff" d="M820.64,-72.58C701.14,-68.83 464.67,-58.24 266,-30 263.26,-29.61 260.46,-29.17 257.64,-28.69"/>
<polygon fill="#63b8ff" stroke="#63b8ff" points="820.68,-76.09 830.79,-72.9 820.9,-69.09 820.68,-76.09"/>
</a>
</g>
</g>
<!-- Node5 -->
<g id="Node000005" class="node">
<title>Node5</title>
<g id="a_Node000005"><a xlink:href="i2c__basic_8ino.html" target="_top" xlink:title=" ">
<polygon fill="white" stroke="#666666" points="388.5,-30 275.5,-30 275.5,0 388.5,0 388.5,-30"/>
<text text-anchor="start" x="283.5" y="-18" font-family="Helvetica,sans-Serif" font-size="10.00">examples/i2c_basic</text>
<text text-anchor="middle" x="332" y="-7" font-family="Helvetica,sans-Serif" font-size="10.00">/i2c_basic.ino</text>
</a>
</g>
</g>
<!-- Node2&#45;&gt;Node5 -->
<g id="edge4_Node000002_Node000005" class="edge">
<title>Node2&#45;&gt;Node5</title>
<g id="a_edge4_Node000002_Node000005"><a xlink:title=" ">
<path fill="none" stroke="#63b8ff" d="M820.81,-70.52C722.29,-64.77 546.79,-52.32 398,-30 394.99,-29.55 391.91,-29.04 388.8,-28.5"/>
<polygon fill="#63b8ff" stroke="#63b8ff" points="820.79,-74.02 830.97,-71.1 821.19,-67.03 820.79,-74.02"/>
</a>
</g>
</g>
<!-- Node6 -->
<g id="Node000006" class="node">
<title>Node6</title>
<g id="a_Node000006"><a xlink:href="i2c__gyro_8ino.html" target="_top" xlink:title=" ">
<polygon fill="white" stroke="#666666" points="533,-30 407,-30 407,0 533,0 533,-30"/>
<text text-anchor="start" x="415" y="-18" font-family="Helvetica,sans-Serif" font-size="10.00">examples/i2c_gyro/i2c</text>
<text text-anchor="middle" x="470" y="-7" font-family="Helvetica,sans-Serif" font-size="10.00">_gyro.ino</text>
</a>
</g>
</g>
<!-- Node2&#45;&gt;Node6 -->
<g id="edge5_Node000002_Node000006" class="edge">
<title>Node2&#45;&gt;Node6</title>
<g id="a_edge5_Node000002_Node000006"><a xlink:title=" ">
<path fill="none" stroke="#63b8ff" d="M820.51,-66.34C748.25,-58.38 637.56,-45.25 542,-30 539.11,-29.54 536.15,-29.05 533.17,-28.53"/>
<polygon fill="#63b8ff" stroke="#63b8ff" points="820.56,-69.87 830.88,-67.48 821.32,-62.91 820.56,-69.87"/>
</a>
</g>
</g>
<!-- Node7 -->
<g id="Node000007" class="node">
<title>Node7</title>
<g id="a_Node000007"><a xlink:href="i2c__magneto_8ino.html" target="_top" xlink:title=" ">
<polygon fill="white" stroke="#666666" points="682.5,-30 551.5,-30 551.5,0 682.5,0 682.5,-30"/>
<text text-anchor="start" x="559.5" y="-18" font-family="Helvetica,sans-Serif" font-size="10.00">examples/i2c_magneto</text>
<text text-anchor="middle" x="617" y="-7" font-family="Helvetica,sans-Serif" font-size="10.00">/i2c_magneto.ino</text>
</a>
</g>
</g>
<!-- Node2&#45;&gt;Node7 -->
<g id="edge6_Node000002_Node000007" class="edge">
<title>Node2&#45;&gt;Node7</title>
<g id="a_edge6_Node000002_Node000007"><a xlink:title=" ">
<path fill="none" stroke="#63b8ff" d="M847.08,-63.9C800.99,-54.3 732.84,-40.12 682.66,-29.67"/>
<polygon fill="#63b8ff" stroke="#63b8ff" points="846.64,-67.38 857.14,-65.99 848.06,-60.53 846.64,-67.38"/>
</a>
</g>
</g>
<!-- Node8 -->
<g id="Node000008" class="node">
<title>Node8</title>
<g id="a_Node000008"><a xlink:href="interrupt_8ino.html" target="_top" xlink:title="I2C interrupt example for the DevLab ICM&#45;20948.">
<polygon fill="white" stroke="#666666" points="811,-30 701,-30 701,0 811,0 811,-30"/>
<text text-anchor="start" x="709" y="-18" font-family="Helvetica,sans-Serif" font-size="10.00">examples/interrupt</text>
<text text-anchor="middle" x="756" y="-7" font-family="Helvetica,sans-Serif" font-size="10.00">/interrupt.ino</text>
</a>
</g>
</g>
<!-- Node2&#45;&gt;Node8 -->
<g id="edge7_Node000002_Node000008" class="edge">
<title>Node2&#45;&gt;Node8</title>
<g id="a_edge7_Node000002_Node000008"><a xlink:title=" ">
<path fill="none" stroke="#63b8ff" d="M867.85,-62.08C845.09,-52.7 813.83,-39.82 790.14,-30.06"/>
<polygon fill="#63b8ff" stroke="#63b8ff" points="866.77,-65.42 877.35,-65.99 869.44,-58.95 866.77,-65.42"/>
</a>
</g>
</g>
<!-- Node9 -->
<g id="Node000009" class="node">
<title>Node9</title>
<g id="a_Node000009"><a xlink:href="mag__test_8ino.html" target="_top" xlink:title="Magnetometer operation&#45;mode sweep for the DevLab ICM&#45;20948.">
<polygon fill="white" stroke="#666666" points="967,-30 829,-30 829,0 967,0 967,-30"/>
<text text-anchor="start" x="837" y="-18" font-family="Helvetica,sans-Serif" font-size="10.00">examples/mag_test/mag</text>
<text text-anchor="middle" x="898" y="-7" font-family="Helvetica,sans-Serif" font-size="10.00">_test.ino</text>
</a>
</g>
</g>
<!-- Node2&#45;&gt;Node9 -->
<g id="edge8_Node000002_Node000009" class="edge">
<title>Node2&#45;&gt;Node9</title>
<g id="a_edge8_Node000002_Node000009"><a xlink:title=" ">
<path fill="none" stroke="#63b8ff" d="M898,-55.65C898,-47.36 898,-37.78 898,-30.11"/>
<polygon fill="#63b8ff" stroke="#63b8ff" points="894.5,-55.87 898,-65.87 901.5,-55.87 894.5,-55.87"/>
</a>
</g>
</g>
<!-- Node10 -->
<g id="Node000010" class="node">
<title>Node10</title>
<g id="a_Node000010"><a xlink:href="spi__accel_8ino.html" target="_top" xlink:title=" ">
<polygon fill="white" stroke="#666666" points="1098.5,-30 985.5,-30 985.5,0 1098.5,0 1098.5,-30"/>
<text text-anchor="start" x="993.5" y="-18" font-family="Helvetica,sans-Serif" font-size="10.00">examples/spi_accel</text>
<text text-anchor="middle" x="1042" y="-7" font-family="Helvetica,sans-Serif" font-size="10.00">/spi_accel.ino</text>
</a>
</g>
</g>
<!-- Node2&#45;&gt;Node10 -->
<g id="edge9_Node000002_Node000010" class="edge">
<title>Node2&#45;&gt;Node10</title>
<g id="a_edge9_Node000002_Node000010"><a xlink:title=" ">
<path fill="none" stroke="#63b8ff" d="M928.26,-62.21C951.37,-52.82 983.25,-39.87 1007.38,-30.06"/>
<polygon fill="#63b8ff" stroke="#63b8ff" points="926.89,-58.99 918.94,-65.99 929.52,-65.47 926.89,-58.99"/>
</a>
</g>
</g>
<!-- Node11 -->
<g id="Node000011" class="node">
<title>Node11</title>
<g id="a_Node000011"><a xlink:href="spi__basic_8ino.html" target="_top" xlink:title=" ">
<polygon fill="white" stroke="#666666" points="1229.5,-30 1116.5,-30 1116.5,0 1229.5,0 1229.5,-30"/>
<text text-anchor="start" x="1124.5" y="-18" font-family="Helvetica,sans-Serif" font-size="10.00">examples/spi_basic</text>
<text text-anchor="middle" x="1173" y="-7" font-family="Helvetica,sans-Serif" font-size="10.00">/spi_basic.ino</text>
</a>
</g>
</g>
<!-- Node2&#45;&gt;Node11 -->
<g id="edge10_Node000002_Node000011" class="edge">
<title>Node2&#45;&gt;Node11</title>
<g id="a_edge10_Node000002_Node000011"><a xlink:title=" ">
<path fill="none" stroke="#63b8ff" d="M948.49,-63.85C991.04,-54.86 1053.51,-41.64 1108,-30 1110.71,-29.42 1113.48,-28.83 1116.28,-28.23"/>
<polygon fill="#63b8ff" stroke="#63b8ff" points="947.72,-60.44 938.66,-65.93 949.17,-67.28 947.72,-60.44"/>
</a>
</g>
</g>
<!-- Node12 -->
<g id="Node000012" class="node">
<title>Node12</title>
<g id="a_Node000012"><a xlink:href="spi__gyro_8ino.html" target="_top" xlink:title=" ">
<polygon fill="white" stroke="#666666" points="1374,-30 1248,-30 1248,0 1374,0 1374,-30"/>
<text text-anchor="start" x="1256" y="-18" font-family="Helvetica,sans-Serif" font-size="10.00">examples/spi_gyro/spi</text>
<text text-anchor="middle" x="1311" y="-7" font-family="Helvetica,sans-Serif" font-size="10.00">_gyro.ino</text>
</a>
</g>
</g>
<!-- Node2&#45;&gt;Node12 -->
<g id="edge11_Node000002_Node000012" class="edge">
<title>Node2&#45;&gt;Node12</title>
<g id="a_edge11_Node000002_Node000012"><a xlink:title=" ">
<path fill="none" stroke="#63b8ff" d="M975.1,-65.83C1044.35,-57.71 1148.71,-44.66 1239,-30 1241.89,-29.53 1244.84,-29.03 1247.82,-28.52"/>
<polygon fill="#63b8ff" stroke="#63b8ff" points="974.68,-62.35 965.15,-66.99 975.49,-69.31 974.68,-62.35"/>
</a>
</g>
</g>
<!-- Node13 -->
<g id="Node000013" class="node">
<title>Node13</title>
<g id="a_Node000013"><a xlink:href="test_8ino.html" target="_top" xlink:title="Accelerometer DLPF validation sketch for the 7Semi ICM&#45;20948.">
<polygon fill="white" stroke="#666666" points="1518,-24.5 1392,-24.5 1392,-5.5 1518,-5.5 1518,-24.5"/>
<text text-anchor="middle" x="1455" y="-12.5" font-family="Helvetica,sans-Serif" font-size="10.00">examples/test/test.ino</text>
</a>
</g>
</g>
<!-- Node2&#45;&gt;Node13 -->
<g id="edge12_Node000002_Node000013" class="edge">
<title>Node2&#45;&gt;Node13</title>
<g id="a_edge12_Node000002_Node000013"><a xlink:title=" ">
<path fill="none" stroke="#63b8ff" d="M975.53,-69.8C1071.51,-63.42 1239.85,-50.43 1383,-30 1393.34,-28.52 1404.44,-26.56 1414.76,-24.57"/>
<polygon fill="#63b8ff" stroke="#63b8ff" points="975.08,-66.32 965.33,-70.47 975.54,-73.31 975.08,-66.32"/>
</a>
</g>
</g>
<!-- Node14 -->
<g id="Node000014" class="node">
<title>Node14</title>
<g id="a_Node000014"><a xlink:href="test2_8ino.html" target="_top" xlink:title="Extended accelerometer DLPF, full&#45;scale, and averaging sweep.">
<polygon fill="white" stroke="#666666" points="1674,-24.5 1536,-24.5 1536,-5.5 1674,-5.5 1674,-24.5"/>
<text text-anchor="middle" x="1605" y="-12.5" font-family="Helvetica,sans-Serif" font-size="10.00">examples/test2/test2.ino</text>
</a>
</g>
</g>
<!-- Node2&#45;&gt;Node14 -->
<g id="edge13_Node000002_Node000014" class="edge">
<title>Node2&#45;&gt;Node14</title>
<g id="a_edge13_Node000002_Node000014"><a xlink:title=" ">
<path fill="none" stroke="#63b8ff" d="M975.35,-71.69C1094.29,-66.78 1329.08,-54.69 1527,-30 1538.47,-28.57 1550.81,-26.57 1562.21,-24.53"/>
<polygon fill="#63b8ff" stroke="#63b8ff" points="975.1,-68.2 965.25,-72.1 975.39,-75.19 975.1,-68.2"/>
</a>
</g>
</g>
<!-- Node15 -->
<g id="Node000015" class="node">
<title>Node15</title>
<g id="a_Node000015"><a xlink:href="DevLab__ICM20948_8cpp.html" target="_top" xlink:title=" ">
<polygon fill="white" stroke="#666666" points="1837.5,-24.5 1692.5,-24.5 1692.5,-5.5 1837.5,-5.5 1837.5,-24.5"/>
<text text-anchor="middle" x="1765" y="-12.5" font-family="Helvetica,sans-Serif" font-size="10.00">src/DevLab_ICM20948.cpp</text>
</a>
</g>
</g>
<!-- Node2&#45;&gt;Node15 -->
<g id="edge14_Node000002_Node000015" class="edge">
<title>Node2&#45;&gt;Node15</title>
<g id="a_edge14_Node000002_Node000015"><a xlink:title=" ">
<path fill="none" stroke="#63b8ff" d="M975.43,-73C1116.54,-69.61 1424.8,-59.27 1683,-30 1695.2,-28.62 1708.34,-26.61 1720.44,-24.54"/>
<polygon fill="#63b8ff" stroke="#63b8ff" points="975.07,-69.5 965.16,-73.24 975.24,-76.5 975.07,-69.5"/>
</a>
</g>
</g>
</g>
</svg>
