<?xml version="1.0" encoding="UTF-8" standalone="no"?>
<!DOCTYPE svg PUBLIC "-//W3C//DTD SVG 1.1//EN"
 "http://www.w3.org/Graphics/SVG/1.1/DTD/svg11.dtd">
<!-- Generated by graphviz version 2.43.0 (0)
 -->
<!-- Title: DevLab_ICM20948::getSensors Pages: 1 -->
<svg width="687pt" height="83pt"
 viewBox="0.00 0.00 687.00 83.00" xmlns="http://www.w3.org/2000/svg" xmlns:xlink="http://www.w3.org/1999/xlink">
<g id="graph0" class="graph" transform="scale(1 1) rotate(0) translate(4 79)">
<title>DevLab_ICM20948::getSensors</title>
<!-- Node1 -->
<g id="Node000001" class="node">
<title>Node1</title>
<g id="a_Node000001"><a xlink:title=" ">
<polygon fill="#999999" stroke="#666666" points="167,-56 0,-56 0,-37 167,-37 167,-56"/>
<text text-anchor="middle" x="83.5" y="-44" font-family="Helvetica,sans-Serif" font-size="10.00">DevLab_ICM20948::getSensors</text>
</a>
</g>
</g>
<!-- Node2 -->
<g id="Node000002" class="node">
<title>Node2</title>
<g id="a_Node000002"><a xlink:href="classBusIO__7Semi.html#a933c66d9a1afe84102323e209a93dd31" target="_top" xlink:title=" ">
<polygon fill="white" stroke="#666666" points="679,-75 570,-75 570,-56 679,-56 679,-75"/>
<text text-anchor="middle" x="624.5" y="-63" font-family="Helvetica,sans-Serif" font-size="10.00">BusIO_7Semi::read</text>
</a>
</g>
</g>
<!-- Node1&#45;&gt;Node2 -->
<g id="edge1_Node000001_Node000002" class="edge">
<title>Node1&#45;&gt;Node2</title>
<g id="a_edge1_Node000001_Node000002"><a xlink:title=" ">
<path fill="none" stroke="#63b8ff" d="M132.72,-56.01C154.15,-59.78 179.74,-63.65 203,-65.5 329.14,-75.55 477.25,-71.99 559.74,-68.64"/>
<polygon fill="#63b8ff" stroke="#63b8ff" points="560.11,-72.13 569.96,-68.22 559.82,-65.14 560.11,-72.13"/>
</a>
</g>
</g>
<!-- Node3 -->
<g id="Node000003" class="node">
<title>Node3</title>
<g id="a_Node000003"><a xlink:href="classBusIO__7Semi.html#a0d76100d6e83237e0ee97eba7044147d" target="_top" xlink:title=" ">
<polygon fill="white" stroke="#666666" points="347.5,-56 225.5,-56 225.5,-37 347.5,-37 347.5,-56"/>
<text text-anchor="middle" x="286.5" y="-44" font-family="Helvetica,sans-Serif" font-size="10.00">BusIO_7Semi::readBit</text>
</a>
</g>
</g>
<!-- Node1&#45;&gt;Node3 -->
<g id="edge2_Node000001_Node000003" class="edge">
<title>Node1&#45;&gt;Node3</title>
<g id="a_edge2_Node000001_Node000003"><a xlink:title=" ">
<path fill="none" stroke="#63b8ff" d="M167.12,-46.5C183.11,-46.5 199.72,-46.5 215.27,-46.5"/>
<polygon fill="#63b8ff" stroke="#63b8ff" points="215.31,-50 225.31,-46.5 215.31,-43 215.31,-50"/>
</a>
</g>
</g>
<!-- Node5 -->
<g id="Node000005" class="node">
<title>Node5</title>
<g id="a_Node000005"><a xlink:href="classDevLab__ICM20948.html#aaa26fcbfea0e67d45cb1c3ae39654c55" target="_top" xlink:title=" ">
<polygon fill="white" stroke="#666666" points="370,-19 203,-19 203,0 370,0 370,-19"/>
<text text-anchor="middle" x="286.5" y="-7" font-family="Helvetica,sans-Serif" font-size="10.00">DevLab_ICM20948::selectBank</text>
</a>
</g>
</g>
<!-- Node1&#45;&gt;Node5 -->
<g id="edge5_Node000001_Node000005" class="edge">
<title>Node1&#45;&gt;Node5</title>
<g id="a_edge5_Node000001_Node000005"><a xlink:title=" ">
<path fill="none" stroke="#63b8ff" d="M136.26,-36.97C162.89,-32.07 195.53,-26.06 223.49,-20.91"/>
<polygon fill="#63b8ff" stroke="#63b8ff" points="224.36,-24.31 233.56,-19.06 223.1,-17.43 224.36,-24.31"/>
</a>
</g>
</g>
<!-- Node4 -->
<g id="Node000004" class="node">
<title>Node4</title>
<g id="a_Node000004"><a xlink:href="classBusIO__7Semi.html#aed7b0973e323495f8516a0d253089af8" target="_top" xlink:title=" ">
<polygon fill="white" stroke="#666666" points="534,-56 406,-56 406,-37 534,-37 534,-56"/>
<text text-anchor="middle" x="470" y="-44" font-family="Helvetica,sans-Serif" font-size="10.00">BusIO_7Semi::readBits</text>
</a>
</g>
</g>
<!-- Node3&#45;&gt;Node4 -->
<g id="edge3_Node000003_Node000004" class="edge">
<title>Node3&#45;&gt;Node4</title>
<g id="a_edge3_Node000003_Node000004"><a xlink:title=" ">
<path fill="none" stroke="#63b8ff" d="M347.68,-46.5C363.01,-46.5 379.64,-46.5 395.54,-46.5"/>
<polygon fill="#63b8ff" stroke="#63b8ff" points="395.87,-50 405.87,-46.5 395.87,-43 395.87,-50"/>
</a>
</g>
</g>
<!-- Node4&#45;&gt;Node2 -->
<g id="edge4_Node000004_Node000002" class="edge">
<title>Node4&#45;&gt;Node2</title>
<g id="a_edge4_Node000004_Node000002"><a xlink:title=" ">
<path fill="none" stroke="#63b8ff" d="M534.35,-54.39C542.73,-55.44 551.32,-56.51 559.7,-57.55"/>
<polygon fill="#63b8ff" stroke="#63b8ff" points="559.45,-61.05 569.8,-58.81 560.31,-54.1 559.45,-61.05"/>
</a>
</g>
</g>
<!-- Node6 -->
<g id="Node000006" class="node">
<title>Node6</title>
<g id="a_Node000006"><a xlink:href="classBusIO__7Semi.html#aa633479356af692cb9ea334771b7c0c5" target="_top" xlink:title=" ">
<polygon fill="white" stroke="#666666" points="526,-19 414,-19 414,0 526,0 526,-19"/>
<text text-anchor="middle" x="470" y="-7" font-family="Helvetica,sans-Serif" font-size="10.00">BusIO_7Semi::write</text>
</a>
</g>
</g>
<!-- Node5&#45;&gt;Node6 -->
<g id="edge6_Node000005_Node000006" class="edge">
<title>Node5&#45;&gt;Node6</title>
<g id="a_edge6_Node000005_Node000006"><a xlink:title=" ">
<path fill="none" stroke="#63b8ff" d="M370.02,-9.5C381.3,-9.5 392.76,-9.5 403.68,-9.5"/>
<polygon fill="#63b8ff" stroke="#63b8ff" points="403.96,-13 413.96,-9.5 403.96,-6 403.96,-13"/>
</a>
</g>
</g>
</g>
</svg>
