<?xml version="1.0" encoding="UTF-8" standalone="no"?>
<!DOCTYPE svg PUBLIC "-//W3C//DTD SVG 1.1//EN"
 "http://www.w3.org/Graphics/SVG/1.1/DTD/svg11.dtd">
<!-- Generated by graphviz version 2.43.0 (0)
 -->
<!-- Title: DevLab_ICM20948::beginI2C Pages: 1 -->
<svg width="727pt" height="218pt"
 viewBox="0.00 0.00 727.00 218.27" xmlns="http://www.w3.org/2000/svg" xmlns:xlink="http://www.w3.org/1999/xlink">
<g id="graph0" class="graph" transform="scale(1 1) rotate(0) translate(4 214.27)">
<title>DevLab_ICM20948::beginI2C</title>
<!-- Node1 -->
<g id="Node000001" class="node">
<title>Node1</title>
<g id="a_Node000001"><a xlink:title=" ">
<polygon fill="#999999" stroke="#666666" points="156,-112 0,-112 0,-93 156,-93 156,-112"/>
<text text-anchor="middle" x="78" y="-100" font-family="Helvetica,sans-Serif" font-size="10.00">DevLab_ICM20948::beginI2C</text>
</a>
</g>
</g>
<!-- Node2 -->
<g id="Node000002" class="node">
<title>Node2</title>
<g id="a_Node000002"><a xlink:href="classDevLab__ICM20948.html#a31460c48549b1d3081e253706f8b15e6" target="_top" xlink:title=" ">
<polygon fill="white" stroke="#666666" points="363.5,-179.5 196.5,-179.5 196.5,-149.5 363.5,-149.5 363.5,-179.5"/>
<text text-anchor="start" x="204.5" y="-167.5" font-family="Helvetica,sans-Serif" font-size="10.00">DevLab_ICM20948::applyBasic</text>
<text text-anchor="middle" x="280" y="-156.5" font-family="Helvetica,sans-Serif" font-size="10.00">Defaults</text>
</a>
</g>
</g>
<!-- Node1&#45;&gt;Node2 -->
<g id="edge1_Node000001_Node000002" class="edge">
<title>Node1&#45;&gt;Node2</title>
<g id="a_edge1_Node000001_Node000002"><a xlink:title=" ">
<path fill="none" stroke="#63b8ff" d="M109.81,-112.05C139.16,-121.15 184.1,-135.08 220.28,-146.3"/>
<polygon fill="#63b8ff" stroke="#63b8ff" points="219.65,-149.77 230.24,-149.38 221.72,-143.08 219.65,-149.77"/>
</a>
</g>
</g>
<!-- Node3 -->
<g id="Node000003" class="node">
<title>Node3</title>
<g id="a_Node000003"><a xlink:href="classDevLab__ICM20948.html#aaa26fcbfea0e67d45cb1c3ae39654c55" target="_top" xlink:title=" ">
<polygon fill="white" stroke="#666666" points="571,-133 404,-133 404,-114 571,-114 571,-133"/>
<text text-anchor="middle" x="487.5" y="-121" font-family="Helvetica,sans-Serif" font-size="10.00">DevLab_ICM20948::selectBank</text>
</a>
</g>
</g>
<!-- Node1&#45;&gt;Node3 -->
<g id="edge9_Node000001_Node000003" class="edge">
<title>Node1&#45;&gt;Node3</title>
<g id="a_edge9_Node000001_Node000003"><a xlink:title=" ">
<path fill="none" stroke="#63b8ff" d="M156.13,-106.47C223.53,-109.95 321.57,-115 393.34,-118.7"/>
<polygon fill="#63b8ff" stroke="#63b8ff" points="393.57,-122.22 403.74,-119.23 393.93,-115.22 393.57,-122.22"/>
</a>
</g>
</g>
<!-- Node4 -->
<g id="Node000004" class="node">
<title>Node4</title>
<g id="a_Node000004"><a xlink:href="classBusIO__7Semi.html#aa633479356af692cb9ea334771b7c0c5" target="_top" xlink:title=" ">
<polygon fill="white" stroke="#666666" points="719,-153 607,-153 607,-134 719,-134 719,-153"/>
<text text-anchor="middle" x="663" y="-141" font-family="Helvetica,sans-Serif" font-size="10.00">BusIO_7Semi::write</text>
</a>
</g>
</g>
<!-- Node1&#45;&gt;Node4 -->
<g id="edge10_Node000001_Node000004" class="edge">
<title>Node1&#45;&gt;Node4</title>
<g id="a_edge10_Node000001_Node000004"><a xlink:title=" ">
<path fill="none" stroke="#63b8ff" d="M87.43,-112.2C104.73,-131.28 146.45,-173.14 192,-188.5 347.68,-241 547.68,-183.71 627.18,-156.36"/>
<polygon fill="#63b8ff" stroke="#63b8ff" points="628.42,-159.64 636.71,-153.03 626.11,-153.03 628.42,-159.64"/>
</a>
</g>
</g>
<!-- Node5 -->
<g id="Node000005" class="node">
<title>Node5</title>
<g id="a_Node000005"><a xlink:href="classI2C__Interface.html#ae8147c4d6e54fe2622825d7e17493152" target="_top" xlink:title=" ">
<polygon fill="white" stroke="#666666" points="345,-19 215,-19 215,0 345,0 345,-19"/>
<text text-anchor="middle" x="280" y="-7" font-family="Helvetica,sans-Serif" font-size="10.00">I2C_Interface::beginI2C</text>
</a>
</g>
</g>
<!-- Node1&#45;&gt;Node5 -->
<g id="edge5_Node000001_Node000005" class="edge">
<title>Node1&#45;&gt;Node5</title>
<g id="a_edge5_Node000001_Node000005"><a xlink:title=" ">
<path fill="none" stroke="#63b8ff" d="M90.34,-92.78C109.8,-76.65 151.36,-44.44 192,-27.5 197.07,-25.39 202.42,-23.51 207.86,-21.85"/>
<polygon fill="#63b8ff" stroke="#63b8ff" points="209.04,-25.15 217.73,-19.09 207.16,-18.41 209.04,-25.15"/>
</a>
</g>
</g>
<!-- Node6 -->
<g id="Node000006" class="node">
<title>Node6</title>
<g id="a_Node000006"><a xlink:href="classDevLab__ICM20948.html#a8bef7eafb3b67eb736f491d0df453b9e" target="_top" xlink:title=" ">
<polygon fill="white" stroke="#666666" points="368,-56 192,-56 192,-37 368,-37 368,-56"/>
<text text-anchor="middle" x="280" y="-44" font-family="Helvetica,sans-Serif" font-size="10.00">DevLab_ICM20948::readWhoAmI</text>
</a>
</g>
</g>
<!-- Node1&#45;&gt;Node6 -->
<g id="edge6_Node000001_Node000006" class="edge">
<title>Node1&#45;&gt;Node6</title>
<g id="a_edge6_Node000001_Node000006"><a xlink:title=" ">
<path fill="none" stroke="#63b8ff" d="M104.76,-92.85C127.49,-84.57 161.63,-72.72 192,-64.5 200.33,-62.25 209.17,-60.12 217.91,-58.17"/>
<polygon fill="#63b8ff" stroke="#63b8ff" points="218.66,-61.59 227.69,-56.05 217.18,-54.75 218.66,-61.59"/>
</a>
</g>
</g>
<!-- Node8 -->
<g id="Node000008" class="node">
<title>Node8</title>
<g id="a_Node000008"><a xlink:href="classBusIO__7Semi.html#ac7b3d1c425f7187abbe1bbec64d9ccea" target="_top" xlink:title=" ">
<polygon fill="white" stroke="#666666" points="342.5,-93 217.5,-93 217.5,-74 342.5,-74 342.5,-93"/>
<text text-anchor="middle" x="280" y="-81" font-family="Helvetica,sans-Serif" font-size="10.00">BusIO_7Semi::writeBit</text>
</a>
</g>
</g>
<!-- Node1&#45;&gt;Node8 -->
<g id="edge11_Node000001_Node000008" class="edge">
<title>Node1&#45;&gt;Node8</title>
<g id="a_edge11_Node000001_Node000008"><a xlink:title=" ">
<path fill="none" stroke="#63b8ff" d="M156.04,-95.18C172.81,-93.59 190.48,-91.91 207.05,-90.34"/>
<polygon fill="#63b8ff" stroke="#63b8ff" points="207.57,-93.8 217.2,-89.37 206.91,-86.83 207.57,-93.8"/>
</a>
</g>
</g>
<!-- Node2&#45;&gt;Node3 -->
<g id="edge2_Node000002_Node000003" class="edge">
<title>Node2&#45;&gt;Node3</title>
<g id="a_edge2_Node000002_Node000003"><a xlink:title=" ">
<path fill="none" stroke="#63b8ff" d="M356.35,-149.47C380.19,-144.71 406.16,-139.53 428.58,-135.06"/>
<polygon fill="#63b8ff" stroke="#63b8ff" points="429.49,-138.44 438.61,-133.05 428.12,-131.58 429.49,-138.44"/>
</a>
</g>
</g>
<!-- Node2&#45;&gt;Node4 -->
<g id="edge4_Node000002_Node000004" class="edge">
<title>Node2&#45;&gt;Node4</title>
<g id="a_edge4_Node000002_Node000004"><a xlink:title=" ">
<path fill="none" stroke="#63b8ff" d="M363.67,-159.94C433.58,-156.09 532.37,-150.65 596.8,-147.09"/>
<polygon fill="#63b8ff" stroke="#63b8ff" points="597.04,-150.59 606.83,-146.54 596.66,-143.6 597.04,-150.59"/>
</a>
</g>
</g>
<!-- Node3&#45;&gt;Node4 -->
<g id="edge3_Node000003_Node000004" class="edge">
<title>Node3&#45;&gt;Node4</title>
<g id="a_edge3_Node000003_Node000004"><a xlink:title=" ">
<path fill="none" stroke="#63b8ff" d="M570.93,-133C579.51,-133.99 588.14,-134.99 596.5,-135.95"/>
<polygon fill="#63b8ff" stroke="#63b8ff" points="596.19,-139.44 606.53,-137.11 596.99,-132.48 596.19,-139.44"/>
</a>
</g>
</g>
<!-- Node6&#45;&gt;Node3 -->
<g id="edge8_Node000006_Node000003" class="edge">
<title>Node6&#45;&gt;Node3</title>
<g id="a_edge8_Node000006_Node000003"><a xlink:title=" ">
<path fill="none" stroke="#63b8ff" d="M348.57,-56.06C355.35,-58.31 361.96,-61.08 368,-64.5 388.53,-76.11 383.67,-91.54 404,-103.5 408.49,-106.14 413.31,-108.43 418.29,-110.42"/>
<polygon fill="#63b8ff" stroke="#63b8ff" points="417.41,-113.83 428.01,-113.89 419.77,-107.23 417.41,-113.83"/>
</a>
</g>
</g>
<!-- Node7 -->
<g id="Node000007" class="node">
<title>Node7</title>
<g id="a_Node000007"><a xlink:href="classBusIO__7Semi.html#a933c66d9a1afe84102323e209a93dd31" target="_top" xlink:title=" ">
<polygon fill="white" stroke="#666666" points="717.5,-75 608.5,-75 608.5,-56 717.5,-56 717.5,-75"/>
<text text-anchor="middle" x="663" y="-63" font-family="Helvetica,sans-Serif" font-size="10.00">BusIO_7Semi::read</text>
</a>
</g>
</g>
<!-- Node6&#45;&gt;Node7 -->
<g id="edge7_Node000006_Node000007" class="edge">
<title>Node6&#45;&gt;Node7</title>
<g id="a_edge7_Node000006_Node000007"><a xlink:title=" ">
<path fill="none" stroke="#63b8ff" d="M368.41,-50.86C438.54,-54.36 535.35,-59.18 598.31,-62.32"/>
<polygon fill="#63b8ff" stroke="#63b8ff" points="598.34,-65.83 608.5,-62.83 598.69,-58.84 598.34,-65.83"/>
</a>
</g>
</g>
<!-- Node9 -->
<g id="Node000009" class="node">
<title>Node9</title>
<g id="a_Node000009"><a xlink:href="classBusIO__7Semi.html#a855c7388d4118e632c84c7f8e2e3ddc2" target="_top" xlink:title=" ">
<polygon fill="white" stroke="#666666" points="553,-94 422,-94 422,-75 553,-75 553,-94"/>
<text text-anchor="middle" x="487.5" y="-82" font-family="Helvetica,sans-Serif" font-size="10.00">BusIO_7Semi::writeBits</text>
</a>
</g>
</g>
<!-- Node8&#45;&gt;Node9 -->
<g id="edge12_Node000008_Node000009" class="edge">
<title>Node8&#45;&gt;Node9</title>
<g id="a_edge12_Node000008_Node000009"><a xlink:title=" ">
<path fill="none" stroke="#63b8ff" d="M342.66,-83.8C364.29,-83.91 388.83,-84.02 411.44,-84.13"/>
<polygon fill="#63b8ff" stroke="#63b8ff" points="411.66,-87.64 421.67,-84.18 411.69,-80.64 411.66,-87.64"/>
</a>
</g>
</g>
<!-- Node9&#45;&gt;Node4 -->
<g id="edge14_Node000009_Node000004" class="edge">
<title>Node9&#45;&gt;Node4</title>
<g id="a_edge14_Node000009_Node000004"><a xlink:title=" ">
<path fill="none" stroke="#63b8ff" d="M530.82,-94.01C543.82,-97.27 558.1,-101.19 571,-105.5 591.83,-112.46 614.62,-121.98 632.19,-129.75"/>
<polygon fill="#63b8ff" stroke="#63b8ff" points="630.81,-132.97 641.37,-133.86 633.67,-126.58 630.81,-132.97"/>
</a>
</g>
</g>
<!-- Node9&#45;&gt;Node7 -->
<g id="edge13_Node000009_Node000007" class="edge">
<title>Node9&#45;&gt;Node7</title>
<g id="a_edge13_Node000009_Node000007"><a xlink:title=" ">
<path fill="none" stroke="#63b8ff" d="M553.1,-77.43C567.9,-75.8 583.62,-74.08 598.37,-72.47"/>
<polygon fill="#63b8ff" stroke="#63b8ff" points="598.85,-75.94 608.41,-71.37 598.08,-68.98 598.85,-75.94"/>
</a>
</g>
</g>
</g>
</svg>
