<?xml version="1.0" encoding="UTF-8" standalone="no"?>
<!DOCTYPE svg PUBLIC "-//W3C//DTD SVG 1.1//EN"
 "http://www.w3.org/Graphics/SVG/1.1/DTD/svg11.dtd">
<!-- Generated by graphviz version 2.43.0 (0)
 -->
<!-- Title: DevLab_ICM20948::setDLPF Pages: 1 -->
<svg width="673pt" height="77pt"
 viewBox="0.00 0.00 673.00 76.94" xmlns="http://www.w3.org/2000/svg" xmlns:xlink="http://www.w3.org/1999/xlink">
<g id="graph0" class="graph" transform="scale(1 1) rotate(0) translate(4 72.94)">
<title>DevLab_ICM20948::setDLPF</title>
<!-- Node1 -->
<g id="Node000001" class="node">
<title>Node1</title>
<g id="a_Node000001"><a xlink:title=" ">
<polygon fill="#999999" stroke="#666666" points="153,-31.94 0,-31.94 0,-12.94 153,-12.94 153,-31.94"/>
<text text-anchor="middle" x="76.5" y="-19.94" font-family="Helvetica,sans-Serif" font-size="10.00">DevLab_ICM20948::setDLPF</text>
</a>
</g>
</g>
<!-- Node2 -->
<g id="Node000002" class="node">
<title>Node2</title>
<g id="a_Node000002"><a xlink:href="classDevLab__ICM20948.html#aaa26fcbfea0e67d45cb1c3ae39654c55" target="_top" xlink:title=" ">
<polygon fill="white" stroke="#666666" points="517,-68.94 350,-68.94 350,-49.94 517,-49.94 517,-68.94"/>
<text text-anchor="middle" x="433.5" y="-56.94" font-family="Helvetica,sans-Serif" font-size="10.00">DevLab_ICM20948::selectBank</text>
</a>
</g>
</g>
<!-- Node1&#45;&gt;Node2 -->
<g id="edge1_Node000001_Node000002" class="edge">
<title>Node1&#45;&gt;Node2</title>
<g id="a_edge1_Node000001_Node000002"><a xlink:title=" ">
<path fill="none" stroke="#63b8ff" d="M130.97,-31.99C149.32,-35.02 170.02,-38.18 189,-40.44 238.61,-46.37 294.15,-50.87 339.63,-54"/>
<polygon fill="#63b8ff" stroke="#63b8ff" points="339.56,-57.5 349.78,-54.68 340.04,-50.52 339.56,-57.5"/>
</a>
</g>
</g>
<!-- Node4 -->
<g id="Node000004" class="node">
<title>Node4</title>
<g id="a_Node000004"><a xlink:href="classBusIO__7Semi.html#ac7b3d1c425f7187abbe1bbec64d9ccea" target="_top" xlink:title=" ">
<polygon fill="white" stroke="#666666" points="314,-31.94 189,-31.94 189,-12.94 314,-12.94 314,-31.94"/>
<text text-anchor="middle" x="251.5" y="-19.94" font-family="Helvetica,sans-Serif" font-size="10.00">BusIO_7Semi::writeBit</text>
</a>
</g>
</g>
<!-- Node1&#45;&gt;Node4 -->
<g id="edge3_Node000001_Node000004" class="edge">
<title>Node1&#45;&gt;Node4</title>
<g id="a_edge3_Node000001_Node000004"><a xlink:title=" ">
<path fill="none" stroke="#63b8ff" d="M153.13,-22.44C161.6,-22.44 170.21,-22.44 178.62,-22.44"/>
<polygon fill="#63b8ff" stroke="#63b8ff" points="178.78,-25.94 188.78,-22.44 178.78,-18.94 178.78,-25.94"/>
</a>
</g>
</g>
<!-- Node5 -->
<g id="Node000005" class="node">
<title>Node5</title>
<g id="a_Node000005"><a xlink:href="classBusIO__7Semi.html#a855c7388d4118e632c84c7f8e2e3ddc2" target="_top" xlink:title=" ">
<polygon fill="white" stroke="#666666" points="499,-31.94 368,-31.94 368,-12.94 499,-12.94 499,-31.94"/>
<text text-anchor="middle" x="433.5" y="-19.94" font-family="Helvetica,sans-Serif" font-size="10.00">BusIO_7Semi::writeBits</text>
</a>
</g>
</g>
<!-- Node1&#45;&gt;Node5 -->
<g id="edge7_Node000001_Node000005" class="edge">
<title>Node1&#45;&gt;Node5</title>
<g id="a_edge7_Node000001_Node000005"><a xlink:title=" ">
<path fill="none" stroke="#63b8ff" d="M122.85,-12.93C143,-9.17 167.09,-5.3 189,-3.44 244.36,1.24 258.62,0.97 314,-3.44 333.72,-5.02 355.11,-8.03 374.22,-11.21"/>
<polygon fill="#63b8ff" stroke="#63b8ff" points="373.83,-14.7 384.28,-12.93 375.01,-7.8 373.83,-14.7"/>
</a>
</g>
</g>
<!-- Node3 -->
<g id="Node000003" class="node">
<title>Node3</title>
<g id="a_Node000003"><a xlink:href="classBusIO__7Semi.html#aa633479356af692cb9ea334771b7c0c5" target="_top" xlink:title=" ">
<polygon fill="white" stroke="#666666" points="665,-68.94 553,-68.94 553,-49.94 665,-49.94 665,-68.94"/>
<text text-anchor="middle" x="609" y="-56.94" font-family="Helvetica,sans-Serif" font-size="10.00">BusIO_7Semi::write</text>
</a>
</g>
</g>
<!-- Node2&#45;&gt;Node3 -->
<g id="edge2_Node000002_Node000003" class="edge">
<title>Node2&#45;&gt;Node3</title>
<g id="a_edge2_Node000002_Node000003"><a xlink:title=" ">
<path fill="none" stroke="#63b8ff" d="M517.18,-59.44C525.75,-59.44 534.36,-59.44 542.7,-59.44"/>
<polygon fill="#63b8ff" stroke="#63b8ff" points="542.7,-62.94 552.7,-59.44 542.7,-55.94 542.7,-62.94"/>
</a>
</g>
</g>
<!-- Node4&#45;&gt;Node5 -->
<g id="edge4_Node000004_Node000005" class="edge">
<title>Node4&#45;&gt;Node5</title>
<g id="a_edge4_Node000004_Node000005"><a xlink:title=" ">
<path fill="none" stroke="#63b8ff" d="M314.19,-22.44C328.12,-22.44 343.04,-22.44 357.45,-22.44"/>
<polygon fill="#63b8ff" stroke="#63b8ff" points="357.82,-25.94 367.82,-22.44 357.82,-18.94 357.82,-25.94"/>
</a>
</g>
</g>
<!-- Node5&#45;&gt;Node3 -->
<g id="edge6_Node000005_Node000003" class="edge">
<title>Node5&#45;&gt;Node3</title>
<g id="a_edge6_Node000005_Node000003"><a xlink:title=" ">
<path fill="none" stroke="#63b8ff" d="M479.18,-31.97C501.76,-36.79 529.35,-42.67 553.2,-47.76"/>
<polygon fill="#63b8ff" stroke="#63b8ff" points="552.66,-51.22 563.17,-49.88 554.12,-44.38 552.66,-51.22"/>
</a>
</g>
</g>
<!-- Node6 -->
<g id="Node000006" class="node">
<title>Node6</title>
<g id="a_Node000006"><a xlink:href="classBusIO__7Semi.html#a933c66d9a1afe84102323e209a93dd31" target="_top" xlink:title=" ">
<polygon fill="white" stroke="#666666" points="663.5,-31.94 554.5,-31.94 554.5,-12.94 663.5,-12.94 663.5,-31.94"/>
<text text-anchor="middle" x="609" y="-19.94" font-family="Helvetica,sans-Serif" font-size="10.00">BusIO_7Semi::read</text>
</a>
</g>
</g>
<!-- Node5&#45;&gt;Node6 -->
<g id="edge5_Node000005_Node000006" class="edge">
<title>Node5&#45;&gt;Node6</title>
<g id="a_edge5_Node000005_Node000006"><a xlink:title=" ">
<path fill="none" stroke="#63b8ff" d="M499.1,-22.44C513.9,-22.44 529.62,-22.44 544.37,-22.44"/>
<polygon fill="#63b8ff" stroke="#63b8ff" points="544.41,-25.94 554.41,-22.44 544.41,-18.94 544.41,-25.94"/>
</a>
</g>
</g>
</g>
</svg>
