<?xml version="1.0" encoding="UTF-8" standalone="no"?>
<!DOCTYPE svg PUBLIC "-//W3C//DTD SVG 1.1//EN"
 "http://www.w3.org/Graphics/SVG/1.1/DTD/svg11.dtd">
<!-- Generated by graphviz version 2.43.0 (0)
 -->
<!-- Title: DevLab_ICM20948::setAccelDivRate Pages: 1 -->
<svg width="282pt" height="101pt"
 viewBox="0.00 0.00 282.00 101.00" xmlns="http://www.w3.org/2000/svg" xmlns:xlink="http://www.w3.org/1999/xlink">
<g id="graph0" class="graph" transform="scale(1 1) rotate(0) translate(4 97)">
<title>DevLab_ICM20948::setAccelDivRate</title>
<!-- Node1 -->
<g id="Node000001" class="node">
<title>Node1</title>
<g id="a_Node000001"><a xlink:title=" ">
<polygon fill="#999999" stroke="#666666" points="274,-61.5 119,-61.5 119,-31.5 274,-31.5 274,-61.5"/>
<text text-anchor="start" x="127" y="-49.5" font-family="Helvetica,sans-Serif" font-size="10.00">DevLab_ICM20948::setAccel</text>
<text text-anchor="middle" x="196.5" y="-38.5" font-family="Helvetica,sans-Serif" font-size="10.00">DivRate</text>
</a>
</g>
</g>
<!-- Node2 -->
<g id="Node000002" class="node">
<title>Node2</title>
<g id="a_Node000002"><a xlink:href="test_8ino.html#a327f4fbd9f22daba4f8a6f3f1c13f729" target="_top" xlink:title="Apply one accelerometer full&#45;scale and DLPF configuration.">
<polygon fill="white" stroke="#666666" points="83,-93 0,-93 0,-74 83,-74 83,-93"/>
<text text-anchor="middle" x="41.5" y="-81" font-family="Helvetica,sans-Serif" font-size="10.00">applySettings</text>
</a>
</g>
</g>
<!-- Node1&#45;&gt;Node2 -->
<g id="edge1_Node000001_Node000002" class="edge">
<title>Node1&#45;&gt;Node2</title>
<g id="a_edge1_Node000001_Node000002"><a xlink:title=" ">
<path fill="none" stroke="#63b8ff" d="M123.41,-63.93C109.09,-67.4 94.57,-70.91 81.85,-73.98"/>
<polygon fill="#63b8ff" stroke="#63b8ff" points="124.37,-67.3 133.27,-61.55 122.73,-60.5 124.37,-67.3"/>
</a>
</g>
</g>
<!-- Node3 -->
<g id="Node000003" class="node">
<title>Node3</title>
<g id="a_Node000003"><a xlink:href="test2_8ino.html#a73c1d2766fc4db839bb9adf5cab93c80" target="_top" xlink:title="Apply one accelerometer full&#45;scale, DLPF, and averaging configuration.">
<polygon fill="white" stroke="#666666" points="83,-56 0,-56 0,-37 83,-37 83,-56"/>
<text text-anchor="middle" x="41.5" y="-44" font-family="Helvetica,sans-Serif" font-size="10.00">applySettings</text>
</a>
</g>
</g>
<!-- Node1&#45;&gt;Node3 -->
<g id="edge2_Node000001_Node000003" class="edge">
<title>Node1&#45;&gt;Node3</title>
<g id="a_edge2_Node000001_Node000003"><a xlink:title=" ">
<path fill="none" stroke="#63b8ff" d="M108.29,-46.5C99.59,-46.5 91.08,-46.5 83.23,-46.5"/>
<polygon fill="#63b8ff" stroke="#63b8ff" points="108.55,-50 118.55,-46.5 108.55,-43 108.55,-50"/>
</a>
</g>
</g>
<!-- Node4 -->
<g id="Node000004" class="node">
<title>Node4</title>
<g id="a_Node000004"><a xlink:href="spi__accel_8ino.html#a4fc01d736fe50cf5b977f755b675f11d" target="_top" xlink:title="Configure the IMU for accelerometer&#45;only operation over SPI.">
<polygon fill="white" stroke="#666666" points="63.5,-19 19.5,-19 19.5,0 63.5,0 63.5,-19"/>
<text text-anchor="middle" x="41.5" y="-7" font-family="Helvetica,sans-Serif" font-size="10.00">setup</text>
</a>
</g>
</g>
<!-- Node1&#45;&gt;Node4 -->
<g id="edge3_Node000001_Node000004" class="edge">
<title>Node1&#45;&gt;Node4</title>
<g id="a_edge3_Node000001_Node000004"><a xlink:title=" ">
<path fill="none" stroke="#63b8ff" d="M123.3,-29.04C101.46,-23.76 79.16,-18.37 63.53,-14.59"/>
<polygon fill="#63b8ff" stroke="#63b8ff" points="122.73,-32.5 133.27,-31.45 124.37,-25.7 122.73,-32.5"/>
</a>
</g>
</g>
</g>
</svg>
