<?xml version="1.0" encoding="UTF-8" standalone="no"?>
<!DOCTYPE svg PUBLIC "-//W3C//DTD SVG 1.1//EN"
 "http://www.w3.org/Graphics/SVG/1.1/DTD/svg11.dtd">
<!-- Generated by graphviz version 2.43.0 (0)
 -->
<!-- Title: DevLab_ICM20948::getLowPower Pages: 1 -->
<svg width="699pt" height="64pt"
 viewBox="0.00 0.00 699.00 64.00" xmlns="http://www.w3.org/2000/svg" xmlns:xlink="http://www.w3.org/1999/xlink">
<g id="graph0" class="graph" transform="scale(1 1) rotate(0) translate(4 60)">
<title>DevLab_ICM20948::getLowPower</title>
<!-- Node1 -->
<g id="Node000001" class="node">
<title>Node1</title>
<g id="a_Node000001"><a xlink:title=" ">
<polygon fill="#999999" stroke="#666666" points="179,-37 0,-37 0,-18 179,-18 179,-37"/>
<text text-anchor="middle" x="89.5" y="-25" font-family="Helvetica,sans-Serif" font-size="10.00">DevLab_ICM20948::getLowPower</text>
</a>
</g>
</g>
<!-- Node2 -->
<g id="Node000002" class="node">
<title>Node2</title>
<g id="a_Node000002"><a xlink:href="classBusIO__7Semi.html#a0d76100d6e83237e0ee97eba7044147d" target="_top" xlink:title=" ">
<polygon fill="white" stroke="#666666" points="359.5,-56 237.5,-56 237.5,-37 359.5,-37 359.5,-56"/>
<text text-anchor="middle" x="298.5" y="-44" font-family="Helvetica,sans-Serif" font-size="10.00">BusIO_7Semi::readBit</text>
</a>
</g>
</g>
<!-- Node1&#45;&gt;Node2 -->
<g id="edge1_Node000001_Node000002" class="edge">
<title>Node1&#45;&gt;Node2</title>
<g id="a_edge1_Node000001_Node000002"><a xlink:title=" ">
<path fill="none" stroke="#63b8ff" d="M179.19,-35.64C195.3,-37.12 211.9,-38.64 227.39,-40.06"/>
<polygon fill="#63b8ff" stroke="#63b8ff" points="227.11,-43.55 237.39,-40.98 227.75,-36.58 227.11,-43.55"/>
</a>
</g>
</g>
<!-- Node5 -->
<g id="Node000005" class="node">
<title>Node5</title>
<g id="a_Node000005"><a xlink:href="classDevLab__ICM20948.html#aaa26fcbfea0e67d45cb1c3ae39654c55" target="_top" xlink:title=" ">
<polygon fill="white" stroke="#666666" points="382,-19 215,-19 215,0 382,0 382,-19"/>
<text text-anchor="middle" x="298.5" y="-7" font-family="Helvetica,sans-Serif" font-size="10.00">DevLab_ICM20948::selectBank</text>
</a>
</g>
</g>
<!-- Node1&#45;&gt;Node5 -->
<g id="edge4_Node000001_Node000005" class="edge">
<title>Node1&#45;&gt;Node5</title>
<g id="a_edge4_Node000001_Node000005"><a xlink:title=" ">
<path fill="none" stroke="#63b8ff" d="M179.19,-19.79C187.71,-19.05 196.36,-18.29 204.91,-17.55"/>
<polygon fill="#63b8ff" stroke="#63b8ff" points="205.24,-21.04 214.9,-16.68 204.63,-14.06 205.24,-21.04"/>
</a>
</g>
</g>
<!-- Node3 -->
<g id="Node000003" class="node">
<title>Node3</title>
<g id="a_Node000003"><a xlink:href="classBusIO__7Semi.html#aed7b0973e323495f8516a0d253089af8" target="_top" xlink:title=" ">
<polygon fill="white" stroke="#666666" points="546,-56 418,-56 418,-37 546,-37 546,-56"/>
<text text-anchor="middle" x="482" y="-44" font-family="Helvetica,sans-Serif" font-size="10.00">BusIO_7Semi::readBits</text>
</a>
</g>
</g>
<!-- Node2&#45;&gt;Node3 -->
<g id="edge2_Node000002_Node000003" class="edge">
<title>Node2&#45;&gt;Node3</title>
<g id="a_edge2_Node000002_Node000003"><a xlink:title=" ">
<path fill="none" stroke="#63b8ff" d="M359.68,-46.5C375.01,-46.5 391.64,-46.5 407.54,-46.5"/>
<polygon fill="#63b8ff" stroke="#63b8ff" points="407.87,-50 417.87,-46.5 407.87,-43 407.87,-50"/>
</a>
</g>
</g>
<!-- Node4 -->
<g id="Node000004" class="node">
<title>Node4</title>
<g id="a_Node000004"><a xlink:href="classBusIO__7Semi.html#a933c66d9a1afe84102323e209a93dd31" target="_top" xlink:title=" ">
<polygon fill="white" stroke="#666666" points="691,-56 582,-56 582,-37 691,-37 691,-56"/>
<text text-anchor="middle" x="636.5" y="-44" font-family="Helvetica,sans-Serif" font-size="10.00">BusIO_7Semi::read</text>
</a>
</g>
</g>
<!-- Node3&#45;&gt;Node4 -->
<g id="edge3_Node000003_Node000004" class="edge">
<title>Node3&#45;&gt;Node4</title>
<g id="a_edge3_Node000003_Node000004"><a xlink:title=" ">
<path fill="none" stroke="#63b8ff" d="M546.35,-46.5C554.73,-46.5 563.32,-46.5 571.7,-46.5"/>
<polygon fill="#63b8ff" stroke="#63b8ff" points="571.8,-50 581.8,-46.5 571.8,-43 571.8,-50"/>
</a>
</g>
</g>
<!-- Node6 -->
<g id="Node000006" class="node">
<title>Node6</title>
<g id="a_Node000006"><a xlink:href="classBusIO__7Semi.html#aa633479356af692cb9ea334771b7c0c5" target="_top" xlink:title=" ">
<polygon fill="white" stroke="#666666" points="538,-19 426,-19 426,0 538,0 538,-19"/>
<text text-anchor="middle" x="482" y="-7" font-family="Helvetica,sans-Serif" font-size="10.00">BusIO_7Semi::write</text>
</a>
</g>
</g>
<!-- Node5&#45;&gt;Node6 -->
<g id="edge5_Node000005_Node000006" class="edge">
<title>Node5&#45;&gt;Node6</title>
<g id="a_edge5_Node000005_Node000006"><a xlink:title=" ">
<path fill="none" stroke="#63b8ff" d="M382.02,-9.5C393.3,-9.5 404.76,-9.5 415.68,-9.5"/>
<polygon fill="#63b8ff" stroke="#63b8ff" points="415.96,-13 425.96,-9.5 415.96,-6 415.96,-13"/>
</a>
</g>
</g>
</g>
</svg>
