<?xml version="1.0" encoding="UTF-8" standalone="no"?>
<!DOCTYPE svg PUBLIC "-//W3C//DTD SVG 1.1//EN"
 "http://www.w3.org/Graphics/SVG/1.1/DTD/svg11.dtd">
<!-- Generated by graphviz version 2.43.0 (0)
 -->
<!-- Title: DevLab_ICM20948::auxReadResponse Pages: 1 -->
<svg width="515pt" height="83pt"
 viewBox="0.00 0.00 515.00 83.00" xmlns="http://www.w3.org/2000/svg" xmlns:xlink="http://www.w3.org/1999/xlink">
<g id="graph0" class="graph" transform="scale(1 1) rotate(0) translate(4 79)">
<title>DevLab_ICM20948::auxReadResponse</title>
<!-- Node1 -->
<g id="Node000001" class="node">
<title>Node1</title>
<g id="a_Node000001"><a xlink:title=" ">
<polygon fill="#999999" stroke="#666666" points="156,-43.5 0,-43.5 0,-13.5 156,-13.5 156,-43.5"/>
<text text-anchor="start" x="8" y="-31.5" font-family="Helvetica,sans-Serif" font-size="10.00">DevLab_ICM20948::auxRead</text>
<text text-anchor="middle" x="78" y="-20.5" font-family="Helvetica,sans-Serif" font-size="10.00">Response</text>
</a>
</g>
</g>
<!-- Node2 -->
<g id="Node000002" class="node">
<title>Node2</title>
<g id="a_Node000002"><a xlink:href="classBusIO__7Semi.html#a933c66d9a1afe84102323e209a93dd31" target="_top" xlink:title=" ">
<polygon fill="white" stroke="#666666" points="330,-75 221,-75 221,-56 330,-56 330,-75"/>
<text text-anchor="middle" x="275.5" y="-63" font-family="Helvetica,sans-Serif" font-size="10.00">BusIO_7Semi::read</text>
</a>
</g>
</g>
<!-- Node1&#45;&gt;Node2 -->
<g id="edge1_Node000001_Node000002" class="edge">
<title>Node1&#45;&gt;Node2</title>
<g id="a_edge1_Node000001_Node000002"><a xlink:title=" ">
<path fill="none" stroke="#63b8ff" d="M156.27,-43.12C175.54,-46.77 195.92,-50.63 214.24,-54.09"/>
<polygon fill="#63b8ff" stroke="#63b8ff" points="213.7,-57.56 224.18,-55.98 215,-50.68 213.7,-57.56"/>
</a>
</g>
</g>
<!-- Node3 -->
<g id="Node000003" class="node">
<title>Node3</title>
<g id="a_Node000003"><a xlink:href="classDevLab__ICM20948.html#aaa26fcbfea0e67d45cb1c3ae39654c55" target="_top" xlink:title=" ">
<polygon fill="white" stroke="#666666" points="359,-38 192,-38 192,-19 359,-19 359,-38"/>
<text text-anchor="middle" x="275.5" y="-26" font-family="Helvetica,sans-Serif" font-size="10.00">DevLab_ICM20948::selectBank</text>
</a>
</g>
</g>
<!-- Node1&#45;&gt;Node3 -->
<g id="edge2_Node000001_Node000003" class="edge">
<title>Node1&#45;&gt;Node3</title>
<g id="a_edge2_Node000001_Node000003"><a xlink:title=" ">
<path fill="none" stroke="#63b8ff" d="M156.27,-28.5C164.54,-28.5 173.01,-28.5 181.44,-28.5"/>
<polygon fill="#63b8ff" stroke="#63b8ff" points="181.68,-32 191.68,-28.5 181.68,-25 181.68,-32"/>
</a>
</g>
</g>
<!-- Node4 -->
<g id="Node000004" class="node">
<title>Node4</title>
<g id="a_Node000004"><a xlink:href="classBusIO__7Semi.html#aa633479356af692cb9ea334771b7c0c5" target="_top" xlink:title=" ">
<polygon fill="white" stroke="#666666" points="507,-19 395,-19 395,0 507,0 507,-19"/>
<text text-anchor="middle" x="451" y="-7" font-family="Helvetica,sans-Serif" font-size="10.00">BusIO_7Semi::write</text>
</a>
</g>
</g>
<!-- Node1&#45;&gt;Node4 -->
<g id="edge4_Node000001_Node000004" class="edge">
<title>Node1&#45;&gt;Node4</title>
<g id="a_edge4_Node000001_Node000004"><a xlink:title=" ">
<path fill="none" stroke="#63b8ff" d="M156.01,-14.61C168.02,-12.91 180.32,-11.45 192,-10.5 257.4,-5.2 332.43,-5.63 384.65,-6.98"/>
<polygon fill="#63b8ff" stroke="#63b8ff" points="384.69,-10.48 394.79,-7.26 384.89,-3.49 384.69,-10.48"/>
</a>
</g>
</g>
<!-- Node3&#45;&gt;Node4 -->
<g id="edge3_Node000003_Node000004" class="edge">
<title>Node3&#45;&gt;Node4</title>
<g id="a_edge3_Node000003_Node000004"><a xlink:title=" ">
<path fill="none" stroke="#63b8ff" d="M359.18,-19.45C367.75,-18.51 376.36,-17.56 384.7,-16.65"/>
<polygon fill="#63b8ff" stroke="#63b8ff" points="385.14,-20.12 394.7,-15.56 384.38,-13.17 385.14,-20.12"/>
</a>
</g>
</g>
</g>
</svg>
