<?xml version="1.0" encoding="UTF-8" standalone="no"?>
<!DOCTYPE svg PUBLIC "-//W3C//DTD SVG 1.1//EN"
 "http://www.w3.org/Graphics/SVG/1.1/DTD/svg11.dtd">
<!-- Generated by graphviz version 2.43.0 (0)
 -->
<!-- Title: DevLab_ICM20948::auxWriteByte Pages: 1 -->
<svg width="539pt" height="83pt"
 viewBox="0.00 0.00 539.00 83.00" xmlns="http://www.w3.org/2000/svg" xmlns:xlink="http://www.w3.org/1999/xlink">
<g id="graph0" class="graph" transform="scale(1 1) rotate(0) translate(4 79)">
<title>DevLab_ICM20948::auxWriteByte</title>
<!-- Node1 -->
<g id="Node000001" class="node">
<title>Node1</title>
<g id="a_Node000001"><a xlink:title=" ">
<polygon fill="#999999" stroke="#666666" points="180,-38 0,-38 0,-19 180,-19 180,-38"/>
<text text-anchor="middle" x="90" y="-26" font-family="Helvetica,sans-Serif" font-size="10.00">DevLab_ICM20948::auxWriteByte</text>
</a>
</g>
</g>
<!-- Node2 -->
<g id="Node000002" class="node">
<title>Node2</title>
<g id="a_Node000002"><a xlink:href="classBusIO__7Semi.html#a933c66d9a1afe84102323e209a93dd31" target="_top" xlink:title=" ">
<polygon fill="white" stroke="#666666" points="354,-75 245,-75 245,-56 354,-56 354,-75"/>
<text text-anchor="middle" x="299.5" y="-63" font-family="Helvetica,sans-Serif" font-size="10.00">BusIO_7Semi::read</text>
</a>
</g>
</g>
<!-- Node1&#45;&gt;Node2 -->
<g id="edge1_Node000001_Node000002" class="edge">
<title>Node1&#45;&gt;Node2</title>
<g id="a_edge1_Node000001_Node000002"><a xlink:title=" ">
<path fill="none" stroke="#63b8ff" d="M144.44,-38.03C172.04,-42.95 205.92,-48.99 234.87,-54.15"/>
<polygon fill="#63b8ff" stroke="#63b8ff" points="234.43,-57.63 244.88,-55.94 235.65,-50.74 234.43,-57.63"/>
</a>
</g>
</g>
<!-- Node3 -->
<g id="Node000003" class="node">
<title>Node3</title>
<g id="a_Node000003"><a xlink:href="classDevLab__ICM20948.html#aaa26fcbfea0e67d45cb1c3ae39654c55" target="_top" xlink:title=" ">
<polygon fill="white" stroke="#666666" points="383,-38 216,-38 216,-19 383,-19 383,-38"/>
<text text-anchor="middle" x="299.5" y="-26" font-family="Helvetica,sans-Serif" font-size="10.00">DevLab_ICM20948::selectBank</text>
</a>
</g>
</g>
<!-- Node1&#45;&gt;Node3 -->
<g id="edge2_Node000001_Node000003" class="edge">
<title>Node1&#45;&gt;Node3</title>
<g id="a_edge2_Node000001_Node000003"><a xlink:title=" ">
<path fill="none" stroke="#63b8ff" d="M180.2,-28.5C188.64,-28.5 197.2,-28.5 205.67,-28.5"/>
<polygon fill="#63b8ff" stroke="#63b8ff" points="205.93,-32 215.93,-28.5 205.93,-25 205.93,-32"/>
</a>
</g>
</g>
<!-- Node4 -->
<g id="Node000004" class="node">
<title>Node4</title>
<g id="a_Node000004"><a xlink:href="classBusIO__7Semi.html#aa633479356af692cb9ea334771b7c0c5" target="_top" xlink:title=" ">
<polygon fill="white" stroke="#666666" points="531,-19 419,-19 419,0 531,0 531,-19"/>
<text text-anchor="middle" x="475" y="-7" font-family="Helvetica,sans-Serif" font-size="10.00">BusIO_7Semi::write</text>
</a>
</g>
</g>
<!-- Node1&#45;&gt;Node4 -->
<g id="edge4_Node000001_Node000004" class="edge">
<title>Node1&#45;&gt;Node4</title>
<g id="a_edge4_Node000001_Node000004"><a xlink:title=" ">
<path fill="none" stroke="#63b8ff" d="M145.58,-18.96C167.41,-15.58 192.82,-12.21 216,-10.5 281.44,-5.69 356.46,-6.05 408.68,-7.25"/>
<polygon fill="#63b8ff" stroke="#63b8ff" points="408.72,-10.75 418.8,-7.5 408.89,-3.75 408.72,-10.75"/>
</a>
</g>
</g>
<!-- Node3&#45;&gt;Node4 -->
<g id="edge3_Node000003_Node000004" class="edge">
<title>Node3&#45;&gt;Node4</title>
<g id="a_edge3_Node000003_Node000004"><a xlink:title=" ">
<path fill="none" stroke="#63b8ff" d="M383.18,-19.45C391.75,-18.51 400.36,-17.56 408.7,-16.65"/>
<polygon fill="#63b8ff" stroke="#63b8ff" points="409.14,-20.12 418.7,-15.56 408.38,-13.17 409.14,-20.12"/>
</a>
</g>
</g>
</g>
</svg>
