<?xml version="1.0" encoding="UTF-8" standalone="no"?>
<!DOCTYPE svg PUBLIC "-//W3C//DTD SVG 1.1//EN"
 "http://www.w3.org/Graphics/SVG/1.1/DTD/svg11.dtd">
<!-- Generated by graphviz version 2.43.0 (0)
 -->
<!-- Title: BusIO_7Semi::read Pages: 1 -->
<svg width="782pt" height="1227pt"
 viewBox="0.00 0.00 782.00 1226.99" xmlns="http://www.w3.org/2000/svg" xmlns:xlink="http://www.w3.org/1999/xlink">
<g id="graph0" class="graph" transform="scale(1 1) rotate(0) translate(4 1222.99)">
<title>BusIO_7Semi::read</title>
<!-- Node1 -->
<g id="Node000001" class="node">
<title>Node1</title>
<g id="a_Node000001"><a xlink:title=" ">
<polygon fill="#999999" stroke="#666666" points="774,-736.99 665,-736.99 665,-717.99 774,-717.99 774,-736.99"/>
<text text-anchor="middle" x="719.5" y="-724.99" font-family="Helvetica,sans-Serif" font-size="10.00">BusIO_7Semi::read</text>
</a>
</g>
</g>
<!-- Node2 -->
<g id="Node000002" class="node">
<title>Node2</title>
<g id="a_Node000002"><a xlink:href="classDevLab__ICM20948.html#a1b8cce13fe757b1b3a61f8437766d7eb" target="_top" xlink:title=" ">
<polygon fill="white" stroke="#666666" points="620,-1218.99 441,-1218.99 441,-1199.99 620,-1199.99 620,-1218.99"/>
<text text-anchor="middle" x="530.5" y="-1206.99" font-family="Helvetica,sans-Serif" font-size="10.00">DevLab_ICM20948::auxReadByte</text>
</a>
</g>
</g>
<!-- Node1&#45;&gt;Node2 -->
<g id="edge1_Node000001_Node000002" class="edge">
<title>Node1&#45;&gt;Node2</title>
<g id="a_edge1_Node000001_Node000002"><a xlink:title=" ">
<path fill="none" stroke="#63b8ff" d="M717.53,-747.36C713.2,-827.59 692.96,-1126.43 629,-1190.49 625.34,-1194.15 621.21,-1197.21 616.75,-1199.77"/>
<polygon fill="#63b8ff" stroke="#63b8ff" points="721.04,-747.33 718.06,-737.16 714.05,-746.97 721.04,-747.33"/>
</a>
</g>
</g>
<!-- Node3 -->
<g id="Node000003" class="node">
<title>Node3</title>
<g id="a_Node000003"><a xlink:href="classDevLab__ICM20948.html#a57d37173d6d5c54ab4c7027dfdd3a78f" target="_top" xlink:title=" ">
<polygon fill="white" stroke="#666666" points="608.5,-1181.49 452.5,-1181.49 452.5,-1151.49 608.5,-1151.49 608.5,-1181.49"/>
<text text-anchor="start" x="460.5" y="-1169.49" font-family="Helvetica,sans-Serif" font-size="10.00">DevLab_ICM20948::auxRead</text>
<text text-anchor="middle" x="530.5" y="-1158.49" font-family="Helvetica,sans-Serif" font-size="10.00">Response</text>
</a>
</g>
</g>
<!-- Node1&#45;&gt;Node3 -->
<g id="edge2_Node000001_Node000003" class="edge">
<title>Node1&#45;&gt;Node3</title>
<g id="a_edge2_Node000001_Node000003"><a xlink:title=" ">
<path fill="none" stroke="#63b8ff" d="M716.94,-747.57C710.71,-822.54 685.18,-1084.65 629,-1142.49 623.29,-1148.36 616.39,-1152.89 608.93,-1156.37"/>
<polygon fill="#63b8ff" stroke="#63b8ff" points="720.46,-747.45 717.77,-737.2 713.48,-746.89 720.46,-747.45"/>
</a>
</g>
</g>
<!-- Node4 -->
<g id="Node000004" class="node">
<title>Node4</title>
<g id="a_Node000004"><a xlink:href="classDevLab__ICM20948.html#a8f47c9f63642c35e5b5656e720667566" target="_top" xlink:title=" ">
<polygon fill="white" stroke="#666666" points="608.5,-1133.49 452.5,-1133.49 452.5,-1103.49 608.5,-1103.49 608.5,-1133.49"/>
<text text-anchor="start" x="460.5" y="-1121.49" font-family="Helvetica,sans-Serif" font-size="10.00">DevLab_ICM20948::auxRead</text>
<text text-anchor="middle" x="530.5" y="-1110.49" font-family="Helvetica,sans-Serif" font-size="10.00">SensorData</text>
</a>
</g>
</g>
<!-- Node1&#45;&gt;Node4 -->
<g id="edge3_Node000001_Node000004" class="edge">
<title>Node1&#45;&gt;Node4</title>
<g id="a_edge3_Node000001_Node000004"><a xlink:title=" ">
<path fill="none" stroke="#63b8ff" d="M716.34,-747.43C708.48,-816.54 679.14,-1044.24 629,-1094.49 623.21,-1100.29 616.26,-1104.76 608.78,-1108.21"/>
<polygon fill="#63b8ff" stroke="#63b8ff" points="719.87,-747.42 717.49,-737.1 712.91,-746.65 719.87,-747.42"/>
</a>
</g>
</g>
<!-- Node6 -->
<g id="Node000006" class="node">
<title>Node6</title>
<g id="a_Node000006"><a xlink:href="classDevLab__ICM20948.html#a1079d6d89e4bda1f496cce90a820e102" target="_top" xlink:title=" ">
<polygon fill="white" stroke="#666666" points="620.5,-1084.99 440.5,-1084.99 440.5,-1065.99 620.5,-1065.99 620.5,-1084.99"/>
<text text-anchor="middle" x="530.5" y="-1072.99" font-family="Helvetica,sans-Serif" font-size="10.00">DevLab_ICM20948::auxWriteByte</text>
</a>
</g>
</g>
<!-- Node1&#45;&gt;Node6 -->
<g id="edge5_Node000001_Node000006" class="edge">
<title>Node1&#45;&gt;Node6</title>
<g id="a_edge5_Node000001_Node000006"><a xlink:title=" ">
<path fill="none" stroke="#63b8ff" d="M715.89,-747.11C706.94,-811.28 675.53,-1013.24 629,-1056.49 624.96,-1060.24 620.4,-1063.36 615.53,-1065.93"/>
<polygon fill="#63b8ff" stroke="#63b8ff" points="719.37,-747.49 717.25,-737.11 712.43,-746.54 719.37,-747.49"/>
</a>
</g>
</g>
<!-- Node7 -->
<g id="Node000007" class="node">
<title>Node7</title>
<g id="a_Node000007"><a xlink:href="classDevLab__ICM20948.html#ac2a1cdaf078cac71e14e0629925a7808" target="_top" xlink:title=" ">
<polygon fill="white" stroke="#666666" points="609.5,-1047.49 451.5,-1047.49 451.5,-1017.49 609.5,-1017.49 609.5,-1047.49"/>
<text text-anchor="start" x="459.5" y="-1035.49" font-family="Helvetica,sans-Serif" font-size="10.00">DevLab_ICM20948::auxWrite</text>
<text text-anchor="middle" x="530.5" y="-1024.49" font-family="Helvetica,sans-Serif" font-size="10.00">Command</text>
</a>
</g>
</g>
<!-- Node1&#45;&gt;Node7 -->
<g id="edge6_Node000001_Node000007" class="edge">
<title>Node1&#45;&gt;Node7</title>
<g id="a_edge6_Node000001_Node000007"><a xlink:title=" ">
<path fill="none" stroke="#63b8ff" d="M718.41,-747.27C717.04,-798.49 706.01,-936.47 629,-1008.49 623.4,-1013.72 616.84,-1017.87 609.82,-1021.15"/>
<polygon fill="#63b8ff" stroke="#63b8ff" points="721.91,-747.26 718.57,-737.2 714.91,-747.14 721.91,-747.26"/>
</a>
</g>
</g>
<!-- Node8 -->
<g id="Node000008" class="node">
<title>Node8</title>
<g id="a_Node000008"><a xlink:href="classDevLab__ICM20948.html#a61f65c00baf13e2cd69eee7cb6688720" target="_top" xlink:title=" ">
<polygon fill="white" stroke="#666666" points="608,-999.49 453,-999.49 453,-969.49 608,-969.49 608,-999.49"/>
<text text-anchor="start" x="461" y="-987.49" font-family="Helvetica,sans-Serif" font-size="10.00">DevLab_ICM20948::checkInt</text>
<text text-anchor="middle" x="530.5" y="-976.49" font-family="Helvetica,sans-Serif" font-size="10.00">Status</text>
</a>
</g>
</g>
<!-- Node1&#45;&gt;Node8 -->
<g id="edge7_Node000001_Node000008" class="edge">
<title>Node1&#45;&gt;Node8</title>
<g id="a_edge7_Node000001_Node000008"><a xlink:title=" ">
<path fill="none" stroke="#63b8ff" d="M716.9,-747.46C712.16,-792.6 694.18,-903.01 629,-960.49 622.85,-965.91 615.68,-970.14 608.06,-973.45"/>
<polygon fill="#63b8ff" stroke="#63b8ff" points="720.41,-747.52 717.85,-737.23 713.44,-746.86 720.41,-747.52"/>
</a>
</g>
</g>
<!-- Node9 -->
<g id="Node000009" class="node">
<title>Node9</title>
<g id="a_Node000009"><a xlink:href="classDevLab__ICM20948.html#a95dae0d8f84175c0175e65b9981d86f9" target="_top" xlink:title=" ">
<polygon fill="white" stroke="#666666" points="620.5,-950.99 440.5,-950.99 440.5,-931.99 620.5,-931.99 620.5,-950.99"/>
<text text-anchor="middle" x="530.5" y="-938.99" font-family="Helvetica,sans-Serif" font-size="10.00">DevLab_ICM20948::getAccelDLPF</text>
</a>
</g>
</g>
<!-- Node1&#45;&gt;Node9 -->
<g id="edge8_Node000001_Node000009" class="edge">
<title>Node1&#45;&gt;Node9</title>
<g id="a_edge8_Node000001_Node000009"><a xlink:title=" ">
<path fill="none" stroke="#63b8ff" d="M715.52,-747.1C708.39,-786.93 686.42,-877.33 629,-922.49 624.26,-926.22 618.99,-929.28 613.42,-931.8"/>
<polygon fill="#63b8ff" stroke="#63b8ff" points="719,-747.52 717.19,-737.08 712.1,-746.37 719,-747.52"/>
</a>
</g>
</g>
<!-- Node10 -->
<g id="Node000010" class="node">
<title>Node10</title>
<g id="a_Node000010"><a xlink:href="classDevLab__ICM20948.html#ae4beff71dc469940c9ba561d57f04ec7" target="_top" xlink:title=" ">
<polygon fill="white" stroke="#666666" points="608,-913.49 453,-913.49 453,-883.49 608,-883.49 608,-913.49"/>
<text text-anchor="start" x="461" y="-901.49" font-family="Helvetica,sans-Serif" font-size="10.00">DevLab_ICM20948::getAccel</text>
<text text-anchor="middle" x="530.5" y="-890.49" font-family="Helvetica,sans-Serif" font-size="10.00">Offset</text>
</a>
</g>
</g>
<!-- Node1&#45;&gt;Node10 -->
<g id="edge9_Node000001_Node000010" class="edge">
<title>Node1&#45;&gt;Node10</title>
<g id="a_edge9_Node000001_Node000010"><a xlink:title=" ">
<path fill="none" stroke="#63b8ff" d="M712.15,-747.05C700.78,-778.87 673.83,-841.62 629,-874.49 622.67,-879.12 615.56,-882.87 608.13,-885.9"/>
<polygon fill="#63b8ff" stroke="#63b8ff" points="715.6,-747.77 715.53,-737.18 708.98,-745.5 715.6,-747.77"/>
</a>
</g>
</g>
<!-- Node11 -->
<g id="Node000011" class="node">
<title>Node11</title>
<g id="a_Node000011"><a xlink:href="classDevLab__ICM20948.html#a9f2da1c80e24d06ae0a0561eb850d8d9" target="_top" xlink:title=" ">
<polygon fill="white" stroke="#666666" points="608,-865.49 453,-865.49 453,-835.49 608,-835.49 608,-865.49"/>
<text text-anchor="start" x="461" y="-853.49" font-family="Helvetica,sans-Serif" font-size="10.00">DevLab_ICM20948::getAccel</text>
<text text-anchor="middle" x="530.5" y="-842.49" font-family="Helvetica,sans-Serif" font-size="10.00">SampleRate</text>
</a>
</g>
</g>
<!-- Node1&#45;&gt;Node11 -->
<g id="edge10_Node000001_Node000011" class="edge">
<title>Node1&#45;&gt;Node11</title>
<g id="a_edge10_Node000001_Node000011"><a xlink:title=" ">
<path fill="none" stroke="#63b8ff" d="M707.06,-745.72C691.98,-768.22 663.29,-806 629,-826.49 622.49,-830.38 615.38,-833.64 608.06,-836.37"/>
<polygon fill="#63b8ff" stroke="#63b8ff" points="710.15,-747.4 712.67,-737.11 704.28,-743.58 710.15,-747.4"/>
</a>
</g>
</g>
<!-- Node12 -->
<g id="Node000012" class="node">
<title>Node12</title>
<g id="a_Node000012"><a xlink:href="classDevLab__ICM20948.html#ac4585d35fd7444eee47ea7accd162b6d" target="_top" xlink:title=" ">
<polygon fill="white" stroke="#666666" points="608.5,-816.99 452.5,-816.99 452.5,-797.99 608.5,-797.99 608.5,-816.99"/>
<text text-anchor="middle" x="530.5" y="-804.99" font-family="Helvetica,sans-Serif" font-size="10.00">DevLab_ICM20948::getClock</text>
</a>
</g>
</g>
<!-- Node1&#45;&gt;Node12 -->
<g id="edge11_Node000001_Node000012" class="edge">
<title>Node1&#45;&gt;Node12</title>
<g id="a_edge11_Node000001_Node000012"><a xlink:title=" ">
<path fill="none" stroke="#63b8ff" d="M699.76,-744.05C682.55,-758.33 655.75,-778.36 629,-789.49 620.74,-792.92 611.81,-795.71 602.82,-797.96"/>
<polygon fill="#63b8ff" stroke="#63b8ff" points="702.48,-746.33 707.83,-737.18 697.94,-740.99 702.48,-746.33"/>
</a>
</g>
</g>
<!-- Node13 -->
<g id="Node000013" class="node">
<title>Node13</title>
<g id="a_Node000013"><a xlink:href="classDevLab__ICM20948.html#ab5ef83d7268ee07da27e9cce74c94e46" target="_top" xlink:title=" ">
<polygon fill="white" stroke="#666666" points="607.5,-779.99 453.5,-779.99 453.5,-760.99 607.5,-760.99 607.5,-779.99"/>
<text text-anchor="middle" x="530.5" y="-767.99" font-family="Helvetica,sans-Serif" font-size="10.00">DevLab_ICM20948::getDLPF</text>
</a>
</g>
</g>
<!-- Node1&#45;&gt;Node13 -->
<g id="edge12_Node000001_Node000013" class="edge">
<title>Node1&#45;&gt;Node13</title>
<g id="a_edge12_Node000001_Node000013"><a xlink:title=" ">
<path fill="none" stroke="#63b8ff" d="M675.26,-739.73C660.63,-743.7 644.15,-747.98 629,-751.49 614.47,-754.85 598.62,-758.11 584.01,-760.95"/>
<polygon fill="#63b8ff" stroke="#63b8ff" points="676.34,-743.06 685.06,-737.04 674.49,-736.31 676.34,-743.06"/>
</a>
</g>
</g>
<!-- Node14 -->
<g id="Node000014" class="node">
<title>Node14</title>
<g id="a_Node000014"><a xlink:href="classDevLab__ICM20948.html#a3d407a299b73a9d6da88f724bcca0a36" target="_top" xlink:title=" ">
<polygon fill="white" stroke="#666666" points="606.5,-742.49 454.5,-742.49 454.5,-712.49 606.5,-712.49 606.5,-742.49"/>
<text text-anchor="start" x="462.5" y="-730.49" font-family="Helvetica,sans-Serif" font-size="10.00">DevLab_ICM20948::getGyro</text>
<text text-anchor="middle" x="530.5" y="-719.49" font-family="Helvetica,sans-Serif" font-size="10.00">Offset</text>
</a>
</g>
</g>
<!-- Node1&#45;&gt;Node14 -->
<g id="edge13_Node000001_Node000014" class="edge">
<title>Node1&#45;&gt;Node14</title>
<g id="a_edge13_Node000001_Node000014"><a xlink:title=" ">
<path fill="none" stroke="#63b8ff" d="M654.48,-727.49C639.1,-727.49 622.53,-727.49 606.69,-727.49"/>
<polygon fill="#63b8ff" stroke="#63b8ff" points="654.91,-730.99 664.91,-727.49 654.91,-723.99 654.91,-730.99"/>
</a>
</g>
</g>
<!-- Node15 -->
<g id="Node000015" class="node">
<title>Node15</title>
<g id="a_Node000015"><a xlink:href="classDevLab__ICM20948.html#a721c6c8151230452abfc6c36814f63a7" target="_top" xlink:title=" ">
<polygon fill="white" stroke="#666666" points="606.5,-694.49 454.5,-694.49 454.5,-664.49 606.5,-664.49 606.5,-694.49"/>
<text text-anchor="start" x="462.5" y="-682.49" font-family="Helvetica,sans-Serif" font-size="10.00">DevLab_ICM20948::getGyro</text>
<text text-anchor="middle" x="530.5" y="-671.49" font-family="Helvetica,sans-Serif" font-size="10.00">SampleRate</text>
</a>
</g>
</g>
<!-- Node1&#45;&gt;Node15 -->
<g id="edge14_Node000001_Node000015" class="edge">
<title>Node1&#45;&gt;Node15</title>
<g id="a_edge14_Node000001_Node000015"><a xlink:title=" ">
<path fill="none" stroke="#63b8ff" d="M673.63,-715.26C659.38,-711.43 643.54,-707.23 629,-703.49 617.52,-700.53 605.26,-697.46 593.44,-694.53"/>
<polygon fill="#63b8ff" stroke="#63b8ff" points="673.12,-718.75 683.69,-717.97 674.95,-711.99 673.12,-718.75"/>
</a>
</g>
</g>
<!-- Node16 -->
<g id="Node000016" class="node">
<title>Node16</title>
<g id="a_Node000016"><a xlink:href="classDevLab__ICM20948.html#a8b3768ede281b8aa65900b1db8a7a7c7" target="_top" xlink:title=" ">
<polygon fill="white" stroke="#666666" points="173,-629.99 6,-629.99 6,-610.99 173,-610.99 173,-629.99"/>
<text text-anchor="middle" x="89.5" y="-617.99" font-family="Helvetica,sans-Serif" font-size="10.00">DevLab_ICM20948::getSensors</text>
</a>
</g>
</g>
<!-- Node1&#45;&gt;Node16 -->
<g id="edge15_Node000001_Node000016" class="edge">
<title>Node1&#45;&gt;Node16</title>
<g id="a_edge15_Node000001_Node000016"><a xlink:title=" ">
<path fill="none" stroke="#63b8ff" d="M703.55,-710.13C687.26,-692.63 659.4,-666.65 629,-655.49 585.81,-639.62 260.75,-649.47 215,-644.49 186.66,-641.4 155.13,-635.29 130.9,-630.01"/>
<polygon fill="#63b8ff" stroke="#63b8ff" points="701.29,-712.86 710.59,-717.94 706.5,-708.17 701.29,-712.86"/>
</a>
</g>
</g>
<!-- Node17 -->
<g id="Node000017" class="node">
<title>Node17</title>
<g id="a_Node000017"><a xlink:href="classDevLab__ICM20948.html#a3b58edd0915cff118ca81daa6944a27b" target="_top" xlink:title=" ">
<polygon fill="white" stroke="#666666" points="611,-570.99 450,-570.99 450,-551.99 611,-551.99 611,-570.99"/>
<text text-anchor="middle" x="530.5" y="-558.99" font-family="Helvetica,sans-Serif" font-size="10.00">DevLab_ICM20948::readAccel</text>
</a>
</g>
</g>
<!-- Node1&#45;&gt;Node17 -->
<g id="edge16_Node000001_Node000017" class="edge">
<title>Node1&#45;&gt;Node17</title>
<g id="a_edge16_Node000001_Node000017"><a xlink:title=" ">
<path fill="none" stroke="#63b8ff" d="M712.47,-708.1C701.44,-676.05 674.82,-612.39 629,-580.49 623.48,-576.64 617.38,-573.53 611,-571.01"/>
<polygon fill="#63b8ff" stroke="#63b8ff" points="709.17,-709.26 715.62,-717.67 715.82,-707.07 709.17,-709.26"/>
</a>
</g>
</g>
<!-- Node18 -->
<g id="Node000018" class="node">
<title>Node18</title>
<g id="a_Node000018"><a xlink:href="classBusIO__7Semi.html#a15f260e24f2c2f806965744c40f0f52f" target="_top" xlink:title=" ">
<polygon fill="white" stroke="#666666" points="594.5,-533.99 466.5,-533.99 466.5,-514.99 594.5,-514.99 594.5,-533.99"/>
<text text-anchor="middle" x="530.5" y="-521.99" font-family="Helvetica,sans-Serif" font-size="10.00">BusIO_7Semi::readBits</text>
</a>
</g>
</g>
<!-- Node1&#45;&gt;Node18 -->
<g id="edge17_Node000001_Node000018" class="edge">
<title>Node1&#45;&gt;Node18</title>
<g id="a_edge17_Node000001_Node000018"><a xlink:title=" ">
<path fill="none" stroke="#63b8ff" d="M714.89,-707.64C706.83,-669.38 683.6,-585.45 629,-543.49 619.09,-535.87 606.97,-531.04 594.69,-528.03"/>
<polygon fill="#63b8ff" stroke="#63b8ff" points="711.48,-708.43 716.85,-717.56 718.35,-707.07 711.48,-708.43"/>
</a>
</g>
</g>
<!-- Node19 -->
<g id="Node000019" class="node">
<title>Node19</title>
<g id="a_Node000019"><a xlink:href="classBusIO__7Semi.html#aed7b0973e323495f8516a0d253089af8" target="_top" xlink:title=" ">
<polygon fill="white" stroke="#666666" points="594.5,-607.99 466.5,-607.99 466.5,-588.99 594.5,-588.99 594.5,-607.99"/>
<text text-anchor="middle" x="530.5" y="-595.99" font-family="Helvetica,sans-Serif" font-size="10.00">BusIO_7Semi::readBits</text>
</a>
</g>
</g>
<!-- Node1&#45;&gt;Node19 -->
<g id="edge18_Node000001_Node000019" class="edge">
<title>Node1&#45;&gt;Node19</title>
<g id="a_edge18_Node000001_Node000019"><a xlink:title=" ">
<path fill="none" stroke="#63b8ff" d="M707.98,-709.18C693.36,-685.44 664.65,-644.5 629,-622.49 618.62,-616.08 606.62,-611.38 594.67,-607.93"/>
<polygon fill="#63b8ff" stroke="#63b8ff" points="705.06,-711.12 713.2,-717.91 711.07,-707.53 705.06,-711.12"/>
</a>
</g>
</g>
<!-- Node26 -->
<g id="Node000026" class="node">
<title>Node26</title>
<g id="a_Node000026"><a xlink:href="classDevLab__ICM20948.html#a006c131f860f1fc81c587b3d8a77522d" target="_top" xlink:title=" ">
<polygon fill="white" stroke="#666666" points="609.5,-496.99 451.5,-496.99 451.5,-477.99 609.5,-477.99 609.5,-496.99"/>
<text text-anchor="middle" x="530.5" y="-484.99" font-family="Helvetica,sans-Serif" font-size="10.00">DevLab_ICM20948::readGyro</text>
</a>
</g>
</g>
<!-- Node1&#45;&gt;Node26 -->
<g id="edge26_Node000001_Node000026" class="edge">
<title>Node1&#45;&gt;Node26</title>
<g id="a_edge26_Node000001_Node000026"><a xlink:title=" ">
<path fill="none" stroke="#63b8ff" d="M716.64,-707.42C711.43,-663.57 692.64,-558.92 629,-506.49 623.28,-501.77 616.73,-498.1 609.79,-495.26"/>
<polygon fill="#63b8ff" stroke="#63b8ff" points="713.18,-708.07 717.73,-717.64 720.14,-707.32 713.18,-708.07"/>
</a>
</g>
</g>
<!-- Node27 -->
<g id="Node000027" class="node">
<title>Node27</title>
<g id="a_Node000027"><a xlink:href="classDevLab__ICM20948.html#a9f9b29867c2b78efef3ef9688f886314" target="_top" xlink:title=" ">
<polygon fill="white" stroke="#666666" points="608.5,-459.99 452.5,-459.99 452.5,-440.99 608.5,-440.99 608.5,-459.99"/>
<text text-anchor="middle" x="530.5" y="-447.99" font-family="Helvetica,sans-Serif" font-size="10.00">DevLab_ICM20948::readMag</text>
</a>
</g>
</g>
<!-- Node1&#45;&gt;Node27 -->
<g id="edge27_Node000001_Node000027" class="edge">
<title>Node1&#45;&gt;Node27</title>
<g id="a_edge27_Node000001_Node000027"><a xlink:title=" ">
<path fill="none" stroke="#63b8ff" d="M717.97,-707.82C715.53,-659.24 702.1,-532.91 629,-469.49 623.01,-464.29 616.02,-460.34 608.59,-457.37"/>
<polygon fill="#63b8ff" stroke="#63b8ff" points="714.48,-708.08 718.37,-717.93 721.47,-707.8 714.48,-708.08"/>
</a>
</g>
</g>
<!-- Node28 -->
<g id="Node000028" class="node">
<title>Node28</title>
<g id="a_Node000028"><a xlink:href="classDevLab__ICM20948.html#aa5c2ecd855cebb1934bbbe020128ab5e" target="_top" xlink:title=" ">
<polygon fill="white" stroke="#666666" points="629,-422.99 432,-422.99 432,-403.99 629,-403.99 629,-422.99"/>
<text text-anchor="middle" x="530.5" y="-410.99" font-family="Helvetica,sans-Serif" font-size="10.00">DevLab_ICM20948::readTemperature</text>
</a>
</g>
</g>
<!-- Node1&#45;&gt;Node28 -->
<g id="edge28_Node000001_Node000028" class="edge">
<title>Node1&#45;&gt;Node28</title>
<g id="a_edge28_Node000001_Node000028"><a xlink:title=" ">
<path fill="none" stroke="#63b8ff" d="M718.96,-707.58C719.02,-654.2 711.35,-506.83 629,-432.49 624.9,-428.79 620.31,-425.72 615.4,-423.18"/>
<polygon fill="#63b8ff" stroke="#63b8ff" points="715.45,-707.71 718.84,-717.75 722.45,-707.79 715.45,-707.71"/>
</a>
</g>
</g>
<!-- Node29 -->
<g id="Node000029" class="node">
<title>Node29</title>
<g id="a_Node000029"><a xlink:href="classDevLab__ICM20948.html#a8bef7eafb3b67eb736f491d0df453b9e" target="_top" xlink:title=" ">
<polygon fill="white" stroke="#666666" points="393.5,-415.99 217.5,-415.99 217.5,-396.99 393.5,-396.99 393.5,-415.99"/>
<text text-anchor="middle" x="305.5" y="-403.99" font-family="Helvetica,sans-Serif" font-size="10.00">DevLab_ICM20948::readWhoAmI</text>
</a>
</g>
</g>
<!-- Node1&#45;&gt;Node29 -->
<g id="edge29_Node000001_Node000029" class="edge">
<title>Node1&#45;&gt;Node29</title>
<g id="a_edge29_Node000001_Node000029"><a xlink:title=" ">
<path fill="none" stroke="#63b8ff" d="M716.28,-707.75C708.47,-642.33 679.96,-434.53 629,-395.49 538.06,-325.81 386.61,-374.47 329.36,-396.87"/>
<polygon fill="#63b8ff" stroke="#63b8ff" points="712.83,-708.4 717.46,-717.93 719.78,-707.59 712.83,-708.4"/>
</a>
</g>
</g>
<!-- Node32 -->
<g id="Node000032" class="node">
<title>Node32</title>
<g id="a_Node000032"><a xlink:href="classBusIO__7Semi.html#af38d37d409c6d8bc956522465fa39390" target="_top" xlink:title=" ">
<polygon fill="white" stroke="#666666" points="596,-197.99 465,-197.99 465,-178.99 596,-178.99 596,-197.99"/>
<text text-anchor="middle" x="530.5" y="-185.99" font-family="Helvetica,sans-Serif" font-size="10.00">BusIO_7Semi::writeBits</text>
</a>
</g>
</g>
<!-- Node1&#45;&gt;Node32 -->
<g id="edge32_Node000001_Node000032" class="edge">
<title>Node1&#45;&gt;Node32</title>
<g id="a_edge32_Node000001_Node000032"><a xlink:title=" ">
<path fill="none" stroke="#63b8ff" d="M718.01,-707.65C715.48,-621.32 700.98,-279.37 629,-206.49 620.17,-197.55 608.45,-192.24 596.2,-189.22"/>
<polygon fill="#63b8ff" stroke="#63b8ff" points="714.52,-707.98 718.29,-717.89 721.52,-707.79 714.52,-707.98"/>
</a>
</g>
</g>
<!-- Node33 -->
<g id="Node000033" class="node">
<title>Node33</title>
<g id="a_Node000033"><a xlink:href="classBusIO__7Semi.html#a855c7388d4118e632c84c7f8e2e3ddc2" target="_top" xlink:title=" ">
<polygon fill="white" stroke="#666666" points="596,-234.99 465,-234.99 465,-215.99 596,-215.99 596,-234.99"/>
<text text-anchor="middle" x="530.5" y="-222.99" font-family="Helvetica,sans-Serif" font-size="10.00">BusIO_7Semi::writeBits</text>
</a>
</g>
</g>
<!-- Node1&#45;&gt;Node33 -->
<g id="edge33_Node000001_Node000033" class="edge">
<title>Node1&#45;&gt;Node33</title>
<g id="a_edge33_Node000001_Node000033"><a xlink:title=" ">
<path fill="none" stroke="#63b8ff" d="M716.34,-707.64C709.64,-651.19 686.13,-485.76 629,-361.49 604.97,-309.22 559.79,-256.45 540.55,-235.22"/>
<polygon fill="#63b8ff" stroke="#63b8ff" points="712.88,-708.17 717.49,-717.71 719.83,-707.38 712.88,-708.17"/>
</a>
</g>
</g>
<!-- Node5 -->
<g id="Node000005" class="node">
<title>Node5</title>
<g id="a_Node000005"><a xlink:href="classDevLab__ICM20948.html#a357d1315ecc5a649ac4ce6b31cb47e7a" target="_top" xlink:title=" ">
<polygon fill="white" stroke="#666666" points="396,-1127.99 215,-1127.99 215,-1108.99 396,-1108.99 396,-1127.99"/>
<text text-anchor="middle" x="305.5" y="-1115.99" font-family="Helvetica,sans-Serif" font-size="10.00">DevLab_ICM20948::auxRead12bit</text>
</a>
</g>
</g>
<!-- Node4&#45;&gt;Node5 -->
<g id="edge4_Node000004_Node000005" class="edge">
<title>Node4&#45;&gt;Node5</title>
<g id="a_edge4_Node000004_Node000005"><a xlink:title=" ">
<path fill="none" stroke="#63b8ff" d="M442.12,-1118.49C427.04,-1118.49 411.35,-1118.49 396.21,-1118.49"/>
<polygon fill="#63b8ff" stroke="#63b8ff" points="442.44,-1121.99 452.44,-1118.49 442.44,-1114.99 442.44,-1121.99"/>
</a>
</g>
</g>
<!-- Node20 -->
<g id="Node000020" class="node">
<title>Node20</title>
<g id="a_Node000020"><a xlink:href="classDevLab__ICM20948.html#ae356f6810b038f90e706bd288bb79d19" target="_top" xlink:title=" ">
<polygon fill="white" stroke="#666666" points="383,-512.49 228,-512.49 228,-482.49 383,-482.49 383,-512.49"/>
<text text-anchor="start" x="236" y="-500.49" font-family="Helvetica,sans-Serif" font-size="10.00">DevLab_ICM20948::getAccel</text>
<text text-anchor="middle" x="305.5" y="-489.49" font-family="Helvetica,sans-Serif" font-size="10.00">Averaging</text>
</a>
</g>
</g>
<!-- Node19&#45;&gt;Node20 -->
<g id="edge19_Node000019_Node000020" class="edge">
<title>Node19&#45;&gt;Node20</title>
<g id="a_edge19_Node000019_Node000020"><a xlink:title=" ">
<path fill="none" stroke="#63b8ff" d="M456.49,-592.02C447.79,-589.26 439.39,-585.53 432,-580.49 406.94,-563.38 420.27,-540.7 396,-522.49 390.84,-518.61 385.11,-515.34 379.1,-512.57"/>
<polygon fill="#63b8ff" stroke="#63b8ff" points="455.84,-595.47 466.41,-594.73 457.68,-588.71 455.84,-595.47"/>
</a>
</g>
</g>
<!-- Node21 -->
<g id="Node000021" class="node">
<title>Node21</title>
<g id="a_Node000021"><a xlink:href="classDevLab__ICM20948.html#ace42a35300e82402626ce89eb8958e5f" target="_top" xlink:title=" ">
<polygon fill="white" stroke="#666666" points="383,-464.49 228,-464.49 228,-434.49 383,-434.49 383,-464.49"/>
<text text-anchor="start" x="236" y="-452.49" font-family="Helvetica,sans-Serif" font-size="10.00">DevLab_ICM20948::getAccel</text>
<text text-anchor="middle" x="305.5" y="-441.49" font-family="Helvetica,sans-Serif" font-size="10.00">Scale</text>
</a>
</g>
</g>
<!-- Node19&#45;&gt;Node21 -->
<g id="edge20_Node000019_Node000021" class="edge">
<title>Node19&#45;&gt;Node21</title>
<g id="a_edge20_Node000019_Node000021"><a xlink:title=" ">
<path fill="none" stroke="#63b8ff" d="M456.47,-593.98C447.53,-590.95 439.07,-586.61 432,-580.49 394.09,-547.61 432.57,-507.84 396,-473.49 392.13,-469.85 387.77,-466.75 383.11,-464.12"/>
<polygon fill="#63b8ff" stroke="#63b8ff" points="455.75,-597.42 466.32,-596.78 457.66,-590.68 455.75,-597.42"/>
</a>
</g>
</g>
<!-- Node22 -->
<g id="Node000022" class="node">
<title>Node22</title>
<g id="a_Node000022"><a xlink:href="classDevLab__ICM20948.html#a5e21409c747b1345884dd0d05720f37f" target="_top" xlink:title=" ">
<polygon fill="white" stroke="#666666" points="381.5,-635.49 229.5,-635.49 229.5,-605.49 381.5,-605.49 381.5,-635.49"/>
<text text-anchor="start" x="237.5" y="-623.49" font-family="Helvetica,sans-Serif" font-size="10.00">DevLab_ICM20948::getGyro</text>
<text text-anchor="middle" x="305.5" y="-612.49" font-family="Helvetica,sans-Serif" font-size="10.00">Scale</text>
</a>
</g>
</g>
<!-- Node19&#45;&gt;Node22 -->
<g id="edge21_Node000019_Node000022" class="edge">
<title>Node19&#45;&gt;Node22</title>
<g id="a_edge21_Node000019_Node000022"><a xlink:title=" ">
<path fill="none" stroke="#63b8ff" d="M456.39,-605.7C432.41,-608.06 405.73,-610.7 381.61,-613.08"/>
<polygon fill="#63b8ff" stroke="#63b8ff" points="456.88,-609.17 466.49,-604.7 456.2,-602.2 456.88,-609.17"/>
</a>
</g>
</g>
<!-- Node23 -->
<g id="Node000023" class="node">
<title>Node23</title>
<g id="a_Node000023"><a xlink:href="classBusIO__7Semi.html#a51b4ef7309cdfddaa3c94d99eac09065" target="_top" xlink:title=" ">
<polygon fill="white" stroke="#666666" points="366.5,-586.99 244.5,-586.99 244.5,-567.99 366.5,-567.99 366.5,-586.99"/>
<text text-anchor="middle" x="305.5" y="-574.99" font-family="Helvetica,sans-Serif" font-size="10.00">BusIO_7Semi::readBit</text>
</a>
</g>
</g>
<!-- Node19&#45;&gt;Node23 -->
<g id="edge22_Node000019_Node000023" class="edge">
<title>Node19&#45;&gt;Node23</title>
<g id="a_edge22_Node000019_Node000023"><a xlink:title=" ">
<path fill="none" stroke="#63b8ff" d="M456.39,-591.6C427.33,-588.86 394.31,-585.75 366.67,-583.15"/>
<polygon fill="#63b8ff" stroke="#63b8ff" points="456.21,-595.1 466.49,-592.55 456.86,-588.13 456.21,-595.1"/>
</a>
</g>
</g>
<!-- Node24 -->
<g id="Node000024" class="node">
<title>Node24</title>
<g id="a_Node000024"><a xlink:href="classBusIO__7Semi.html#a0d76100d6e83237e0ee97eba7044147d" target="_top" xlink:title=" ">
<polygon fill="white" stroke="#666666" points="366.5,-549.99 244.5,-549.99 244.5,-530.99 366.5,-530.99 366.5,-549.99"/>
<text text-anchor="middle" x="305.5" y="-537.99" font-family="Helvetica,sans-Serif" font-size="10.00">BusIO_7Semi::readBit</text>
</a>
</g>
</g>
<!-- Node19&#45;&gt;Node24 -->
<g id="edge23_Node000019_Node000024" class="edge">
<title>Node19&#45;&gt;Node24</title>
<g id="a_edge23_Node000019_Node000024"><a xlink:title=" ">
<path fill="none" stroke="#63b8ff" d="M456.61,-587.91C448.19,-585.84 439.83,-583.39 432,-580.49 414.63,-574.04 413.28,-566.16 396,-559.49 386.07,-555.65 375.21,-552.52 364.58,-549.99"/>
<polygon fill="#63b8ff" stroke="#63b8ff" points="455.95,-591.35 466.48,-590.15 457.51,-584.52 455.95,-591.35"/>
</a>
</g>
</g>
<!-- Node24&#45;&gt;Node16 -->
<g id="edge25_Node000024_Node000016" class="edge">
<title>Node24&#45;&gt;Node16</title>
<g id="a_edge25_Node000024_Node000016"><a xlink:title=" ">
<path fill="none" stroke="#63b8ff" d="M239.06,-552.42C230.88,-554.48 222.69,-556.83 215,-559.49 174.5,-573.47 130.13,-597.5 106.85,-610.84"/>
<polygon fill="#63b8ff" stroke="#63b8ff" points="240.1,-555.77 249.01,-550.04 238.47,-548.96 240.1,-555.77"/>
</a>
</g>
</g>
<!-- Node25 -->
<g id="Node000025" class="node">
<title>Node25</title>
<g id="a_Node000025"><a xlink:href="classDevLab__ICM20948.html#a9832c13228e84e8ef74a631bfe1fdcd7" target="_top" xlink:title=" ">
<polygon fill="white" stroke="#666666" points="179,-549.99 0,-549.99 0,-530.99 179,-530.99 179,-549.99"/>
<text text-anchor="middle" x="89.5" y="-537.99" font-family="Helvetica,sans-Serif" font-size="10.00">DevLab_ICM20948::getLowPower</text>
</a>
</g>
</g>
<!-- Node24&#45;&gt;Node25 -->
<g id="edge24_Node000024_Node000025" class="edge">
<title>Node24&#45;&gt;Node25</title>
<g id="a_edge24_Node000024_Node000025"><a xlink:title=" ">
<path fill="none" stroke="#63b8ff" d="M234.2,-540.49C216.68,-540.49 197.67,-540.49 179.39,-540.49"/>
<polygon fill="#63b8ff" stroke="#63b8ff" points="234.32,-543.99 244.32,-540.49 234.32,-536.99 234.32,-543.99"/>
</a>
</g>
</g>
<!-- Node30 -->
<g id="Node000030" class="node">
<title>Node30</title>
<g id="a_Node000030"><a xlink:href="classDevLab__ICM20948.html#a91147b3cd4c45bffc8e024f985be7b21" target="_top" xlink:title=" ">
<polygon fill="white" stroke="#666666" points="167.5,-431.99 11.5,-431.99 11.5,-412.99 167.5,-412.99 167.5,-431.99"/>
<text text-anchor="middle" x="89.5" y="-419.99" font-family="Helvetica,sans-Serif" font-size="10.00">DevLab_ICM20948::beginI2C</text>
</a>
</g>
</g>
<!-- Node29&#45;&gt;Node30 -->
<g id="edge30_Node000029_Node000030" class="edge">
<title>Node29&#45;&gt;Node30</title>
<g id="a_edge30_Node000029_Node000030"><a xlink:title=" ">
<path fill="none" stroke="#63b8ff" d="M207.38,-413.75C194.13,-414.74 180.67,-415.74 167.83,-416.7"/>
<polygon fill="#63b8ff" stroke="#63b8ff" points="207.75,-417.23 217.46,-412.99 207.22,-410.25 207.75,-417.23"/>
</a>
</g>
</g>
<!-- Node31 -->
<g id="Node000031" class="node">
<title>Node31</title>
<g id="a_Node000031"><a xlink:href="classDevLab__ICM20948.html#a4386f310503153f3e28935cbdda75b18" target="_top" xlink:title=" ">
<polygon fill="white" stroke="#666666" points="167,-468.99 12,-468.99 12,-449.99 167,-449.99 167,-468.99"/>
<text text-anchor="middle" x="89.5" y="-456.99" font-family="Helvetica,sans-Serif" font-size="10.00">DevLab_ICM20948::beginSPI</text>
</a>
</g>
</g>
<!-- Node29&#45;&gt;Node31 -->
<g id="edge31_Node000029_Node000031" class="edge">
<title>Node29&#45;&gt;Node31</title>
<g id="a_edge31_Node000029_Node000031"><a xlink:title=" ">
<path fill="none" stroke="#63b8ff" d="M240.74,-418.3C232.02,-420.42 223.23,-422.81 215,-425.49 198.35,-430.89 195.68,-436.15 179,-441.49 168.7,-444.78 157.52,-447.61 146.68,-449.98"/>
<polygon fill="#63b8ff" stroke="#63b8ff" points="241.59,-421.7 250.54,-416.04 240.01,-414.88 241.59,-421.7"/>
</a>
</g>
</g>
<!-- Node34 -->
<g id="Node000034" class="node">
<title>Node34</title>
<g id="a_Node000034"><a xlink:href="classDevLab__ICM20948.html#aab027c72832d1c7ec722187e6a64796a" target="_top" xlink:title=" ">
<polygon fill="white" stroke="#666666" points="172,-93.49 7,-93.49 7,-63.49 172,-63.49 172,-93.49"/>
<text text-anchor="start" x="15" y="-81.49" font-family="Helvetica,sans-Serif" font-size="10.00">DevLab_ICM20948::auxMaster</text>
<text text-anchor="middle" x="89.5" y="-70.49" font-family="Helvetica,sans-Serif" font-size="10.00">Enable</text>
</a>
</g>
</g>
<!-- Node33&#45;&gt;Node34 -->
<g id="edge34_Node000033_Node000034" class="edge">
<title>Node33&#45;&gt;Node34</title>
<g id="a_edge34_Node000033_Node000034"><a xlink:title=" ">
<path fill="none" stroke="#63b8ff" d="M455.34,-220.84C446.65,-217.61 438.56,-213 432,-206.49 375,-149.95 458.16,-80.28 396,-29.49 312.18,39 171.04,-30.68 114.75,-63.46"/>
<polygon fill="#63b8ff" stroke="#63b8ff" points="454.38,-224.21 464.97,-223.83 456.45,-217.52 454.38,-224.21"/>
</a>
</g>
</g>
<!-- Node35 -->
<g id="Node000035" class="node">
<title>Node35</title>
<g id="a_Node000035"><a xlink:href="classDevLab__ICM20948.html#a619f82390347cc173d1604d4d711b537" target="_top" xlink:title=" ">
<polygon fill="white" stroke="#666666" points="383,-326.49 228,-326.49 228,-296.49 383,-296.49 383,-326.49"/>
<text text-anchor="start" x="236" y="-314.49" font-family="Helvetica,sans-Serif" font-size="10.00">DevLab_ICM20948::setAccel</text>
<text text-anchor="middle" x="305.5" y="-303.49" font-family="Helvetica,sans-Serif" font-size="10.00">Averaging</text>
</a>
</g>
</g>
<!-- Node33&#45;&gt;Node35 -->
<g id="edge35_Node000033_Node000035" class="edge">
<title>Node33&#45;&gt;Node35</title>
<g id="a_edge35_Node000033_Node000035"><a xlink:title=" ">
<path fill="none" stroke="#63b8ff" d="M499.22,-239.34C472.37,-251.4 431.94,-269.02 396,-282.49 383,-287.36 368.76,-292.19 355.55,-296.47"/>
<polygon fill="#63b8ff" stroke="#63b8ff" points="500.79,-242.47 508.47,-235.16 497.91,-236.09 500.79,-242.47"/>
</a>
</g>
</g>
<!-- Node36 -->
<g id="Node000036" class="node">
<title>Node36</title>
<g id="a_Node000036"><a xlink:href="classDevLab__ICM20948.html#ac52d80aad738b90aa0f05e9d6404bb85" target="_top" xlink:title=" ">
<polygon fill="white" stroke="#666666" points="179,-234.99 0,-234.99 0,-215.99 179,-215.99 179,-234.99"/>
<text text-anchor="middle" x="89.5" y="-222.99" font-family="Helvetica,sans-Serif" font-size="10.00">DevLab_ICM20948::setAccelDLPF</text>
</a>
</g>
</g>
<!-- Node33&#45;&gt;Node36 -->
<g id="edge36_Node000033_Node000036" class="edge">
<title>Node33&#45;&gt;Node36</title>
<g id="a_edge36_Node000033_Node000036"><a xlink:title=" ">
<path fill="none" stroke="#63b8ff" d="M477.53,-237.05C452.95,-241.94 423.11,-247.07 396,-249.49 315.87,-256.63 295.08,-257.13 215,-249.49 199.77,-248.03 164.37,-241.08 135.2,-235.03"/>
<polygon fill="#63b8ff" stroke="#63b8ff" points="478.27,-240.47 487.37,-235.04 476.88,-233.61 478.27,-240.47"/>
</a>
</g>
</g>
<!-- Node37 -->
<g id="Node000037" class="node">
<title>Node37</title>
<g id="a_Node000037"><a xlink:href="classDevLab__ICM20948.html#a1a2aa0019d5e1c6ba8ce4a3c1d9fcb43" target="_top" xlink:title=" ">
<polygon fill="white" stroke="#666666" points="383,-240.49 228,-240.49 228,-210.49 383,-210.49 383,-240.49"/>
<text text-anchor="start" x="236" y="-228.49" font-family="Helvetica,sans-Serif" font-size="10.00">DevLab_ICM20948::setAccel</text>
<text text-anchor="middle" x="305.5" y="-217.49" font-family="Helvetica,sans-Serif" font-size="10.00">Scale</text>
</a>
</g>
</g>
<!-- Node33&#45;&gt;Node37 -->
<g id="edge37_Node000033_Node000037" class="edge">
<title>Node33&#45;&gt;Node37</title>
<g id="a_edge37_Node000033_Node000037"><a xlink:title=" ">
<path fill="none" stroke="#63b8ff" d="M454.91,-225.49C431.81,-225.49 406.32,-225.49 383.08,-225.49"/>
<polygon fill="#63b8ff" stroke="#63b8ff" points="455,-228.99 465,-225.49 455,-221.99 455,-228.99"/>
</a>
</g>
</g>
<!-- Node38 -->
<g id="Node000038" class="node">
<title>Node38</title>
<g id="a_Node000038"><a xlink:href="classDevLab__ICM20948.html#a0bea2c662c285120253851c80289e077" target="_top" xlink:title=" ">
<polygon fill="white" stroke="#666666" points="166,-194.99 13,-194.99 13,-175.99 166,-175.99 166,-194.99"/>
<text text-anchor="middle" x="89.5" y="-182.99" font-family="Helvetica,sans-Serif" font-size="10.00">DevLab_ICM20948::setDLPF</text>
</a>
</g>
</g>
<!-- Node33&#45;&gt;Node38 -->
<g id="edge38_Node000033_Node000038" class="edge">
<title>Node33&#45;&gt;Node38</title>
<g id="a_edge38_Node000033_Node000038"><a xlink:title=" ">
<path fill="none" stroke="#63b8ff" d="M474.6,-214.01C450.58,-209.41 422,-204.49 396,-201.49 317.92,-192.46 228.01,-188.52 166.05,-186.81"/>
<polygon fill="#63b8ff" stroke="#63b8ff" points="474.11,-217.48 484.6,-215.96 475.45,-210.61 474.11,-217.48"/>
</a>
</g>
</g>
<!-- Node39 -->
<g id="Node000039" class="node">
<title>Node39</title>
<g id="a_Node000039"><a xlink:href="classDevLab__ICM20948.html#a7ae5665d5e835f8024df82f43bae46e7" target="_top" xlink:title=" ">
<polygon fill="white" stroke="#666666" points="381.5,-154.49 229.5,-154.49 229.5,-124.49 381.5,-124.49 381.5,-154.49"/>
<text text-anchor="start" x="237.5" y="-142.49" font-family="Helvetica,sans-Serif" font-size="10.00">DevLab_ICM20948::setGyro</text>
<text text-anchor="middle" x="305.5" y="-131.49" font-family="Helvetica,sans-Serif" font-size="10.00">Averaging</text>
</a>
</g>
</g>
<!-- Node33&#45;&gt;Node39 -->
<g id="edge39_Node000033_Node000039" class="edge">
<title>Node33&#45;&gt;Node39</title>
<g id="a_edge39_Node000033_Node000039"><a xlink:title=" ">
<path fill="none" stroke="#63b8ff" d="M455,-216.02C446.98,-213.54 439.15,-210.41 432,-206.49 411.61,-195.28 415.68,-180.9 396,-168.49 387.16,-162.91 377.15,-158.31 367.1,-154.54"/>
<polygon fill="#63b8ff" stroke="#63b8ff" points="454.27,-219.45 464.84,-218.74 456.14,-212.7 454.27,-219.45"/>
</a>
</g>
</g>
<!-- Node40 -->
<g id="Node000040" class="node">
<title>Node40</title>
<g id="a_Node000040"><a xlink:href="classDevLab__ICM20948.html#a6a06dbd14558e50d40595de82502d632" target="_top" xlink:title=" ">
<polygon fill="white" stroke="#666666" points="381.5,-106.49 229.5,-106.49 229.5,-76.49 381.5,-76.49 381.5,-106.49"/>
<text text-anchor="start" x="237.5" y="-94.49" font-family="Helvetica,sans-Serif" font-size="10.00">DevLab_ICM20948::setGyro</text>
<text text-anchor="middle" x="305.5" y="-83.49" font-family="Helvetica,sans-Serif" font-size="10.00">Scale</text>
</a>
</g>
</g>
<!-- Node33&#45;&gt;Node40 -->
<g id="edge40_Node000033_Node000040" class="edge">
<title>Node33&#45;&gt;Node40</title>
<g id="a_edge40_Node000033_Node000040"><a xlink:title=" ">
<path fill="none" stroke="#63b8ff" d="M455.19,-219.3C446.77,-216.28 438.79,-212.13 432,-206.49 398.55,-178.69 428.47,-144.43 396,-115.49 391.68,-111.63 386.8,-108.39 381.61,-105.66"/>
<polygon fill="#63b8ff" stroke="#63b8ff" points="454.25,-222.67 464.84,-222.25 456.3,-215.98 454.25,-222.67"/>
</a>
</g>
</g>
<!-- Node41 -->
<g id="Node000041" class="node">
<title>Node41</title>
<g id="a_Node000041"><a xlink:href="classBusIO__7Semi.html#a6a07d4bd0a308294b37166b6d25209b2" target="_top" xlink:title=" ">
<polygon fill="white" stroke="#666666" points="368,-57.99 243,-57.99 243,-38.99 368,-38.99 368,-57.99"/>
<text text-anchor="middle" x="305.5" y="-45.99" font-family="Helvetica,sans-Serif" font-size="10.00">BusIO_7Semi::writeBit</text>
</a>
</g>
</g>
<!-- Node33&#45;&gt;Node41 -->
<g id="edge41_Node000033_Node000041" class="edge">
<title>Node33&#45;&gt;Node41</title>
<g id="a_edge41_Node000033_Node000041"><a xlink:title=" ">
<path fill="none" stroke="#63b8ff" d="M455.03,-220.28C446.53,-217.12 438.57,-212.67 432,-206.49 385.52,-162.76 442.11,-111.6 396,-67.49 388.31,-60.13 378.51,-55.32 368.24,-52.23"/>
<polygon fill="#63b8ff" stroke="#63b8ff" points="454.23,-223.7 464.81,-223.34 456.31,-217.02 454.23,-223.7"/>
</a>
</g>
</g>
<!-- Node42 -->
<g id="Node000042" class="node">
<title>Node42</title>
<g id="a_Node000042"><a xlink:href="classBusIO__7Semi.html#ac7b3d1c425f7187abbe1bbec64d9ccea" target="_top" xlink:title=" ">
<polygon fill="white" stroke="#666666" points="368,-363.99 243,-363.99 243,-344.99 368,-344.99 368,-363.99"/>
<text text-anchor="middle" x="305.5" y="-351.99" font-family="Helvetica,sans-Serif" font-size="10.00">BusIO_7Semi::writeBit</text>
</a>
</g>
</g>
<!-- Node33&#45;&gt;Node42 -->
<g id="edge42_Node000033_Node000042" class="edge">
<title>Node33&#45;&gt;Node42</title>
<g id="a_edge42_Node000033_Node000042"><a xlink:title=" ">
<path fill="none" stroke="#63b8ff" d="M513.94,-242.74C490.75,-267.32 444.61,-312.05 396,-335.49 387.41,-339.62 377.94,-342.87 368.46,-345.41"/>
<polygon fill="#63b8ff" stroke="#63b8ff" points="516.67,-244.94 520.9,-235.23 511.53,-240.19 516.67,-244.94"/>
</a>
</g>
</g>
<!-- Node42&#45;&gt;Node30 -->
<g id="edge44_Node000042_Node000030" class="edge">
<title>Node42&#45;&gt;Node30</title>
<g id="a_edge44_Node000042_Node000030"><a xlink:title=" ">
<path fill="none" stroke="#63b8ff" d="M268.37,-367.69C252,-373.81 232.44,-381.31 215,-388.49 198.81,-395.15 195.68,-399.15 179,-404.49 168.7,-407.78 157.52,-410.61 146.68,-412.98"/>
<polygon fill="#63b8ff" stroke="#63b8ff" points="269.96,-370.84 278.11,-364.08 267.52,-364.28 269.96,-370.84"/>
</a>
</g>
</g>
<!-- Node42&#45;&gt;Node31 -->
<g id="edge45_Node000042_Node000031" class="edge">
<title>Node42&#45;&gt;Node31</title>
<g id="a_edge45_Node000042_Node000031"><a xlink:title=" ">
<path fill="none" stroke="#63b8ff" d="M254.53,-367.39C240.81,-372.49 226.55,-379.37 215,-388.49 192.66,-406.14 202.7,-425.7 179,-441.49 173.91,-444.87 168.32,-447.65 162.49,-449.92"/>
<polygon fill="#63b8ff" stroke="#63b8ff" points="256.06,-370.56 264.37,-363.99 253.78,-363.95 256.06,-370.56"/>
</a>
</g>
</g>
<!-- Node42&#45;&gt;Node34 -->
<g id="edge43_Node000042_Node000034" class="edge">
<title>Node42&#45;&gt;Node34</title>
<g id="a_edge43_Node000042_Node000034"><a xlink:title=" ">
<path fill="none" stroke="#63b8ff" d="M233.39,-347.68C226.57,-344.7 220.25,-340.74 215,-335.49 160.68,-281.2 215.75,-233.92 179,-166.49 162.41,-136.05 131.99,-109.28 111.5,-93.49"/>
<polygon fill="#63b8ff" stroke="#63b8ff" points="232.36,-351.02 242.95,-351.15 234.75,-344.44 232.36,-351.02"/>
</a>
</g>
</g>
<!-- Node42&#45;&gt;Node36 -->
<g id="edge48_Node000042_Node000036" class="edge">
<title>Node42&#45;&gt;Node36</title>
<g id="a_edge48_Node000042_Node000036"><a xlink:title=" ">
<path fill="none" stroke="#63b8ff" d="M232.86,-346.2C226.39,-343.47 220.3,-339.96 215,-335.49 181.78,-307.41 212.19,-272.6 179,-244.49 174.56,-240.73 169.56,-237.66 164.25,-235.16"/>
<polygon fill="#63b8ff" stroke="#63b8ff" points="231.95,-349.59 242.55,-349.67 234.32,-343 231.95,-349.59"/>
</a>
</g>
</g>
<!-- Node42&#45;&gt;Node38 -->
<g id="edge49_Node000042_Node000038" class="edge">
<title>Node42&#45;&gt;Node38</title>
<g id="a_edge49_Node000042_Node000038"><a xlink:title=" ">
<path fill="none" stroke="#63b8ff" d="M233.41,-347.21C226.65,-344.32 220.33,-340.49 215,-335.49 171.61,-294.74 221.91,-247.74 179,-206.49 174.11,-201.78 168.36,-198.06 162.18,-195.13"/>
<polygon fill="#63b8ff" stroke="#63b8ff" points="232.27,-350.52 242.87,-350.62 234.65,-343.94 232.27,-350.52"/>
</a>
</g>
</g>
<!-- Node43 -->
<g id="Node000043" class="node">
<title>Node43</title>
<g id="a_Node000043"><a xlink:href="classDevLab__ICM20948.html#adfbd409c7723007d208c82550098a649" target="_top" xlink:title=" ">
<polygon fill="white" stroke="#666666" points="165,-283.49 14,-283.49 14,-253.49 165,-253.49 165,-283.49"/>
<text text-anchor="start" x="22" y="-271.49" font-family="Helvetica,sans-Serif" font-size="10.00">DevLab_ICM20948::selfTest</text>
<text text-anchor="middle" x="89.5" y="-260.49" font-family="Helvetica,sans-Serif" font-size="10.00">Accel</text>
</a>
</g>
</g>
<!-- Node42&#45;&gt;Node43 -->
<g id="edge46_Node000042_Node000043" class="edge">
<title>Node42&#45;&gt;Node43</title>
<g id="a_edge46_Node000042_Node000043"><a xlink:title=" ">
<path fill="none" stroke="#63b8ff" d="M232.86,-343.77C226.61,-341.51 220.56,-338.78 215,-335.49 193.86,-322.94 199.72,-306.73 179,-293.49 172.95,-289.62 166.29,-286.33 159.42,-283.55"/>
<polygon fill="#63b8ff" stroke="#63b8ff" points="232.21,-347.24 242.8,-346.95 234.34,-340.57 232.21,-347.24"/>
</a>
</g>
</g>
<!-- Node44 -->
<g id="Node000044" class="node">
<title>Node44</title>
<g id="a_Node000044"><a xlink:href="classDevLab__ICM20948.html#a9d7602ece2c3908e7bbb2acd45dff156" target="_top" xlink:title=" ">
<polygon fill="white" stroke="#666666" points="176.5,-394.99 2.5,-394.99 2.5,-375.99 176.5,-375.99 176.5,-394.99"/>
<text text-anchor="middle" x="89.5" y="-382.99" font-family="Helvetica,sans-Serif" font-size="10.00">DevLab_ICM20948::selfTestGyro</text>
</a>
</g>
</g>
<!-- Node42&#45;&gt;Node44 -->
<g id="edge47_Node000042_Node000044" class="edge">
<title>Node42&#45;&gt;Node44</title>
<g id="a_edge47_Node000042_Node000044"><a xlink:title=" ">
<path fill="none" stroke="#63b8ff" d="M232.83,-364.87C208.05,-368.46 180.42,-372.46 156.15,-375.98"/>
<polygon fill="#63b8ff" stroke="#63b8ff" points="233.49,-368.31 242.89,-363.41 232.49,-361.38 233.49,-368.31"/>
</a>
</g>
</g>
<!-- Node45 -->
<g id="Node000045" class="node">
<title>Node45</title>
<g id="a_Node000045"><a xlink:href="classDevLab__ICM20948.html#a6c9c09f8b2ab39f5de7f48c6c743ffc4" target="_top" xlink:title=" ">
<polygon fill="white" stroke="#666666" points="178.5,-357.99 0.5,-357.99 0.5,-338.99 178.5,-338.99 178.5,-357.99"/>
<text text-anchor="middle" x="89.5" y="-345.99" font-family="Helvetica,sans-Serif" font-size="10.00">DevLab_ICM20948::setLowPower</text>
</a>
</g>
</g>
<!-- Node42&#45;&gt;Node45 -->
<g id="edge50_Node000042_Node000045" class="edge">
<title>Node42&#45;&gt;Node45</title>
<g id="a_edge50_Node000042_Node000045"><a xlink:title=" ">
<path fill="none" stroke="#63b8ff" d="M232.85,-352.48C215.5,-351.99 196.75,-351.46 178.73,-350.96"/>
<polygon fill="#63b8ff" stroke="#63b8ff" points="232.8,-355.98 242.89,-352.76 232.99,-348.98 232.8,-355.98"/>
</a>
</g>
</g>
<!-- Node46 -->
<g id="Node000046" class="node">
<title>Node46</title>
<g id="a_Node000046"><a xlink:href="classDevLab__ICM20948.html#ae9c088334d6ec706bb08b47ef29bd186" target="_top" xlink:title=" ">
<polygon fill="white" stroke="#666666" points="173,-320.99 6,-320.99 6,-301.99 173,-301.99 173,-320.99"/>
<text text-anchor="middle" x="89.5" y="-308.99" font-family="Helvetica,sans-Serif" font-size="10.00">DevLab_ICM20948::setSensors</text>
</a>
</g>
</g>
<!-- Node42&#45;&gt;Node46 -->
<g id="edge51_Node000042_Node000046" class="edge">
<title>Node42&#45;&gt;Node46</title>
<g id="a_edge51_Node000042_Node000046"><a xlink:title=" ">
<path fill="none" stroke="#63b8ff" d="M247.16,-342.96C212.98,-336.1 170.11,-327.48 137.86,-321"/>
<polygon fill="#63b8ff" stroke="#63b8ff" points="246.51,-346.4 257.01,-344.94 247.89,-339.54 246.51,-346.4"/>
</a>
</g>
</g>
</g>
</svg>
