<?xml version="1.0" encoding="UTF-8" standalone="no"?>
<!DOCTYPE svg PUBLIC "-//W3C//DTD SVG 1.1//EN"
 "http://www.w3.org/Graphics/SVG/1.1/DTD/svg11.dtd">
<!-- Generated by graphviz version 2.43.0 (0)
 -->
<!-- Title: BusIO_7Semi::writeBit Pages: 1 -->
<svg width="348pt" height="347pt"
 viewBox="0.00 0.00 348.00 346.50" xmlns="http://www.w3.org/2000/svg" xmlns:xlink="http://www.w3.org/1999/xlink">
<g id="graph0" class="graph" transform="scale(1 1) rotate(0) translate(4 342.5)">
<title>BusIO_7Semi::writeBit</title>
<!-- Node1 -->
<g id="Node000001" class="node">
<title>Node1</title>
<g id="a_Node000001"><a xlink:title=" ">
<polygon fill="#999999" stroke="#666666" points="340,-167 215,-167 215,-148 340,-148 340,-167"/>
<text text-anchor="middle" x="277.5" y="-155" font-family="Helvetica,sans-Serif" font-size="10.00">BusIO_7Semi::writeBit</text>
</a>
</g>
</g>
<!-- Node2 -->
<g id="Node000002" class="node">
<title>Node2</title>
<g id="a_Node000002"><a xlink:href="classDevLab__ICM20948.html#aab027c72832d1c7ec722187e6a64796a" target="_top" xlink:title=" ">
<polygon fill="white" stroke="#666666" points="172,-338.5 7,-338.5 7,-308.5 172,-308.5 172,-338.5"/>
<text text-anchor="start" x="15" y="-326.5" font-family="Helvetica,sans-Serif" font-size="10.00">DevLab_ICM20948::auxMaster</text>
<text text-anchor="middle" x="89.5" y="-315.5" font-family="Helvetica,sans-Serif" font-size="10.00">Enable</text>
</a>
</g>
</g>
<!-- Node1&#45;&gt;Node2 -->
<g id="edge1_Node000001_Node000002" class="edge">
<title>Node1&#45;&gt;Node2</title>
<g id="a_edge1_Node000001_Node000002"><a xlink:title=" ">
<path fill="none" stroke="#63b8ff" d="M268.61,-176.74C255,-207.48 224.17,-267.46 179,-299.5 174.2,-302.91 168.93,-305.83 163.44,-308.34"/>
<polygon fill="#63b8ff" stroke="#63b8ff" points="271.99,-177.75 272.7,-167.18 265.55,-175 271.99,-177.75"/>
</a>
</g>
</g>
<!-- Node3 -->
<g id="Node000003" class="node">
<title>Node3</title>
<g id="a_Node000003"><a xlink:href="classDevLab__ICM20948.html#a91147b3cd4c45bffc8e024f985be7b21" target="_top" xlink:title=" ">
<polygon fill="white" stroke="#666666" points="167.5,-290 11.5,-290 11.5,-271 167.5,-271 167.5,-290"/>
<text text-anchor="middle" x="89.5" y="-278" font-family="Helvetica,sans-Serif" font-size="10.00">DevLab_ICM20948::beginI2C</text>
</a>
</g>
</g>
<!-- Node1&#45;&gt;Node3 -->
<g id="edge2_Node000001_Node000003" class="edge">
<title>Node1&#45;&gt;Node3</title>
<g id="a_edge2_Node000001_Node000003"><a xlink:title=" ">
<path fill="none" stroke="#63b8ff" d="M264.98,-175.7C248.83,-199.63 217.11,-241.11 179,-262.5 172.98,-265.88 166.42,-268.63 159.68,-270.86"/>
<polygon fill="#63b8ff" stroke="#63b8ff" points="268.01,-177.47 270.57,-167.19 262.16,-173.63 268.01,-177.47"/>
</a>
</g>
</g>
<!-- Node4 -->
<g id="Node000004" class="node">
<title>Node4</title>
<g id="a_Node000004"><a xlink:href="classDevLab__ICM20948.html#a4386f310503153f3e28935cbdda75b18" target="_top" xlink:title=" ">
<polygon fill="white" stroke="#666666" points="167,-253 12,-253 12,-234 167,-234 167,-253"/>
<text text-anchor="middle" x="89.5" y="-241" font-family="Helvetica,sans-Serif" font-size="10.00">DevLab_ICM20948::beginSPI</text>
</a>
</g>
</g>
<!-- Node1&#45;&gt;Node4 -->
<g id="edge3_Node000001_Node000004" class="edge">
<title>Node1&#45;&gt;Node4</title>
<g id="a_edge3_Node000001_Node000004"><a xlink:title=" ">
<path fill="none" stroke="#63b8ff" d="M257.92,-173.59C239.22,-188.95 208.93,-211.6 179,-224.5 170.05,-228.35 160.25,-231.46 150.53,-233.94"/>
<polygon fill="#63b8ff" stroke="#63b8ff" points="260.24,-176.22 265.66,-167.11 255.75,-170.85 260.24,-176.22"/>
</a>
</g>
</g>
<!-- Node5 -->
<g id="Node000005" class="node">
<title>Node5</title>
<g id="a_Node000005"><a xlink:href="classDevLab__ICM20948.html#adfbd409c7723007d208c82550098a649" target="_top" xlink:title=" ">
<polygon fill="white" stroke="#666666" points="165,-215.5 14,-215.5 14,-185.5 165,-185.5 165,-215.5"/>
<text text-anchor="start" x="22" y="-203.5" font-family="Helvetica,sans-Serif" font-size="10.00">DevLab_ICM20948::selfTest</text>
<text text-anchor="middle" x="89.5" y="-192.5" font-family="Helvetica,sans-Serif" font-size="10.00">Accel</text>
</a>
</g>
</g>
<!-- Node1&#45;&gt;Node5 -->
<g id="edge4_Node000001_Node000005" class="edge">
<title>Node1&#45;&gt;Node5</title>
<g id="a_edge4_Node000001_Node000005"><a xlink:title=" ">
<path fill="none" stroke="#63b8ff" d="M225.27,-169.34C203.68,-174.34 178.29,-180.2 155.41,-185.49"/>
<polygon fill="#63b8ff" stroke="#63b8ff" points="226.27,-172.71 235.22,-167.04 224.69,-165.89 226.27,-172.71"/>
</a>
</g>
</g>
<!-- Node6 -->
<g id="Node000006" class="node">
<title>Node6</title>
<g id="a_Node000006"><a xlink:href="classDevLab__ICM20948.html#a9d7602ece2c3908e7bbb2acd45dff156" target="_top" xlink:title=" ">
<polygon fill="white" stroke="#666666" points="176.5,-167 2.5,-167 2.5,-148 176.5,-148 176.5,-167"/>
<text text-anchor="middle" x="89.5" y="-155" font-family="Helvetica,sans-Serif" font-size="10.00">DevLab_ICM20948::selfTestGyro</text>
</a>
</g>
</g>
<!-- Node1&#45;&gt;Node6 -->
<g id="edge5_Node000001_Node000006" class="edge">
<title>Node1&#45;&gt;Node6</title>
<g id="a_edge5_Node000001_Node000006"><a xlink:title=" ">
<path fill="none" stroke="#63b8ff" d="M204.6,-157.5C195.41,-157.5 185.94,-157.5 176.56,-157.5"/>
<polygon fill="#63b8ff" stroke="#63b8ff" points="204.82,-161 214.82,-157.5 204.82,-154 204.82,-161"/>
</a>
</g>
</g>
<!-- Node7 -->
<g id="Node000007" class="node">
<title>Node7</title>
<g id="a_Node000007"><a xlink:href="classDevLab__ICM20948.html#ac52d80aad738b90aa0f05e9d6404bb85" target="_top" xlink:title=" ">
<polygon fill="white" stroke="#666666" points="179,-130 0,-130 0,-111 179,-111 179,-130"/>
<text text-anchor="middle" x="89.5" y="-118" font-family="Helvetica,sans-Serif" font-size="10.00">DevLab_ICM20948::setAccelDLPF</text>
</a>
</g>
</g>
<!-- Node1&#45;&gt;Node7 -->
<g id="edge6_Node000001_Node000007" class="edge">
<title>Node1&#45;&gt;Node7</title>
<g id="a_edge6_Node000001_Node000007"><a xlink:title=" ">
<path fill="none" stroke="#63b8ff" d="M218.61,-145.98C192.9,-140.87 163.01,-134.92 138.56,-130.06"/>
<polygon fill="#63b8ff" stroke="#63b8ff" points="218.11,-149.45 228.6,-147.97 219.48,-142.59 218.11,-149.45"/>
</a>
</g>
</g>
<!-- Node8 -->
<g id="Node000008" class="node">
<title>Node8</title>
<g id="a_Node000008"><a xlink:href="classDevLab__ICM20948.html#a0bea2c662c285120253851c80289e077" target="_top" xlink:title=" ">
<polygon fill="white" stroke="#666666" points="166,-93 13,-93 13,-74 166,-74 166,-93"/>
<text text-anchor="middle" x="89.5" y="-81" font-family="Helvetica,sans-Serif" font-size="10.00">DevLab_ICM20948::setDLPF</text>
</a>
</g>
</g>
<!-- Node1&#45;&gt;Node8 -->
<g id="edge7_Node000001_Node000008" class="edge">
<title>Node1&#45;&gt;Node8</title>
<g id="a_edge7_Node000001_Node000008"><a xlink:title=" ">
<path fill="none" stroke="#63b8ff" d="M254.03,-142.22C234.87,-129.84 206.17,-112.81 179,-102.5 169.01,-98.71 158.08,-95.59 147.42,-93.06"/>
<polygon fill="#63b8ff" stroke="#63b8ff" points="252.35,-145.3 262.63,-147.88 256.2,-139.46 252.35,-145.3"/>
</a>
</g>
</g>
<!-- Node9 -->
<g id="Node000009" class="node">
<title>Node9</title>
<g id="a_Node000009"><a xlink:href="classDevLab__ICM20948.html#a6c9c09f8b2ab39f5de7f48c6c743ffc4" target="_top" xlink:title=" ">
<polygon fill="white" stroke="#666666" points="178.5,-56 0.5,-56 0.5,-37 178.5,-37 178.5,-56"/>
<text text-anchor="middle" x="89.5" y="-44" font-family="Helvetica,sans-Serif" font-size="10.00">DevLab_ICM20948::setLowPower</text>
</a>
</g>
</g>
<!-- Node1&#45;&gt;Node9 -->
<g id="edge8_Node000001_Node000009" class="edge">
<title>Node1&#45;&gt;Node9</title>
<g id="a_edge8_Node000001_Node000009"><a xlink:title=" ">
<path fill="none" stroke="#63b8ff" d="M263.16,-140.07C246.04,-119 214.31,-84.06 179,-65.5 171.63,-61.62 163.51,-58.54 155.28,-56.08"/>
<polygon fill="#63b8ff" stroke="#63b8ff" points="260.42,-142.25 269.37,-147.92 265.9,-137.9 260.42,-142.25"/>
</a>
</g>
</g>
<!-- Node10 -->
<g id="Node000010" class="node">
<title>Node10</title>
<g id="a_Node000010"><a xlink:href="classDevLab__ICM20948.html#ae9c088334d6ec706bb08b47ef29bd186" target="_top" xlink:title=" ">
<polygon fill="white" stroke="#666666" points="173,-19 6,-19 6,0 173,0 173,-19"/>
<text text-anchor="middle" x="89.5" y="-7" font-family="Helvetica,sans-Serif" font-size="10.00">DevLab_ICM20948::setSensors</text>
</a>
</g>
</g>
<!-- Node1&#45;&gt;Node10 -->
<g id="edge9_Node000001_Node000010" class="edge">
<title>Node1&#45;&gt;Node10</title>
<g id="a_edge9_Node000001_Node000010"><a xlink:title=" ">
<path fill="none" stroke="#63b8ff" d="M267.71,-138.55C253.38,-109.92 222.22,-56.05 179,-28.5 172.9,-24.61 166.14,-21.51 159.15,-19.04"/>
<polygon fill="#63b8ff" stroke="#63b8ff" points="264.7,-140.39 272.21,-147.86 271.01,-137.34 264.7,-140.39"/>
</a>
</g>
</g>
</g>
</svg>
