<?xml version="1.0" encoding="UTF-8" standalone="no"?>
<!DOCTYPE svg PUBLIC "-//W3C//DTD SVG 1.1//EN"
 "http://www.w3.org/Graphics/SVG/1.1/DTD/svg11.dtd">
<!-- Generated by graphviz version 2.43.0 (0)
 -->
<!-- Title: DevLab_ICM20948::setGyroAveraging Pages: 1 -->
<svg width="511pt" height="64pt"
 viewBox="0.00 0.00 511.00 64.00" xmlns="http://www.w3.org/2000/svg" xmlns:xlink="http://www.w3.org/1999/xlink">
<g id="graph0" class="graph" transform="scale(1 1) rotate(0) translate(4 60)">
<title>DevLab_ICM20948::setGyroAveraging</title>
<!-- Node1 -->
<g id="Node000001" class="node">
<title>Node1</title>
<g id="a_Node000001"><a xlink:title=" ">
<polygon fill="#999999" stroke="#666666" points="152,-42.5 0,-42.5 0,-12.5 152,-12.5 152,-42.5"/>
<text text-anchor="start" x="8" y="-30.5" font-family="Helvetica,sans-Serif" font-size="10.00">DevLab_ICM20948::setGyro</text>
<text text-anchor="middle" x="76" y="-19.5" font-family="Helvetica,sans-Serif" font-size="10.00">Averaging</text>
</a>
</g>
</g>
<!-- Node2 -->
<g id="Node000002" class="node">
<title>Node2</title>
<g id="a_Node000002"><a xlink:href="classDevLab__ICM20948.html#aaa26fcbfea0e67d45cb1c3ae39654c55" target="_top" xlink:title=" ">
<polygon fill="white" stroke="#666666" points="355,-56 188,-56 188,-37 355,-37 355,-56"/>
<text text-anchor="middle" x="271.5" y="-44" font-family="Helvetica,sans-Serif" font-size="10.00">DevLab_ICM20948::selectBank</text>
</a>
</g>
</g>
<!-- Node1&#45;&gt;Node2 -->
<g id="edge1_Node000001_Node000002" class="edge">
<title>Node1&#45;&gt;Node2</title>
<g id="a_edge1_Node000001_Node000002"><a xlink:title=" ">
<path fill="none" stroke="#63b8ff" d="M152.09,-34.87C160.49,-35.7 169.12,-36.55 177.7,-37.39"/>
<polygon fill="#63b8ff" stroke="#63b8ff" points="177.45,-40.88 187.75,-38.37 178.14,-33.91 177.45,-40.88"/>
</a>
</g>
</g>
<!-- Node4 -->
<g id="Node000004" class="node">
<title>Node4</title>
<g id="a_Node000004"><a xlink:href="classBusIO__7Semi.html#a855c7388d4118e632c84c7f8e2e3ddc2" target="_top" xlink:title=" ">
<polygon fill="white" stroke="#666666" points="337,-19 206,-19 206,0 337,0 337,-19"/>
<text text-anchor="middle" x="271.5" y="-7" font-family="Helvetica,sans-Serif" font-size="10.00">BusIO_7Semi::writeBits</text>
</a>
</g>
</g>
<!-- Node1&#45;&gt;Node4 -->
<g id="edge3_Node000001_Node000004" class="edge">
<title>Node1&#45;&gt;Node4</title>
<g id="a_edge3_Node000001_Node000004"><a xlink:title=" ">
<path fill="none" stroke="#63b8ff" d="M152.09,-20.51C166.37,-19.19 181.3,-17.8 195.58,-16.47"/>
<polygon fill="#63b8ff" stroke="#63b8ff" points="196.2,-19.93 205.83,-15.52 195.55,-12.96 196.2,-19.93"/>
</a>
</g>
</g>
<!-- Node3 -->
<g id="Node000003" class="node">
<title>Node3</title>
<g id="a_Node000003"><a xlink:href="classBusIO__7Semi.html#aa633479356af692cb9ea334771b7c0c5" target="_top" xlink:title=" ">
<polygon fill="white" stroke="#666666" points="503,-56 391,-56 391,-37 503,-37 503,-56"/>
<text text-anchor="middle" x="447" y="-44" font-family="Helvetica,sans-Serif" font-size="10.00">BusIO_7Semi::write</text>
</a>
</g>
</g>
<!-- Node2&#45;&gt;Node3 -->
<g id="edge2_Node000002_Node000003" class="edge">
<title>Node2&#45;&gt;Node3</title>
<g id="a_edge2_Node000002_Node000003"><a xlink:title=" ">
<path fill="none" stroke="#63b8ff" d="M355.18,-46.5C363.75,-46.5 372.36,-46.5 380.7,-46.5"/>
<polygon fill="#63b8ff" stroke="#63b8ff" points="380.7,-50 390.7,-46.5 380.7,-43 380.7,-50"/>
</a>
</g>
</g>
<!-- Node4&#45;&gt;Node3 -->
<g id="edge5_Node000004_Node000003" class="edge">
<title>Node4&#45;&gt;Node3</title>
<g id="a_edge5_Node000004_Node000003"><a xlink:title=" ">
<path fill="none" stroke="#63b8ff" d="M317.18,-19.03C339.76,-23.84 367.35,-29.73 391.2,-34.81"/>
<polygon fill="#63b8ff" stroke="#63b8ff" points="390.66,-38.28 401.17,-36.94 392.12,-31.43 390.66,-38.28"/>
</a>
</g>
</g>
<!-- Node5 -->
<g id="Node000005" class="node">
<title>Node5</title>
<g id="a_Node000005"><a xlink:href="classBusIO__7Semi.html#a933c66d9a1afe84102323e209a93dd31" target="_top" xlink:title=" ">
<polygon fill="white" stroke="#666666" points="501.5,-19 392.5,-19 392.5,0 501.5,0 501.5,-19"/>
<text text-anchor="middle" x="447" y="-7" font-family="Helvetica,sans-Serif" font-size="10.00">BusIO_7Semi::read</text>
</a>
</g>
</g>
<!-- Node4&#45;&gt;Node5 -->
<g id="edge4_Node000004_Node000005" class="edge">
<title>Node4&#45;&gt;Node5</title>
<g id="a_edge4_Node000004_Node000005"><a xlink:title=" ">
<path fill="none" stroke="#63b8ff" d="M337.1,-9.5C351.9,-9.5 367.62,-9.5 382.37,-9.5"/>
<polygon fill="#63b8ff" stroke="#63b8ff" points="382.41,-13 392.41,-9.5 382.41,-6 382.41,-13"/>
</a>
</g>
</g>
</g>
</svg>
