<?xml version="1.0" encoding="UTF-8" standalone="no"?>
<!DOCTYPE svg PUBLIC "-//W3C//DTD SVG 1.1//EN"
 "http://www.w3.org/Graphics/SVG/1.1/DTD/svg11.dtd">
<!-- Generated by graphviz version 2.43.0 (0)
 -->
<!-- Title: BusIO_7Semi::writeBit Pages: 1 -->
<svg width="467pt" height="384pt"
 viewBox="0.00 0.00 467.00 383.50" xmlns="http://www.w3.org/2000/svg" xmlns:xlink="http://www.w3.org/1999/xlink">
<g id="graph0" class="graph" transform="scale(1 1) rotate(0) translate(4 379.5)">
<title>BusIO_7Semi::writeBit</title>
<!-- Node1 -->
<g id="Node000001" class="node">
<title>Node1</title>
<g id="a_Node000001"><a xlink:title=" ">
<polygon fill="#999999" stroke="#666666" points="459,-204 334,-204 334,-185 459,-185 459,-204"/>
<text text-anchor="middle" x="396.5" y="-192" font-family="Helvetica,sans-Serif" font-size="10.00">BusIO_7Semi::writeBit</text>
</a>
</g>
</g>
<!-- Node2 -->
<g id="Node000002" class="node">
<title>Node2</title>
<g id="a_Node000002"><a xlink:href="classDevLab__ICM20948.html#aab027c72832d1c7ec722187e6a64796a" target="_top" xlink:title=" ">
<polygon fill="white" stroke="#666666" points="291,-375.5 126,-375.5 126,-345.5 291,-345.5 291,-375.5"/>
<text text-anchor="start" x="134" y="-363.5" font-family="Helvetica,sans-Serif" font-size="10.00">DevLab_ICM20948::auxMaster</text>
<text text-anchor="middle" x="208.5" y="-352.5" font-family="Helvetica,sans-Serif" font-size="10.00">Enable</text>
</a>
</g>
</g>
<!-- Node1&#45;&gt;Node2 -->
<g id="edge1_Node000001_Node000002" class="edge">
<title>Node1&#45;&gt;Node2</title>
<g id="a_edge1_Node000001_Node000002"><a xlink:title=" ">
<path fill="none" stroke="#63b8ff" d="M387.61,-213.74C374,-244.48 343.17,-304.46 298,-336.5 293.2,-339.91 287.93,-342.83 282.44,-345.34"/>
<polygon fill="#63b8ff" stroke="#63b8ff" points="390.99,-214.75 391.7,-204.18 384.55,-212 390.99,-214.75"/>
</a>
</g>
</g>
<!-- Node3 -->
<g id="Node000003" class="node">
<title>Node3</title>
<g id="a_Node000003"><a xlink:href="classDevLab__ICM20948.html#a91147b3cd4c45bffc8e024f985be7b21" target="_top" xlink:title=" ">
<polygon fill="white" stroke="#666666" points="286.5,-167 130.5,-167 130.5,-148 286.5,-148 286.5,-167"/>
<text text-anchor="middle" x="208.5" y="-155" font-family="Helvetica,sans-Serif" font-size="10.00">DevLab_ICM20948::beginI2C</text>
</a>
</g>
</g>
<!-- Node1&#45;&gt;Node3 -->
<g id="edge2_Node000001_Node000003" class="edge">
<title>Node1&#45;&gt;Node3</title>
<g id="a_edge2_Node000001_Node000003"><a xlink:title=" ">
<path fill="none" stroke="#63b8ff" d="M337.61,-182.98C311.9,-177.87 282.01,-171.92 257.56,-167.06"/>
<polygon fill="#63b8ff" stroke="#63b8ff" points="337.11,-186.45 347.6,-184.97 338.48,-179.59 337.11,-186.45"/>
</a>
</g>
</g>
<!-- Node5 -->
<g id="Node000005" class="node">
<title>Node5</title>
<g id="a_Node000005"><a xlink:href="classDevLab__ICM20948.html#a4386f310503153f3e28935cbdda75b18" target="_top" xlink:title=" ">
<polygon fill="white" stroke="#666666" points="286,-327 131,-327 131,-308 286,-308 286,-327"/>
<text text-anchor="middle" x="208.5" y="-315" font-family="Helvetica,sans-Serif" font-size="10.00">DevLab_ICM20948::beginSPI</text>
</a>
</g>
</g>
<!-- Node1&#45;&gt;Node5 -->
<g id="edge4_Node000001_Node000005" class="edge">
<title>Node1&#45;&gt;Node5</title>
<g id="a_edge4_Node000001_Node000005"><a xlink:title=" ">
<path fill="none" stroke="#63b8ff" d="M383.98,-212.7C367.83,-236.63 336.11,-278.11 298,-299.5 291.98,-302.88 285.42,-305.63 278.68,-307.86"/>
<polygon fill="#63b8ff" stroke="#63b8ff" points="387.01,-214.47 389.57,-204.19 381.16,-210.63 387.01,-214.47"/>
</a>
</g>
</g>
<!-- Node7 -->
<g id="Node000007" class="node">
<title>Node7</title>
<g id="a_Node000007"><a xlink:href="classDevLab__ICM20948.html#adfbd409c7723007d208c82550098a649" target="_top" xlink:title=" ">
<polygon fill="white" stroke="#666666" points="284,-252.5 133,-252.5 133,-222.5 284,-222.5 284,-252.5"/>
<text text-anchor="start" x="141" y="-240.5" font-family="Helvetica,sans-Serif" font-size="10.00">DevLab_ICM20948::selfTest</text>
<text text-anchor="middle" x="208.5" y="-229.5" font-family="Helvetica,sans-Serif" font-size="10.00">Accel</text>
</a>
</g>
</g>
<!-- Node1&#45;&gt;Node7 -->
<g id="edge6_Node000001_Node000007" class="edge">
<title>Node1&#45;&gt;Node7</title>
<g id="a_edge6_Node000001_Node000007"><a xlink:title=" ">
<path fill="none" stroke="#63b8ff" d="M344.27,-206.34C322.68,-211.34 297.29,-217.2 274.41,-222.49"/>
<polygon fill="#63b8ff" stroke="#63b8ff" points="345.27,-209.71 354.22,-204.04 343.69,-202.89 345.27,-209.71"/>
</a>
</g>
</g>
<!-- Node8 -->
<g id="Node000008" class="node">
<title>Node8</title>
<g id="a_Node000008"><a xlink:href="classDevLab__ICM20948.html#a9d7602ece2c3908e7bbb2acd45dff156" target="_top" xlink:title=" ">
<polygon fill="white" stroke="#666666" points="295.5,-204 121.5,-204 121.5,-185 295.5,-185 295.5,-204"/>
<text text-anchor="middle" x="208.5" y="-192" font-family="Helvetica,sans-Serif" font-size="10.00">DevLab_ICM20948::selfTestGyro</text>
</a>
</g>
</g>
<!-- Node1&#45;&gt;Node8 -->
<g id="edge7_Node000001_Node000008" class="edge">
<title>Node1&#45;&gt;Node8</title>
<g id="a_edge7_Node000001_Node000008"><a xlink:title=" ">
<path fill="none" stroke="#63b8ff" d="M323.6,-194.5C314.41,-194.5 304.94,-194.5 295.56,-194.5"/>
<polygon fill="#63b8ff" stroke="#63b8ff" points="323.82,-198 333.82,-194.5 323.82,-191 323.82,-198"/>
</a>
</g>
</g>
<!-- Node9 -->
<g id="Node000009" class="node">
<title>Node9</title>
<g id="a_Node000009"><a xlink:href="classDevLab__ICM20948.html#ac52d80aad738b90aa0f05e9d6404bb85" target="_top" xlink:title=" ">
<polygon fill="white" stroke="#666666" points="298,-130 119,-130 119,-111 298,-111 298,-130"/>
<text text-anchor="middle" x="208.5" y="-118" font-family="Helvetica,sans-Serif" font-size="10.00">DevLab_ICM20948::setAccelDLPF</text>
</a>
</g>
</g>
<!-- Node1&#45;&gt;Node9 -->
<g id="edge8_Node000001_Node000009" class="edge">
<title>Node1&#45;&gt;Node9</title>
<g id="a_edge8_Node000001_Node000009"><a xlink:title=" ">
<path fill="none" stroke="#63b8ff" d="M373.03,-179.22C353.87,-166.84 325.17,-149.81 298,-139.5 288.01,-135.71 277.08,-132.59 266.42,-130.06"/>
<polygon fill="#63b8ff" stroke="#63b8ff" points="371.35,-182.3 381.63,-184.88 375.2,-176.46 371.35,-182.3"/>
</a>
</g>
</g>
<!-- Node13 -->
<g id="Node000013" class="node">
<title>Node13</title>
<g id="a_Node000013"><a xlink:href="classDevLab__ICM20948.html#a0bea2c662c285120253851c80289e077" target="_top" xlink:title=" ">
<polygon fill="white" stroke="#666666" points="285,-56 132,-56 132,-37 285,-37 285,-56"/>
<text text-anchor="middle" x="208.5" y="-44" font-family="Helvetica,sans-Serif" font-size="10.00">DevLab_ICM20948::setDLPF</text>
</a>
</g>
</g>
<!-- Node1&#45;&gt;Node13 -->
<g id="edge12_Node000001_Node000013" class="edge">
<title>Node1&#45;&gt;Node13</title>
<g id="a_edge12_Node000001_Node000013"><a xlink:title=" ">
<path fill="none" stroke="#63b8ff" d="M386.78,-175.35C372.56,-146.42 341.53,-92.03 298,-64.5 292.7,-61.15 286.89,-58.4 280.87,-56.16"/>
<polygon fill="#63b8ff" stroke="#63b8ff" points="383.8,-177.23 391.25,-184.76 390.12,-174.22 383.8,-177.23"/>
</a>
</g>
</g>
<!-- Node16 -->
<g id="Node000016" class="node">
<title>Node16</title>
<g id="a_Node000016"><a xlink:href="classDevLab__ICM20948.html#a6c9c09f8b2ab39f5de7f48c6c743ffc4" target="_top" xlink:title=" ">
<polygon fill="white" stroke="#666666" points="297.5,-93 119.5,-93 119.5,-74 297.5,-74 297.5,-93"/>
<text text-anchor="middle" x="208.5" y="-81" font-family="Helvetica,sans-Serif" font-size="10.00">DevLab_ICM20948::setLowPower</text>
</a>
</g>
</g>
<!-- Node1&#45;&gt;Node16 -->
<g id="edge15_Node000001_Node000016" class="edge">
<title>Node1&#45;&gt;Node16</title>
<g id="a_edge15_Node000001_Node000016"><a xlink:title=" ">
<path fill="none" stroke="#63b8ff" d="M382.23,-176.82C365.19,-155.45 333.54,-120.06 298,-101.5 291.47,-98.09 284.35,-95.32 277.08,-93.08"/>
<polygon fill="#63b8ff" stroke="#63b8ff" points="379.52,-179.03 388.42,-184.77 385.04,-174.73 379.52,-179.03"/>
</a>
</g>
</g>
<!-- Node17 -->
<g id="Node000017" class="node">
<title>Node17</title>
<g id="a_Node000017"><a xlink:href="classDevLab__ICM20948.html#ae9c088334d6ec706bb08b47ef29bd186" target="_top" xlink:title=" ">
<polygon fill="white" stroke="#666666" points="292,-290 125,-290 125,-271 292,-271 292,-290"/>
<text text-anchor="middle" x="208.5" y="-278" font-family="Helvetica,sans-Serif" font-size="10.00">DevLab_ICM20948::setSensors</text>
</a>
</g>
</g>
<!-- Node1&#45;&gt;Node17 -->
<g id="edge16_Node000001_Node000017" class="edge">
<title>Node1&#45;&gt;Node17</title>
<g id="a_edge16_Node000001_Node000017"><a xlink:title=" ">
<path fill="none" stroke="#63b8ff" d="M376.92,-210.59C358.22,-225.95 327.93,-248.6 298,-261.5 289.05,-265.35 279.25,-268.46 269.53,-270.94"/>
<polygon fill="#63b8ff" stroke="#63b8ff" points="379.24,-213.22 384.66,-204.11 374.75,-207.85 379.24,-213.22"/>
</a>
</g>
</g>
<!-- Node4 -->
<g id="Node000004" class="node">
<title>Node4</title>
<g id="a_Node000004"><a xlink:href="gyr__test_8ino.html#a4fc01d736fe50cf5b977f755b675f11d" target="_top" xlink:title="Initialize I2C, reset/wake the IMU, enable gyro, and start the sweep.">
<polygon fill="white" stroke="#666666" points="63.5,-247 19.5,-247 19.5,-228 63.5,-228 63.5,-247"/>
<text text-anchor="middle" x="41.5" y="-235" font-family="Helvetica,sans-Serif" font-size="10.00">setup</text>
</a>
</g>
</g>
<!-- Node3&#45;&gt;Node4 -->
<g id="edge3_Node000003_Node000004" class="edge">
<title>Node3&#45;&gt;Node4</title>
<g id="a_edge3_Node000003_Node000004"><a xlink:title=" ">
<path fill="none" stroke="#63b8ff" d="M135.62,-169.94C129.89,-171.83 124.28,-174 119,-176.5 91.67,-189.44 65.36,-213.88 51.87,-227.57"/>
<polygon fill="#63b8ff" stroke="#63b8ff" points="136.78,-173.24 145.35,-167.01 134.77,-166.54 136.78,-173.24"/>
</a>
</g>
</g>
<!-- Node6 -->
<g id="Node000006" class="node">
<title>Node6</title>
<g id="a_Node000006"><a xlink:href="spi__accel_8ino.html#a4fc01d736fe50cf5b977f755b675f11d" target="_top" xlink:title="Configure the IMU for accelerometer&#45;only operation over SPI.">
<polygon fill="white" stroke="#666666" points="63.5,-327 19.5,-327 19.5,-308 63.5,-308 63.5,-327"/>
<text text-anchor="middle" x="41.5" y="-315" font-family="Helvetica,sans-Serif" font-size="10.00">setup</text>
</a>
</g>
</g>
<!-- Node5&#45;&gt;Node6 -->
<g id="edge5_Node000005_Node000006" class="edge">
<title>Node5&#45;&gt;Node6</title>
<g id="a_edge5_Node000005_Node000006"><a xlink:title=" ">
<path fill="none" stroke="#63b8ff" d="M120.7,-317.5C99.47,-317.5 78.61,-317.5 63.79,-317.5"/>
<polygon fill="#63b8ff" stroke="#63b8ff" points="120.8,-321 130.8,-317.5 120.8,-314 120.8,-321"/>
</a>
</g>
</g>
<!-- Node10 -->
<g id="Node000010" class="node">
<title>Node10</title>
<g id="a_Node000010"><a xlink:href="test_8ino.html#a327f4fbd9f22daba4f8a6f3f1c13f729" target="_top" xlink:title="Apply one accelerometer full&#45;scale and DLPF configuration.">
<polygon fill="white" stroke="#666666" points="83,-130 0,-130 0,-111 83,-111 83,-130"/>
<text text-anchor="middle" x="41.5" y="-118" font-family="Helvetica,sans-Serif" font-size="10.00">applySettings</text>
</a>
</g>
</g>
<!-- Node9&#45;&gt;Node10 -->
<g id="edge9_Node000009_Node000010" class="edge">
<title>Node9&#45;&gt;Node10</title>
<g id="a_edge9_Node000009_Node000010"><a xlink:title=" ">
<path fill="none" stroke="#63b8ff" d="M108.65,-120.5C99.81,-120.5 91.23,-120.5 83.33,-120.5"/>
<polygon fill="#63b8ff" stroke="#63b8ff" points="108.72,-124 118.72,-120.5 108.72,-117 108.72,-124"/>
</a>
</g>
</g>
<!-- Node11 -->
<g id="Node000011" class="node">
<title>Node11</title>
<g id="a_Node000011"><a xlink:href="test2_8ino.html#a73c1d2766fc4db839bb9adf5cab93c80" target="_top" xlink:title="Apply one accelerometer full&#45;scale, DLPF, and averaging configuration.">
<polygon fill="white" stroke="#666666" points="83,-93 0,-93 0,-74 83,-74 83,-93"/>
<text text-anchor="middle" x="41.5" y="-81" font-family="Helvetica,sans-Serif" font-size="10.00">applySettings</text>
</a>
</g>
</g>
<!-- Node9&#45;&gt;Node11 -->
<g id="edge10_Node000009_Node000011" class="edge">
<title>Node9&#45;&gt;Node11</title>
<g id="a_edge10_Node000009_Node000011"><a xlink:title=" ">
<path fill="none" stroke="#63b8ff" d="M152.07,-108.78C141.1,-106.41 129.68,-103.9 119,-101.5 107.15,-98.83 94.3,-95.85 82.57,-93.08"/>
<polygon fill="#63b8ff" stroke="#63b8ff" points="151.47,-112.23 161.99,-110.91 152.95,-105.38 151.47,-112.23"/>
</a>
</g>
</g>
<!-- Node12 -->
<g id="Node000012" class="node">
<title>Node12</title>
<g id="a_Node000012"><a xlink:href="i2c__accel_8ino.html#a4fc01d736fe50cf5b977f755b675f11d" target="_top" xlink:title="Configure the IMU for accelerometer&#45;only operation over I2C.">
<polygon fill="white" stroke="#666666" points="63.5,-167 19.5,-167 19.5,-148 63.5,-148 63.5,-167"/>
<text text-anchor="middle" x="41.5" y="-155" font-family="Helvetica,sans-Serif" font-size="10.00">setup</text>
</a>
</g>
</g>
<!-- Node9&#45;&gt;Node12 -->
<g id="edge11_Node000009_Node000012" class="edge">
<title>Node9&#45;&gt;Node12</title>
<g id="a_edge11_Node000009_Node000012"><a xlink:title=" ">
<path fill="none" stroke="#63b8ff" d="M152.07,-132.22C141.1,-134.59 129.68,-137.1 119,-139.5 100.23,-143.72 78.93,-148.75 63.58,-152.42"/>
<polygon fill="#63b8ff" stroke="#63b8ff" points="152.95,-135.62 161.99,-130.09 151.47,-128.77 152.95,-135.62"/>
</a>
</g>
</g>
<!-- Node14 -->
<g id="Node000014" class="node">
<title>Node14</title>
<g id="a_Node000014"><a xlink:href="gyr__test_8ino.html#a327f4fbd9f22daba4f8a6f3f1c13f729" target="_top" xlink:title="Apply one gyroscope full&#45;scale and DLPF configuration.">
<polygon fill="white" stroke="#666666" points="83,-19 0,-19 0,0 83,0 83,-19"/>
<text text-anchor="middle" x="41.5" y="-7" font-family="Helvetica,sans-Serif" font-size="10.00">applySettings</text>
</a>
</g>
</g>
<!-- Node13&#45;&gt;Node14 -->
<g id="edge13_Node000013_Node000014" class="edge">
<title>Node13&#45;&gt;Node14</title>
<g id="a_edge13_Node000013_Node000014"><a xlink:title=" ">
<path fill="none" stroke="#63b8ff" d="M154.96,-34.72C131.72,-29.51 104.81,-23.47 83.14,-18.61"/>
<polygon fill="#63b8ff" stroke="#63b8ff" points="154.48,-38.2 165.01,-36.97 156.02,-31.37 154.48,-38.2"/>
</a>
</g>
</g>
<!-- Node15 -->
<g id="Node000015" class="node">
<title>Node15</title>
<g id="a_Node000015"><a xlink:href="i2c__gyro_8ino.html#a4fc01d736fe50cf5b977f755b675f11d" target="_top" xlink:title="Configure the IMU for gyroscope&#45;only operation over I2C.">
<polygon fill="white" stroke="#666666" points="63.5,-56 19.5,-56 19.5,-37 63.5,-37 63.5,-56"/>
<text text-anchor="middle" x="41.5" y="-44" font-family="Helvetica,sans-Serif" font-size="10.00">setup</text>
</a>
</g>
</g>
<!-- Node13&#45;&gt;Node15 -->
<g id="edge14_Node000013_Node000015" class="edge">
<title>Node13&#45;&gt;Node15</title>
<g id="a_edge14_Node000013_Node000015"><a xlink:title=" ">
<path fill="none" stroke="#63b8ff" d="M121.52,-46.5C99.97,-46.5 78.74,-46.5 63.72,-46.5"/>
<polygon fill="#63b8ff" stroke="#63b8ff" points="121.76,-50 131.76,-46.5 121.76,-43 121.76,-50"/>
</a>
</g>
</g>
<!-- Node17&#45;&gt;Node4 -->
<g id="edge17_Node000017_Node000004" class="edge">
<title>Node17&#45;&gt;Node4</title>
<g id="a_edge17_Node000017_Node000004"><a xlink:title=" ">
<path fill="none" stroke="#63b8ff" d="M149.12,-268.77C139.04,-266.51 128.69,-264.05 119,-261.5 100.16,-256.53 79.04,-249.82 63.78,-244.76"/>
<polygon fill="#63b8ff" stroke="#63b8ff" points="148.56,-272.23 159.08,-270.95 150.06,-265.39 148.56,-272.23"/>
</a>
</g>
</g>
</g>
</svg>
