<?xml version="1.0" encoding="UTF-8" standalone="no"?>
<!DOCTYPE svg PUBLIC "-//W3C//DTD SVG 1.1//EN"
 "http://www.w3.org/Graphics/SVG/1.1/DTD/svg11.dtd">
<!-- Generated by graphviz version 2.43.0 (0)
 -->
<!-- Title: DevLab_ICM20948::auxMasterEnable Pages: 1 -->
<svg width="685pt" height="77pt"
 viewBox="0.00 0.00 685.00 76.83" xmlns="http://www.w3.org/2000/svg" xmlns:xlink="http://www.w3.org/1999/xlink">
<g id="graph0" class="graph" transform="scale(1 1) rotate(0) translate(4 72.83)">
<title>DevLab_ICM20948::auxMasterEnable</title>
<!-- Node1 -->
<g id="Node000001" class="node">
<title>Node1</title>
<g id="a_Node000001"><a xlink:title=" ">
<polygon fill="#999999" stroke="#666666" points="165,-37.33 0,-37.33 0,-7.33 165,-7.33 165,-37.33"/>
<text text-anchor="start" x="8" y="-25.33" font-family="Helvetica,sans-Serif" font-size="10.00">DevLab_ICM20948::auxMaster</text>
<text text-anchor="middle" x="82.5" y="-14.33" font-family="Helvetica,sans-Serif" font-size="10.00">Enable</text>
</a>
</g>
</g>
<!-- Node2 -->
<g id="Node000002" class="node">
<title>Node2</title>
<g id="a_Node000002"><a xlink:href="classDevLab__ICM20948.html#aaa26fcbfea0e67d45cb1c3ae39654c55" target="_top" xlink:title=" ">
<polygon fill="white" stroke="#666666" points="529,-68.83 362,-68.83 362,-49.83 529,-49.83 529,-68.83"/>
<text text-anchor="middle" x="445.5" y="-56.83" font-family="Helvetica,sans-Serif" font-size="10.00">DevLab_ICM20948::selectBank</text>
</a>
</g>
</g>
<!-- Node1&#45;&gt;Node2 -->
<g id="edge1_Node000001_Node000002" class="edge">
<title>Node1&#45;&gt;Node2</title>
<g id="a_edge1_Node000001_Node000002"><a xlink:title=" ">
<path fill="none" stroke="#63b8ff" d="M165.25,-35.65C177.22,-37.37 189.42,-38.99 201,-40.33 250.64,-46.06 306.17,-50.54 351.66,-53.71"/>
<polygon fill="#63b8ff" stroke="#63b8ff" points="351.58,-57.21 361.8,-54.4 352.06,-50.22 351.58,-57.21"/>
</a>
</g>
</g>
<!-- Node4 -->
<g id="Node000004" class="node">
<title>Node4</title>
<g id="a_Node000004"><a xlink:href="classBusIO__7Semi.html#ac7b3d1c425f7187abbe1bbec64d9ccea" target="_top" xlink:title=" ">
<polygon fill="white" stroke="#666666" points="326,-31.83 201,-31.83 201,-12.83 326,-12.83 326,-31.83"/>
<text text-anchor="middle" x="263.5" y="-19.83" font-family="Helvetica,sans-Serif" font-size="10.00">BusIO_7Semi::writeBit</text>
</a>
</g>
</g>
<!-- Node1&#45;&gt;Node4 -->
<g id="edge3_Node000001_Node000004" class="edge">
<title>Node1&#45;&gt;Node4</title>
<g id="a_edge3_Node000001_Node000004"><a xlink:title=" ">
<path fill="none" stroke="#63b8ff" d="M165.14,-22.33C173.66,-22.33 182.28,-22.33 190.68,-22.33"/>
<polygon fill="#63b8ff" stroke="#63b8ff" points="190.8,-25.83 200.8,-22.33 190.8,-18.83 190.8,-25.83"/>
</a>
</g>
</g>
<!-- Node5 -->
<g id="Node000005" class="node">
<title>Node5</title>
<g id="a_Node000005"><a xlink:href="classBusIO__7Semi.html#a855c7388d4118e632c84c7f8e2e3ddc2" target="_top" xlink:title=" ">
<polygon fill="white" stroke="#666666" points="511,-31.83 380,-31.83 380,-12.83 511,-12.83 511,-31.83"/>
<text text-anchor="middle" x="445.5" y="-19.83" font-family="Helvetica,sans-Serif" font-size="10.00">BusIO_7Semi::writeBits</text>
</a>
</g>
</g>
<!-- Node1&#45;&gt;Node5 -->
<g id="edge7_Node000001_Node000005" class="edge">
<title>Node1&#45;&gt;Node5</title>
<g id="a_edge7_Node000001_Node000005"><a xlink:title=" ">
<path fill="none" stroke="#63b8ff" d="M165.15,-7.4C177.14,-5.71 189.36,-4.26 201,-3.33 256.38,1.12 270.62,1.08 326,-3.33 345.72,-4.9 367.11,-7.92 386.22,-11.09"/>
<polygon fill="#63b8ff" stroke="#63b8ff" points="385.83,-14.58 396.28,-12.81 387.01,-7.68 385.83,-14.58"/>
</a>
</g>
</g>
<!-- Node3 -->
<g id="Node000003" class="node">
<title>Node3</title>
<g id="a_Node000003"><a xlink:href="classBusIO__7Semi.html#aa633479356af692cb9ea334771b7c0c5" target="_top" xlink:title=" ">
<polygon fill="white" stroke="#666666" points="677,-68.83 565,-68.83 565,-49.83 677,-49.83 677,-68.83"/>
<text text-anchor="middle" x="621" y="-56.83" font-family="Helvetica,sans-Serif" font-size="10.00">BusIO_7Semi::write</text>
</a>
</g>
</g>
<!-- Node2&#45;&gt;Node3 -->
<g id="edge2_Node000002_Node000003" class="edge">
<title>Node2&#45;&gt;Node3</title>
<g id="a_edge2_Node000002_Node000003"><a xlink:title=" ">
<path fill="none" stroke="#63b8ff" d="M529.18,-59.33C537.75,-59.33 546.36,-59.33 554.7,-59.33"/>
<polygon fill="#63b8ff" stroke="#63b8ff" points="554.7,-62.83 564.7,-59.33 554.7,-55.83 554.7,-62.83"/>
</a>
</g>
</g>
<!-- Node4&#45;&gt;Node5 -->
<g id="edge4_Node000004_Node000005" class="edge">
<title>Node4&#45;&gt;Node5</title>
<g id="a_edge4_Node000004_Node000005"><a xlink:title=" ">
<path fill="none" stroke="#63b8ff" d="M326.19,-22.33C340.12,-22.33 355.04,-22.33 369.45,-22.33"/>
<polygon fill="#63b8ff" stroke="#63b8ff" points="369.82,-25.83 379.82,-22.33 369.82,-18.83 369.82,-25.83"/>
</a>
</g>
</g>
<!-- Node5&#45;&gt;Node3 -->
<g id="edge6_Node000005_Node000003" class="edge">
<title>Node5&#45;&gt;Node3</title>
<g id="a_edge6_Node000005_Node000003"><a xlink:title=" ">
<path fill="none" stroke="#63b8ff" d="M491.18,-31.86C513.76,-36.67 541.35,-42.56 565.2,-47.64"/>
<polygon fill="#63b8ff" stroke="#63b8ff" points="564.66,-51.1 575.17,-49.77 566.12,-44.26 564.66,-51.1"/>
</a>
</g>
</g>
<!-- Node6 -->
<g id="Node000006" class="node">
<title>Node6</title>
<g id="a_Node000006"><a xlink:href="classBusIO__7Semi.html#a933c66d9a1afe84102323e209a93dd31" target="_top" xlink:title=" ">
<polygon fill="white" stroke="#666666" points="675.5,-31.83 566.5,-31.83 566.5,-12.83 675.5,-12.83 675.5,-31.83"/>
<text text-anchor="middle" x="621" y="-19.83" font-family="Helvetica,sans-Serif" font-size="10.00">BusIO_7Semi::read</text>
</a>
</g>
</g>
<!-- Node5&#45;&gt;Node6 -->
<g id="edge5_Node000005_Node000006" class="edge">
<title>Node5&#45;&gt;Node6</title>
<g id="a_edge5_Node000005_Node000006"><a xlink:title=" ">
<path fill="none" stroke="#63b8ff" d="M511.1,-22.33C525.9,-22.33 541.62,-22.33 556.37,-22.33"/>
<polygon fill="#63b8ff" stroke="#63b8ff" points="556.41,-25.83 566.41,-22.33 556.41,-18.83 556.41,-25.83"/>
</a>
</g>
</g>
</g>
</svg>
