<?xml version="1.0" encoding="UTF-8" standalone="no"?>
<!DOCTYPE svg PUBLIC "-//W3C//DTD SVG 1.1//EN"
 "http://www.w3.org/Graphics/SVG/1.1/DTD/svg11.dtd">
<!-- Generated by graphviz version 2.43.0 (0)
 -->
<!-- Title: DevLab_ICM20948::auxRead12bit Pages: 1 -->
<svg width="732pt" height="64pt"
 viewBox="0.00 0.00 732.00 64.00" xmlns="http://www.w3.org/2000/svg" xmlns:xlink="http://www.w3.org/1999/xlink">
<g id="graph0" class="graph" transform="scale(1 1) rotate(0) translate(4 60)">
<title>DevLab_ICM20948::auxRead12bit</title>
<!-- Node1 -->
<g id="Node000001" class="node">
<title>Node1</title>
<g id="a_Node000001"><a xlink:title=" ">
<polygon fill="#999999" stroke="#666666" points="181,-37 0,-37 0,-18 181,-18 181,-37"/>
<text text-anchor="middle" x="90.5" y="-25" font-family="Helvetica,sans-Serif" font-size="10.00">DevLab_ICM20948::auxRead12bit</text>
</a>
</g>
</g>
<!-- Node2 -->
<g id="Node000002" class="node">
<title>Node2</title>
<g id="a_Node000002"><a xlink:href="classDevLab__ICM20948.html#a8f47c9f63642c35e5b5656e720667566" target="_top" xlink:title=" ">
<polygon fill="white" stroke="#666666" points="373,-42.5 217,-42.5 217,-12.5 373,-12.5 373,-42.5"/>
<text text-anchor="start" x="225" y="-30.5" font-family="Helvetica,sans-Serif" font-size="10.00">DevLab_ICM20948::auxRead</text>
<text text-anchor="middle" x="295" y="-19.5" font-family="Helvetica,sans-Serif" font-size="10.00">SensorData</text>
</a>
</g>
</g>
<!-- Node1&#45;&gt;Node2 -->
<g id="edge1_Node000001_Node000002" class="edge">
<title>Node1&#45;&gt;Node2</title>
<g id="a_edge1_Node000001_Node000002"><a xlink:title=" ">
<path fill="none" stroke="#63b8ff" d="M181.2,-27.5C189.63,-27.5 198.16,-27.5 206.56,-27.5"/>
<polygon fill="#63b8ff" stroke="#63b8ff" points="206.73,-31 216.73,-27.5 206.73,-24 206.73,-31"/>
</a>
</g>
</g>
<!-- Node3 -->
<g id="Node000003" class="node">
<title>Node3</title>
<g id="a_Node000003"><a xlink:href="classBusIO__7Semi.html#a933c66d9a1afe84102323e209a93dd31" target="_top" xlink:title=" ">
<polygon fill="white" stroke="#666666" points="547,-56 438,-56 438,-37 547,-37 547,-56"/>
<text text-anchor="middle" x="492.5" y="-44" font-family="Helvetica,sans-Serif" font-size="10.00">BusIO_7Semi::read</text>
</a>
</g>
</g>
<!-- Node2&#45;&gt;Node3 -->
<g id="edge2_Node000002_Node000003" class="edge">
<title>Node2&#45;&gt;Node3</title>
<g id="a_edge2_Node000002_Node000003"><a xlink:title=" ">
<path fill="none" stroke="#63b8ff" d="M373.27,-35.01C391.38,-36.77 410.47,-38.63 427.91,-40.32"/>
<polygon fill="#63b8ff" stroke="#63b8ff" points="427.67,-43.81 437.96,-41.3 428.35,-36.85 427.67,-43.81"/>
</a>
</g>
</g>
<!-- Node4 -->
<g id="Node000004" class="node">
<title>Node4</title>
<g id="a_Node000004"><a xlink:href="classDevLab__ICM20948.html#aaa26fcbfea0e67d45cb1c3ae39654c55" target="_top" xlink:title=" ">
<polygon fill="white" stroke="#666666" points="576,-19 409,-19 409,0 576,0 576,-19"/>
<text text-anchor="middle" x="492.5" y="-7" font-family="Helvetica,sans-Serif" font-size="10.00">DevLab_ICM20948::selectBank</text>
</a>
</g>
</g>
<!-- Node2&#45;&gt;Node4 -->
<g id="edge3_Node000002_Node000004" class="edge">
<title>Node2&#45;&gt;Node4</title>
<g id="a_edge3_Node000002_Node000004"><a xlink:title=" ">
<path fill="none" stroke="#63b8ff" d="M373.27,-20.39C381.63,-19.62 390.2,-18.83 398.72,-18.04"/>
<polygon fill="#63b8ff" stroke="#63b8ff" points="399.05,-21.53 408.68,-17.13 398.4,-14.56 399.05,-21.53"/>
</a>
</g>
</g>
<!-- Node5 -->
<g id="Node000005" class="node">
<title>Node5</title>
<g id="a_Node000005"><a xlink:href="classBusIO__7Semi.html#aa633479356af692cb9ea334771b7c0c5" target="_top" xlink:title=" ">
<polygon fill="white" stroke="#666666" points="724,-19 612,-19 612,0 724,0 724,-19"/>
<text text-anchor="middle" x="668" y="-7" font-family="Helvetica,sans-Serif" font-size="10.00">BusIO_7Semi::write</text>
</a>
</g>
</g>
<!-- Node4&#45;&gt;Node5 -->
<g id="edge4_Node000004_Node000005" class="edge">
<title>Node4&#45;&gt;Node5</title>
<g id="a_edge4_Node000004_Node000005"><a xlink:title=" ">
<path fill="none" stroke="#63b8ff" d="M576.18,-9.5C584.75,-9.5 593.36,-9.5 601.7,-9.5"/>
<polygon fill="#63b8ff" stroke="#63b8ff" points="601.7,-13 611.7,-9.5 601.7,-6 601.7,-13"/>
</a>
</g>
</g>
</g>
</svg>
