<?xml version="1.0" encoding="UTF-8" standalone="no"?>
<!DOCTYPE svg PUBLIC "-//W3C//DTD SVG 1.1//EN"
 "http://www.w3.org/Graphics/SVG/1.1/DTD/svg11.dtd">
<!-- Generated by graphviz version 2.43.0 (0)
 -->
<!-- Title: DevLab_ICM20948::initMag Pages: 1 -->
<svg width="704pt" height="127pt"
 viewBox="0.00 0.00 704.00 126.88" xmlns="http://www.w3.org/2000/svg" xmlns:xlink="http://www.w3.org/1999/xlink">
<g id="graph0" class="graph" transform="scale(1 1) rotate(0) translate(4 122.88)">
<title>DevLab_ICM20948::initMag</title>
<!-- Node1 -->
<g id="Node000001" class="node">
<title>Node1</title>
<g id="a_Node000001"><a xlink:title=" ">
<polygon fill="#999999" stroke="#666666" points="150,-76 0,-76 0,-57 150,-57 150,-76"/>
<text text-anchor="middle" x="75" y="-64" font-family="Helvetica,sans-Serif" font-size="10.00">DevLab_ICM20948::initMag</text>
</a>
</g>
</g>
<!-- Node2 -->
<g id="Node000002" class="node">
<title>Node2</title>
<g id="a_Node000002"><a xlink:href="classDevLab__ICM20948.html#aaa26fcbfea0e67d45cb1c3ae39654c55" target="_top" xlink:title=" ">
<polygon fill="white" stroke="#666666" points="548,-57 381,-57 381,-38 548,-38 548,-57"/>
<text text-anchor="middle" x="464.5" y="-45" font-family="Helvetica,sans-Serif" font-size="10.00">DevLab_ICM20948::selectBank</text>
</a>
</g>
</g>
<!-- Node1&#45;&gt;Node2 -->
<g id="edge1_Node000001_Node000002" class="edge">
<title>Node1&#45;&gt;Node2</title>
<g id="a_edge1_Node000001_Node000002"><a xlink:title=" ">
<path fill="none" stroke="#63b8ff" d="M150.26,-62.86C212.96,-59.78 303.07,-55.37 370.56,-52.06"/>
<polygon fill="#63b8ff" stroke="#63b8ff" points="370.95,-55.54 380.77,-51.56 370.61,-48.55 370.95,-55.54"/>
</a>
</g>
</g>
<!-- Node3 -->
<g id="Node000003" class="node">
<title>Node3</title>
<g id="a_Node000003"><a xlink:href="classBusIO__7Semi.html#aa633479356af692cb9ea334771b7c0c5" target="_top" xlink:title=" ">
<polygon fill="white" stroke="#666666" points="696,-76 584,-76 584,-57 696,-57 696,-76"/>
<text text-anchor="middle" x="640" y="-64" font-family="Helvetica,sans-Serif" font-size="10.00">BusIO_7Semi::write</text>
</a>
</g>
</g>
<!-- Node1&#45;&gt;Node3 -->
<g id="edge9_Node000001_Node000003" class="edge">
<title>Node1&#45;&gt;Node3</title>
<g id="a_edge9_Node000001_Node000003"><a xlink:title=" ">
<path fill="none" stroke="#63b8ff" d="M96.95,-76.09C118.68,-85.47 153.92,-99.11 186,-104.5 344.81,-131.16 389.05,-115.26 548,-89.5 564.23,-86.87 581.8,-82.74 597.14,-78.7"/>
<polygon fill="#63b8ff" stroke="#63b8ff" points="598.11,-82.06 606.86,-76.08 596.29,-75.31 598.11,-82.06"/>
</a>
</g>
</g>
<!-- Node4 -->
<g id="Node000004" class="node">
<title>Node4</title>
<g id="a_Node000004"><a xlink:href="classDevLab__ICM20948.html#a4210e842050486637a5967b2a9ef7b57" target="_top" xlink:title=" ">
<polygon fill="white" stroke="#666666" points="335.5,-95 195.5,-95 195.5,-76 335.5,-76 335.5,-95"/>
<text text-anchor="middle" x="265.5" y="-83" font-family="Helvetica,sans-Serif" font-size="10.00">DevLab_ICM20948::sleep</text>
</a>
</g>
</g>
<!-- Node1&#45;&gt;Node4 -->
<g id="edge3_Node000001_Node000004" class="edge">
<title>Node1&#45;&gt;Node4</title>
<g id="a_edge3_Node000001_Node000004"><a xlink:title=" ">
<path fill="none" stroke="#63b8ff" d="M150.23,-73.98C161.7,-75.14 173.59,-76.34 185.17,-77.5"/>
<polygon fill="#63b8ff" stroke="#63b8ff" points="184.95,-81 195.25,-78.52 185.66,-74.04 184.95,-81"/>
</a>
</g>
</g>
<!-- Node5 -->
<g id="Node000005" class="node">
<title>Node5</title>
<g id="a_Node000005"><a xlink:href="classDevLab__ICM20948.html#a0d6774b76298645ee45ec0e9065a8891" target="_top" xlink:title=" ">
<polygon fill="white" stroke="#666666" points="345,-19 186,-19 186,0 345,0 345,-19"/>
<text text-anchor="middle" x="265.5" y="-7" font-family="Helvetica,sans-Serif" font-size="10.00">DevLab_ICM20948::softReset</text>
</a>
</g>
</g>
<!-- Node1&#45;&gt;Node5 -->
<g id="edge6_Node000001_Node000005" class="edge">
<title>Node1&#45;&gt;Node5</title>
<g id="a_edge6_Node000001_Node000005"><a xlink:title=" ">
<path fill="none" stroke="#63b8ff" d="M107.55,-56.96C139.22,-47.38 188.18,-32.58 222.98,-22.05"/>
<polygon fill="#63b8ff" stroke="#63b8ff" points="224.29,-25.32 232.85,-19.07 222.26,-18.62 224.29,-25.32"/>
</a>
</g>
</g>
<!-- Node2&#45;&gt;Node3 -->
<g id="edge2_Node000002_Node000003" class="edge">
<title>Node2&#45;&gt;Node3</title>
<g id="a_edge2_Node000002_Node000003"><a xlink:title=" ">
<path fill="none" stroke="#63b8ff" d="M548.18,-56.55C556.75,-57.49 565.36,-58.44 573.7,-59.35"/>
<polygon fill="#63b8ff" stroke="#63b8ff" points="573.38,-62.83 583.7,-60.44 574.14,-55.88 573.38,-62.83"/>
</a>
</g>
</g>
<!-- Node4&#45;&gt;Node2 -->
<g id="edge4_Node000004_Node000002" class="edge">
<title>Node4&#45;&gt;Node2</title>
<g id="a_edge4_Node000004_Node000002"><a xlink:title=" ">
<path fill="none" stroke="#63b8ff" d="M315.96,-75.96C342.65,-70.81 375.8,-64.42 403.92,-58.99"/>
<polygon fill="#63b8ff" stroke="#63b8ff" points="404.87,-62.37 414.02,-57.04 403.54,-55.5 404.87,-62.37"/>
</a>
</g>
</g>
<!-- Node4&#45;&gt;Node3 -->
<g id="edge5_Node000004_Node000003" class="edge">
<title>Node4&#45;&gt;Node3</title>
<g id="a_edge5_Node000004_Node000003"><a xlink:title=" ">
<path fill="none" stroke="#63b8ff" d="M335.69,-81.97C403.69,-78.5 506.71,-73.25 573.43,-69.84"/>
<polygon fill="#63b8ff" stroke="#63b8ff" points="574.01,-73.32 583.82,-69.31 573.65,-66.33 574.01,-73.32"/>
</a>
</g>
</g>
<!-- Node5&#45;&gt;Node2 -->
<g id="edge7_Node000005_Node000002" class="edge">
<title>Node5&#45;&gt;Node2</title>
<g id="a_edge7_Node000005_Node000002"><a xlink:title=" ">
<path fill="none" stroke="#63b8ff" d="M315.96,-19.04C342.65,-24.19 375.8,-30.58 403.92,-36.01"/>
<polygon fill="#63b8ff" stroke="#63b8ff" points="403.54,-39.5 414.02,-37.96 404.87,-32.63 403.54,-39.5"/>
</a>
</g>
</g>
<!-- Node5&#45;&gt;Node3 -->
<g id="edge8_Node000005_Node000003" class="edge">
<title>Node5&#45;&gt;Node3</title>
<g id="a_edge8_Node000005_Node000003"><a xlink:title=" ">
<path fill="none" stroke="#63b8ff" d="M345.18,-7.97C402.21,-8.5 480.78,-12.65 548,-28.5 570.36,-33.77 594.27,-43.95 611.97,-52.45"/>
<polygon fill="#63b8ff" stroke="#63b8ff" points="610.6,-55.68 621.12,-56.96 613.7,-49.4 610.6,-55.68"/>
</a>
</g>
</g>
</g>
</svg>
