<?xml version="1.0" encoding="UTF-8" standalone="no"?>
<!DOCTYPE svg PUBLIC "-//W3C//DTD SVG 1.1//EN"
 "http://www.w3.org/Graphics/SVG/1.1/DTD/svg11.dtd">
<!-- Generated by graphviz version 2.43.0 (0)
 -->
<!-- Title: BusIO_7Semi::writeBits Pages: 1 -->
<svg width="661pt" height="492pt"
 viewBox="0.00 0.00 661.00 491.50" xmlns="http://www.w3.org/2000/svg" xmlns:xlink="http://www.w3.org/1999/xlink">
<g id="graph0" class="graph" transform="scale(1 1) rotate(0) translate(4 487.5)">
<title>BusIO_7Semi::writeBits</title>
<!-- Node1 -->
<g id="Node000001" class="node">
<title>Node1</title>
<g id="a_Node000001"><a xlink:title=" ">
<polygon fill="#999999" stroke="#666666" points="653,-296 522,-296 522,-277 653,-277 653,-296"/>
<text text-anchor="middle" x="587.5" y="-284" font-family="Helvetica,sans-Serif" font-size="10.00">BusIO_7Semi::writeBits</text>
</a>
</g>
</g>
<!-- Node2 -->
<g id="Node000002" class="node">
<title>Node2</title>
<g id="a_Node000002"><a xlink:href="classDevLab__ICM20948.html#aab027c72832d1c7ec722187e6a64796a" target="_top" xlink:title=" ">
<polygon fill="white" stroke="#666666" points="291,-387.5 126,-387.5 126,-357.5 291,-357.5 291,-387.5"/>
<text text-anchor="start" x="134" y="-375.5" font-family="Helvetica,sans-Serif" font-size="10.00">DevLab_ICM20948::auxMaster</text>
<text text-anchor="middle" x="208.5" y="-364.5" font-family="Helvetica,sans-Serif" font-size="10.00">Enable</text>
</a>
</g>
</g>
<!-- Node1&#45;&gt;Node2 -->
<g id="edge1_Node000001_Node000002" class="edge">
<title>Node1&#45;&gt;Node2</title>
<g id="a_edge1_Node000001_Node000002"><a xlink:title=" ">
<path fill="none" stroke="#63b8ff" d="M553.97,-299.7C534.5,-307.2 509.13,-316.31 486,-322.5 421.32,-339.81 346.52,-352.93 291.04,-361.38"/>
<polygon fill="#63b8ff" stroke="#63b8ff" points="555.25,-302.95 563.29,-296.05 552.7,-296.43 555.25,-302.95"/>
</a>
</g>
</g>
<!-- Node3 -->
<g id="Node000003" class="node">
<title>Node3</title>
<g id="a_Node000003"><a xlink:href="classDevLab__ICM20948.html#a619f82390347cc173d1604d4d711b537" target="_top" xlink:title=" ">
<polygon fill="white" stroke="#666666" points="286,-483.5 131,-483.5 131,-453.5 286,-453.5 286,-483.5"/>
<text text-anchor="start" x="139" y="-471.5" font-family="Helvetica,sans-Serif" font-size="10.00">DevLab_ICM20948::setAccel</text>
<text text-anchor="middle" x="208.5" y="-460.5" font-family="Helvetica,sans-Serif" font-size="10.00">Averaging</text>
</a>
</g>
</g>
<!-- Node1&#45;&gt;Node3 -->
<g id="edge2_Node000001_Node000003" class="edge">
<title>Node1&#45;&gt;Node3</title>
<g id="a_edge2_Node000001_Node000003"><a xlink:title=" ">
<path fill="none" stroke="#63b8ff" d="M573.56,-304.37C556.15,-327.14 523.06,-366.23 486,-388.5 424.21,-425.63 344.27,-446.32 286.24,-457.3"/>
<polygon fill="#63b8ff" stroke="#63b8ff" points="576.45,-306.34 579.63,-296.24 570.84,-302.15 576.45,-306.34"/>
</a>
</g>
</g>
<!-- Node6 -->
<g id="Node000006" class="node">
<title>Node6</title>
<g id="a_Node000006"><a xlink:href="classDevLab__ICM20948.html#ac52d80aad738b90aa0f05e9d6404bb85" target="_top" xlink:title=" ">
<polygon fill="white" stroke="#666666" points="298,-339 119,-339 119,-320 298,-320 298,-339"/>
<text text-anchor="middle" x="208.5" y="-327" font-family="Helvetica,sans-Serif" font-size="10.00">DevLab_ICM20948::setAccelDLPF</text>
</a>
</g>
</g>
<!-- Node1&#45;&gt;Node6 -->
<g id="edge5_Node000001_Node000006" class="edge">
<title>Node1&#45;&gt;Node6</title>
<g id="a_edge5_Node000001_Node000006"><a xlink:title=" ">
<path fill="none" stroke="#63b8ff" d="M511.79,-297.19C503.1,-298.35 494.36,-299.48 486,-300.5 423.36,-308.15 352.57,-315.55 298.31,-320.96"/>
<polygon fill="#63b8ff" stroke="#63b8ff" points="512.5,-300.63 521.94,-295.82 511.56,-293.69 512.5,-300.63"/>
</a>
</g>
</g>
<!-- Node8 -->
<g id="Node000008" class="node">
<title>Node8</title>
<g id="a_Node000008"><a xlink:href="classDevLab__ICM20948.html#a1a2aa0019d5e1c6ba8ce4a3c1d9fcb43" target="_top" xlink:title=" ">
<polygon fill="white" stroke="#666666" points="286,-435.5 131,-435.5 131,-405.5 286,-405.5 286,-435.5"/>
<text text-anchor="start" x="139" y="-423.5" font-family="Helvetica,sans-Serif" font-size="10.00">DevLab_ICM20948::setAccel</text>
<text text-anchor="middle" x="208.5" y="-412.5" font-family="Helvetica,sans-Serif" font-size="10.00">Scale</text>
</a>
</g>
</g>
<!-- Node1&#45;&gt;Node8 -->
<g id="edge9_Node000001_Node000008" class="edge">
<title>Node1&#45;&gt;Node8</title>
<g id="a_edge9_Node000001_Node000008"><a xlink:title=" ">
<path fill="none" stroke="#63b8ff" d="M566.45,-302.33C546.93,-317.02 515.92,-338.52 486,-351.5 421.32,-379.56 342.98,-397.76 286.22,-408.38"/>
<polygon fill="#63b8ff" stroke="#63b8ff" points="568.75,-304.97 574.56,-296.11 564.49,-299.42 568.75,-304.97"/>
</a>
</g>
</g>
<!-- Node9 -->
<g id="Node000009" class="node">
<title>Node9</title>
<g id="a_Node000009"><a xlink:href="classDevLab__ICM20948.html#a0bea2c662c285120253851c80289e077" target="_top" xlink:title=" ">
<polygon fill="white" stroke="#666666" points="285,-253 132,-253 132,-234 285,-234 285,-253"/>
<text text-anchor="middle" x="208.5" y="-241" font-family="Helvetica,sans-Serif" font-size="10.00">DevLab_ICM20948::setDLPF</text>
</a>
</g>
</g>
<!-- Node1&#45;&gt;Node9 -->
<g id="edge13_Node000001_Node000009" class="edge">
<title>Node1&#45;&gt;Node9</title>
<g id="a_edge13_Node000001_Node000009"><a xlink:title=" ">
<path fill="none" stroke="#63b8ff" d="M511.42,-277.94C445.78,-270.45 350.93,-259.63 285.13,-252.13"/>
<polygon fill="#63b8ff" stroke="#63b8ff" points="511.36,-281.45 521.69,-279.11 512.15,-274.5 511.36,-281.45"/>
</a>
</g>
</g>
<!-- Node12 -->
<g id="Node000012" class="node">
<title>Node12</title>
<g id="a_Node000012"><a xlink:href="classDevLab__ICM20948.html#a7ae5665d5e835f8024df82f43bae46e7" target="_top" xlink:title=" ">
<polygon fill="white" stroke="#666666" points="486,-179.5 334,-179.5 334,-149.5 486,-149.5 486,-179.5"/>
<text text-anchor="start" x="342" y="-167.5" font-family="Helvetica,sans-Serif" font-size="10.00">DevLab_ICM20948::setGyro</text>
<text text-anchor="middle" x="410" y="-156.5" font-family="Helvetica,sans-Serif" font-size="10.00">Averaging</text>
</a>
</g>
</g>
<!-- Node1&#45;&gt;Node12 -->
<g id="edge16_Node000001_Node000012" class="edge">
<title>Node1&#45;&gt;Node12</title>
<g id="a_edge16_Node000001_Node000012"><a xlink:title=" ">
<path fill="none" stroke="#63b8ff" d="M572.47,-268.77C554.54,-247.21 521.55,-211.04 486,-189.5 479.78,-185.73 472.92,-182.45 465.95,-179.62"/>
<polygon fill="#63b8ff" stroke="#63b8ff" points="569.96,-271.23 578.99,-276.78 575.39,-266.81 569.96,-271.23"/>
</a>
</g>
</g>
<!-- Node13 -->
<g id="Node000013" class="node">
<title>Node13</title>
<g id="a_Node000013"><a xlink:href="classDevLab__ICM20948.html#a6a06dbd14558e50d40595de82502d632" target="_top" xlink:title=" ">
<polygon fill="white" stroke="#666666" points="284.5,-301.5 132.5,-301.5 132.5,-271.5 284.5,-271.5 284.5,-301.5"/>
<text text-anchor="start" x="140.5" y="-289.5" font-family="Helvetica,sans-Serif" font-size="10.00">DevLab_ICM20948::setGyro</text>
<text text-anchor="middle" x="208.5" y="-278.5" font-family="Helvetica,sans-Serif" font-size="10.00">Scale</text>
</a>
</g>
</g>
<!-- Node1&#45;&gt;Node13 -->
<g id="edge17_Node000001_Node000013" class="edge">
<title>Node1&#45;&gt;Node13</title>
<g id="a_edge17_Node000001_Node000013"><a xlink:title=" ">
<path fill="none" stroke="#63b8ff" d="M511.4,-286.5C445.65,-286.5 350.6,-286.5 284.79,-286.5"/>
<polygon fill="#63b8ff" stroke="#63b8ff" points="511.69,-290 521.69,-286.5 511.69,-283 511.69,-290"/>
</a>
</g>
</g>
<!-- Node14 -->
<g id="Node000014" class="node">
<title>Node14</title>
<g id="a_Node000014"><a xlink:href="classBusIO__7Semi.html#a6a07d4bd0a308294b37166b6d25209b2" target="_top" xlink:title=" ">
<polygon fill="white" stroke="#666666" points="472.5,-131 347.5,-131 347.5,-112 472.5,-112 472.5,-131"/>
<text text-anchor="middle" x="410" y="-119" font-family="Helvetica,sans-Serif" font-size="10.00">BusIO_7Semi::writeBit</text>
</a>
</g>
</g>
<!-- Node1&#45;&gt;Node14 -->
<g id="edge20_Node000001_Node000014" class="edge">
<title>Node1&#45;&gt;Node14</title>
<g id="a_edge20_Node000001_Node000014"><a xlink:title=" ">
<path fill="none" stroke="#63b8ff" d="M578.8,-267.5C565.04,-236.04 533.2,-173.35 486,-140.5 480.38,-136.59 474.02,-133.48 467.44,-131.01"/>
<polygon fill="#63b8ff" stroke="#63b8ff" points="575.65,-269.04 582.77,-276.88 582.1,-266.31 575.65,-269.04"/>
</a>
</g>
</g>
<!-- Node15 -->
<g id="Node000015" class="node">
<title>Node15</title>
<g id="a_Node000015"><a xlink:href="classBusIO__7Semi.html#ac7b3d1c425f7187abbe1bbec64d9ccea" target="_top" xlink:title=" ">
<polygon fill="white" stroke="#666666" points="472.5,-217 347.5,-217 347.5,-198 472.5,-198 472.5,-217"/>
<text text-anchor="middle" x="410" y="-205" font-family="Helvetica,sans-Serif" font-size="10.00">BusIO_7Semi::writeBit</text>
</a>
</g>
</g>
<!-- Node1&#45;&gt;Node15 -->
<g id="edge21_Node000001_Node000015" class="edge">
<title>Node1&#45;&gt;Node15</title>
<g id="a_edge21_Node000001_Node000015"><a xlink:title=" ">
<path fill="none" stroke="#63b8ff" d="M561.8,-271.68C541.81,-260.08 512.69,-244.02 486,-232.5 472.39,-226.63 456.92,-221.26 443.57,-217.02"/>
<polygon fill="#63b8ff" stroke="#63b8ff" points="560.17,-274.79 570.56,-276.83 563.71,-268.75 560.17,-274.79"/>
</a>
</g>
</g>
<!-- Node4 -->
<g id="Node000004" class="node">
<title>Node4</title>
<g id="a_Node000004"><a xlink:href="test2_8ino.html#a73c1d2766fc4db839bb9adf5cab93c80" target="_top" xlink:title="Apply one accelerometer full&#45;scale, DLPF, and averaging configuration.">
<polygon fill="white" stroke="#666666" points="83,-411 0,-411 0,-392 83,-392 83,-411"/>
<text text-anchor="middle" x="41.5" y="-399" font-family="Helvetica,sans-Serif" font-size="10.00">applySettings</text>
</a>
</g>
</g>
<!-- Node3&#45;&gt;Node4 -->
<g id="edge3_Node000003_Node000004" class="edge">
<title>Node3&#45;&gt;Node4</title>
<g id="a_edge3_Node000003_Node000004"><a xlink:title=" ">
<path fill="none" stroke="#63b8ff" d="M132.66,-450.08C127.98,-448.35 123.39,-446.49 119,-444.5 101.49,-436.55 99.75,-429.94 83,-420.5 77.18,-417.22 70.7,-414 64.66,-411.17"/>
<polygon fill="#63b8ff" stroke="#63b8ff" points="131.76,-453.47 142.36,-453.44 134.05,-446.86 131.76,-453.47"/>
</a>
</g>
</g>
<!-- Node5 -->
<g id="Node000005" class="node">
<title>Node5</title>
<g id="a_Node000005"><a xlink:href="i2c__accel_8ino.html#a4fc01d736fe50cf5b977f755b675f11d" target="_top" xlink:title="Configure the IMU for accelerometer&#45;only operation over I2C.">
<polygon fill="white" stroke="#666666" points="63.5,-448 19.5,-448 19.5,-429 63.5,-429 63.5,-448"/>
<text text-anchor="middle" x="41.5" y="-436" font-family="Helvetica,sans-Serif" font-size="10.00">setup</text>
</a>
</g>
</g>
<!-- Node3&#45;&gt;Node5 -->
<g id="edge4_Node000003_Node000005" class="edge">
<title>Node3&#45;&gt;Node5</title>
<g id="a_edge4_Node000003_Node000005"><a xlink:title=" ">
<path fill="none" stroke="#63b8ff" d="M120.7,-452.72C99.47,-448.86 78.61,-445.07 63.79,-442.37"/>
<polygon fill="#63b8ff" stroke="#63b8ff" points="120.33,-456.21 130.8,-454.55 121.58,-449.32 120.33,-456.21"/>
</a>
</g>
</g>
<!-- Node6&#45;&gt;Node4 -->
<g id="edge7_Node000006_Node000004" class="edge">
<title>Node6&#45;&gt;Node4</title>
<g id="a_edge7_Node000006_Node000004"><a xlink:title=" ">
<path fill="none" stroke="#63b8ff" d="M137.45,-341.82C131.11,-343.75 124.87,-345.96 119,-348.5 93.5,-359.54 67.73,-379.67 53.57,-391.69"/>
<polygon fill="#63b8ff" stroke="#63b8ff" points="138.77,-345.08 147.46,-339.03 136.89,-338.34 138.77,-345.08"/>
</a>
</g>
</g>
<!-- Node6&#45;&gt;Node5 -->
<g id="edge8_Node000006_Node000005" class="edge">
<title>Node6&#45;&gt;Node5</title>
<g id="a_edge8_Node000006_Node000005"><a xlink:title=" ">
<path fill="none" stroke="#63b8ff" d="M126.36,-343.56C123.79,-345.05 121.33,-346.7 119,-348.5 90.72,-370.42 108.87,-395.78 83,-420.5 77.55,-425.71 70.34,-429.57 63.51,-432.35"/>
<polygon fill="#63b8ff" stroke="#63b8ff" points="128.04,-346.63 135.42,-339.03 124.91,-340.37 128.04,-346.63"/>
</a>
</g>
</g>
<!-- Node7 -->
<g id="Node000007" class="node">
<title>Node7</title>
<g id="a_Node000007"><a xlink:href="test_8ino.html#a327f4fbd9f22daba4f8a6f3f1c13f729" target="_top" xlink:title="Apply one accelerometer full&#45;scale and DLPF configuration.">
<polygon fill="white" stroke="#666666" points="83,-347 0,-347 0,-328 83,-328 83,-347"/>
<text text-anchor="middle" x="41.5" y="-335" font-family="Helvetica,sans-Serif" font-size="10.00">applySettings</text>
</a>
</g>
</g>
<!-- Node6&#45;&gt;Node7 -->
<g id="edge6_Node000006_Node000007" class="edge">
<title>Node6&#45;&gt;Node7</title>
<g id="a_edge6_Node000006_Node000007"><a xlink:title=" ">
<path fill="none" stroke="#63b8ff" d="M108.65,-334.29C99.81,-334.72 91.23,-335.14 83.33,-335.52"/>
<polygon fill="#63b8ff" stroke="#63b8ff" points="108.9,-337.78 118.72,-333.8 108.56,-330.79 108.9,-337.78"/>
</a>
</g>
</g>
<!-- Node8&#45;&gt;Node4 -->
<g id="edge11_Node000008_Node000004" class="edge">
<title>Node8&#45;&gt;Node4</title>
<g id="a_edge11_Node000008_Node000004"><a xlink:title=" ">
<path fill="none" stroke="#63b8ff" d="M120.73,-410.51C107.57,-408.99 94.56,-407.49 83.04,-406.17"/>
<polygon fill="#63b8ff" stroke="#63b8ff" points="120.46,-414 130.8,-411.67 121.26,-407.05 120.46,-414"/>
</a>
</g>
</g>
<!-- Node8&#45;&gt;Node5 -->
<g id="edge12_Node000008_Node000005" class="edge">
<title>Node8&#45;&gt;Node5</title>
<g id="a_edge12_Node000008_Node000005"><a xlink:title=" ">
<path fill="none" stroke="#63b8ff" d="M120.7,-429.97C99.47,-432.29 78.61,-434.56 63.79,-436.18"/>
<polygon fill="#63b8ff" stroke="#63b8ff" points="121.24,-433.43 130.8,-428.87 120.48,-426.47 121.24,-433.43"/>
</a>
</g>
</g>
<!-- Node8&#45;&gt;Node7 -->
<g id="edge10_Node000008_Node000007" class="edge">
<title>Node8&#45;&gt;Node7</title>
<g id="a_edge10_Node000008_Node000007"><a xlink:title=" ">
<path fill="none" stroke="#63b8ff" d="M131.33,-401.97C127.1,-400.29 122.96,-398.46 119,-396.5 92.56,-383.37 66.32,-360.41 52.5,-347.34"/>
<polygon fill="#63b8ff" stroke="#63b8ff" points="130.13,-405.26 140.72,-405.45 132.56,-398.69 130.13,-405.26"/>
</a>
</g>
</g>
<!-- Node10 -->
<g id="Node000010" class="node">
<title>Node10</title>
<g id="a_Node000010"><a xlink:href="gyr__test_8ino.html#a327f4fbd9f22daba4f8a6f3f1c13f729" target="_top" xlink:title="Apply one gyroscope full&#45;scale and DLPF configuration.">
<polygon fill="white" stroke="#666666" points="83,-254 0,-254 0,-235 83,-235 83,-254"/>
<text text-anchor="middle" x="41.5" y="-242" font-family="Helvetica,sans-Serif" font-size="10.00">applySettings</text>
</a>
</g>
</g>
<!-- Node9&#45;&gt;Node10 -->
<g id="edge14_Node000009_Node000010" class="edge">
<title>Node9&#45;&gt;Node10</title>
<g id="a_edge14_Node000009_Node000010"><a xlink:title=" ">
<path fill="none" stroke="#63b8ff" d="M121.52,-244.02C108.12,-244.1 94.85,-244.18 83.11,-244.25"/>
<polygon fill="#63b8ff" stroke="#63b8ff" points="121.78,-247.52 131.76,-243.96 121.74,-240.52 121.78,-247.52"/>
</a>
</g>
</g>
<!-- Node11 -->
<g id="Node000011" class="node">
<title>Node11</title>
<g id="a_Node000011"><a xlink:href="i2c__gyro_8ino.html#a4fc01d736fe50cf5b977f755b675f11d" target="_top" xlink:title="Configure the IMU for gyroscope&#45;only operation over I2C.">
<polygon fill="white" stroke="#666666" points="63.5,-293 19.5,-293 19.5,-274 63.5,-274 63.5,-293"/>
<text text-anchor="middle" x="41.5" y="-281" font-family="Helvetica,sans-Serif" font-size="10.00">setup</text>
</a>
</g>
</g>
<!-- Node9&#45;&gt;Node11 -->
<g id="edge15_Node000009_Node000011" class="edge">
<title>Node9&#45;&gt;Node11</title>
<g id="a_edge15_Node000009_Node000011"><a xlink:title=" ">
<path fill="none" stroke="#63b8ff" d="M150.59,-255.22C140.06,-257.53 129.18,-260.01 119,-262.5 100.14,-267.11 78.84,-273.01 63.52,-277.39"/>
<polygon fill="#63b8ff" stroke="#63b8ff" points="151.51,-258.6 160.54,-253.07 150.02,-251.76 151.51,-258.6"/>
</a>
</g>
</g>
<!-- Node13&#45;&gt;Node10 -->
<g id="edge18_Node000013_Node000010" class="edge">
<title>Node13&#45;&gt;Node10</title>
<g id="a_edge18_Node000013_Node000010"><a xlink:title=" ">
<path fill="none" stroke="#63b8ff" d="M138.67,-268.98C118.63,-263.88 97.48,-258.49 80.13,-254.08"/>
<polygon fill="#63b8ff" stroke="#63b8ff" points="137.84,-272.38 148.4,-271.46 139.57,-265.6 137.84,-272.38"/>
</a>
</g>
</g>
<!-- Node13&#45;&gt;Node11 -->
<g id="edge19_Node000013_Node000011" class="edge">
<title>Node13&#45;&gt;Node11</title>
<g id="a_edge19_Node000013_Node000011"><a xlink:title=" ">
<path fill="none" stroke="#63b8ff" d="M122.19,-284.95C100.31,-284.55 78.69,-284.16 63.51,-283.88"/>
<polygon fill="#63b8ff" stroke="#63b8ff" points="122.18,-288.45 132.24,-285.13 122.31,-281.45 122.18,-288.45"/>
</a>
</g>
</g>
<!-- Node15&#45;&gt;Node2 -->
<g id="edge22_Node000015_Node000002" class="edge">
<title>Node15&#45;&gt;Node2</title>
<g id="a_edge22_Node000015_Node000002"><a xlink:title=" ">
<path fill="none" stroke="#63b8ff" d="M399.48,-226.2C383.02,-256.6 346.33,-316.54 298,-348.5 292.82,-351.93 287.17,-354.86 281.3,-357.38"/>
<polygon fill="#63b8ff" stroke="#63b8ff" points="402.7,-227.59 404.27,-217.11 396.51,-224.32 402.7,-227.59"/>
</a>
</g>
</g>
<!-- Node15&#45;&gt;Node6 -->
<g id="edge29_Node000015_Node000006" class="edge">
<title>Node15&#45;&gt;Node6</title>
<g id="a_edge29_Node000015_Node000006"><a xlink:title=" ">
<path fill="none" stroke="#63b8ff" d="M395.14,-225.3C375.94,-248.67 338.95,-289.2 298,-310.5 290.47,-314.42 282.18,-317.53 273.79,-320"/>
<polygon fill="#63b8ff" stroke="#63b8ff" points="398.06,-227.25 401.6,-217.27 392.61,-222.87 398.06,-227.25"/>
</a>
</g>
</g>
<!-- Node15&#45;&gt;Node9 -->
<g id="edge30_Node000015_Node000009" class="edge">
<title>Node15&#45;&gt;Node9</title>
<g id="a_edge30_Node000015_Node000009"><a xlink:title=" ">
<path fill="none" stroke="#63b8ff" d="M346.23,-218.83C319.31,-223.68 288.21,-229.3 262.47,-233.94"/>
<polygon fill="#63b8ff" stroke="#63b8ff" points="347.1,-222.23 356.32,-217.01 345.86,-215.34 347.1,-222.23"/>
</a>
</g>
</g>
<!-- Node16 -->
<g id="Node000016" class="node">
<title>Node16</title>
<g id="a_Node000016"><a xlink:href="classDevLab__ICM20948.html#a91147b3cd4c45bffc8e024f985be7b21" target="_top" xlink:title=" ">
<polygon fill="white" stroke="#666666" points="286.5,-216 130.5,-216 130.5,-197 286.5,-197 286.5,-216"/>
<text text-anchor="middle" x="208.5" y="-204" font-family="Helvetica,sans-Serif" font-size="10.00">DevLab_ICM20948::beginI2C</text>
</a>
</g>
</g>
<!-- Node15&#45;&gt;Node16 -->
<g id="edge23_Node000015_Node000016" class="edge">
<title>Node15&#45;&gt;Node16</title>
<g id="a_edge23_Node000015_Node000016"><a xlink:title=" ">
<path fill="none" stroke="#63b8ff" d="M337.21,-207.14C320.85,-207.06 303.39,-206.97 286.81,-206.89"/>
<polygon fill="#63b8ff" stroke="#63b8ff" points="337.23,-210.64 347.24,-207.19 337.26,-203.64 337.23,-210.64"/>
</a>
</g>
</g>
<!-- Node18 -->
<g id="Node000018" class="node">
<title>Node18</title>
<g id="a_Node000018"><a xlink:href="classDevLab__ICM20948.html#a4386f310503153f3e28935cbdda75b18" target="_top" xlink:title=" ">
<polygon fill="white" stroke="#666666" points="286,-142 131,-142 131,-123 286,-123 286,-142"/>
<text text-anchor="middle" x="208.5" y="-130" font-family="Helvetica,sans-Serif" font-size="10.00">DevLab_ICM20948::beginSPI</text>
</a>
</g>
</g>
<!-- Node15&#45;&gt;Node18 -->
<g id="edge25_Node000015_Node000018" class="edge">
<title>Node15&#45;&gt;Node18</title>
<g id="a_edge25_Node000015_Node000018"><a xlink:title=" ">
<path fill="none" stroke="#63b8ff" d="M345.76,-194.32C341.68,-192.61 337.72,-190.68 334,-188.5 313.93,-176.73 318.34,-161.79 298,-150.5 291.83,-147.08 285.1,-144.3 278.18,-142.05"/>
<polygon fill="#63b8ff" stroke="#63b8ff" points="344.88,-197.72 355.47,-197.93 347.32,-191.16 344.88,-197.72"/>
</a>
</g>
</g>
<!-- Node20 -->
<g id="Node000020" class="node">
<title>Node20</title>
<g id="a_Node000020"><a xlink:href="classDevLab__ICM20948.html#adfbd409c7723007d208c82550098a649" target="_top" xlink:title=" ">
<polygon fill="white" stroke="#666666" points="284,-104.5 133,-104.5 133,-74.5 284,-74.5 284,-104.5"/>
<text text-anchor="start" x="141" y="-92.5" font-family="Helvetica,sans-Serif" font-size="10.00">DevLab_ICM20948::selfTest</text>
<text text-anchor="middle" x="208.5" y="-81.5" font-family="Helvetica,sans-Serif" font-size="10.00">Accel</text>
</a>
</g>
</g>
<!-- Node15&#45;&gt;Node20 -->
<g id="edge27_Node000015_Node000020" class="edge">
<title>Node15&#45;&gt;Node20</title>
<g id="a_edge27_Node000015_Node000020"><a xlink:title=" ">
<path fill="none" stroke="#63b8ff" d="M340.49,-193.1C338.22,-191.7 336.05,-190.17 334,-188.5 305.38,-165.09 326.42,-137.15 298,-113.5 293.84,-110.04 289.22,-107.07 284.35,-104.53"/>
<polygon fill="#63b8ff" stroke="#63b8ff" points="339.18,-196.36 349.67,-197.86 342.4,-190.15 339.18,-196.36"/>
</a>
</g>
</g>
<!-- Node21 -->
<g id="Node000021" class="node">
<title>Node21</title>
<g id="a_Node000021"><a xlink:href="classDevLab__ICM20948.html#a9d7602ece2c3908e7bbb2acd45dff156" target="_top" xlink:title=" ">
<polygon fill="white" stroke="#666666" points="295.5,-56 121.5,-56 121.5,-37 295.5,-37 295.5,-56"/>
<text text-anchor="middle" x="208.5" y="-44" font-family="Helvetica,sans-Serif" font-size="10.00">DevLab_ICM20948::selfTestGyro</text>
</a>
</g>
</g>
<!-- Node15&#45;&gt;Node21 -->
<g id="edge28_Node000015_Node000021" class="edge">
<title>Node15&#45;&gt;Node21</title>
<g id="a_edge28_Node000015_Node000021"><a xlink:title=" ">
<path fill="none" stroke="#63b8ff" d="M338.72,-192.5C337.07,-191.26 335.49,-189.93 334,-188.5 292.99,-148.97 339.72,-104.27 298,-65.5 293.97,-61.76 289.39,-58.68 284.48,-56.16"/>
<polygon fill="#63b8ff" stroke="#63b8ff" points="337.19,-195.66 347.54,-197.89 340.84,-189.69 337.19,-195.66"/>
</a>
</g>
</g>
<!-- Node22 -->
<g id="Node000022" class="node">
<title>Node22</title>
<g id="a_Node000022"><a xlink:href="classDevLab__ICM20948.html#a6c9c09f8b2ab39f5de7f48c6c743ffc4" target="_top" xlink:title=" ">
<polygon fill="white" stroke="#666666" points="297.5,-19 119.5,-19 119.5,0 297.5,0 297.5,-19"/>
<text text-anchor="middle" x="208.5" y="-7" font-family="Helvetica,sans-Serif" font-size="10.00">DevLab_ICM20948::setLowPower</text>
</a>
</g>
</g>
<!-- Node15&#45;&gt;Node22 -->
<g id="edge31_Node000015_Node000022" class="edge">
<title>Node15&#45;&gt;Node22</title>
<g id="a_edge31_Node000015_Node000022"><a xlink:title=" ">
<path fill="none" stroke="#63b8ff" d="M338.59,-192.62C336.98,-191.35 335.44,-189.98 334,-188.5 282.89,-135.93 350.35,-78.84 298,-27.5 294.64,-24.21 290.86,-21.44 286.79,-19.12"/>
<polygon fill="#63b8ff" stroke="#63b8ff" points="336.97,-195.73 347.28,-198.16 340.73,-189.83 336.97,-195.73"/>
</a>
</g>
</g>
<!-- Node23 -->
<g id="Node000023" class="node">
<title>Node23</title>
<g id="a_Node000023"><a xlink:href="classDevLab__ICM20948.html#ae9c088334d6ec706bb08b47ef29bd186" target="_top" xlink:title=" ">
<polygon fill="white" stroke="#666666" points="292,-179 125,-179 125,-160 292,-160 292,-179"/>
<text text-anchor="middle" x="208.5" y="-167" font-family="Helvetica,sans-Serif" font-size="10.00">DevLab_ICM20948::setSensors</text>
</a>
</g>
</g>
<!-- Node15&#45;&gt;Node23 -->
<g id="edge32_Node000015_Node000023" class="edge">
<title>Node15&#45;&gt;Node23</title>
<g id="a_edge32_Node000015_Node000023"><a xlink:title=" ">
<path fill="none" stroke="#63b8ff" d="M349.05,-196.08C320.51,-190.64 286.76,-184.22 259.61,-179.04"/>
<polygon fill="#63b8ff" stroke="#63b8ff" points="348.44,-199.53 358.92,-197.96 349.75,-192.65 348.44,-199.53"/>
</a>
</g>
</g>
<!-- Node17 -->
<g id="Node000017" class="node">
<title>Node17</title>
<g id="a_Node000017"><a xlink:href="gyr__test_8ino.html#a4fc01d736fe50cf5b977f755b675f11d" target="_top" xlink:title="Initialize I2C, reset/wake the IMU, enable gyro, and start the sweep.">
<polygon fill="white" stroke="#666666" points="63.5,-197 19.5,-197 19.5,-178 63.5,-178 63.5,-197"/>
<text text-anchor="middle" x="41.5" y="-185" font-family="Helvetica,sans-Serif" font-size="10.00">setup</text>
</a>
</g>
</g>
<!-- Node16&#45;&gt;Node17 -->
<g id="edge24_Node000016_Node000017" class="edge">
<title>Node16&#45;&gt;Node17</title>
<g id="a_edge24_Node000016_Node000017"><a xlink:title=" ">
<path fill="none" stroke="#63b8ff" d="M120.26,-196.45C99.11,-194.02 78.37,-191.63 63.64,-189.93"/>
<polygon fill="#63b8ff" stroke="#63b8ff" points="119.98,-199.94 130.31,-197.61 120.78,-192.99 119.98,-199.94"/>
</a>
</g>
</g>
<!-- Node19 -->
<g id="Node000019" class="node">
<title>Node19</title>
<g id="a_Node000019"><a xlink:href="spi__accel_8ino.html#a4fc01d736fe50cf5b977f755b675f11d" target="_top" xlink:title="Configure the IMU for accelerometer&#45;only operation over SPI.">
<polygon fill="white" stroke="#666666" points="63.5,-142 19.5,-142 19.5,-123 63.5,-123 63.5,-142"/>
<text text-anchor="middle" x="41.5" y="-130" font-family="Helvetica,sans-Serif" font-size="10.00">setup</text>
</a>
</g>
</g>
<!-- Node18&#45;&gt;Node19 -->
<g id="edge26_Node000018_Node000019" class="edge">
<title>Node18&#45;&gt;Node19</title>
<g id="a_edge26_Node000018_Node000019"><a xlink:title=" ">
<path fill="none" stroke="#63b8ff" d="M120.7,-132.5C99.47,-132.5 78.61,-132.5 63.79,-132.5"/>
<polygon fill="#63b8ff" stroke="#63b8ff" points="120.8,-136 130.8,-132.5 120.8,-129 120.8,-136"/>
</a>
</g>
</g>
<!-- Node23&#45;&gt;Node17 -->
<g id="edge33_Node000023_Node000017" class="edge">
<title>Node23&#45;&gt;Node17</title>
<g id="a_edge33_Node000023_Node000017"><a xlink:title=" ">
<path fill="none" stroke="#63b8ff" d="M114.91,-179.6C95.69,-181.7 77.21,-183.71 63.73,-185.18"/>
<polygon fill="#63b8ff" stroke="#63b8ff" points="115.44,-183.06 125,-178.5 114.68,-176.11 115.44,-183.06"/>
</a>
</g>
</g>
</g>
</svg>
