<?xml version="1.0" encoding="UTF-8" standalone="no"?>
<!DOCTYPE svg PUBLIC "-//W3C//DTD SVG 1.1//EN"
 "http://www.w3.org/Graphics/SVG/1.1/DTD/svg11.dtd">
<!-- Generated by graphviz version 2.43.0 (0)
 -->
<!-- Title: BusIO_7Semi::writeBits Pages: 1 -->
<svg width="545pt" height="381pt"
 viewBox="0.00 0.00 545.00 380.50" xmlns="http://www.w3.org/2000/svg" xmlns:xlink="http://www.w3.org/1999/xlink">
<g id="graph0" class="graph" transform="scale(1 1) rotate(0) translate(4 376.5)">
<title>BusIO_7Semi::writeBits</title>
<!-- Node1 -->
<g id="Node000001" class="node">
<title>Node1</title>
<g id="a_Node000001"><a xlink:title=" ">
<polygon fill="#999999" stroke="#666666" points="537,-206 406,-206 406,-187 537,-187 537,-206"/>
<text text-anchor="middle" x="471.5" y="-194" font-family="Helvetica,sans-Serif" font-size="10.00">BusIO_7Semi::writeBits</text>
</a>
</g>
</g>
<!-- Node2 -->
<g id="Node000002" class="node">
<title>Node2</title>
<g id="a_Node000002"><a xlink:href="classDevLab__ICM20948.html#aab027c72832d1c7ec722187e6a64796a" target="_top" xlink:title=" ">
<polygon fill="white" stroke="#666666" points="172,-372.5 7,-372.5 7,-342.5 172,-342.5 172,-372.5"/>
<text text-anchor="start" x="15" y="-360.5" font-family="Helvetica,sans-Serif" font-size="10.00">DevLab_ICM20948::auxMaster</text>
<text text-anchor="middle" x="89.5" y="-349.5" font-family="Helvetica,sans-Serif" font-size="10.00">Enable</text>
</a>
</g>
</g>
<!-- Node1&#45;&gt;Node2 -->
<g id="edge1_Node000001_Node000002" class="edge">
<title>Node1&#45;&gt;Node2</title>
<g id="a_edge1_Node000001_Node000002"><a xlink:title=" ">
<path fill="none" stroke="#63b8ff" d="M460.58,-214.93C445.09,-241.72 412.48,-290.79 370,-314.5 309.44,-348.29 230.62,-357.88 172.13,-359.7"/>
<polygon fill="#63b8ff" stroke="#63b8ff" points="463.66,-216.59 465.49,-206.16 457.55,-213.17 463.66,-216.59"/>
</a>
</g>
</g>
<!-- Node3 -->
<g id="Node000003" class="node">
<title>Node3</title>
<g id="a_Node000003"><a xlink:href="classDevLab__ICM20948.html#a619f82390347cc173d1604d4d711b537" target="_top" xlink:title=" ">
<polygon fill="white" stroke="#666666" points="370,-211.5 215,-211.5 215,-181.5 370,-181.5 370,-211.5"/>
<text text-anchor="start" x="223" y="-199.5" font-family="Helvetica,sans-Serif" font-size="10.00">DevLab_ICM20948::setAccel</text>
<text text-anchor="middle" x="292.5" y="-188.5" font-family="Helvetica,sans-Serif" font-size="10.00">Averaging</text>
</a>
</g>
</g>
<!-- Node1&#45;&gt;Node3 -->
<g id="edge2_Node000001_Node000003" class="edge">
<title>Node1&#45;&gt;Node3</title>
<g id="a_edge2_Node000001_Node000003"><a xlink:title=" ">
<path fill="none" stroke="#63b8ff" d="M395.7,-196.5C387.3,-196.5 378.73,-196.5 370.3,-196.5"/>
<polygon fill="#63b8ff" stroke="#63b8ff" points="395.85,-200 405.85,-196.5 395.85,-193 395.85,-200"/>
</a>
</g>
</g>
<!-- Node4 -->
<g id="Node000004" class="node">
<title>Node4</title>
<g id="a_Node000004"><a xlink:href="classDevLab__ICM20948.html#ac52d80aad738b90aa0f05e9d6404bb85" target="_top" xlink:title=" ">
<polygon fill="white" stroke="#666666" points="179,-324 0,-324 0,-305 179,-305 179,-324"/>
<text text-anchor="middle" x="89.5" y="-312" font-family="Helvetica,sans-Serif" font-size="10.00">DevLab_ICM20948::setAccelDLPF</text>
</a>
</g>
</g>
<!-- Node1&#45;&gt;Node4 -->
<g id="edge3_Node000001_Node000004" class="edge">
<title>Node1&#45;&gt;Node4</title>
<g id="a_edge3_Node000001_Node000004"><a xlink:title=" ">
<path fill="none" stroke="#63b8ff" d="M456.42,-213.86C438.67,-234.38 406.06,-267.74 370,-283.5 309.94,-309.75 236.01,-316.99 179.27,-317.94"/>
<polygon fill="#63b8ff" stroke="#63b8ff" points="459.12,-216.09 462.89,-206.18 453.77,-211.57 459.12,-216.09"/>
</a>
</g>
</g>
<!-- Node5 -->
<g id="Node000005" class="node">
<title>Node5</title>
<g id="a_Node000005"><a xlink:href="classDevLab__ICM20948.html#a1a2aa0019d5e1c6ba8ce4a3c1d9fcb43" target="_top" xlink:title=" ">
<polygon fill="white" stroke="#666666" points="370,-163.5 215,-163.5 215,-133.5 370,-133.5 370,-163.5"/>
<text text-anchor="start" x="223" y="-151.5" font-family="Helvetica,sans-Serif" font-size="10.00">DevLab_ICM20948::setAccel</text>
<text text-anchor="middle" x="292.5" y="-140.5" font-family="Helvetica,sans-Serif" font-size="10.00">Scale</text>
</a>
</g>
</g>
<!-- Node1&#45;&gt;Node5 -->
<g id="edge4_Node000001_Node000005" class="edge">
<title>Node1&#45;&gt;Node5</title>
<g id="a_edge4_Node000001_Node000005"><a xlink:title=" ">
<path fill="none" stroke="#63b8ff" d="M425.18,-184.21C401.99,-177.92 373.55,-170.21 349.04,-163.56"/>
<polygon fill="#63b8ff" stroke="#63b8ff" points="424.54,-187.66 435.11,-186.9 426.37,-180.91 424.54,-187.66"/>
</a>
</g>
</g>
<!-- Node6 -->
<g id="Node000006" class="node">
<title>Node6</title>
<g id="a_Node000006"><a xlink:href="classDevLab__ICM20948.html#a0bea2c662c285120253851c80289e077" target="_top" xlink:title=" ">
<polygon fill="white" stroke="#666666" points="166,-287 13,-287 13,-268 166,-268 166,-287"/>
<text text-anchor="middle" x="89.5" y="-275" font-family="Helvetica,sans-Serif" font-size="10.00">DevLab_ICM20948::setDLPF</text>
</a>
</g>
</g>
<!-- Node1&#45;&gt;Node6 -->
<g id="edge5_Node000001_Node000006" class="edge">
<title>Node1&#45;&gt;Node6</title>
<g id="a_edge5_Node000001_Node000006"><a xlink:title=" ">
<path fill="none" stroke="#63b8ff" d="M451.04,-212.22C431.74,-226.81 400.69,-247.72 370,-257.5 303.37,-278.73 223.44,-282.43 166.15,-281.58"/>
<polygon fill="#63b8ff" stroke="#63b8ff" points="453.28,-214.91 459.03,-206.02 448.99,-209.38 453.28,-214.91"/>
</a>
</g>
</g>
<!-- Node7 -->
<g id="Node000007" class="node">
<title>Node7</title>
<g id="a_Node000007"><a xlink:href="classDevLab__ICM20948.html#a7ae5665d5e835f8024df82f43bae46e7" target="_top" xlink:title=" ">
<polygon fill="white" stroke="#666666" points="368.5,-115.5 216.5,-115.5 216.5,-85.5 368.5,-85.5 368.5,-115.5"/>
<text text-anchor="start" x="224.5" y="-103.5" font-family="Helvetica,sans-Serif" font-size="10.00">DevLab_ICM20948::setGyro</text>
<text text-anchor="middle" x="292.5" y="-92.5" font-family="Helvetica,sans-Serif" font-size="10.00">Averaging</text>
</a>
</g>
</g>
<!-- Node1&#45;&gt;Node7 -->
<g id="edge6_Node000001_Node000007" class="edge">
<title>Node1&#45;&gt;Node7</title>
<g id="a_edge6_Node000001_Node000007"><a xlink:title=" ">
<path fill="none" stroke="#63b8ff" d="M451.77,-180.27C432.42,-164.21 400.78,-139.86 370,-124.5 363.4,-121.21 356.25,-118.25 349.07,-115.63"/>
<polygon fill="#63b8ff" stroke="#63b8ff" points="449.61,-183.03 459.51,-186.8 454.12,-177.68 449.61,-183.03"/>
</a>
</g>
</g>
<!-- Node8 -->
<g id="Node000008" class="node">
<title>Node8</title>
<g id="a_Node000008"><a xlink:href="classDevLab__ICM20948.html#a6a06dbd14558e50d40595de82502d632" target="_top" xlink:title=" ">
<polygon fill="white" stroke="#666666" points="368.5,-67.5 216.5,-67.5 216.5,-37.5 368.5,-37.5 368.5,-67.5"/>
<text text-anchor="start" x="224.5" y="-55.5" font-family="Helvetica,sans-Serif" font-size="10.00">DevLab_ICM20948::setGyro</text>
<text text-anchor="middle" x="292.5" y="-44.5" font-family="Helvetica,sans-Serif" font-size="10.00">Scale</text>
</a>
</g>
</g>
<!-- Node1&#45;&gt;Node8 -->
<g id="edge7_Node000001_Node000008" class="edge">
<title>Node1&#45;&gt;Node8</title>
<g id="a_edge7_Node000001_Node000008"><a xlink:title=" ">
<path fill="none" stroke="#63b8ff" d="M459.92,-178.19C443.8,-151.91 410.66,-103.65 370,-76.5 364.91,-73.1 359.3,-70.16 353.52,-67.62"/>
<polygon fill="#63b8ff" stroke="#63b8ff" points="456.93,-180.02 465.06,-186.8 462.94,-176.42 456.93,-180.02"/>
</a>
</g>
</g>
<!-- Node9 -->
<g id="Node000009" class="node">
<title>Node9</title>
<g id="a_Node000009"><a xlink:href="classBusIO__7Semi.html#a6a07d4bd0a308294b37166b6d25209b2" target="_top" xlink:title=" ">
<polygon fill="white" stroke="#666666" points="355,-19 230,-19 230,0 355,0 355,-19"/>
<text text-anchor="middle" x="292.5" y="-7" font-family="Helvetica,sans-Serif" font-size="10.00">BusIO_7Semi::writeBit</text>
</a>
</g>
</g>
<!-- Node1&#45;&gt;Node9 -->
<g id="edge8_Node000001_Node000009" class="edge">
<title>Node1&#45;&gt;Node9</title>
<g id="a_edge8_Node000001_Node000009"><a xlink:title=" ">
<path fill="none" stroke="#63b8ff" d="M464.48,-177.1C452.5,-141.81 422.22,-67.18 370,-28.5 364.72,-24.59 358.73,-21.48 352.49,-19"/>
<polygon fill="#63b8ff" stroke="#63b8ff" points="461.19,-178.29 467.62,-186.71 467.84,-176.12 461.19,-178.29"/>
</a>
</g>
</g>
<!-- Node10 -->
<g id="Node000010" class="node">
<title>Node10</title>
<g id="a_Node000010"><a xlink:href="classBusIO__7Semi.html#ac7b3d1c425f7187abbe1bbec64d9ccea" target="_top" xlink:title=" ">
<polygon fill="white" stroke="#666666" points="355,-249 230,-249 230,-230 355,-230 355,-249"/>
<text text-anchor="middle" x="292.5" y="-237" font-family="Helvetica,sans-Serif" font-size="10.00">BusIO_7Semi::writeBit</text>
</a>
</g>
</g>
<!-- Node1&#45;&gt;Node10 -->
<g id="edge9_Node000001_Node000010" class="edge">
<title>Node1&#45;&gt;Node10</title>
<g id="a_edge9_Node000001_Node000010"><a xlink:title=" ">
<path fill="none" stroke="#63b8ff" d="M421.24,-208.47C393.28,-215.26 358.77,-223.64 332.67,-229.98"/>
<polygon fill="#63b8ff" stroke="#63b8ff" points="422.33,-211.8 431.22,-206.04 420.67,-205 422.33,-211.8"/>
</a>
</g>
</g>
<!-- Node10&#45;&gt;Node2 -->
<g id="edge10_Node000010_Node000002" class="edge">
<title>Node10&#45;&gt;Node2</title>
<g id="a_edge10_Node000010_Node000002"><a xlink:title=" ">
<path fill="none" stroke="#63b8ff" d="M275.97,-256.35C255.66,-277.41 218.03,-313.16 179,-333.5 172.51,-336.88 165.49,-339.83 158.34,-342.38"/>
<polygon fill="#63b8ff" stroke="#63b8ff" points="278.54,-258.73 282.88,-249.06 273.46,-253.91 278.54,-258.73"/>
</a>
</g>
</g>
<!-- Node10&#45;&gt;Node4 -->
<g id="edge15_Node000010_Node000004" class="edge">
<title>Node10&#45;&gt;Node4</title>
<g id="a_edge15_Node000010_Node000004"><a xlink:title=" ">
<path fill="none" stroke="#63b8ff" d="M266.49,-254.23C244.2,-266.8 210.35,-284.53 179,-295.5 168.32,-299.24 156.65,-302.38 145.39,-304.96"/>
<polygon fill="#63b8ff" stroke="#63b8ff" points="268.35,-257.2 275.3,-249.2 264.88,-251.12 268.35,-257.2"/>
</a>
</g>
</g>
<!-- Node10&#45;&gt;Node6 -->
<g id="edge16_Node000010_Node000006" class="edge">
<title>Node10&#45;&gt;Node6</title>
<g id="a_edge16_Node000010_Node000006"><a xlink:title=" ">
<path fill="none" stroke="#63b8ff" d="M231.1,-250.92C202.34,-256.36 168.34,-262.78 140.98,-267.96"/>
<polygon fill="#63b8ff" stroke="#63b8ff" points="231.86,-254.34 241.04,-249.04 230.56,-247.46 231.86,-254.34"/>
</a>
</g>
</g>
<!-- Node11 -->
<g id="Node000011" class="node">
<title>Node11</title>
<g id="a_Node000011"><a xlink:href="classDevLab__ICM20948.html#a91147b3cd4c45bffc8e024f985be7b21" target="_top" xlink:title=" ">
<polygon fill="white" stroke="#666666" points="167.5,-139 11.5,-139 11.5,-120 167.5,-120 167.5,-139"/>
<text text-anchor="middle" x="89.5" y="-127" font-family="Helvetica,sans-Serif" font-size="10.00">DevLab_ICM20948::beginI2C</text>
</a>
</g>
</g>
<!-- Node10&#45;&gt;Node11 -->
<g id="edge11_Node000010_Node000011" class="edge">
<title>Node10&#45;&gt;Node11</title>
<g id="a_edge11_Node000010_Node000011"><a xlink:title=" ">
<path fill="none" stroke="#63b8ff" d="M221.65,-225.14C219.33,-223.73 217.1,-222.19 215,-220.5 186.83,-197.81 207.65,-169.58 179,-147.5 174.65,-144.15 169.84,-141.38 164.77,-139.09"/>
<polygon fill="#63b8ff" stroke="#63b8ff" points="220.54,-228.5 231.03,-229.93 223.72,-222.26 220.54,-228.5"/>
</a>
</g>
</g>
<!-- Node12 -->
<g id="Node000012" class="node">
<title>Node12</title>
<g id="a_Node000012"><a xlink:href="classDevLab__ICM20948.html#a4386f310503153f3e28935cbdda75b18" target="_top" xlink:title=" ">
<polygon fill="white" stroke="#666666" points="167,-102 12,-102 12,-83 167,-83 167,-102"/>
<text text-anchor="middle" x="89.5" y="-90" font-family="Helvetica,sans-Serif" font-size="10.00">DevLab_ICM20948::beginSPI</text>
</a>
</g>
</g>
<!-- Node10&#45;&gt;Node12 -->
<g id="edge12_Node000010_Node000012" class="edge">
<title>Node10&#45;&gt;Node12</title>
<g id="a_edge12_Node000010_Node000012"><a xlink:title=" ">
<path fill="none" stroke="#63b8ff" d="M220.58,-224.99C218.62,-223.62 216.75,-222.13 215,-220.5 177.33,-185.47 217.41,-144.71 179,-110.5 175.25,-107.16 171.06,-104.38 166.59,-102.06"/>
<polygon fill="#63b8ff" stroke="#63b8ff" points="219.29,-228.29 229.7,-230.25 222.78,-222.22 219.29,-228.29"/>
</a>
</g>
</g>
<!-- Node13 -->
<g id="Node000013" class="node">
<title>Node13</title>
<g id="a_Node000013"><a xlink:href="classDevLab__ICM20948.html#adfbd409c7723007d208c82550098a649" target="_top" xlink:title=" ">
<polygon fill="white" stroke="#666666" points="165,-64.5 14,-64.5 14,-34.5 165,-34.5 165,-64.5"/>
<text text-anchor="start" x="22" y="-52.5" font-family="Helvetica,sans-Serif" font-size="10.00">DevLab_ICM20948::selfTest</text>
<text text-anchor="middle" x="89.5" y="-41.5" font-family="Helvetica,sans-Serif" font-size="10.00">Accel</text>
</a>
</g>
</g>
<!-- Node10&#45;&gt;Node13 -->
<g id="edge13_Node000010_Node000013" class="edge">
<title>Node10&#45;&gt;Node13</title>
<g id="a_edge13_Node000010_Node000013"><a xlink:title=" ">
<path fill="none" stroke="#63b8ff" d="M221,-225.59C218.87,-224.06 216.86,-222.37 215,-220.5 167.51,-172.86 225.97,-121.65 179,-73.5 175,-69.4 170.37,-65.97 165.37,-63.12"/>
<polygon fill="#63b8ff" stroke="#63b8ff" points="219.36,-228.69 229.75,-230.76 222.92,-222.66 219.36,-228.69"/>
</a>
</g>
</g>
<!-- Node14 -->
<g id="Node000014" class="node">
<title>Node14</title>
<g id="a_Node000014"><a xlink:href="classDevLab__ICM20948.html#a9d7602ece2c3908e7bbb2acd45dff156" target="_top" xlink:title=" ">
<polygon fill="white" stroke="#666666" points="176.5,-250 2.5,-250 2.5,-231 176.5,-231 176.5,-250"/>
<text text-anchor="middle" x="89.5" y="-238" font-family="Helvetica,sans-Serif" font-size="10.00">DevLab_ICM20948::selfTestGyro</text>
</a>
</g>
</g>
<!-- Node10&#45;&gt;Node14 -->
<g id="edge14_Node000010_Node000014" class="edge">
<title>Node10&#45;&gt;Node14</title>
<g id="a_edge14_Node000010_Node000014"><a xlink:title=" ">
<path fill="none" stroke="#63b8ff" d="M219.44,-239.86C205.63,-239.93 191.04,-240 176.84,-240.07"/>
<polygon fill="#63b8ff" stroke="#63b8ff" points="219.84,-243.36 229.83,-239.81 219.81,-236.36 219.84,-243.36"/>
</a>
</g>
</g>
<!-- Node15 -->
<g id="Node000015" class="node">
<title>Node15</title>
<g id="a_Node000015"><a xlink:href="classDevLab__ICM20948.html#a6c9c09f8b2ab39f5de7f48c6c743ffc4" target="_top" xlink:title=" ">
<polygon fill="white" stroke="#666666" points="178.5,-213 0.5,-213 0.5,-194 178.5,-194 178.5,-213"/>
<text text-anchor="middle" x="89.5" y="-201" font-family="Helvetica,sans-Serif" font-size="10.00">DevLab_ICM20948::setLowPower</text>
</a>
</g>
</g>
<!-- Node10&#45;&gt;Node15 -->
<g id="edge17_Node000010_Node000015" class="edge">
<title>Node10&#45;&gt;Node15</title>
<g id="a_edge17_Node000010_Node000015"><a xlink:title=" ">
<path fill="none" stroke="#63b8ff" d="M228.26,-228.17C201.14,-223.32 169.8,-217.7 143.87,-213.06"/>
<polygon fill="#63b8ff" stroke="#63b8ff" points="227.97,-231.68 238.43,-229.99 229.2,-224.79 227.97,-231.68"/>
</a>
</g>
</g>
<!-- Node16 -->
<g id="Node000016" class="node">
<title>Node16</title>
<g id="a_Node000016"><a xlink:href="classDevLab__ICM20948.html#ae9c088334d6ec706bb08b47ef29bd186" target="_top" xlink:title=" ">
<polygon fill="white" stroke="#666666" points="173,-176 6,-176 6,-157 173,-157 173,-176"/>
<text text-anchor="middle" x="89.5" y="-164" font-family="Helvetica,sans-Serif" font-size="10.00">DevLab_ICM20948::setSensors</text>
</a>
</g>
</g>
<!-- Node10&#45;&gt;Node16 -->
<g id="edge18_Node000010_Node000016" class="edge">
<title>Node10&#45;&gt;Node16</title>
<g id="a_edge18_Node000010_Node000016"><a xlink:title=" ">
<path fill="none" stroke="#63b8ff" d="M227.64,-226.51C223.26,-224.75 218.99,-222.76 215,-220.5 195.3,-209.37 198.93,-195.21 179,-184.5 172.65,-181.09 165.72,-178.32 158.63,-176.07"/>
<polygon fill="#63b8ff" stroke="#63b8ff" points="226.81,-229.93 237.4,-229.99 229.16,-223.33 226.81,-229.93"/>
</a>
</g>
</g>
</g>
</svg>
