<?xml version="1.0" encoding="UTF-8" standalone="no"?>
<!DOCTYPE svg PUBLIC "-//W3C//DTD SVG 1.1//EN"
 "http://www.w3.org/Graphics/SVG/1.1/DTD/svg11.dtd">
<!-- Generated by graphviz version 2.43.0 (0)
 -->
<!-- Title: DevLab_ICM20948::setAccelDLPF Pages: 1 -->
<svg width="699pt" height="77pt"
 viewBox="0.00 0.00 699.00 76.76" xmlns="http://www.w3.org/2000/svg" xmlns:xlink="http://www.w3.org/1999/xlink">
<g id="graph0" class="graph" transform="scale(1 1) rotate(0) translate(4 72.76)">
<title>DevLab_ICM20948::setAccelDLPF</title>
<!-- Node1 -->
<g id="Node000001" class="node">
<title>Node1</title>
<g id="a_Node000001"><a xlink:title=" ">
<polygon fill="#999999" stroke="#666666" points="179,-31.76 0,-31.76 0,-12.76 179,-12.76 179,-31.76"/>
<text text-anchor="middle" x="89.5" y="-19.76" font-family="Helvetica,sans-Serif" font-size="10.00">DevLab_ICM20948::setAccelDLPF</text>
</a>
</g>
</g>
<!-- Node2 -->
<g id="Node000002" class="node">
<title>Node2</title>
<g id="a_Node000002"><a xlink:href="classDevLab__ICM20948.html#aaa26fcbfea0e67d45cb1c3ae39654c55" target="_top" xlink:title=" ">
<polygon fill="white" stroke="#666666" points="543,-68.76 376,-68.76 376,-49.76 543,-49.76 543,-68.76"/>
<text text-anchor="middle" x="459.5" y="-56.76" font-family="Helvetica,sans-Serif" font-size="10.00">DevLab_ICM20948::selectBank</text>
</a>
</g>
</g>
<!-- Node1&#45;&gt;Node2 -->
<g id="edge1_Node000001_Node000002" class="edge">
<title>Node1&#45;&gt;Node2</title>
<g id="a_edge1_Node000001_Node000002"><a xlink:title=" ">
<path fill="none" stroke="#63b8ff" d="M150.87,-31.8C171.21,-34.8 194.05,-37.93 215,-40.26 264.66,-45.78 320.2,-50.24 365.68,-53.45"/>
<polygon fill="#63b8ff" stroke="#63b8ff" points="365.6,-56.96 375.82,-54.16 366.08,-49.97 365.6,-56.96"/>
</a>
</g>
</g>
<!-- Node4 -->
<g id="Node000004" class="node">
<title>Node4</title>
<g id="a_Node000004"><a xlink:href="classBusIO__7Semi.html#ac7b3d1c425f7187abbe1bbec64d9ccea" target="_top" xlink:title=" ">
<polygon fill="white" stroke="#666666" points="340,-31.76 215,-31.76 215,-12.76 340,-12.76 340,-31.76"/>
<text text-anchor="middle" x="277.5" y="-19.76" font-family="Helvetica,sans-Serif" font-size="10.00">BusIO_7Semi::writeBit</text>
</a>
</g>
</g>
<!-- Node1&#45;&gt;Node4 -->
<g id="edge3_Node000001_Node000004" class="edge">
<title>Node1&#45;&gt;Node4</title>
<g id="a_edge3_Node000001_Node000004"><a xlink:title=" ">
<path fill="none" stroke="#63b8ff" d="M179.14,-22.26C187.72,-22.26 196.35,-22.26 204.74,-22.26"/>
<polygon fill="#63b8ff" stroke="#63b8ff" points="204.83,-25.76 214.83,-22.26 204.83,-18.76 204.83,-25.76"/>
</a>
</g>
</g>
<!-- Node5 -->
<g id="Node000005" class="node">
<title>Node5</title>
<g id="a_Node000005"><a xlink:href="classBusIO__7Semi.html#a855c7388d4118e632c84c7f8e2e3ddc2" target="_top" xlink:title=" ">
<polygon fill="white" stroke="#666666" points="525,-31.76 394,-31.76 394,-12.76 525,-12.76 525,-31.76"/>
<text text-anchor="middle" x="459.5" y="-19.76" font-family="Helvetica,sans-Serif" font-size="10.00">BusIO_7Semi::writeBits</text>
</a>
</g>
</g>
<!-- Node1&#45;&gt;Node5 -->
<g id="edge7_Node000001_Node000005" class="edge">
<title>Node1&#45;&gt;Node5</title>
<g id="a_edge7_Node000001_Node000005"><a xlink:title=" ">
<path fill="none" stroke="#63b8ff" d="M141.18,-12.74C163.7,-8.98 190.58,-5.11 215,-3.26 270.4,0.95 284.62,1.16 340,-3.26 359.72,-4.83 381.11,-7.85 400.22,-11.02"/>
<polygon fill="#63b8ff" stroke="#63b8ff" points="399.83,-14.51 410.28,-12.74 401.01,-7.61 399.83,-14.51"/>
</a>
</g>
</g>
<!-- Node3 -->
<g id="Node000003" class="node">
<title>Node3</title>
<g id="a_Node000003"><a xlink:href="classBusIO__7Semi.html#aa633479356af692cb9ea334771b7c0c5" target="_top" xlink:title=" ">
<polygon fill="white" stroke="#666666" points="691,-68.76 579,-68.76 579,-49.76 691,-49.76 691,-68.76"/>
<text text-anchor="middle" x="635" y="-56.76" font-family="Helvetica,sans-Serif" font-size="10.00">BusIO_7Semi::write</text>
</a>
</g>
</g>
<!-- Node2&#45;&gt;Node3 -->
<g id="edge2_Node000002_Node000003" class="edge">
<title>Node2&#45;&gt;Node3</title>
<g id="a_edge2_Node000002_Node000003"><a xlink:title=" ">
<path fill="none" stroke="#63b8ff" d="M543.18,-59.26C551.75,-59.26 560.36,-59.26 568.7,-59.26"/>
<polygon fill="#63b8ff" stroke="#63b8ff" points="568.7,-62.76 578.7,-59.26 568.7,-55.76 568.7,-62.76"/>
</a>
</g>
</g>
<!-- Node4&#45;&gt;Node5 -->
<g id="edge4_Node000004_Node000005" class="edge">
<title>Node4&#45;&gt;Node5</title>
<g id="a_edge4_Node000004_Node000005"><a xlink:title=" ">
<path fill="none" stroke="#63b8ff" d="M340.19,-22.26C354.12,-22.26 369.04,-22.26 383.45,-22.26"/>
<polygon fill="#63b8ff" stroke="#63b8ff" points="383.82,-25.76 393.82,-22.26 383.82,-18.76 383.82,-25.76"/>
</a>
</g>
</g>
<!-- Node5&#45;&gt;Node3 -->
<g id="edge6_Node000005_Node000003" class="edge">
<title>Node5&#45;&gt;Node3</title>
<g id="a_edge6_Node000005_Node000003"><a xlink:title=" ">
<path fill="none" stroke="#63b8ff" d="M505.18,-31.78C527.76,-36.6 555.35,-42.48 579.2,-47.57"/>
<polygon fill="#63b8ff" stroke="#63b8ff" points="578.66,-51.03 589.17,-49.7 580.12,-44.19 578.66,-51.03"/>
</a>
</g>
</g>
<!-- Node6 -->
<g id="Node000006" class="node">
<title>Node6</title>
<g id="a_Node000006"><a xlink:href="classBusIO__7Semi.html#a933c66d9a1afe84102323e209a93dd31" target="_top" xlink:title=" ">
<polygon fill="white" stroke="#666666" points="689.5,-31.76 580.5,-31.76 580.5,-12.76 689.5,-12.76 689.5,-31.76"/>
<text text-anchor="middle" x="635" y="-19.76" font-family="Helvetica,sans-Serif" font-size="10.00">BusIO_7Semi::read</text>
</a>
</g>
</g>
<!-- Node5&#45;&gt;Node6 -->
<g id="edge5_Node000005_Node000006" class="edge">
<title>Node5&#45;&gt;Node6</title>
<g id="a_edge5_Node000005_Node000006"><a xlink:title=" ">
<path fill="none" stroke="#63b8ff" d="M525.1,-22.26C539.9,-22.26 555.62,-22.26 570.37,-22.26"/>
<polygon fill="#63b8ff" stroke="#63b8ff" points="570.41,-25.76 580.41,-22.26 570.41,-18.76 570.41,-25.76"/>
</a>
</g>
</g>
</g>
</svg>
