<?xml version="1.0" encoding="UTF-8" standalone="no"?>
<!DOCTYPE svg PUBLIC "-//W3C//DTD SVG 1.1//EN"
 "http://www.w3.org/Graphics/SVG/1.1/DTD/svg11.dtd">
<!-- Generated by graphviz version 2.43.0 (0)
 -->
<!-- Title: DevLab_ICM20948::beginSPI Pages: 1 -->
<svg width="726pt" height="258pt"
 viewBox="0.00 0.00 726.00 257.82" xmlns="http://www.w3.org/2000/svg" xmlns:xlink="http://www.w3.org/1999/xlink">
<g id="graph0" class="graph" transform="scale(1 1) rotate(0) translate(4 253.82)">
<title>DevLab_ICM20948::beginSPI</title>
<!-- Node1 -->
<g id="Node000001" class="node">
<title>Node1</title>
<g id="a_Node000001"><a xlink:title=" ">
<polygon fill="#999999" stroke="#666666" points="155,-131 0,-131 0,-112 155,-112 155,-131"/>
<text text-anchor="middle" x="77.5" y="-119" font-family="Helvetica,sans-Serif" font-size="10.00">DevLab_ICM20948::beginSPI</text>
</a>
</g>
</g>
<!-- Node2 -->
<g id="Node000002" class="node">
<title>Node2</title>
<g id="a_Node000002"><a xlink:href="classDevLab__ICM20948.html#a31460c48549b1d3081e253706f8b15e6" target="_top" xlink:title=" ">
<polygon fill="white" stroke="#666666" points="362.5,-217.5 195.5,-217.5 195.5,-187.5 362.5,-187.5 362.5,-217.5"/>
<text text-anchor="start" x="203.5" y="-205.5" font-family="Helvetica,sans-Serif" font-size="10.00">DevLab_ICM20948::applyBasic</text>
<text text-anchor="middle" x="279" y="-194.5" font-family="Helvetica,sans-Serif" font-size="10.00">Defaults</text>
</a>
</g>
</g>
<!-- Node1&#45;&gt;Node2 -->
<g id="edge1_Node000001_Node000002" class="edge">
<title>Node1&#45;&gt;Node2</title>
<g id="a_edge1_Node000001_Node000002"><a xlink:title=" ">
<path fill="none" stroke="#63b8ff" d="M94.8,-131.07C116.26,-143.36 155.47,-164.76 191,-178.5 196.34,-180.56 201.92,-182.53 207.57,-184.38"/>
<polygon fill="#63b8ff" stroke="#63b8ff" points="206.53,-187.72 217.12,-187.38 208.63,-181.04 206.53,-187.72"/>
</a>
</g>
</g>
<!-- Node3 -->
<g id="Node000003" class="node">
<title>Node3</title>
<g id="a_Node000003"><a xlink:href="classDevLab__ICM20948.html#aaa26fcbfea0e67d45cb1c3ae39654c55" target="_top" xlink:title=" ">
<polygon fill="white" stroke="#666666" points="570,-133 403,-133 403,-114 570,-114 570,-133"/>
<text text-anchor="middle" x="486.5" y="-121" font-family="Helvetica,sans-Serif" font-size="10.00">DevLab_ICM20948::selectBank</text>
</a>
</g>
</g>
<!-- Node1&#45;&gt;Node3 -->
<g id="edge9_Node000001_Node000003" class="edge">
<title>Node1&#45;&gt;Node3</title>
<g id="a_edge9_Node000001_Node000003"><a xlink:title=" ">
<path fill="none" stroke="#63b8ff" d="M155.05,-121.88C222.43,-122.21 320.73,-122.69 392.59,-123.04"/>
<polygon fill="#63b8ff" stroke="#63b8ff" points="392.98,-126.55 403,-123.09 393.01,-119.55 392.98,-126.55"/>
</a>
</g>
</g>
<!-- Node4 -->
<g id="Node000004" class="node">
<title>Node4</title>
<g id="a_Node000004"><a xlink:href="classBusIO__7Semi.html#aa633479356af692cb9ea334771b7c0c5" target="_top" xlink:title=" ">
<polygon fill="white" stroke="#666666" points="718,-171 606,-171 606,-152 718,-152 718,-171"/>
<text text-anchor="middle" x="662" y="-159" font-family="Helvetica,sans-Serif" font-size="10.00">BusIO_7Semi::write</text>
</a>
</g>
</g>
<!-- Node1&#45;&gt;Node4 -->
<g id="edge13_Node000001_Node000004" class="edge">
<title>Node1&#45;&gt;Node4</title>
<g id="a_edge13_Node000001_Node000004"><a xlink:title=" ">
<path fill="none" stroke="#63b8ff" d="M84.93,-131.23C100.18,-153.31 141.04,-206.81 191,-226.5 348.32,-288.51 555.56,-209.27 631.49,-175.44"/>
<polygon fill="#63b8ff" stroke="#63b8ff" points="633.24,-178.49 640.91,-171.18 630.36,-172.12 633.24,-178.49"/>
</a>
</g>
</g>
<!-- Node5 -->
<g id="Node000005" class="node">
<title>Node5</title>
<g id="a_Node000005"><a xlink:href="classSPI__Interface.html#a24b5d68ff8da5578f56ee571d86ab289" target="_top" xlink:title=" ">
<polygon fill="white" stroke="#666666" points="343,-19 215,-19 215,0 343,0 343,-19"/>
<text text-anchor="middle" x="279" y="-7" font-family="Helvetica,sans-Serif" font-size="10.00">SPI_Interface::beginSPI</text>
</a>
</g>
</g>
<!-- Node1&#45;&gt;Node5 -->
<g id="edge5_Node000001_Node000005" class="edge">
<title>Node1&#45;&gt;Node5</title>
<g id="a_edge5_Node000001_Node000005"><a xlink:title=" ">
<path fill="none" stroke="#63b8ff" d="M87.01,-111.71C104.43,-92.33 146.31,-49.09 191,-27.5 195.57,-25.29 200.4,-23.35 205.36,-21.65"/>
<polygon fill="#63b8ff" stroke="#63b8ff" points="206.47,-24.97 214.99,-18.67 204.4,-18.29 206.47,-24.97"/>
</a>
</g>
</g>
<!-- Node6 -->
<g id="Node000006" class="node">
<title>Node6</title>
<g id="a_Node000006"><a xlink:href="classDevLab__ICM20948.html#a8bef7eafb3b67eb736f491d0df453b9e" target="_top" xlink:title=" ">
<polygon fill="white" stroke="#666666" points="367,-56 191,-56 191,-37 367,-37 367,-56"/>
<text text-anchor="middle" x="279" y="-44" font-family="Helvetica,sans-Serif" font-size="10.00">DevLab_ICM20948::readWhoAmI</text>
</a>
</g>
</g>
<!-- Node1&#45;&gt;Node6 -->
<g id="edge6_Node000001_Node000006" class="edge">
<title>Node1&#45;&gt;Node6</title>
<g id="a_edge6_Node000001_Node000006"><a xlink:title=" ">
<path fill="none" stroke="#63b8ff" d="M94.3,-111.79C115.54,-99.14 154.83,-77.15 191,-64.5 197.36,-62.28 204.08,-60.29 210.85,-58.52"/>
<polygon fill="#63b8ff" stroke="#63b8ff" points="211.9,-61.86 220.78,-56.08 210.24,-55.07 211.9,-61.86"/>
</a>
</g>
</g>
<!-- Node8 -->
<g id="Node000008" class="node">
<title>Node8</title>
<g id="a_Node000008"><a xlink:href="classDevLab__ICM20948.html#a0d6774b76298645ee45ec0e9065a8891" target="_top" xlink:title=" ">
<polygon fill="white" stroke="#666666" points="358.5,-169 199.5,-169 199.5,-150 358.5,-150 358.5,-169"/>
<text text-anchor="middle" x="279" y="-157" font-family="Helvetica,sans-Serif" font-size="10.00">DevLab_ICM20948::softReset</text>
</a>
</g>
</g>
<!-- Node1&#45;&gt;Node8 -->
<g id="edge10_Node000001_Node000008" class="edge">
<title>Node1&#45;&gt;Node8</title>
<g id="a_edge10_Node000001_Node000008"><a xlink:title=" ">
<path fill="none" stroke="#63b8ff" d="M128.58,-131.04C155.74,-136.21 189.49,-142.64 218.03,-148.08"/>
<polygon fill="#63b8ff" stroke="#63b8ff" points="217.42,-151.52 227.89,-149.96 218.73,-144.65 217.42,-151.52"/>
</a>
</g>
</g>
<!-- Node9 -->
<g id="Node000009" class="node">
<title>Node9</title>
<g id="a_Node000009"><a xlink:href="classBusIO__7Semi.html#ac7b3d1c425f7187abbe1bbec64d9ccea" target="_top" xlink:title=" ">
<polygon fill="white" stroke="#666666" points="341.5,-93 216.5,-93 216.5,-74 341.5,-74 341.5,-93"/>
<text text-anchor="middle" x="279" y="-81" font-family="Helvetica,sans-Serif" font-size="10.00">BusIO_7Semi::writeBit</text>
</a>
</g>
</g>
<!-- Node1&#45;&gt;Node9 -->
<g id="edge14_Node000001_Node000009" class="edge">
<title>Node1&#45;&gt;Node9</title>
<g id="a_edge14_Node000001_Node000009"><a xlink:title=" ">
<path fill="none" stroke="#63b8ff" d="M128.58,-111.96C155.74,-106.79 189.49,-100.36 218.03,-94.92"/>
<polygon fill="#63b8ff" stroke="#63b8ff" points="218.73,-98.35 227.89,-93.04 217.42,-91.48 218.73,-98.35"/>
</a>
</g>
</g>
<!-- Node2&#45;&gt;Node3 -->
<g id="edge2_Node000002_Node000003" class="edge">
<title>Node2&#45;&gt;Node3</title>
<g id="a_edge2_Node000002_Node000003"><a xlink:title=" ">
<path fill="none" stroke="#63b8ff" d="M339.85,-187.4C349.02,-184.68 358.32,-181.69 367,-178.5 399.19,-166.68 434.68,-149.64 458.35,-137.67"/>
<polygon fill="#63b8ff" stroke="#63b8ff" points="460.11,-140.7 467.43,-133.04 456.93,-134.47 460.11,-140.7"/>
</a>
</g>
</g>
<!-- Node2&#45;&gt;Node4 -->
<g id="edge4_Node000002_Node000004" class="edge">
<title>Node2&#45;&gt;Node4</title>
<g id="a_edge4_Node000002_Node000004"><a xlink:title=" ">
<path fill="none" stroke="#63b8ff" d="M362.61,-195.53C420.69,-190.39 500.19,-182.85 570,-174.5 578.31,-173.51 587.04,-172.37 595.67,-171.2"/>
<polygon fill="#63b8ff" stroke="#63b8ff" points="596.29,-174.65 605.71,-169.81 595.33,-167.71 596.29,-174.65"/>
</a>
</g>
</g>
<!-- Node3&#45;&gt;Node4 -->
<g id="edge3_Node000003_Node000004" class="edge">
<title>Node3&#45;&gt;Node4</title>
<g id="a_edge3_Node000003_Node000004"><a xlink:title=" ">
<path fill="none" stroke="#63b8ff" d="M531.28,-133.09C554.49,-138.17 583.18,-144.46 607.67,-149.82"/>
<polygon fill="#63b8ff" stroke="#63b8ff" points="607.02,-153.26 617.53,-151.98 608.51,-146.42 607.02,-153.26"/>
</a>
</g>
</g>
<!-- Node6&#45;&gt;Node3 -->
<g id="edge8_Node000006_Node000003" class="edge">
<title>Node6&#45;&gt;Node3</title>
<g id="a_edge8_Node000006_Node000003"><a xlink:title=" ">
<path fill="none" stroke="#63b8ff" d="M347.57,-56.06C354.35,-58.31 360.96,-61.08 367,-64.5 387.53,-76.11 382.67,-91.54 403,-103.5 407.49,-106.14 412.31,-108.43 417.29,-110.42"/>
<polygon fill="#63b8ff" stroke="#63b8ff" points="416.41,-113.83 427.01,-113.89 418.77,-107.23 416.41,-113.83"/>
</a>
</g>
</g>
<!-- Node7 -->
<g id="Node000007" class="node">
<title>Node7</title>
<g id="a_Node000007"><a xlink:href="classBusIO__7Semi.html#a933c66d9a1afe84102323e209a93dd31" target="_top" xlink:title=" ">
<polygon fill="white" stroke="#666666" points="716.5,-75 607.5,-75 607.5,-56 716.5,-56 716.5,-75"/>
<text text-anchor="middle" x="662" y="-63" font-family="Helvetica,sans-Serif" font-size="10.00">BusIO_7Semi::read</text>
</a>
</g>
</g>
<!-- Node6&#45;&gt;Node7 -->
<g id="edge7_Node000006_Node000007" class="edge">
<title>Node6&#45;&gt;Node7</title>
<g id="a_edge7_Node000006_Node000007"><a xlink:title=" ">
<path fill="none" stroke="#63b8ff" d="M367.41,-50.86C437.54,-54.36 534.35,-59.18 597.31,-62.32"/>
<polygon fill="#63b8ff" stroke="#63b8ff" points="597.34,-65.83 607.5,-62.83 597.69,-58.84 597.34,-65.83"/>
</a>
</g>
</g>
<!-- Node8&#45;&gt;Node3 -->
<g id="edge11_Node000008_Node000003" class="edge">
<title>Node8&#45;&gt;Node3</title>
<g id="a_edge11_Node000008_Node000003"><a xlink:title=" ">
<path fill="none" stroke="#63b8ff" d="M334.26,-149.99C360.84,-145.34 393.05,-139.7 420.89,-134.82"/>
<polygon fill="#63b8ff" stroke="#63b8ff" points="421.69,-138.23 430.93,-133.06 420.48,-131.34 421.69,-138.23"/>
</a>
</g>
</g>
<!-- Node8&#45;&gt;Node4 -->
<g id="edge12_Node000008_Node000004" class="edge">
<title>Node8&#45;&gt;Node4</title>
<g id="a_edge12_Node000008_Node000004"><a xlink:title=" ">
<path fill="none" stroke="#63b8ff" d="M358.94,-159.91C428.98,-160.28 530.07,-160.81 595.66,-161.16"/>
<polygon fill="#63b8ff" stroke="#63b8ff" points="595.85,-164.66 605.87,-161.21 595.89,-157.66 595.85,-164.66"/>
</a>
</g>
</g>
<!-- Node10 -->
<g id="Node000010" class="node">
<title>Node10</title>
<g id="a_Node000010"><a xlink:href="classBusIO__7Semi.html#a855c7388d4118e632c84c7f8e2e3ddc2" target="_top" xlink:title=" ">
<polygon fill="white" stroke="#666666" points="552,-94 421,-94 421,-75 552,-75 552,-94"/>
<text text-anchor="middle" x="486.5" y="-82" font-family="Helvetica,sans-Serif" font-size="10.00">BusIO_7Semi::writeBits</text>
</a>
</g>
</g>
<!-- Node9&#45;&gt;Node10 -->
<g id="edge15_Node000009_Node000010" class="edge">
<title>Node9&#45;&gt;Node10</title>
<g id="a_edge15_Node000009_Node000010"><a xlink:title=" ">
<path fill="none" stroke="#63b8ff" d="M341.66,-83.8C363.29,-83.91 387.83,-84.02 410.44,-84.13"/>
<polygon fill="#63b8ff" stroke="#63b8ff" points="410.66,-87.64 420.67,-84.18 410.69,-80.64 410.66,-87.64"/>
</a>
</g>
</g>
<!-- Node10&#45;&gt;Node4 -->
<g id="edge17_Node000010_Node000004" class="edge">
<title>Node10&#45;&gt;Node4</title>
<g id="a_edge17_Node000010_Node000004"><a xlink:title=" ">
<path fill="none" stroke="#63b8ff" d="M535.43,-94.09C546.97,-97.11 559.11,-100.89 570,-105.5 595.31,-116.22 621.81,-133.29 639.64,-145.77"/>
<polygon fill="#63b8ff" stroke="#63b8ff" points="637.95,-148.86 648.12,-151.82 642.01,-143.16 637.95,-148.86"/>
</a>
</g>
</g>
<!-- Node10&#45;&gt;Node7 -->
<g id="edge16_Node000010_Node000007" class="edge">
<title>Node10&#45;&gt;Node7</title>
<g id="a_edge16_Node000010_Node000007"><a xlink:title=" ">
<path fill="none" stroke="#63b8ff" d="M552.1,-77.43C566.9,-75.8 582.62,-74.08 597.37,-72.47"/>
<polygon fill="#63b8ff" stroke="#63b8ff" points="597.85,-75.94 607.41,-71.37 597.08,-68.98 597.85,-75.94"/>
</a>
</g>
</g>
</g>
</svg>
