<?xml version="1.0" encoding="UTF-8" standalone="no"?>
<!DOCTYPE svg PUBLIC "-//W3C//DTD SVG 1.1//EN"
 "http://www.w3.org/Graphics/SVG/1.1/DTD/svg11.dtd">
<!-- Generated by graphviz version 2.43.0 (0)
 -->
<!-- Title: DevLab_ICM20948::auxWriteCommand Pages: 1 -->
<svg width="517pt" height="83pt"
 viewBox="0.00 0.00 517.00 83.00" xmlns="http://www.w3.org/2000/svg" xmlns:xlink="http://www.w3.org/1999/xlink">
<g id="graph0" class="graph" transform="scale(1 1) rotate(0) translate(4 79)">
<title>DevLab_ICM20948::auxWriteCommand</title>
<!-- Node1 -->
<g id="Node000001" class="node">
<title>Node1</title>
<g id="a_Node000001"><a xlink:title=" ">
<polygon fill="#999999" stroke="#666666" points="158,-43.5 0,-43.5 0,-13.5 158,-13.5 158,-43.5"/>
<text text-anchor="start" x="8" y="-31.5" font-family="Helvetica,sans-Serif" font-size="10.00">DevLab_ICM20948::auxWrite</text>
<text text-anchor="middle" x="79" y="-20.5" font-family="Helvetica,sans-Serif" font-size="10.00">Command</text>
</a>
</g>
</g>
<!-- Node2 -->
<g id="Node000002" class="node">
<title>Node2</title>
<g id="a_Node000002"><a xlink:href="classBusIO__7Semi.html#a933c66d9a1afe84102323e209a93dd31" target="_top" xlink:title=" ">
<polygon fill="white" stroke="#666666" points="332,-75 223,-75 223,-56 332,-56 332,-75"/>
<text text-anchor="middle" x="277.5" y="-63" font-family="Helvetica,sans-Serif" font-size="10.00">BusIO_7Semi::read</text>
</a>
</g>
</g>
<!-- Node1&#45;&gt;Node2 -->
<g id="edge1_Node000001_Node000002" class="edge">
<title>Node1&#45;&gt;Node2</title>
<g id="a_edge1_Node000001_Node000002"><a xlink:title=" ">
<path fill="none" stroke="#63b8ff" d="M158.23,-43.23C177.46,-46.85 197.77,-50.67 216.02,-54.11"/>
<polygon fill="#63b8ff" stroke="#63b8ff" points="215.45,-57.57 225.93,-55.98 216.75,-50.69 215.45,-57.57"/>
</a>
</g>
</g>
<!-- Node3 -->
<g id="Node000003" class="node">
<title>Node3</title>
<g id="a_Node000003"><a xlink:href="classDevLab__ICM20948.html#aaa26fcbfea0e67d45cb1c3ae39654c55" target="_top" xlink:title=" ">
<polygon fill="white" stroke="#666666" points="361,-38 194,-38 194,-19 361,-19 361,-38"/>
<text text-anchor="middle" x="277.5" y="-26" font-family="Helvetica,sans-Serif" font-size="10.00">DevLab_ICM20948::selectBank</text>
</a>
</g>
</g>
<!-- Node1&#45;&gt;Node3 -->
<g id="edge2_Node000001_Node000003" class="edge">
<title>Node1&#45;&gt;Node3</title>
<g id="a_edge2_Node000001_Node000003"><a xlink:title=" ">
<path fill="none" stroke="#63b8ff" d="M158.23,-28.5C166.52,-28.5 175.01,-28.5 183.45,-28.5"/>
<polygon fill="#63b8ff" stroke="#63b8ff" points="183.71,-32 193.71,-28.5 183.71,-25 183.71,-32"/>
</a>
</g>
</g>
<!-- Node4 -->
<g id="Node000004" class="node">
<title>Node4</title>
<g id="a_Node000004"><a xlink:href="classBusIO__7Semi.html#aa633479356af692cb9ea334771b7c0c5" target="_top" xlink:title=" ">
<polygon fill="white" stroke="#666666" points="509,-19 397,-19 397,0 509,0 509,-19"/>
<text text-anchor="middle" x="453" y="-7" font-family="Helvetica,sans-Serif" font-size="10.00">BusIO_7Semi::write</text>
</a>
</g>
</g>
<!-- Node1&#45;&gt;Node4 -->
<g id="edge4_Node000001_Node000004" class="edge">
<title>Node1&#45;&gt;Node4</title>
<g id="a_edge4_Node000001_Node000004"><a xlink:title=" ">
<path fill="none" stroke="#63b8ff" d="M158.31,-14.52C170.23,-12.86 182.42,-11.43 194,-10.5 259.4,-5.24 334.43,-5.67 386.66,-7.01"/>
<polygon fill="#63b8ff" stroke="#63b8ff" points="386.7,-10.51 396.79,-7.28 386.89,-3.51 386.7,-10.51"/>
</a>
</g>
</g>
<!-- Node3&#45;&gt;Node4 -->
<g id="edge3_Node000003_Node000004" class="edge">
<title>Node3&#45;&gt;Node4</title>
<g id="a_edge3_Node000003_Node000004"><a xlink:title=" ">
<path fill="none" stroke="#63b8ff" d="M361.18,-19.45C369.75,-18.51 378.36,-17.56 386.7,-16.65"/>
<polygon fill="#63b8ff" stroke="#63b8ff" points="387.14,-20.12 396.7,-15.56 386.38,-13.17 387.14,-20.12"/>
</a>
</g>
</g>
</g>
</svg>
