<?xml version="1.0" encoding="UTF-8" standalone="no"?>
<!DOCTYPE svg PUBLIC "-//W3C//DTD SVG 1.1//EN"
 "http://www.w3.org/Graphics/SVG/1.1/DTD/svg11.dtd">
<!-- Generated by graphviz version 2.43.0 (0)
 -->
<!-- Title: BusIO_7Semi::readBits Pages: 1 -->
<svg width="542pt" height="227pt"
 viewBox="0.00 0.00 542.00 226.50" xmlns="http://www.w3.org/2000/svg" xmlns:xlink="http://www.w3.org/1999/xlink">
<g id="graph0" class="graph" transform="scale(1 1) rotate(0) translate(4 222.5)">
<title>BusIO_7Semi::readBits</title>
<!-- Node1 -->
<g id="Node000001" class="node">
<title>Node1</title>
<g id="a_Node000001"><a xlink:title=" ">
<polygon fill="#999999" stroke="#666666" points="534,-117 406,-117 406,-98 534,-98 534,-117"/>
<text text-anchor="middle" x="470" y="-105" font-family="Helvetica,sans-Serif" font-size="10.00">BusIO_7Semi::readBits</text>
</a>
</g>
</g>
<!-- Node2 -->
<g id="Node000002" class="node">
<title>Node2</title>
<g id="a_Node000002"><a xlink:href="classDevLab__ICM20948.html#ae356f6810b038f90e706bd288bb79d19" target="_top" xlink:title=" ">
<polygon fill="white" stroke="#666666" points="370,-218.5 215,-218.5 215,-188.5 370,-188.5 370,-218.5"/>
<text text-anchor="start" x="223" y="-206.5" font-family="Helvetica,sans-Serif" font-size="10.00">DevLab_ICM20948::getAccel</text>
<text text-anchor="middle" x="292.5" y="-195.5" font-family="Helvetica,sans-Serif" font-size="10.00">Averaging</text>
</a>
</g>
</g>
<!-- Node1&#45;&gt;Node2 -->
<g id="edge1_Node000001_Node000002" class="edge">
<title>Node1&#45;&gt;Node2</title>
<g id="a_edge1_Node000001_Node000002"><a xlink:title=" ">
<path fill="none" stroke="#63b8ff" d="M450.59,-123.75C431.56,-139.82 400.43,-164.18 370,-179.5 363.41,-182.82 356.27,-185.79 349.09,-188.42"/>
<polygon fill="#63b8ff" stroke="#63b8ff" points="452.89,-126.38 458.2,-117.21 448.33,-121.07 452.89,-126.38"/>
</a>
</g>
</g>
<!-- Node3 -->
<g id="Node000003" class="node">
<title>Node3</title>
<g id="a_Node000003"><a xlink:href="classDevLab__ICM20948.html#ace42a35300e82402626ce89eb8958e5f" target="_top" xlink:title=" ">
<polygon fill="white" stroke="#666666" points="370,-170.5 215,-170.5 215,-140.5 370,-140.5 370,-170.5"/>
<text text-anchor="start" x="223" y="-158.5" font-family="Helvetica,sans-Serif" font-size="10.00">DevLab_ICM20948::getAccel</text>
<text text-anchor="middle" x="292.5" y="-147.5" font-family="Helvetica,sans-Serif" font-size="10.00">Scale</text>
</a>
</g>
</g>
<!-- Node1&#45;&gt;Node3 -->
<g id="edge2_Node000001_Node000003" class="edge">
<title>Node1&#45;&gt;Node3</title>
<g id="a_edge2_Node000001_Node000003"><a xlink:title=" ">
<path fill="none" stroke="#63b8ff" d="M424.07,-119.79C401.07,-126.08 372.87,-133.79 348.57,-140.44"/>
<polygon fill="#63b8ff" stroke="#63b8ff" points="425.18,-123.11 433.91,-117.1 423.34,-116.36 425.18,-123.11"/>
</a>
</g>
</g>
<!-- Node4 -->
<g id="Node000004" class="node">
<title>Node4</title>
<g id="a_Node000004"><a xlink:href="classDevLab__ICM20948.html#a5e21409c747b1345884dd0d05720f37f" target="_top" xlink:title=" ">
<polygon fill="white" stroke="#666666" points="368.5,-122.5 216.5,-122.5 216.5,-92.5 368.5,-92.5 368.5,-122.5"/>
<text text-anchor="start" x="224.5" y="-110.5" font-family="Helvetica,sans-Serif" font-size="10.00">DevLab_ICM20948::getGyro</text>
<text text-anchor="middle" x="292.5" y="-99.5" font-family="Helvetica,sans-Serif" font-size="10.00">Scale</text>
</a>
</g>
</g>
<!-- Node1&#45;&gt;Node4 -->
<g id="edge3_Node000001_Node000004" class="edge">
<title>Node1&#45;&gt;Node4</title>
<g id="a_edge3_Node000001_Node000004"><a xlink:title=" ">
<path fill="none" stroke="#63b8ff" d="M395.4,-107.5C386.58,-107.5 377.57,-107.5 368.72,-107.5"/>
<polygon fill="#63b8ff" stroke="#63b8ff" points="395.64,-111 405.64,-107.5 395.64,-104 395.64,-111"/>
</a>
</g>
</g>
<!-- Node5 -->
<g id="Node000005" class="node">
<title>Node5</title>
<g id="a_Node000005"><a xlink:href="classBusIO__7Semi.html#a51b4ef7309cdfddaa3c94d99eac09065" target="_top" xlink:title=" ">
<polygon fill="white" stroke="#666666" points="353.5,-74 231.5,-74 231.5,-55 353.5,-55 353.5,-74"/>
<text text-anchor="middle" x="292.5" y="-62" font-family="Helvetica,sans-Serif" font-size="10.00">BusIO_7Semi::readBit</text>
</a>
</g>
</g>
<!-- Node1&#45;&gt;Node5 -->
<g id="edge4_Node000001_Node000005" class="edge">
<title>Node1&#45;&gt;Node5</title>
<g id="a_edge4_Node000001_Node000005"><a xlink:title=" ">
<path fill="none" stroke="#63b8ff" d="M420.16,-95.53C392.44,-88.74 358.22,-80.36 332.34,-74.02"/>
<polygon fill="#63b8ff" stroke="#63b8ff" points="419.51,-98.98 430.05,-97.96 421.17,-92.18 419.51,-98.98"/>
</a>
</g>
</g>
<!-- Node6 -->
<g id="Node000006" class="node">
<title>Node6</title>
<g id="a_Node000006"><a xlink:href="classBusIO__7Semi.html#a0d76100d6e83237e0ee97eba7044147d" target="_top" xlink:title=" ">
<polygon fill="white" stroke="#666666" points="353.5,-37 231.5,-37 231.5,-18 353.5,-18 353.5,-37"/>
<text text-anchor="middle" x="292.5" y="-25" font-family="Helvetica,sans-Serif" font-size="10.00">BusIO_7Semi::readBit</text>
</a>
</g>
</g>
<!-- Node1&#45;&gt;Node6 -->
<g id="edge5_Node000001_Node000006" class="edge">
<title>Node1&#45;&gt;Node6</title>
<g id="a_edge5_Node000001_Node000006"><a xlink:title=" ">
<path fill="none" stroke="#63b8ff" d="M447.9,-91.81C428.53,-78.09 398.6,-58.52 370,-46.5 361.04,-42.74 351.17,-39.6 341.58,-37.03"/>
<polygon fill="#63b8ff" stroke="#63b8ff" points="446.1,-94.83 456.26,-97.84 450.19,-89.15 446.1,-94.83"/>
</a>
</g>
</g>
<!-- Node7 -->
<g id="Node000007" class="node">
<title>Node7</title>
<g id="a_Node000007"><a xlink:href="classDevLab__ICM20948.html#a9832c13228e84e8ef74a631bfe1fdcd7" target="_top" xlink:title=" ">
<polygon fill="white" stroke="#666666" points="179,-56 0,-56 0,-37 179,-37 179,-56"/>
<text text-anchor="middle" x="89.5" y="-44" font-family="Helvetica,sans-Serif" font-size="10.00">DevLab_ICM20948::getLowPower</text>
</a>
</g>
</g>
<!-- Node6&#45;&gt;Node7 -->
<g id="edge6_Node000006_Node000007" class="edge">
<title>Node6&#45;&gt;Node7</title>
<g id="a_edge6_Node000006_Node000007"><a xlink:title=" ">
<path fill="none" stroke="#63b8ff" d="M221.26,-34.14C207.68,-35.42 193.29,-36.78 179.22,-38.11"/>
<polygon fill="#63b8ff" stroke="#63b8ff" points="221.84,-37.6 231.47,-33.17 221.18,-30.63 221.84,-37.6"/>
</a>
</g>
</g>
<!-- Node8 -->
<g id="Node000008" class="node">
<title>Node8</title>
<g id="a_Node000008"><a xlink:href="classDevLab__ICM20948.html#a8b3768ede281b8aa65900b1db8a7a7c7" target="_top" xlink:title=" ">
<polygon fill="white" stroke="#666666" points="173,-19 6,-19 6,0 173,0 173,-19"/>
<text text-anchor="middle" x="89.5" y="-7" font-family="Helvetica,sans-Serif" font-size="10.00">DevLab_ICM20948::getSensors</text>
</a>
</g>
</g>
<!-- Node6&#45;&gt;Node8 -->
<g id="edge7_Node000006_Node000008" class="edge">
<title>Node6&#45;&gt;Node8</title>
<g id="a_edge7_Node000006_Node000008"><a xlink:title=" ">
<path fill="none" stroke="#63b8ff" d="M221.42,-21.22C205.88,-19.83 189.26,-18.34 173.27,-16.91"/>
<polygon fill="#63b8ff" stroke="#63b8ff" points="221.19,-24.72 231.47,-22.12 221.82,-17.75 221.19,-24.72"/>
</a>
</g>
</g>
</g>
</svg>
