<?xml version="1.0" encoding="UTF-8" standalone="no"?>
<!DOCTYPE svg PUBLIC "-//W3C//DTD SVG 1.1//EN"
 "http://www.w3.org/Graphics/SVG/1.1/DTD/svg11.dtd">
<!-- Generated by graphviz version 2.43.0 (0)
 -->
<!-- Title: DevLab_ICM20948::intEnableConfig Pages: 1 -->
<svg width="518pt" height="52pt"
 viewBox="0.00 0.00 518.00 51.50" xmlns="http://www.w3.org/2000/svg" xmlns:xlink="http://www.w3.org/1999/xlink">
<g id="graph0" class="graph" transform="scale(1 1) rotate(0) translate(4 47.5)">
<title>DevLab_ICM20948::intEnableConfig</title>
<!-- Node1 -->
<g id="Node000001" class="node">
<title>Node1</title>
<g id="a_Node000001"><a xlink:title=" ">
<polygon fill="#999999" stroke="#666666" points="159,-30 0,-30 0,0 159,0 159,-30"/>
<text text-anchor="start" x="8" y="-18" font-family="Helvetica,sans-Serif" font-size="10.00">DevLab_ICM20948::intEnable</text>
<text text-anchor="middle" x="79.5" y="-7" font-family="Helvetica,sans-Serif" font-size="10.00">Config</text>
</a>
</g>
</g>
<!-- Node2 -->
<g id="Node000002" class="node">
<title>Node2</title>
<g id="a_Node000002"><a xlink:href="classDevLab__ICM20948.html#aaa26fcbfea0e67d45cb1c3ae39654c55" target="_top" xlink:title=" ">
<polygon fill="white" stroke="#666666" points="362,-43.5 195,-43.5 195,-24.5 362,-24.5 362,-43.5"/>
<text text-anchor="middle" x="278.5" y="-31.5" font-family="Helvetica,sans-Serif" font-size="10.00">DevLab_ICM20948::selectBank</text>
</a>
</g>
</g>
<!-- Node1&#45;&gt;Node2 -->
<g id="edge1_Node000001_Node000002" class="edge">
<title>Node1&#45;&gt;Node2</title>
<g id="a_edge1_Node000001_Node000002"><a xlink:title=" ">
<path fill="none" stroke="#63b8ff" d="M159.21,-22.59C167.61,-23.4 176.2,-24.23 184.74,-25.05"/>
<polygon fill="#63b8ff" stroke="#63b8ff" points="184.43,-28.54 194.72,-26.02 185.1,-21.57 184.43,-28.54"/>
</a>
</g>
</g>
<!-- Node3 -->
<g id="Node000003" class="node">
<title>Node3</title>
<g id="a_Node000003"><a xlink:href="classBusIO__7Semi.html#aa633479356af692cb9ea334771b7c0c5" target="_top" xlink:title=" ">
<polygon fill="white" stroke="#666666" points="510,-24.5 398,-24.5 398,-5.5 510,-5.5 510,-24.5"/>
<text text-anchor="middle" x="454" y="-12.5" font-family="Helvetica,sans-Serif" font-size="10.00">BusIO_7Semi::write</text>
</a>
</g>
</g>
<!-- Node1&#45;&gt;Node3 -->
<g id="edge3_Node000001_Node000003" class="edge">
<title>Node1&#45;&gt;Node3</title>
<g id="a_edge3_Node000001_Node000003"><a xlink:title=" ">
<path fill="none" stroke="#63b8ff" d="M159.04,-15C226.88,-15 323.76,-15 387.49,-15"/>
<polygon fill="#63b8ff" stroke="#63b8ff" points="387.82,-18.5 397.82,-15 387.82,-11.5 387.82,-18.5"/>
</a>
</g>
</g>
<!-- Node2&#45;&gt;Node3 -->
<g id="edge2_Node000002_Node000003" class="edge">
<title>Node2&#45;&gt;Node3</title>
<g id="a_edge2_Node000002_Node000003"><a xlink:title=" ">
<path fill="none" stroke="#63b8ff" d="M362.18,-24.95C370.75,-24.01 379.36,-23.06 387.7,-22.15"/>
<polygon fill="#63b8ff" stroke="#63b8ff" points="388.14,-25.62 397.7,-21.06 387.38,-18.67 388.14,-25.62"/>
</a>
</g>
</g>
</g>
</svg>
