<?xml version="1.0" encoding="UTF-8" standalone="no"?>
<!DOCTYPE svg PUBLIC "-//W3C//DTD SVG 1.1//EN"
 "http://www.w3.org/Graphics/SVG/1.1/DTD/svg11.dtd">
<!-- Generated by graphviz version 2.43.0 (0)
 -->
<!-- Title: DevLab_ICM20948::auxReadByte Pages: 1 -->
<svg width="538pt" height="83pt"
 viewBox="0.00 0.00 538.00 83.00" xmlns="http://www.w3.org/2000/svg" xmlns:xlink="http://www.w3.org/1999/xlink">
<g id="graph0" class="graph" transform="scale(1 1) rotate(0) translate(4 79)">
<title>DevLab_ICM20948::auxReadByte</title>
<!-- Node1 -->
<g id="Node000001" class="node">
<title>Node1</title>
<g id="a_Node000001"><a xlink:title=" ">
<polygon fill="#999999" stroke="#666666" points="179,-38 0,-38 0,-19 179,-19 179,-38"/>
<text text-anchor="middle" x="89.5" y="-26" font-family="Helvetica,sans-Serif" font-size="10.00">DevLab_ICM20948::auxReadByte</text>
</a>
</g>
</g>
<!-- Node2 -->
<g id="Node000002" class="node">
<title>Node2</title>
<g id="a_Node000002"><a xlink:href="classBusIO__7Semi.html#a933c66d9a1afe84102323e209a93dd31" target="_top" xlink:title=" ">
<polygon fill="white" stroke="#666666" points="353,-75 244,-75 244,-56 353,-56 353,-75"/>
<text text-anchor="middle" x="298.5" y="-63" font-family="Helvetica,sans-Serif" font-size="10.00">BusIO_7Semi::read</text>
</a>
</g>
</g>
<!-- Node1&#45;&gt;Node2 -->
<g id="edge1_Node000001_Node000002" class="edge">
<title>Node1&#45;&gt;Node2</title>
<g id="a_edge1_Node000001_Node000002"><a xlink:title=" ">
<path fill="none" stroke="#63b8ff" d="M143.81,-38.03C171.35,-42.95 205.14,-48.99 234.02,-54.15"/>
<polygon fill="#63b8ff" stroke="#63b8ff" points="233.55,-57.63 244.01,-55.94 234.79,-50.73 233.55,-57.63"/>
</a>
</g>
</g>
<!-- Node3 -->
<g id="Node000003" class="node">
<title>Node3</title>
<g id="a_Node000003"><a xlink:href="classDevLab__ICM20948.html#aaa26fcbfea0e67d45cb1c3ae39654c55" target="_top" xlink:title=" ">
<polygon fill="white" stroke="#666666" points="382,-38 215,-38 215,-19 382,-19 382,-38"/>
<text text-anchor="middle" x="298.5" y="-26" font-family="Helvetica,sans-Serif" font-size="10.00">DevLab_ICM20948::selectBank</text>
</a>
</g>
</g>
<!-- Node1&#45;&gt;Node3 -->
<g id="edge2_Node000001_Node000003" class="edge">
<title>Node1&#45;&gt;Node3</title>
<g id="a_edge2_Node000001_Node000003"><a xlink:title=" ">
<path fill="none" stroke="#63b8ff" d="M179.19,-28.5C187.61,-28.5 196.17,-28.5 204.64,-28.5"/>
<polygon fill="#63b8ff" stroke="#63b8ff" points="204.9,-32 214.9,-28.5 204.9,-25 204.9,-32"/>
</a>
</g>
</g>
<!-- Node4 -->
<g id="Node000004" class="node">
<title>Node4</title>
<g id="a_Node000004"><a xlink:href="classBusIO__7Semi.html#aa633479356af692cb9ea334771b7c0c5" target="_top" xlink:title=" ">
<polygon fill="white" stroke="#666666" points="530,-19 418,-19 418,0 530,0 530,-19"/>
<text text-anchor="middle" x="474" y="-7" font-family="Helvetica,sans-Serif" font-size="10.00">BusIO_7Semi::write</text>
</a>
</g>
</g>
<!-- Node1&#45;&gt;Node4 -->
<g id="edge4_Node000001_Node000004" class="edge">
<title>Node1&#45;&gt;Node4</title>
<g id="a_edge4_Node000001_Node000004"><a xlink:title=" ">
<path fill="none" stroke="#63b8ff" d="M144.86,-18.96C166.6,-15.58 191.91,-12.21 215,-10.5 280.44,-5.67 355.46,-6.04 407.67,-7.24"/>
<polygon fill="#63b8ff" stroke="#63b8ff" points="407.72,-10.74 417.8,-7.49 407.89,-3.74 407.72,-10.74"/>
</a>
</g>
</g>
<!-- Node3&#45;&gt;Node4 -->
<g id="edge3_Node000003_Node000004" class="edge">
<title>Node3&#45;&gt;Node4</title>
<g id="a_edge3_Node000003_Node000004"><a xlink:title=" ">
<path fill="none" stroke="#63b8ff" d="M382.18,-19.45C390.75,-18.51 399.36,-17.56 407.7,-16.65"/>
<polygon fill="#63b8ff" stroke="#63b8ff" points="408.14,-20.12 417.7,-15.56 407.38,-13.17 408.14,-20.12"/>
</a>
</g>
</g>
</g>
</svg>
