<?xml version="1.0" encoding="UTF-8" standalone="no"?>
<!DOCTYPE svg PUBLIC "-//W3C//DTD SVG 1.1//EN"
 "http://www.w3.org/Graphics/SVG/1.1/DTD/svg11.dtd">
<!-- Generated by graphviz version 2.43.0 (0)
 -->
<!-- Title: BusIO_7Semi::readBit Pages: 1 -->
<svg width="345pt" height="64pt"
 viewBox="0.00 0.00 345.00 64.00" xmlns="http://www.w3.org/2000/svg" xmlns:xlink="http://www.w3.org/1999/xlink">
<g id="graph0" class="graph" transform="scale(1 1) rotate(0) translate(4 60)">
<title>BusIO_7Semi::readBit</title>
<!-- Node1 -->
<g id="Node000001" class="node">
<title>Node1</title>
<g id="a_Node000001"><a xlink:title=" ">
<polygon fill="#999999" stroke="#666666" points="337,-37 215,-37 215,-18 337,-18 337,-37"/>
<text text-anchor="middle" x="276" y="-25" font-family="Helvetica,sans-Serif" font-size="10.00">BusIO_7Semi::readBit</text>
</a>
</g>
</g>
<!-- Node2 -->
<g id="Node000002" class="node">
<title>Node2</title>
<g id="a_Node000002"><a xlink:href="classDevLab__ICM20948.html#a9832c13228e84e8ef74a631bfe1fdcd7" target="_top" xlink:title=" ">
<polygon fill="white" stroke="#666666" points="179,-56 0,-56 0,-37 179,-37 179,-56"/>
<text text-anchor="middle" x="89.5" y="-44" font-family="Helvetica,sans-Serif" font-size="10.00">DevLab_ICM20948::getLowPower</text>
</a>
</g>
</g>
<!-- Node1&#45;&gt;Node2 -->
<g id="edge1_Node000001_Node000002" class="edge">
<title>Node1&#45;&gt;Node2</title>
<g id="a_edge1_Node000001_Node000002"><a xlink:title=" ">
<path fill="none" stroke="#63b8ff" d="M204.73,-34.74C196.32,-35.6 187.66,-36.49 179.03,-37.38"/>
<polygon fill="#63b8ff" stroke="#63b8ff" points="205.25,-38.2 214.84,-33.7 204.54,-31.24 205.25,-38.2"/>
</a>
</g>
</g>
<!-- Node3 -->
<g id="Node000003" class="node">
<title>Node3</title>
<g id="a_Node000003"><a xlink:href="classDevLab__ICM20948.html#a8b3768ede281b8aa65900b1db8a7a7c7" target="_top" xlink:title=" ">
<polygon fill="white" stroke="#666666" points="173,-19 6,-19 6,0 173,0 173,-19"/>
<text text-anchor="middle" x="89.5" y="-7" font-family="Helvetica,sans-Serif" font-size="10.00">DevLab_ICM20948::getSensors</text>
</a>
</g>
</g>
<!-- Node1&#45;&gt;Node3 -->
<g id="edge2_Node000001_Node000003" class="edge">
<title>Node1&#45;&gt;Node3</title>
<g id="a_edge2_Node000001_Node000003"><a xlink:title=" ">
<path fill="none" stroke="#63b8ff" d="M204.66,-20.64C194.32,-19.63 183.59,-18.58 173.03,-17.55"/>
<polygon fill="#63b8ff" stroke="#63b8ff" points="204.55,-24.14 214.84,-21.63 205.23,-17.18 204.55,-24.14"/>
</a>
</g>
</g>
</g>
</svg>
