<?xml version="1.0" encoding="UTF-8" standalone="no"?>
<!DOCTYPE svg PUBLIC "-//W3C//DTD SVG 1.1//EN"
 "http://www.w3.org/Graphics/SVG/1.1/DTD/svg11.dtd">
<!-- Generated by graphviz version 2.43.0 (0)
 -->
<!-- Title: src/DevLab_ICM20948.h Pages: 1 -->
<svg width="563pt" height="192pt"
 viewBox="0.00 0.00 563.23 192.00" xmlns="http://www.w3.org/2000/svg" xmlns:xlink="http://www.w3.org/1999/xlink">
<g id="graph0" class="graph" transform="scale(1 1) rotate(0) translate(4 188)">
<title>src/DevLab_ICM20948.h</title>
<!-- Node1 -->
<g id="Node000001" class="node">
<title>Node1</title>
<g id="a_Node000001"><a xlink:title=" ">
<polygon fill="#999999" stroke="#666666" points="291.73,-184 157.73,-184 157.73,-165 291.73,-165 291.73,-184"/>
<text text-anchor="middle" x="224.73" y="-172" font-family="Helvetica,sans-Serif" font-size="10.00">src/DevLab_ICM20948.h</text>
</a>
</g>
</g>
<!-- Node2 -->
<g id="Node000002" class="node">
<title>Node2</title>
<g id="a_Node000002"><a xlink:title=" ">
<polygon fill="#e0e0e0" stroke="#999999" points="90.23,-19 27.23,-19 27.23,0 90.23,0 90.23,-19"/>
<text text-anchor="middle" x="58.73" y="-7" font-family="Helvetica,sans-Serif" font-size="10.00">Arduino.h</text>
</a>
</g>
</g>
<!-- Node1&#45;&gt;Node2 -->
<g id="edge1_Node000001_Node000002" class="edge">
<title>Node1&#45;&gt;Node2</title>
<g id="a_edge1_Node000001_Node000002"><a xlink:title=" ">
<path fill="none" stroke="#63b8ff" d="M160.03,-164.99C127.37,-158.61 88.12,-147.65 56.73,-129 22.18,-108.47 -12.41,-91.36 4.73,-55 10.75,-42.26 22.4,-31.92 33.34,-24.44"/>
<polygon fill="#63b8ff" stroke="#63b8ff" points="35.27,-27.36 41.85,-19.05 31.53,-21.44 35.27,-27.36"/>
</a>
</g>
</g>
<!-- Node3 -->
<g id="Node000003" class="node">
<title>Node3</title>
<g id="a_Node000003"><a xlink:title=" ">
<polygon fill="#e0e0e0" stroke="#999999" points="320.73,-19 272.73,-19 272.73,0 320.73,0 320.73,-19"/>
<text text-anchor="middle" x="296.73" y="-7" font-family="Helvetica,sans-Serif" font-size="10.00">Wire.h</text>
</a>
</g>
</g>
<!-- Node1&#45;&gt;Node3 -->
<g id="edge2_Node000001_Node000003" class="edge">
<title>Node1&#45;&gt;Node3</title>
<g id="a_edge2_Node000001_Node000003"><a xlink:title=" ">
<path fill="none" stroke="#63b8ff" d="M291.78,-169.84C320.27,-164.56 350.95,-153.11 368.73,-129 394.88,-93.56 346.89,-48.26 317.37,-25.29"/>
<polygon fill="#63b8ff" stroke="#63b8ff" points="319.35,-22.39 309.25,-19.17 315.13,-27.98 319.35,-22.39"/>
</a>
</g>
</g>
<!-- Node4 -->
<g id="Node000004" class="node">
<title>Node4</title>
<g id="a_Node000004"><a xlink:title=" ">
<polygon fill="#e0e0e0" stroke="#999999" points="413.23,-19 372.23,-19 372.23,0 413.23,0 413.23,-19"/>
<text text-anchor="middle" x="392.73" y="-7" font-family="Helvetica,sans-Serif" font-size="10.00">SPI.h</text>
</a>
</g>
</g>
<!-- Node1&#45;&gt;Node4 -->
<g id="edge3_Node000001_Node000004" class="edge">
<title>Node1&#45;&gt;Node4</title>
<g id="a_edge3_Node000001_Node000004"><a xlink:title=" ">
<path fill="none" stroke="#63b8ff" d="M281.41,-164.95C322.27,-157.54 372.47,-145.4 385.73,-129 408.76,-100.52 403.19,-54.48 397.63,-28.98"/>
<polygon fill="#63b8ff" stroke="#63b8ff" points="401.01,-28.04 395.26,-19.14 394.2,-29.68 401.01,-28.04"/>
</a>
</g>
</g>
<!-- Node5 -->
<g id="Node000005" class="node">
<title>Node5</title>
<g id="a_Node000005"><a xlink:href="ICM20948__regs_8h.html" target="_top" xlink:title=" ">
<polygon fill="white" stroke="#666666" points="555.23,-129 454.23,-129 454.23,-110 555.23,-110 555.23,-129"/>
<text text-anchor="middle" x="504.73" y="-117" font-family="Helvetica,sans-Serif" font-size="10.00">ICM20948_regs.h</text>
</a>
</g>
</g>
<!-- Node1&#45;&gt;Node5 -->
<g id="edge4_Node000001_Node000005" class="edge">
<title>Node1&#45;&gt;Node5</title>
<g id="a_edge4_Node000001_Node000005"><a xlink:title=" ">
<path fill="none" stroke="#63b8ff" d="M269.72,-164.98C318.66,-155.72 396.94,-140.9 449.56,-130.94"/>
<polygon fill="#63b8ff" stroke="#63b8ff" points="450.22,-134.38 459.4,-129.08 448.92,-127.5 450.22,-134.38"/>
</a>
</g>
</g>
<!-- Node6 -->
<g id="Node000006" class="node">
<title>Node6</title>
<g id="a_Node000006"><a xlink:href="7Semi__Interface_8h.html" target="_top" xlink:title=" ">
<polygon fill="white" stroke="#666666" points="248.23,-74 143.23,-74 143.23,-55 248.23,-55 248.23,-74"/>
<text text-anchor="middle" x="195.73" y="-62" font-family="Helvetica,sans-Serif" font-size="10.00">7Semi_Interface.h</text>
</a>
</g>
</g>
<!-- Node1&#45;&gt;Node6 -->
<g id="edge5_Node000001_Node000006" class="edge">
<title>Node1&#45;&gt;Node6</title>
<g id="a_edge5_Node000001_Node000006"><a xlink:title=" ">
<path fill="none" stroke="#63b8ff" d="M157.4,-169.58C129.32,-164.21 99.23,-152.77 81.73,-129 62.56,-102.96 100.22,-86.21 137.28,-76.5"/>
<polygon fill="#63b8ff" stroke="#63b8ff" points="138.3,-79.85 147.17,-74.06 136.62,-73.06 138.3,-79.85"/>
</a>
</g>
</g>
<!-- Node7 -->
<g id="Node000007" class="node">
<title>Node7</title>
<g id="a_Node000007"><a xlink:href="7Semi__I2C__Interface_8h.html" target="_top" xlink:title=" ">
<polygon fill="white" stroke="#666666" points="359.73,-129 233.73,-129 233.73,-110 359.73,-110 359.73,-129"/>
<text text-anchor="middle" x="296.73" y="-117" font-family="Helvetica,sans-Serif" font-size="10.00">7Semi_I2C_Interface.h</text>
</a>
</g>
</g>
<!-- Node1&#45;&gt;Node7 -->
<g id="edge9_Node000001_Node000007" class="edge">
<title>Node1&#45;&gt;Node7</title>
<g id="a_edge9_Node000001_Node000007"><a xlink:title=" ">
<path fill="none" stroke="#63b8ff" d="M236.3,-164.98C247.15,-157 263.62,-144.88 276.62,-135.31"/>
<polygon fill="#63b8ff" stroke="#63b8ff" points="278.98,-137.92 284.96,-129.17 274.83,-132.28 278.98,-137.92"/>
</a>
</g>
</g>
<!-- Node8 -->
<g id="Node000008" class="node">
<title>Node8</title>
<g id="a_Node000008"><a xlink:href="7Semi__SPI__Interface_8h.html" target="_top" xlink:title=" ">
<polygon fill="white" stroke="#666666" points="215.23,-129 90.23,-129 90.23,-110 215.23,-110 215.23,-129"/>
<text text-anchor="middle" x="152.73" y="-117" font-family="Helvetica,sans-Serif" font-size="10.00">7Semi_SPI_Interface.h</text>
</a>
</g>
</g>
<!-- Node1&#45;&gt;Node8 -->
<g id="edge12_Node000001_Node000008" class="edge">
<title>Node1&#45;&gt;Node8</title>
<g id="a_edge12_Node000001_Node000008"><a xlink:title=" ">
<path fill="none" stroke="#63b8ff" d="M213.17,-164.98C202.31,-157 185.85,-144.88 172.85,-135.31"/>
<polygon fill="#63b8ff" stroke="#63b8ff" points="174.64,-132.28 164.51,-129.17 170.49,-137.92 174.64,-132.28"/>
</a>
</g>
</g>
<!-- Node9 -->
<g id="Node000009" class="node">
<title>Node9</title>
<g id="a_Node000009"><a xlink:href="BusIO__7Semi_8h.html" target="_top" xlink:title=" ">
<polygon fill="white" stroke="#666666" points="103.73,-74 13.73,-74 13.73,-55 103.73,-55 103.73,-74"/>
<text text-anchor="middle" x="58.73" y="-62" font-family="Helvetica,sans-Serif" font-size="10.00">BusIO_7Semi.h</text>
</a>
</g>
</g>
<!-- Node1&#45;&gt;Node9 -->
<g id="edge14_Node000001_Node000009" class="edge">
<title>Node1&#45;&gt;Node9</title>
<g id="a_edge14_Node000001_Node000009"><a xlink:title=" ">
<path fill="none" stroke="#63b8ff" d="M157.41,-169.37C127.23,-164.04 93.58,-152.69 71.73,-129 60.66,-116.99 57.97,-98.18 57.71,-84.14"/>
<polygon fill="#63b8ff" stroke="#63b8ff" points="61.21,-84.2 57.91,-74.13 54.21,-84.06 61.21,-84.2"/>
</a>
</g>
</g>
<!-- Node6&#45;&gt;Node2 -->
<g id="edge6_Node000006_Node000002" class="edge">
<title>Node6&#45;&gt;Node2</title>
<g id="a_edge6_Node000006_Node000002"><a xlink:title=" ">
<path fill="none" stroke="#63b8ff" d="M173.72,-54.98C151.29,-46.3 116.25,-32.75 90.75,-22.88"/>
<polygon fill="#63b8ff" stroke="#63b8ff" points="91.74,-19.51 81.15,-19.17 89.21,-26.04 91.74,-19.51"/>
</a>
</g>
</g>
<!-- Node6&#45;&gt;Node3 -->
<g id="edge7_Node000006_Node000003" class="edge">
<title>Node6&#45;&gt;Node3</title>
<g id="a_edge7_Node000006_Node000003"><a xlink:title=" ">
<path fill="none" stroke="#63b8ff" d="M211.96,-54.98C227.92,-46.61 252.51,-33.7 271.11,-23.95"/>
<polygon fill="#63b8ff" stroke="#63b8ff" points="272.98,-26.92 280.21,-19.17 269.73,-20.72 272.98,-26.92"/>
</a>
</g>
</g>
<!-- Node6&#45;&gt;Node4 -->
<g id="edge8_Node000006_Node000004" class="edge">
<title>Node6&#45;&gt;Node4</title>
<g id="a_edge8_Node000006_Node000004"><a xlink:title=" ">
<path fill="none" stroke="#63b8ff" d="M227.39,-54.98C264.41,-45.02 325.29,-28.65 361.94,-18.78"/>
<polygon fill="#63b8ff" stroke="#63b8ff" points="363.29,-22.05 372.04,-16.07 361.47,-15.29 363.29,-22.05"/>
</a>
</g>
</g>
<!-- Node7&#45;&gt;Node3 -->
<g id="edge11_Node000007_Node000003" class="edge">
<title>Node7&#45;&gt;Node3</title>
<g id="a_edge11_Node000007_Node000003"><a xlink:title=" ">
<path fill="none" stroke="#63b8ff" d="M296.73,-109.66C296.73,-92.17 296.73,-52.8 296.73,-29.27"/>
<polygon fill="#63b8ff" stroke="#63b8ff" points="300.23,-29.16 296.73,-19.16 293.23,-29.16 300.23,-29.16"/>
</a>
</g>
</g>
<!-- Node7&#45;&gt;Node6 -->
<g id="edge10_Node000007_Node000006" class="edge">
<title>Node7&#45;&gt;Node6</title>
<g id="a_edge10_Node000007_Node000006"><a xlink:title=" ">
<path fill="none" stroke="#63b8ff" d="M280.51,-109.98C264.55,-101.61 239.96,-88.7 221.36,-78.95"/>
<polygon fill="#63b8ff" stroke="#63b8ff" points="222.74,-75.72 212.26,-74.17 219.49,-81.92 222.74,-75.72"/>
</a>
</g>
</g>
<!-- Node8&#45;&gt;Node6 -->
<g id="edge13_Node000008_Node000006" class="edge">
<title>Node8&#45;&gt;Node6</title>
<g id="a_edge13_Node000008_Node000006"><a xlink:title=" ">
<path fill="none" stroke="#63b8ff" d="M159.84,-109.75C165.91,-102.26 174.82,-91.28 182.24,-82.13"/>
<polygon fill="#63b8ff" stroke="#63b8ff" points="185.18,-84.06 188.77,-74.09 179.75,-79.65 185.18,-84.06"/>
</a>
</g>
</g>
<!-- Node9&#45;&gt;Node2 -->
<g id="edge15_Node000009_Node000002" class="edge">
<title>Node9&#45;&gt;Node2</title>
<g id="a_edge15_Node000009_Node000002"><a xlink:title=" ">
<path fill="none" stroke="#63b8ff" d="M58.73,-54.75C58.73,-47.8 58.73,-37.85 58.73,-29.13"/>
<polygon fill="#63b8ff" stroke="#63b8ff" points="62.23,-29.09 58.73,-19.09 55.23,-29.09 62.23,-29.09"/>
</a>
</g>
</g>
</g>
</svg>
