<?xml version="1.0" encoding="UTF-8" standalone="no"?>
<!DOCTYPE svg PUBLIC "-//W3C//DTD SVG 1.1//EN"
 "http://www.w3.org/Graphics/SVG/1.1/DTD/svg11.dtd">
<!-- Generated by graphviz version 2.43.0 (0)
 -->
<!-- Title: setup Pages: 1 -->
<svg width="818pt" height="464pt"
 viewBox="0.00 0.00 818.00 464.48" xmlns="http://www.w3.org/2000/svg" xmlns:xlink="http://www.w3.org/1999/xlink">
<g id="graph0" class="graph" transform="scale(1 1) rotate(0) translate(4 460.48)">
<title>setup</title>
<!-- Node1 -->
<g id="Node000001" class="node">
<title>Node1</title>
<g id="a_Node000001"><a xlink:title="Configure the IMU for gyroscope&#45;only operation over I2C.">
<polygon fill="#999999" stroke="#666666" points="44,-229.5 0,-229.5 0,-210.5 44,-210.5 44,-229.5"/>
<text text-anchor="middle" x="22" y="-217.5" font-family="Helvetica,sans-Serif" font-size="10.00">setup</text>
</a>
</g>
</g>
<!-- Node2 -->
<g id="Node000002" class="node">
<title>Node2</title>
<g id="a_Node000002"><a xlink:href="classDevLab__ICM20948.html#a31460c48549b1d3081e253706f8b15e6" target="_top" xlink:title=" ">
<polygon fill="white" stroke="#666666" points="454.5,-116 287.5,-116 287.5,-86 454.5,-86 454.5,-116"/>
<text text-anchor="start" x="295.5" y="-104" font-family="Helvetica,sans-Serif" font-size="10.00">DevLab_ICM20948::applyBasic</text>
<text text-anchor="middle" x="371" y="-93" font-family="Helvetica,sans-Serif" font-size="10.00">Defaults</text>
</a>
</g>
</g>
<!-- Node1&#45;&gt;Node2 -->
<g id="edge1_Node000001_Node000002" class="edge">
<title>Node1&#45;&gt;Node2</title>
<g id="a_edge1_Node000001_Node000002"><a xlink:title=" ">
<path fill="none" stroke="#63b8ff" d="M29.88,-210.23C39.53,-197.29 58.36,-174.77 80,-163 140.82,-129.93 217.76,-114.49 277.11,-107.29"/>
<polygon fill="#63b8ff" stroke="#63b8ff" points="277.69,-110.75 287.22,-106.12 276.89,-103.79 277.69,-110.75"/>
</a>
</g>
</g>
<!-- Node5 -->
<g id="Node000005" class="node">
<title>Node5</title>
<g id="a_Node000005"><a xlink:href="classDevLab__ICM20948.html#a91147b3cd4c45bffc8e024f985be7b21" target="_top" xlink:title=" ">
<polygon fill="white" stroke="#666666" points="241.5,-191.5 85.5,-191.5 85.5,-172.5 241.5,-172.5 241.5,-191.5"/>
<text text-anchor="middle" x="163.5" y="-179.5" font-family="Helvetica,sans-Serif" font-size="10.00">DevLab_ICM20948::beginI2C</text>
</a>
</g>
</g>
<!-- Node1&#45;&gt;Node5 -->
<g id="edge5_Node000001_Node000005" class="edge">
<title>Node1&#45;&gt;Node5</title>
<g id="a_edge5_Node000001_Node000005"><a xlink:title=" ">
<path fill="none" stroke="#63b8ff" d="M44.19,-214.23C63.61,-208.94 93.02,-200.93 117.65,-194.22"/>
<polygon fill="#63b8ff" stroke="#63b8ff" points="118.8,-197.53 127.53,-191.53 116.96,-190.78 118.8,-197.53"/>
</a>
</g>
</g>
<!-- Node11 -->
<g id="Node000011" class="node">
<title>Node11</title>
<g id="a_Node000011"><a xlink:href="classDevLab__ICM20948.html#a0bea2c662c285120253851c80289e077" target="_top" xlink:title=" ">
<polygon fill="white" stroke="#666666" points="240,-354.5 87,-354.5 87,-335.5 240,-335.5 240,-354.5"/>
<text text-anchor="middle" x="163.5" y="-342.5" font-family="Helvetica,sans-Serif" font-size="10.00">DevLab_ICM20948::setDLPF</text>
</a>
</g>
</g>
<!-- Node1&#45;&gt;Node11 -->
<g id="edge17_Node000001_Node000011" class="edge">
<title>Node1&#45;&gt;Node11</title>
<g id="a_edge17_Node000001_Node000011"><a xlink:title=" ">
<path fill="none" stroke="#63b8ff" d="M28.63,-229.84C37.85,-245.33 57.42,-275.73 80,-296 95.54,-309.96 115.65,-322 132.13,-330.65"/>
<polygon fill="#63b8ff" stroke="#63b8ff" points="130.84,-333.92 141.34,-335.34 134.02,-327.68 130.84,-333.92"/>
</a>
</g>
</g>
<!-- Node12 -->
<g id="Node000012" class="node">
<title>Node12</title>
<g id="a_Node000012"><a xlink:href="classDevLab__ICM20948.html#a16cc9db132bb7a2b706275c9f5a03773" target="_top" xlink:title=" ">
<polygon fill="white" stroke="#666666" points="447,-30 295,-30 295,0 447,0 447,-30"/>
<text text-anchor="start" x="303" y="-18" font-family="Helvetica,sans-Serif" font-size="10.00">DevLab_ICM20948::setGyro</text>
<text text-anchor="middle" x="371" y="-7" font-family="Helvetica,sans-Serif" font-size="10.00">DivRate</text>
</a>
</g>
</g>
<!-- Node1&#45;&gt;Node12 -->
<g id="edge21_Node000001_Node000012" class="edge">
<title>Node1&#45;&gt;Node12</title>
<g id="a_edge21_Node000001_Node000012"><a xlink:title=" ">
<path fill="none" stroke="#63b8ff" d="M25.22,-210.33C30.67,-188.73 46.77,-136.28 80,-108 137.9,-58.72 222.26,-35.46 285.08,-24.53"/>
<polygon fill="#63b8ff" stroke="#63b8ff" points="285.69,-27.98 294.97,-22.88 284.54,-21.08 285.69,-27.98"/>
</a>
</g>
</g>
<!-- Node13 -->
<g id="Node000013" class="node">
<title>Node13</title>
<g id="a_Node000013"><a xlink:href="classDevLab__ICM20948.html#a6a06dbd14558e50d40595de82502d632" target="_top" xlink:title=" ">
<polygon fill="white" stroke="#666666" points="447,-430 295,-430 295,-400 447,-400 447,-430"/>
<text text-anchor="start" x="303" y="-418" font-family="Helvetica,sans-Serif" font-size="10.00">DevLab_ICM20948::setGyro</text>
<text text-anchor="middle" x="371" y="-407" font-family="Helvetica,sans-Serif" font-size="10.00">Scale</text>
</a>
</g>
</g>
<!-- Node1&#45;&gt;Node13 -->
<g id="edge24_Node000001_Node000013" class="edge">
<title>Node1&#45;&gt;Node13</title>
<g id="a_edge24_Node000001_Node000013"><a xlink:title=" ">
<path fill="none" stroke="#63b8ff" d="M23.69,-229.56C26.12,-255.69 36.65,-328.66 80,-364 136.95,-410.43 221.38,-420.8 284.48,-420.97"/>
<polygon fill="#63b8ff" stroke="#63b8ff" points="284.83,-424.46 294.81,-420.9 284.78,-417.46 284.83,-424.46"/>
</a>
</g>
</g>
<!-- Node14 -->
<g id="Node000014" class="node">
<title>Node14</title>
<g id="a_Node000014"><a xlink:href="classDevLab__ICM20948.html#ae9c088334d6ec706bb08b47ef29bd186" target="_top" xlink:title=" ">
<polygon fill="white" stroke="#666666" points="247,-286.5 80,-286.5 80,-267.5 247,-267.5 247,-286.5"/>
<text text-anchor="middle" x="163.5" y="-274.5" font-family="Helvetica,sans-Serif" font-size="10.00">DevLab_ICM20948::setSensors</text>
</a>
</g>
</g>
<!-- Node1&#45;&gt;Node14 -->
<g id="edge27_Node000001_Node000014" class="edge">
<title>Node1&#45;&gt;Node14</title>
<g id="a_edge27_Node000001_Node000014"><a xlink:title=" ">
<path fill="none" stroke="#63b8ff" d="M44.19,-228.66C66.9,-237.94 103.24,-252.79 129.66,-263.58"/>
<polygon fill="#63b8ff" stroke="#63b8ff" points="128.67,-266.96 139.25,-267.5 131.32,-260.48 128.67,-266.96"/>
</a>
</g>
</g>
<!-- Node3 -->
<g id="Node000003" class="node">
<title>Node3</title>
<g id="a_Node000003"><a xlink:href="classDevLab__ICM20948.html#aaa26fcbfea0e67d45cb1c3ae39654c55" target="_top" xlink:title=" ">
<polygon fill="white" stroke="#666666" points="662,-214.5 495,-214.5 495,-195.5 662,-195.5 662,-214.5"/>
<text text-anchor="middle" x="578.5" y="-202.5" font-family="Helvetica,sans-Serif" font-size="10.00">DevLab_ICM20948::selectBank</text>
</a>
</g>
</g>
<!-- Node2&#45;&gt;Node3 -->
<g id="edge2_Node000002_Node000003" class="edge">
<title>Node2&#45;&gt;Node3</title>
<g id="a_edge2_Node000002_Node000003"><a xlink:title=" ">
<path fill="none" stroke="#63b8ff" d="M436.05,-116.09C443.92,-118.7 451.74,-121.66 459,-125 478.92,-134.17 527.81,-168.8 556.18,-189.37"/>
<polygon fill="#63b8ff" stroke="#63b8ff" points="554.12,-192.21 564.27,-195.26 558.24,-186.55 554.12,-192.21"/>
</a>
</g>
</g>
<!-- Node4 -->
<g id="Node000004" class="node">
<title>Node4</title>
<g id="a_Node000004"><a xlink:href="classBusIO__7Semi.html#aa633479356af692cb9ea334771b7c0c5" target="_top" xlink:title=" ">
<polygon fill="white" stroke="#666666" points="810,-155.5 698,-155.5 698,-136.5 810,-136.5 810,-155.5"/>
<text text-anchor="middle" x="754" y="-143.5" font-family="Helvetica,sans-Serif" font-size="10.00">BusIO_7Semi::write</text>
</a>
</g>
</g>
<!-- Node2&#45;&gt;Node4 -->
<g id="edge4_Node000002_Node000004" class="edge">
<title>Node2&#45;&gt;Node4</title>
<g id="a_edge4_Node000002_Node000004"><a xlink:title=" ">
<path fill="none" stroke="#63b8ff" d="M454.67,-110.76C524.58,-119.02 623.37,-130.69 687.8,-138.3"/>
<polygon fill="#63b8ff" stroke="#63b8ff" points="687.49,-141.79 697.83,-139.48 688.31,-134.84 687.49,-141.79"/>
</a>
</g>
</g>
<!-- Node3&#45;&gt;Node4 -->
<g id="edge3_Node000003_Node000004" class="edge">
<title>Node3&#45;&gt;Node4</title>
<g id="a_edge3_Node000003_Node000004"><a xlink:title=" ">
<path fill="none" stroke="#63b8ff" d="M607.76,-195.39C637.09,-185.42 683.1,-169.77 715.47,-158.76"/>
<polygon fill="#63b8ff" stroke="#63b8ff" points="716.7,-162.04 725.04,-155.51 714.44,-155.41 716.7,-162.04"/>
</a>
</g>
</g>
<!-- Node5&#45;&gt;Node2 -->
<g id="edge6_Node000005_Node000002" class="edge">
<title>Node5&#45;&gt;Node2</title>
<g id="a_edge6_Node000005_Node000002"><a xlink:title=" ">
<path fill="none" stroke="#63b8ff" d="M181.74,-172.49C204.43,-160.27 245.81,-138.95 283,-125 288.45,-122.96 294.15,-121 299.92,-119.15"/>
<polygon fill="#63b8ff" stroke="#63b8ff" points="301.13,-122.44 309.64,-116.14 299.06,-115.75 301.13,-122.44"/>
</a>
</g>
</g>
<!-- Node5&#45;&gt;Node3 -->
<g id="edge11_Node000005_Node000003" class="edge">
<title>Node5&#45;&gt;Node3</title>
<g id="a_edge11_Node000005_Node000003"><a xlink:title=" ">
<path fill="none" stroke="#63b8ff" d="M241.7,-186.3C310.49,-190.13 411.31,-195.74 484.52,-199.82"/>
<polygon fill="#63b8ff" stroke="#63b8ff" points="484.48,-203.33 494.66,-200.39 484.87,-196.34 484.48,-203.33"/>
</a>
</g>
</g>
<!-- Node5&#45;&gt;Node4 -->
<g id="edge12_Node000005_Node000004" class="edge">
<title>Node5&#45;&gt;Node4</title>
<g id="a_edge12_Node000005_Node000004"><a xlink:title=" ">
<path fill="none" stroke="#63b8ff" d="M171.41,-172.26C187.75,-150.15 231.34,-96.59 283,-77 441.67,-16.82 648.91,-97.96 724.13,-132.12"/>
<polygon fill="#63b8ff" stroke="#63b8ff" points="722.91,-135.41 733.45,-136.42 725.84,-129.05 722.91,-135.41"/>
</a>
</g>
</g>
<!-- Node6 -->
<g id="Node000006" class="node">
<title>Node6</title>
<g id="a_Node000006"><a xlink:href="classI2C__Interface.html#ae8147c4d6e54fe2622825d7e17493152" target="_top" xlink:title=" ">
<polygon fill="white" stroke="#666666" points="436,-153.5 306,-153.5 306,-134.5 436,-134.5 436,-153.5"/>
<text text-anchor="middle" x="371" y="-141.5" font-family="Helvetica,sans-Serif" font-size="10.00">I2C_Interface::beginI2C</text>
</a>
</g>
</g>
<!-- Node5&#45;&gt;Node6 -->
<g id="edge7_Node000005_Node000006" class="edge">
<title>Node5&#45;&gt;Node6</title>
<g id="a_edge7_Node000005_Node000006"><a xlink:title=" ">
<path fill="none" stroke="#63b8ff" d="M216.09,-172.46C244.06,-167.29 278.82,-160.86 308.23,-155.42"/>
<polygon fill="#63b8ff" stroke="#63b8ff" points="309.19,-158.8 318.39,-153.54 307.92,-151.92 309.19,-158.8"/>
</a>
</g>
</g>
<!-- Node7 -->
<g id="Node000007" class="node">
<title>Node7</title>
<g id="a_Node000007"><a xlink:href="classDevLab__ICM20948.html#a8bef7eafb3b67eb736f491d0df453b9e" target="_top" xlink:title=" ">
<polygon fill="white" stroke="#666666" points="459,-229.5 283,-229.5 283,-210.5 459,-210.5 459,-229.5"/>
<text text-anchor="middle" x="371" y="-217.5" font-family="Helvetica,sans-Serif" font-size="10.00">DevLab_ICM20948::readWhoAmI</text>
</a>
</g>
</g>
<!-- Node5&#45;&gt;Node7 -->
<g id="edge8_Node000005_Node000007" class="edge">
<title>Node5&#45;&gt;Node7</title>
<g id="a_edge8_Node000005_Node000007"><a xlink:title=" ">
<path fill="none" stroke="#63b8ff" d="M216.09,-191.54C244.06,-196.71 278.82,-203.14 308.23,-208.58"/>
<polygon fill="#63b8ff" stroke="#63b8ff" points="307.92,-212.08 318.39,-210.46 309.19,-205.2 307.92,-212.08"/>
</a>
</g>
</g>
<!-- Node9 -->
<g id="Node000009" class="node">
<title>Node9</title>
<g id="a_Node000009"><a xlink:href="classBusIO__7Semi.html#ac7b3d1c425f7187abbe1bbec64d9ccea" target="_top" xlink:title=" ">
<polygon fill="white" stroke="#666666" points="433.5,-343.5 308.5,-343.5 308.5,-324.5 433.5,-324.5 433.5,-343.5"/>
<text text-anchor="middle" x="371" y="-331.5" font-family="Helvetica,sans-Serif" font-size="10.00">BusIO_7Semi::writeBit</text>
</a>
</g>
</g>
<!-- Node5&#45;&gt;Node9 -->
<g id="edge13_Node000005_Node000009" class="edge">
<title>Node5&#45;&gt;Node9</title>
<g id="a_edge13_Node000005_Node000009"><a xlink:title=" ">
<path fill="none" stroke="#63b8ff" d="M177.35,-191.51C211.81,-216.99 306.48,-287.02 348.93,-318.41"/>
<polygon fill="#63b8ff" stroke="#63b8ff" points="347.03,-321.36 357.15,-324.5 351.19,-315.73 347.03,-321.36"/>
</a>
</g>
</g>
<!-- Node7&#45;&gt;Node3 -->
<g id="edge10_Node000007_Node000003" class="edge">
<title>Node7&#45;&gt;Node3</title>
<g id="a_edge10_Node000007_Node000003"><a xlink:title=" ">
<path fill="none" stroke="#63b8ff" d="M459.15,-213.64C467.55,-213.03 476.09,-212.4 484.54,-211.79"/>
<polygon fill="#63b8ff" stroke="#63b8ff" points="485.08,-215.26 494.79,-211.04 484.57,-208.27 485.08,-215.26"/>
</a>
</g>
</g>
<!-- Node8 -->
<g id="Node000008" class="node">
<title>Node8</title>
<g id="a_Node000008"><a xlink:href="classBusIO__7Semi.html#a933c66d9a1afe84102323e209a93dd31" target="_top" xlink:title=" ">
<polygon fill="white" stroke="#666666" points="808.5,-362.5 699.5,-362.5 699.5,-343.5 808.5,-343.5 808.5,-362.5"/>
<text text-anchor="middle" x="754" y="-350.5" font-family="Helvetica,sans-Serif" font-size="10.00">BusIO_7Semi::read</text>
</a>
</g>
</g>
<!-- Node7&#45;&gt;Node8 -->
<g id="edge9_Node000007_Node000008" class="edge">
<title>Node7&#45;&gt;Node8</title>
<g id="a_edge9_Node000007_Node000008"><a xlink:title=" ">
<path fill="none" stroke="#63b8ff" d="M399.4,-229.57C466.6,-253.02 639.62,-313.42 715.92,-340.06"/>
<polygon fill="#63b8ff" stroke="#63b8ff" points="715,-343.44 725.59,-343.43 717.3,-336.83 715,-343.44"/>
</a>
</g>
</g>
<!-- Node10 -->
<g id="Node000010" class="node">
<title>Node10</title>
<g id="a_Node000010"><a xlink:href="classBusIO__7Semi.html#a855c7388d4118e632c84c7f8e2e3ddc2" target="_top" xlink:title=" ">
<polygon fill="white" stroke="#666666" points="644,-381.5 513,-381.5 513,-362.5 644,-362.5 644,-381.5"/>
<text text-anchor="middle" x="578.5" y="-369.5" font-family="Helvetica,sans-Serif" font-size="10.00">BusIO_7Semi::writeBits</text>
</a>
</g>
</g>
<!-- Node9&#45;&gt;Node10 -->
<g id="edge14_Node000009_Node000010" class="edge">
<title>Node9&#45;&gt;Node10</title>
<g id="a_edge14_Node000009_Node000010"><a xlink:title=" ">
<path fill="none" stroke="#63b8ff" d="M423.59,-343.54C451.56,-348.71 486.32,-355.14 515.73,-360.58"/>
<polygon fill="#63b8ff" stroke="#63b8ff" points="515.42,-364.08 525.89,-362.46 516.69,-357.2 515.42,-364.08"/>
</a>
</g>
</g>
<!-- Node10&#45;&gt;Node4 -->
<g id="edge16_Node000010_Node000004" class="edge">
<title>Node10&#45;&gt;Node4</title>
<g id="a_edge16_Node000010_Node000004"><a xlink:title=" ">
<path fill="none" stroke="#63b8ff" d="M596.33,-362.32C614.27,-351.37 642.7,-332.16 662,-310 701.96,-264.11 732.07,-197.83 745.42,-165.38"/>
<polygon fill="#63b8ff" stroke="#63b8ff" points="748.81,-166.33 749.29,-155.75 742.31,-163.72 748.81,-166.33"/>
</a>
</g>
</g>
<!-- Node10&#45;&gt;Node8 -->
<g id="edge15_Node000010_Node000008" class="edge">
<title>Node10&#45;&gt;Node8</title>
<g id="a_edge15_Node000010_Node000008"><a xlink:title=" ">
<path fill="none" stroke="#63b8ff" d="M644.1,-364.93C658.9,-363.3 674.62,-361.58 689.37,-359.97"/>
<polygon fill="#63b8ff" stroke="#63b8ff" points="689.85,-363.44 699.41,-358.87 689.08,-356.48 689.85,-363.44"/>
</a>
</g>
</g>
<!-- Node11&#45;&gt;Node3 -->
<g id="edge18_Node000011_Node000003" class="edge">
<title>Node11&#45;&gt;Node3</title>
<g id="a_edge18_Node000011_Node000003"><a xlink:title=" ">
<path fill="none" stroke="#63b8ff" d="M195.22,-354.59C250.98,-370.16 371.17,-395.19 459,-353 515.47,-325.88 553.47,-257.29 569.25,-223.87"/>
<polygon fill="#63b8ff" stroke="#63b8ff" points="572.46,-225.27 573.43,-214.72 566.09,-222.36 572.46,-225.27"/>
</a>
</g>
</g>
<!-- Node11&#45;&gt;Node9 -->
<g id="edge19_Node000011_Node000009" class="edge">
<title>Node11&#45;&gt;Node9</title>
<g id="a_edge19_Node000011_Node000009"><a xlink:title=" ">
<path fill="none" stroke="#63b8ff" d="M240.15,-340.95C259.07,-339.94 279.32,-338.85 298.06,-337.85"/>
<polygon fill="#63b8ff" stroke="#63b8ff" points="298.5,-341.33 308.3,-337.3 298.12,-334.34 298.5,-341.33"/>
</a>
</g>
</g>
<!-- Node11&#45;&gt;Node10 -->
<g id="edge20_Node000011_Node000010" class="edge">
<title>Node11&#45;&gt;Node10</title>
<g id="a_edge20_Node000011_Node000010"><a xlink:title=" ">
<path fill="none" stroke="#63b8ff" d="M172.43,-354.65C189.86,-375.02 233.9,-421.89 283,-439 356.87,-464.74 383.35,-458.9 459,-439 496.73,-429.07 535.08,-404.09 557.56,-387.59"/>
<polygon fill="#63b8ff" stroke="#63b8ff" points="559.74,-390.33 565.63,-381.53 555.53,-384.73 559.74,-390.33"/>
</a>
</g>
</g>
<!-- Node12&#45;&gt;Node3 -->
<g id="edge22_Node000012_Node000003" class="edge">
<title>Node12&#45;&gt;Node3</title>
<g id="a_edge22_Node000012_Node000003"><a xlink:title=" ">
<path fill="none" stroke="#63b8ff" d="M395.87,-30.09C413.93,-41.95 438.95,-59.36 459,-77 500.06,-113.12 542.16,-161.98 563.4,-187.63"/>
<polygon fill="#63b8ff" stroke="#63b8ff" points="560.72,-189.88 569.77,-195.38 566.13,-185.43 560.72,-189.88"/>
</a>
</g>
</g>
<!-- Node12&#45;&gt;Node4 -->
<g id="edge23_Node000012_Node000004" class="edge">
<title>Node12&#45;&gt;Node4</title>
<g id="a_edge23_Node000012_Node000004"><a xlink:title=" ">
<path fill="none" stroke="#63b8ff" d="M447.04,-8.01C508.18,-5.61 595.04,-9.9 662,-44 698.99,-62.83 727.91,-103.54 742.52,-127.45"/>
<polygon fill="#63b8ff" stroke="#63b8ff" points="739.64,-129.44 747.73,-136.27 745.66,-125.88 739.64,-129.44"/>
</a>
</g>
</g>
<!-- Node13&#45;&gt;Node3 -->
<g id="edge25_Node000013_Node000003" class="edge">
<title>Node13&#45;&gt;Node3</title>
<g id="a_edge25_Node000013_Node000003"><a xlink:title=" ">
<path fill="none" stroke="#63b8ff" d="M434.5,-399.91C443.22,-396.21 451.68,-391.64 459,-386 516.41,-341.77 554.6,-261.39 569.92,-224.48"/>
<polygon fill="#63b8ff" stroke="#63b8ff" points="573.29,-225.48 573.79,-214.9 566.8,-222.86 573.29,-225.48"/>
</a>
</g>
</g>
<!-- Node13&#45;&gt;Node10 -->
<g id="edge26_Node000013_Node000010" class="edge">
<title>Node13&#45;&gt;Node10</title>
<g id="a_edge26_Node000013_Node000010"><a xlink:title=" ">
<path fill="none" stroke="#63b8ff" d="M443.87,-399.96C469.5,-394.6 497.94,-388.65 521.98,-383.62"/>
<polygon fill="#63b8ff" stroke="#63b8ff" points="522.92,-387 531.99,-381.52 521.49,-380.14 522.92,-387"/>
</a>
</g>
</g>
<!-- Node14&#45;&gt;Node3 -->
<g id="edge28_Node000014_Node000003" class="edge">
<title>Node14&#45;&gt;Node3</title>
<g id="a_edge28_Node000014_Node000003"><a xlink:title=" ">
<path fill="none" stroke="#63b8ff" d="M247.25,-269.7C306.58,-263.64 388.2,-253.64 459,-239 486.02,-233.41 515.88,-224.83 538.87,-217.69"/>
<polygon fill="#63b8ff" stroke="#63b8ff" points="540.1,-220.97 548.59,-214.62 538,-214.29 540.1,-220.97"/>
</a>
</g>
</g>
<!-- Node14&#45;&gt;Node4 -->
<g id="edge29_Node000014_Node000004" class="edge">
<title>Node14&#45;&gt;Node4</title>
<g id="a_edge29_Node000014_Node000004"><a xlink:title=" ">
<path fill="none" stroke="#63b8ff" d="M247.17,-284.92C349.93,-291.12 528.08,-289.74 662,-224 692.61,-208.97 721.33,-181.22 738.03,-163.19"/>
<polygon fill="#63b8ff" stroke="#63b8ff" points="740.71,-165.44 744.82,-155.67 735.52,-160.75 740.71,-165.44"/>
</a>
</g>
</g>
<!-- Node14&#45;&gt;Node9 -->
<g id="edge30_Node000014_Node000009" class="edge">
<title>Node14&#45;&gt;Node9</title>
<g id="a_edge30_Node000014_Node000009"><a xlink:title=" ">
<path fill="none" stroke="#63b8ff" d="M198.72,-286.55C222.38,-293.15 254.6,-302.13 283,-310 296.85,-313.84 311.95,-318.01 325.62,-321.78"/>
<polygon fill="#63b8ff" stroke="#63b8ff" points="324.71,-325.16 335.28,-324.44 326.57,-318.41 324.71,-325.16"/>
</a>
</g>
</g>
</g>
</svg>
