<?xml version="1.0" encoding="UTF-8" standalone="no"?>
<!DOCTYPE svg PUBLIC "-//W3C//DTD SVG 1.1//EN"
 "http://www.w3.org/Graphics/SVG/1.1/DTD/svg11.dtd">
<!-- Generated by graphviz version 2.43.0 (0)
 -->
<!-- Title: Graphical Class Hierarchy Pages: 1 -->
<svg width="221pt" height="64pt"
 viewBox="0.00 0.00 221.00 64.00" xmlns="http://www.w3.org/2000/svg" xmlns:xlink="http://www.w3.org/1999/xlink">
<g id="graph0" class="graph" transform="scale(1 1) rotate(0) translate(4 60)">
<title>Graphical Class Hierarchy</title>
<!-- Node0 -->
<g id="Node000000" class="node">
<title>Node0</title>
<g id="a_Node000000"><a xlink:href="classInterface__7Semi.html" target="_top" xlink:title=" ">
<polygon fill="white" stroke="#666666" points="96,-37 0,-37 0,-18 96,-18 96,-37"/>
<text text-anchor="middle" x="48" y="-25" font-family="Helvetica,sans-Serif" font-size="10.00">Interface_7Semi</text>
</a>
</g>
</g>
<!-- Node1 -->
<g id="Node000001" class="node">
<title>Node1</title>
<g id="a_Node000001"><a xlink:href="classI2C__Interface.html" target="_top" xlink:title=" ">
<polygon fill="white" stroke="#666666" points="213,-56 132,-56 132,-37 213,-37 213,-56"/>
<text text-anchor="middle" x="172.5" y="-44" font-family="Helvetica,sans-Serif" font-size="10.00">I2C_Interface</text>
</a>
</g>
</g>
<!-- Node0&#45;&gt;Node1 -->
<g id="edge1_Node000000_Node000001" class="edge">
<title>Node0&#45;&gt;Node1</title>
<g id="a_edge1_Node000000_Node000001"><a xlink:title=" ">
<path fill="none" stroke="#63b8ff" d="M106.17,-36.37C114.9,-37.72 123.74,-39.09 131.98,-40.37"/>
<polygon fill="#63b8ff" stroke="#63b8ff" points="106.43,-32.87 96.01,-34.79 105.36,-39.78 106.43,-32.87"/>
</a>
</g>
</g>
<!-- Node2 -->
<g id="Node000002" class="node">
<title>Node2</title>
<g id="a_Node000002"><a xlink:href="classSPI__Interface.html" target="_top" xlink:title=" ">
<polygon fill="white" stroke="#666666" points="212.5,-19 132.5,-19 132.5,0 212.5,0 212.5,-19"/>
<text text-anchor="middle" x="172.5" y="-7" font-family="Helvetica,sans-Serif" font-size="10.00">SPI_Interface</text>
</a>
</g>
</g>
<!-- Node0&#45;&gt;Node2 -->
<g id="edge2_Node000000_Node000002" class="edge">
<title>Node0&#45;&gt;Node2</title>
<g id="a_edge2_Node000000_Node000002"><a xlink:title=" ">
<path fill="none" stroke="#63b8ff" d="M106,-19.13C114.92,-17.81 123.97,-16.48 132.37,-15.25"/>
<polygon fill="#63b8ff" stroke="#63b8ff" points="105.4,-15.68 96.01,-20.59 106.41,-22.6 105.4,-15.68"/>
</a>
</g>
</g>
</g>
</svg>
