<?xml version="1.0" encoding="UTF-8" standalone="no"?>
<!DOCTYPE svg PUBLIC "-//W3C//DTD SVG 1.1//EN"
 "http://www.w3.org/Graphics/SVG/1.1/DTD/svg11.dtd">
<!-- Generated by graphviz version 2.43.0 (0)
 -->
<!-- Title: examples/mag_test/mag_test.ino Pages: 1 -->
<svg width="591pt" height="258pt"
 viewBox="0.00 0.00 591.05 258.00" xmlns="http://www.w3.org/2000/svg" xmlns:xlink="http://www.w3.org/1999/xlink">
<g id="graph0" class="graph" transform="scale(1 1) rotate(0) translate(4 254)">
<title>examples/mag_test/mag_test.ino</title>
<!-- Node1 -->
<g id="Node000001" class="node">
<title>Node1</title>
<g id="a_Node000001"><a xlink:title="Magnetometer operation&#45;mode sweep for the DevLab ICM&#45;20948.">
<polygon fill="#999999" stroke="#666666" points="494.5,-250 356.5,-250 356.5,-220 494.5,-220 494.5,-250"/>
<text text-anchor="start" x="364.5" y="-238" font-family="Helvetica,sans-Serif" font-size="10.00">examples/mag_test/mag</text>
<text text-anchor="middle" x="425.5" y="-227" font-family="Helvetica,sans-Serif" font-size="10.00">_test.ino</text>
</a>
</g>
</g>
<!-- Node2 -->
<g id="Node000002" class="node">
<title>Node2</title>
<g id="a_Node000002"><a xlink:title=" ">
<polygon fill="#e0e0e0" stroke="#999999" points="570.5,-19 522.5,-19 522.5,0 570.5,0 570.5,-19"/>
<text text-anchor="middle" x="546.5" y="-7" font-family="Helvetica,sans-Serif" font-size="10.00">Wire.h</text>
</a>
</g>
</g>
<!-- Node1&#45;&gt;Node2 -->
<g id="edge1_Node000001_Node000002" class="edge">
<title>Node1&#45;&gt;Node2</title>
<g id="a_edge1_Node000001_Node000002"><a xlink:title=" ">
<path fill="none" stroke="#63b8ff" d="M457.25,-219.99C490.8,-203.4 542.41,-172.43 568.5,-129 585.53,-100.64 586.17,-86.64 576.5,-55 573.41,-44.9 567.18,-35.02 561.19,-27.15"/>
<polygon fill="#63b8ff" stroke="#63b8ff" points="563.74,-24.74 554.71,-19.2 558.32,-29.16 563.74,-24.74"/>
</a>
</g>
</g>
<!-- Node3 -->
<g id="Node000003" class="node">
<title>Node3</title>
<g id="a_Node000003"><a xlink:href="DevLab__ICM20948_8h.html" target="_top" xlink:title=" ">
<polygon fill="white" stroke="#666666" points="301.5,-184 185.5,-184 185.5,-165 301.5,-165 301.5,-184"/>
<text text-anchor="middle" x="243.5" y="-172" font-family="Helvetica,sans-Serif" font-size="10.00">DevLab_ICM20948.h</text>
</a>
</g>
</g>
<!-- Node1&#45;&gt;Node3 -->
<g id="edge2_Node000001_Node000003" class="edge">
<title>Node1&#45;&gt;Node3</title>
<g id="a_edge2_Node000001_Node000003"><a xlink:title=" ">
<path fill="none" stroke="#63b8ff" d="M381.91,-219.99C350.77,-209.98 309.36,-196.67 279.97,-187.22"/>
<polygon fill="#63b8ff" stroke="#63b8ff" points="280.7,-183.78 270.11,-184.05 278.56,-190.45 280.7,-183.78"/>
</a>
</g>
</g>
<!-- Node3&#45;&gt;Node2 -->
<g id="edge4_Node000003_Node000002" class="edge">
<title>Node3&#45;&gt;Node2</title>
<g id="a_edge4_Node000003_Node000002"><a xlink:title=" ">
<path fill="none" stroke="#63b8ff" d="M301.55,-173.74C381.43,-172.68 518.96,-165.45 550.5,-129 574.55,-101.22 563.11,-54.57 553.99,-28.87"/>
<polygon fill="#63b8ff" stroke="#63b8ff" points="557.16,-27.35 550.33,-19.25 550.62,-29.84 557.16,-27.35"/>
</a>
</g>
</g>
<!-- Node4 -->
<g id="Node000004" class="node">
<title>Node4</title>
<g id="a_Node000004"><a xlink:title=" ">
<polygon fill="#e0e0e0" stroke="#999999" points="199,-19 136,-19 136,0 199,0 199,-19"/>
<text text-anchor="middle" x="167.5" y="-7" font-family="Helvetica,sans-Serif" font-size="10.00">Arduino.h</text>
</a>
</g>
</g>
<!-- Node3&#45;&gt;Node4 -->
<g id="edge3_Node000003_Node000004" class="edge">
<title>Node3&#45;&gt;Node4</title>
<g id="a_edge3_Node000003_Node000004"><a xlink:title=" ">
<path fill="none" stroke="#63b8ff" d="M239.41,-164.74C227.45,-139.09 192.34,-63.78 176.02,-28.78"/>
<polygon fill="#63b8ff" stroke="#63b8ff" points="179,-26.89 171.61,-19.31 172.66,-29.85 179,-26.89"/>
</a>
</g>
</g>
<!-- Node5 -->
<g id="Node000005" class="node">
<title>Node5</title>
<g id="a_Node000005"><a xlink:title=" ">
<polygon fill="#e0e0e0" stroke="#999999" points="295,-19 254,-19 254,0 295,0 295,-19"/>
<text text-anchor="middle" x="274.5" y="-7" font-family="Helvetica,sans-Serif" font-size="10.00">SPI.h</text>
</a>
</g>
</g>
<!-- Node3&#45;&gt;Node5 -->
<g id="edge5_Node000003_Node000005" class="edge">
<title>Node3&#45;&gt;Node5</title>
<g id="a_edge5_Node000003_Node000005"><a xlink:title=" ">
<path fill="none" stroke="#63b8ff" d="M242.48,-164.94C240.41,-145.12 236.84,-94.71 248.5,-55 251.36,-45.25 256.8,-35.39 261.97,-27.44"/>
<polygon fill="#63b8ff" stroke="#63b8ff" points="264.92,-29.32 267.74,-19.11 259.17,-25.34 264.92,-29.32"/>
</a>
</g>
</g>
<!-- Node6 -->
<g id="Node000006" class="node">
<title>Node6</title>
<g id="a_Node000006"><a xlink:href="ICM20948__regs_8h.html" target="_top" xlink:title=" ">
<polygon fill="white" stroke="#666666" points="101,-129 0,-129 0,-110 101,-110 101,-129"/>
<text text-anchor="middle" x="50.5" y="-117" font-family="Helvetica,sans-Serif" font-size="10.00">ICM20948_regs.h</text>
</a>
</g>
</g>
<!-- Node3&#45;&gt;Node6 -->
<g id="edge6_Node000003_Node000006" class="edge">
<title>Node3&#45;&gt;Node6</title>
<g id="a_edge6_Node000003_Node000006"><a xlink:title=" ">
<path fill="none" stroke="#63b8ff" d="M212.49,-164.98C179.67,-155.97 127.7,-141.7 91.51,-131.76"/>
<polygon fill="#63b8ff" stroke="#63b8ff" points="92.32,-128.36 81.75,-129.08 90.47,-135.11 92.32,-128.36"/>
</a>
</g>
</g>
<!-- Node7 -->
<g id="Node000007" class="node">
<title>Node7</title>
<g id="a_Node000007"><a xlink:href="7Semi__Interface_8h.html" target="_top" xlink:title=" ">
<polygon fill="white" stroke="#666666" points="363,-74 258,-74 258,-55 363,-55 363,-74"/>
<text text-anchor="middle" x="310.5" y="-62" font-family="Helvetica,sans-Serif" font-size="10.00">7Semi_Interface.h</text>
</a>
</g>
</g>
<!-- Node3&#45;&gt;Node7 -->
<g id="edge7_Node000003_Node000007" class="edge">
<title>Node3&#45;&gt;Node7</title>
<g id="a_edge7_Node000003_Node000007"><a xlink:title=" ">
<path fill="none" stroke="#63b8ff" d="M244.82,-164.7C247.06,-151.87 252.47,-127.64 263.5,-110 270.53,-98.77 281.05,-88.44 290.36,-80.57"/>
<polygon fill="#63b8ff" stroke="#63b8ff" points="292.83,-83.07 298.43,-74.08 288.45,-77.62 292.83,-83.07"/>
</a>
</g>
</g>
<!-- Node8 -->
<g id="Node000008" class="node">
<title>Node8</title>
<g id="a_Node000008"><a xlink:href="7Semi__I2C__Interface_8h.html" target="_top" xlink:title=" ">
<polygon fill="white" stroke="#666666" points="541.5,-129 415.5,-129 415.5,-110 541.5,-110 541.5,-129"/>
<text text-anchor="middle" x="478.5" y="-117" font-family="Helvetica,sans-Serif" font-size="10.00">7Semi_I2C_Interface.h</text>
</a>
</g>
</g>
<!-- Node3&#45;&gt;Node8 -->
<g id="edge11_Node000003_Node000008" class="edge">
<title>Node3&#45;&gt;Node8</title>
<g id="a_edge11_Node000003_Node000008"><a xlink:title=" ">
<path fill="none" stroke="#63b8ff" d="M281.26,-164.98C321.82,-155.84 386.39,-141.27 430.53,-131.32"/>
<polygon fill="#63b8ff" stroke="#63b8ff" points="431.46,-134.7 440.45,-129.08 429.92,-127.87 431.46,-134.7"/>
</a>
</g>
</g>
<!-- Node9 -->
<g id="Node000009" class="node">
<title>Node9</title>
<g id="a_Node000009"><a xlink:href="7Semi__SPI__Interface_8h.html" target="_top" xlink:title=" ">
<polygon fill="white" stroke="#666666" points="397,-129 272,-129 272,-110 397,-110 397,-129"/>
<text text-anchor="middle" x="334.5" y="-117" font-family="Helvetica,sans-Serif" font-size="10.00">7Semi_SPI_Interface.h</text>
</a>
</g>
</g>
<!-- Node3&#45;&gt;Node9 -->
<g id="edge14_Node000003_Node000009" class="edge">
<title>Node3&#45;&gt;Node9</title>
<g id="a_edge14_Node000003_Node000009"><a xlink:title=" ">
<path fill="none" stroke="#63b8ff" d="M258.12,-164.98C272.36,-156.69 294.25,-143.94 310.95,-134.22"/>
<polygon fill="#63b8ff" stroke="#63b8ff" points="312.73,-137.23 319.61,-129.17 309.21,-131.18 312.73,-137.23"/>
</a>
</g>
</g>
<!-- Node10 -->
<g id="Node000010" class="node">
<title>Node10</title>
<g id="a_Node000010"><a xlink:href="BusIO__7Semi_8h.html" target="_top" xlink:title=" ">
<polygon fill="white" stroke="#666666" points="139.5,-74 49.5,-74 49.5,-55 139.5,-55 139.5,-74"/>
<text text-anchor="middle" x="94.5" y="-62" font-family="Helvetica,sans-Serif" font-size="10.00">BusIO_7Semi.h</text>
</a>
</g>
</g>
<!-- Node3&#45;&gt;Node10 -->
<g id="edge16_Node000003_Node000010" class="edge">
<title>Node3&#45;&gt;Node10</title>
<g id="a_edge16_Node000003_Node000010"><a xlink:title=" ">
<path fill="none" stroke="#63b8ff" d="M220.77,-164.97C201.76,-157.22 174.46,-144.63 153.5,-129 135.49,-115.57 118.42,-96.21 107.32,-82.4"/>
<polygon fill="#63b8ff" stroke="#63b8ff" points="109.86,-79.96 100.94,-74.25 104.34,-84.28 109.86,-79.96"/>
</a>
</g>
</g>
<!-- Node7&#45;&gt;Node2 -->
<g id="edge9_Node000007_Node000002" class="edge">
<title>Node7&#45;&gt;Node2</title>
<g id="a_edge9_Node000007_Node000002"><a xlink:title=" ">
<path fill="none" stroke="#63b8ff" d="M348.42,-54.98C393.77,-44.8 469.02,-27.9 512.54,-18.13"/>
<polygon fill="#63b8ff" stroke="#63b8ff" points="513.38,-21.53 522.37,-15.92 511.84,-14.7 513.38,-21.53"/>
</a>
</g>
</g>
<!-- Node7&#45;&gt;Node4 -->
<g id="edge8_Node000007_Node000004" class="edge">
<title>Node7&#45;&gt;Node4</title>
<g id="a_edge8_Node000007_Node000004"><a xlink:title=" ">
<path fill="none" stroke="#63b8ff" d="M287.52,-54.98C264,-46.27 227.21,-32.63 200.56,-22.75"/>
<polygon fill="#63b8ff" stroke="#63b8ff" points="201.49,-19.36 190.89,-19.17 199.05,-25.93 201.49,-19.36"/>
</a>
</g>
</g>
<!-- Node7&#45;&gt;Node5 -->
<g id="edge10_Node000007_Node000005" class="edge">
<title>Node7&#45;&gt;Node5</title>
<g id="a_edge10_Node000007_Node000005"><a xlink:title=" ">
<path fill="none" stroke="#63b8ff" d="M304.56,-54.75C299.52,-47.34 292.16,-36.5 285.99,-27.41"/>
<polygon fill="#63b8ff" stroke="#63b8ff" points="288.85,-25.39 280.33,-19.09 283.06,-29.33 288.85,-25.39"/>
</a>
</g>
</g>
<!-- Node8&#45;&gt;Node2 -->
<g id="edge13_Node000008_Node000002" class="edge">
<title>Node8&#45;&gt;Node2</title>
<g id="a_edge13_Node000008_Node000002"><a xlink:title=" ">
<path fill="none" stroke="#63b8ff" d="M484.06,-109.66C495.33,-91.77 521,-51 535.67,-27.69"/>
<polygon fill="#63b8ff" stroke="#63b8ff" points="538.68,-29.49 541.05,-19.16 532.76,-25.76 538.68,-29.49"/>
</a>
</g>
</g>
<!-- Node8&#45;&gt;Node7 -->
<g id="edge12_Node000008_Node000007" class="edge">
<title>Node8&#45;&gt;Node7</title>
<g id="a_edge12_Node000008_Node000007"><a xlink:title=" ">
<path fill="none" stroke="#63b8ff" d="M451.51,-109.98C423.3,-101.09 378.86,-87.07 347.42,-77.15"/>
<polygon fill="#63b8ff" stroke="#63b8ff" points="348.29,-73.75 337.7,-74.08 346.19,-80.43 348.29,-73.75"/>
</a>
</g>
</g>
<!-- Node9&#45;&gt;Node7 -->
<g id="edge15_Node000009_Node000007" class="edge">
<title>Node9&#45;&gt;Node7</title>
<g id="a_edge15_Node000009_Node000007"><a xlink:title=" ">
<path fill="none" stroke="#63b8ff" d="M330.54,-109.75C327.29,-102.57 322.58,-92.18 318.55,-83.27"/>
<polygon fill="#63b8ff" stroke="#63b8ff" points="321.7,-81.75 314.39,-74.09 315.33,-84.64 321.7,-81.75"/>
</a>
</g>
</g>
<!-- Node10&#45;&gt;Node4 -->
<g id="edge17_Node000010_Node000004" class="edge">
<title>Node10&#45;&gt;Node4</title>
<g id="a_edge17_Node000010_Node000004"><a xlink:title=" ">
<path fill="none" stroke="#63b8ff" d="M106.23,-54.98C117.23,-47 133.92,-34.88 147.1,-25.31"/>
<polygon fill="#63b8ff" stroke="#63b8ff" points="149.52,-27.88 155.56,-19.17 145.41,-22.21 149.52,-27.88"/>
</a>
</g>
</g>
</g>
</svg>
