<?xml version="1.0" encoding="UTF-8" standalone="no"?>
<!DOCTYPE svg PUBLIC "-//W3C//DTD SVG 1.1//EN"
 "http://www.w3.org/Graphics/SVG/1.1/DTD/svg11.dtd">
<!-- Generated by graphviz version 2.43.0 (0)
 -->
<!-- Title: setup Pages: 1 -->
<svg width="830pt" height="537pt"
 viewBox="0.00 0.00 830.00 537.18" xmlns="http://www.w3.org/2000/svg" xmlns:xlink="http://www.w3.org/1999/xlink">
<g id="graph0" class="graph" transform="scale(1 1) rotate(0) translate(4 533.18)">
<title>setup</title>
<!-- Node1 -->
<g id="Node000001" class="node">
<title>Node1</title>
<g id="a_Node000001"><a xlink:title="Configure the IMU for accelerometer&#45;only operation over SPI.">
<polygon fill="#999999" stroke="#666666" points="44,-309.5 0,-309.5 0,-290.5 44,-290.5 44,-309.5"/>
<text text-anchor="middle" x="22" y="-297.5" font-family="Helvetica,sans-Serif" font-size="10.00">setup</text>
</a>
</g>
</g>
<!-- Node2 -->
<g id="Node000002" class="node">
<title>Node2</title>
<g id="a_Node000002"><a xlink:href="classDevLab__ICM20948.html#a4386f310503153f3e28935cbdda75b18" target="_top" xlink:title=" ">
<polygon fill="white" stroke="#666666" points="247,-228.5 92,-228.5 92,-209.5 247,-209.5 247,-228.5"/>
<text text-anchor="middle" x="169.5" y="-216.5" font-family="Helvetica,sans-Serif" font-size="10.00">DevLab_ICM20948::beginSPI</text>
</a>
</g>
</g>
<!-- Node1&#45;&gt;Node2 -->
<g id="edge1_Node000001_Node000002" class="edge">
<title>Node1&#45;&gt;Node2</title>
<g id="a_edge1_Node000001_Node000002"><a xlink:title=" ">
<path fill="none" stroke="#63b8ff" d="M40.26,-290.39C65.53,-276.32 112.79,-250.02 142.34,-233.56"/>
<polygon fill="#63b8ff" stroke="#63b8ff" points="144.23,-236.52 151.26,-228.6 140.82,-230.4 144.23,-236.52"/>
</a>
</g>
</g>
<!-- Node12 -->
<g id="Node000012" class="node">
<title>Node12</title>
<g id="a_Node000012"><a xlink:href="classDevLab__ICM20948.html#a619f82390347cc173d1604d4d711b537" target="_top" xlink:title=" ">
<polygon fill="white" stroke="#666666" points="460.5,-315 305.5,-315 305.5,-285 460.5,-285 460.5,-315"/>
<text text-anchor="start" x="313.5" y="-303" font-family="Helvetica,sans-Serif" font-size="10.00">DevLab_ICM20948::setAccel</text>
<text text-anchor="middle" x="383" y="-292" font-family="Helvetica,sans-Serif" font-size="10.00">Averaging</text>
</a>
</g>
</g>
<!-- Node1&#45;&gt;Node12 -->
<g id="edge19_Node000001_Node000012" class="edge">
<title>Node1&#45;&gt;Node12</title>
<g id="a_edge19_Node000001_Node000012"><a xlink:title=" ">
<path fill="none" stroke="#63b8ff" d="M44.12,-300C92.16,-300 211.92,-300 295.12,-300"/>
<polygon fill="#63b8ff" stroke="#63b8ff" points="295.33,-303.5 305.33,-300 295.33,-296.5 295.33,-303.5"/>
</a>
</g>
</g>
<!-- Node13 -->
<g id="Node000013" class="node">
<title>Node13</title>
<g id="a_Node000013"><a xlink:href="classDevLab__ICM20948.html#aca0cb8da36b8e9128299b9aeb5bb60ec" target="_top" xlink:title=" ">
<polygon fill="white" stroke="#666666" points="460.5,-30 305.5,-30 305.5,0 460.5,0 460.5,-30"/>
<text text-anchor="start" x="313.5" y="-18" font-family="Helvetica,sans-Serif" font-size="10.00">DevLab_ICM20948::setAccel</text>
<text text-anchor="middle" x="383" y="-7" font-family="Helvetica,sans-Serif" font-size="10.00">DivRate</text>
</a>
</g>
</g>
<!-- Node1&#45;&gt;Node13 -->
<g id="edge22_Node000001_Node000013" class="edge">
<title>Node1&#45;&gt;Node13</title>
<g id="a_edge22_Node000001_Node000013"><a xlink:title=" ">
<path fill="none" stroke="#63b8ff" d="M25.66,-290.32C31.71,-270.26 48.46,-224.06 80,-201 145.72,-152.93 199.13,-217.18 259,-162 299.32,-124.84 256.73,-83.27 295,-44 298.21,-40.7 301.81,-37.78 305.66,-35.19"/>
<polygon fill="#63b8ff" stroke="#63b8ff" points="307.6,-38.12 314.45,-30.04 304.06,-32.08 307.6,-38.12"/>
</a>
</g>
</g>
<!-- Node14 -->
<g id="Node000014" class="node">
<title>Node14</title>
<g id="a_Node000014"><a xlink:href="classDevLab__ICM20948.html#ac52d80aad738b90aa0f05e9d6404bb85" target="_top" xlink:title=" ">
<polygon fill="white" stroke="#666666" points="259,-495.5 80,-495.5 80,-476.5 259,-476.5 259,-495.5"/>
<text text-anchor="middle" x="169.5" y="-483.5" font-family="Helvetica,sans-Serif" font-size="10.00">DevLab_ICM20948::setAccelDLPF</text>
</a>
</g>
</g>
<!-- Node1&#45;&gt;Node14 -->
<g id="edge25_Node000001_Node000014" class="edge">
<title>Node1&#45;&gt;Node14</title>
<g id="a_edge25_Node000001_Node000014"><a xlink:title=" ">
<path fill="none" stroke="#63b8ff" d="M25.25,-309.78C30.95,-332.82 47.86,-391.41 80,-429 95.75,-447.42 118.92,-462.05 137.61,-471.87"/>
<polygon fill="#63b8ff" stroke="#63b8ff" points="136.14,-475.05 146.64,-476.44 139.29,-468.8 136.14,-475.05"/>
</a>
</g>
</g>
<!-- Node15 -->
<g id="Node000015" class="node">
<title>Node15</title>
<g id="a_Node000015"><a xlink:href="classDevLab__ICM20948.html#a1a2aa0019d5e1c6ba8ce4a3c1d9fcb43" target="_top" xlink:title=" ">
<polygon fill="white" stroke="#666666" points="460.5,-363 305.5,-363 305.5,-333 460.5,-333 460.5,-363"/>
<text text-anchor="start" x="313.5" y="-351" font-family="Helvetica,sans-Serif" font-size="10.00">DevLab_ICM20948::setAccel</text>
<text text-anchor="middle" x="383" y="-340" font-family="Helvetica,sans-Serif" font-size="10.00">Scale</text>
</a>
</g>
</g>
<!-- Node1&#45;&gt;Node15 -->
<g id="edge29_Node000001_Node000015" class="edge">
<title>Node1&#45;&gt;Node15</title>
<g id="a_edge29_Node000001_Node000015"><a xlink:title=" ">
<path fill="none" stroke="#63b8ff" d="M44.24,-305.91C54.91,-308.7 68.06,-311.87 80,-314 151.93,-326.83 234.42,-335.73 294.99,-341.19"/>
<polygon fill="#63b8ff" stroke="#63b8ff" points="295,-344.71 305.27,-342.11 295.62,-337.74 295,-344.71"/>
</a>
</g>
</g>
<!-- Node16 -->
<g id="Node000016" class="node">
<title>Node16</title>
<g id="a_Node000016"><a xlink:href="classDevLab__ICM20948.html#ae9c088334d6ec706bb08b47ef29bd186" target="_top" xlink:title=" ">
<polygon fill="white" stroke="#666666" points="253,-419.5 86,-419.5 86,-400.5 253,-400.5 253,-419.5"/>
<text text-anchor="middle" x="169.5" y="-407.5" font-family="Helvetica,sans-Serif" font-size="10.00">DevLab_ICM20948::setSensors</text>
</a>
</g>
</g>
<!-- Node1&#45;&gt;Node16 -->
<g id="edge32_Node000001_Node000016" class="edge">
<title>Node1&#45;&gt;Node16</title>
<g id="a_edge32_Node000001_Node000016"><a xlink:title=" ">
<path fill="none" stroke="#63b8ff" d="M31.25,-309.6C41.81,-321.55 61.02,-342.19 80,-357 99.12,-371.91 122.77,-385.88 140.81,-395.73"/>
<polygon fill="#63b8ff" stroke="#63b8ff" points="139.21,-398.84 149.68,-400.48 142.52,-392.67 139.21,-398.84"/>
</a>
</g>
</g>
<!-- Node17 -->
<g id="Node000017" class="node">
<title>Node17</title>
<g id="a_Node000017"><a xlink:href="spi__accel_8ino.html#a5f08ba3a5b3d8e5b3fa5a22429ecfa2b" target="_top" xlink:title="SPI bus object used by the IMU driver.">
<polygon fill="white" stroke="#666666" points="196,-152.5 143,-152.5 143,-133.5 196,-133.5 196,-152.5"/>
<text text-anchor="middle" x="169.5" y="-140.5" font-family="Helvetica,sans-Serif" font-size="10.00">spi_bus</text>
</a>
</g>
</g>
<!-- Node1&#45;&gt;Node17 -->
<g id="edge36_Node000001_Node000017" class="edge">
<title>Node1&#45;&gt;Node17</title>
<g id="a_edge36_Node000001_Node000017"><a xlink:title=" ">
<path fill="none" stroke="#63b8ff" d="M24.26,-290.29C27.96,-265.74 41.13,-200.78 80,-167 94.57,-154.34 115.18,-148.29 132.85,-145.43"/>
<polygon fill="#63b8ff" stroke="#63b8ff" points="133.4,-148.89 142.84,-144.08 132.46,-141.95 133.4,-148.89"/>
</a>
</g>
</g>
<!-- Node3 -->
<g id="Node000003" class="node">
<title>Node3</title>
<g id="a_Node000003"><a xlink:href="classDevLab__ICM20948.html#a31460c48549b1d3081e253706f8b15e6" target="_top" xlink:title=" ">
<polygon fill="white" stroke="#666666" points="466.5,-191 299.5,-191 299.5,-161 466.5,-161 466.5,-191"/>
<text text-anchor="start" x="307.5" y="-179" font-family="Helvetica,sans-Serif" font-size="10.00">DevLab_ICM20948::applyBasic</text>
<text text-anchor="middle" x="383" y="-168" font-family="Helvetica,sans-Serif" font-size="10.00">Defaults</text>
</a>
</g>
</g>
<!-- Node2&#45;&gt;Node3 -->
<g id="edge2_Node000002_Node000003" class="edge">
<title>Node2&#45;&gt;Node3</title>
<g id="a_edge2_Node000002_Node000003"><a xlink:title=" ">
<path fill="none" stroke="#63b8ff" d="M217.44,-209.46C241.18,-204.63 270.71,-198.63 298.18,-193.04"/>
<polygon fill="#63b8ff" stroke="#63b8ff" points="299.09,-196.43 308.19,-191.01 297.69,-189.57 299.09,-196.43"/>
</a>
</g>
</g>
<!-- Node4 -->
<g id="Node000004" class="node">
<title>Node4</title>
<g id="a_Node000004"><a xlink:href="classDevLab__ICM20948.html#aaa26fcbfea0e67d45cb1c3ae39654c55" target="_top" xlink:title=" ">
<polygon fill="white" stroke="#666666" points="674,-247.5 507,-247.5 507,-228.5 674,-228.5 674,-247.5"/>
<text text-anchor="middle" x="590.5" y="-235.5" font-family="Helvetica,sans-Serif" font-size="10.00">DevLab_ICM20948::selectBank</text>
</a>
</g>
</g>
<!-- Node2&#45;&gt;Node4 -->
<g id="edge10_Node000002_Node000004" class="edge">
<title>Node2&#45;&gt;Node4</title>
<g id="a_edge10_Node000002_Node000004"><a xlink:title=" ">
<path fill="none" stroke="#63b8ff" d="M247.35,-222.48C317.53,-225.67 421.43,-230.38 496.31,-233.77"/>
<polygon fill="#63b8ff" stroke="#63b8ff" points="496.53,-237.29 506.68,-234.24 496.85,-230.29 496.53,-237.29"/>
</a>
</g>
</g>
<!-- Node5 -->
<g id="Node000005" class="node">
<title>Node5</title>
<g id="a_Node000005"><a xlink:href="classBusIO__7Semi.html#aa633479356af692cb9ea334771b7c0c5" target="_top" xlink:title=" ">
<polygon fill="white" stroke="#666666" points="822,-185.5 710,-185.5 710,-166.5 822,-166.5 822,-185.5"/>
<text text-anchor="middle" x="766" y="-173.5" font-family="Helvetica,sans-Serif" font-size="10.00">BusIO_7Semi::write</text>
</a>
</g>
</g>
<!-- Node2&#45;&gt;Node5 -->
<g id="edge14_Node000002_Node000005" class="edge">
<title>Node2&#45;&gt;Node5</title>
<g id="a_edge14_Node000002_Node000005"><a xlink:title=" ">
<path fill="none" stroke="#63b8ff" d="M235.97,-209.47C244.47,-206 252.48,-201.31 259,-195 298.11,-157.18 251.24,-110.32 295,-78 438.71,28.14 671.23,-112.14 743.12,-160.62"/>
<polygon fill="#63b8ff" stroke="#63b8ff" points="741.21,-163.56 751.44,-166.31 745.16,-157.78 741.21,-163.56"/>
</a>
</g>
</g>
<!-- Node6 -->
<g id="Node000006" class="node">
<title>Node6</title>
<g id="a_Node000006"><a xlink:href="classSPI__Interface.html#a24b5d68ff8da5578f56ee571d86ab289" target="_top" xlink:title=" ">
<polygon fill="white" stroke="#666666" points="447,-105.5 319,-105.5 319,-86.5 447,-86.5 447,-105.5"/>
<text text-anchor="middle" x="383" y="-93.5" font-family="Helvetica,sans-Serif" font-size="10.00">SPI_Interface::beginSPI</text>
</a>
</g>
</g>
<!-- Node2&#45;&gt;Node6 -->
<g id="edge6_Node000002_Node000006" class="edge">
<title>Node2&#45;&gt;Node6</title>
<g id="a_edge6_Node000002_Node000006"><a xlink:title=" ">
<path fill="none" stroke="#63b8ff" d="M233.46,-209.41C242.72,-205.97 251.61,-201.3 259,-195 288.66,-169.69 264.72,-139.56 295,-115 299.35,-111.47 304.22,-108.56 309.36,-106.16"/>
<polygon fill="#63b8ff" stroke="#63b8ff" points="310.87,-109.33 318.87,-102.38 308.29,-102.82 310.87,-109.33"/>
</a>
</g>
</g>
<!-- Node7 -->
<g id="Node000007" class="node">
<title>Node7</title>
<g id="a_Node000007"><a xlink:href="classDevLab__ICM20948.html#a8bef7eafb3b67eb736f491d0df453b9e" target="_top" xlink:title=" ">
<polygon fill="white" stroke="#666666" points="471,-266.5 295,-266.5 295,-247.5 471,-247.5 471,-266.5"/>
<text text-anchor="middle" x="383" y="-254.5" font-family="Helvetica,sans-Serif" font-size="10.00">DevLab_ICM20948::readWhoAmI</text>
</a>
</g>
</g>
<!-- Node2&#45;&gt;Node7 -->
<g id="edge7_Node000002_Node000007" class="edge">
<title>Node2&#45;&gt;Node7</title>
<g id="a_edge7_Node000002_Node000007"><a xlink:title=" ">
<path fill="none" stroke="#63b8ff" d="M223.6,-228.54C252.51,-233.73 288.47,-240.2 318.82,-245.65"/>
<polygon fill="#63b8ff" stroke="#63b8ff" points="318.42,-249.13 328.88,-247.46 319.66,-242.24 318.42,-249.13"/>
</a>
</g>
</g>
<!-- Node9 -->
<g id="Node000009" class="node">
<title>Node9</title>
<g id="a_Node000009"><a xlink:href="classDevLab__ICM20948.html#a0d6774b76298645ee45ec0e9065a8891" target="_top" xlink:title=" ">
<polygon fill="white" stroke="#666666" points="462.5,-142.5 303.5,-142.5 303.5,-123.5 462.5,-123.5 462.5,-142.5"/>
<text text-anchor="middle" x="383" y="-130.5" font-family="Helvetica,sans-Serif" font-size="10.00">DevLab_ICM20948::softReset</text>
</a>
</g>
</g>
<!-- Node2&#45;&gt;Node9 -->
<g id="edge11_Node000002_Node000009" class="edge">
<title>Node2&#45;&gt;Node9</title>
<g id="a_edge11_Node000002_Node000009"><a xlink:title=" ">
<path fill="none" stroke="#63b8ff" d="M226.05,-209.49C237.5,-206.03 249.08,-201.35 259,-195 279.99,-181.56 273.68,-164.91 295,-152 298.47,-149.9 302.15,-148.03 305.95,-146.36"/>
<polygon fill="#63b8ff" stroke="#63b8ff" points="307.53,-149.5 315.6,-142.64 305.01,-142.97 307.53,-149.5"/>
</a>
</g>
</g>
<!-- Node10 -->
<g id="Node000010" class="node">
<title>Node10</title>
<g id="a_Node000010"><a xlink:href="classBusIO__7Semi.html#ac7b3d1c425f7187abbe1bbec64d9ccea" target="_top" xlink:title=" ">
<polygon fill="white" stroke="#666666" points="445.5,-476.5 320.5,-476.5 320.5,-457.5 445.5,-457.5 445.5,-476.5"/>
<text text-anchor="middle" x="383" y="-464.5" font-family="Helvetica,sans-Serif" font-size="10.00">BusIO_7Semi::writeBit</text>
</a>
</g>
</g>
<!-- Node2&#45;&gt;Node10 -->
<g id="edge15_Node000002_Node000010" class="edge">
<title>Node2&#45;&gt;Node10</title>
<g id="a_edge15_Node000002_Node000010"><a xlink:title=" ">
<path fill="none" stroke="#63b8ff" d="M178.17,-228.83C197.39,-253.36 249.34,-319.12 295,-372 319.06,-399.87 348.16,-431.18 365.86,-449.99"/>
<polygon fill="#63b8ff" stroke="#63b8ff" points="363.51,-452.59 372.92,-457.46 368.6,-447.78 363.51,-452.59"/>
</a>
</g>
</g>
<!-- Node3&#45;&gt;Node4 -->
<g id="edge3_Node000003_Node000004" class="edge">
<title>Node3&#45;&gt;Node4</title>
<g id="a_edge3_Node000003_Node000004"><a xlink:title=" ">
<path fill="none" stroke="#63b8ff" d="M433.75,-191.01C468.73,-201.56 515.01,-215.53 548.01,-225.48"/>
<polygon fill="#63b8ff" stroke="#63b8ff" points="547.21,-228.9 557.8,-228.43 549.23,-222.2 547.21,-228.9"/>
</a>
</g>
</g>
<!-- Node3&#45;&gt;Node5 -->
<g id="edge5_Node000003_Node000005" class="edge">
<title>Node3&#45;&gt;Node5</title>
<g id="a_edge5_Node000003_Node000005"><a xlink:title=" ">
<path fill="none" stroke="#63b8ff" d="M466.67,-176C536.58,-176 635.37,-176 699.8,-176"/>
<polygon fill="#63b8ff" stroke="#63b8ff" points="699.83,-179.5 709.83,-176 699.83,-172.5 699.83,-179.5"/>
</a>
</g>
</g>
<!-- Node4&#45;&gt;Node5 -->
<g id="edge4_Node000004_Node000005" class="edge">
<title>Node4&#45;&gt;Node5</title>
<g id="a_edge4_Node000004_Node000005"><a xlink:title=" ">
<path fill="none" stroke="#63b8ff" d="M618.23,-228.45C647.78,-217.89 695.54,-200.82 728.52,-189.04"/>
<polygon fill="#63b8ff" stroke="#63b8ff" points="730,-192.22 738.24,-185.56 727.65,-185.63 730,-192.22"/>
</a>
</g>
</g>
<!-- Node7&#45;&gt;Node4 -->
<g id="edge9_Node000007_Node000004" class="edge">
<title>Node7&#45;&gt;Node4</title>
<g id="a_edge9_Node000007_Node000004"><a xlink:title=" ">
<path fill="none" stroke="#63b8ff" d="M471.15,-248.94C479.64,-248.16 488.28,-247.36 496.82,-246.57"/>
<polygon fill="#63b8ff" stroke="#63b8ff" points="497.16,-250.05 506.79,-245.65 496.51,-243.08 497.16,-250.05"/>
</a>
</g>
</g>
<!-- Node8 -->
<g id="Node000008" class="node">
<title>Node8</title>
<g id="a_Node000008"><a xlink:href="classBusIO__7Semi.html#a933c66d9a1afe84102323e209a93dd31" target="_top" xlink:title=" ">
<polygon fill="white" stroke="#666666" points="820.5,-457.5 711.5,-457.5 711.5,-438.5 820.5,-438.5 820.5,-457.5"/>
<text text-anchor="middle" x="766" y="-445.5" font-family="Helvetica,sans-Serif" font-size="10.00">BusIO_7Semi::read</text>
</a>
</g>
</g>
<!-- Node7&#45;&gt;Node8 -->
<g id="edge8_Node000007_Node000008" class="edge">
<title>Node7&#45;&gt;Node8</title>
<g id="a_edge8_Node000007_Node000008"><a xlink:title=" ">
<path fill="none" stroke="#63b8ff" d="M440,-266.51C450.48,-269.04 461.21,-272.18 471,-276 580.45,-318.73 697.11,-398.74 743.85,-432.43"/>
<polygon fill="#63b8ff" stroke="#63b8ff" points="741.85,-435.3 752,-438.34 745.96,-429.63 741.85,-435.3"/>
</a>
</g>
</g>
<!-- Node9&#45;&gt;Node4 -->
<g id="edge12_Node000009_Node000004" class="edge">
<title>Node9&#45;&gt;Node4</title>
<g id="a_edge12_Node000009_Node000004"><a xlink:title=" ">
<path fill="none" stroke="#63b8ff" d="M443.56,-142.56C452.95,-145.04 462.39,-148.14 471,-152 510.49,-169.7 549.87,-201.89 571.81,-221.48"/>
<polygon fill="#63b8ff" stroke="#63b8ff" points="569.58,-224.17 579.33,-228.31 574.28,-218.99 569.58,-224.17"/>
</a>
</g>
</g>
<!-- Node9&#45;&gt;Node5 -->
<g id="edge13_Node000009_Node000005" class="edge">
<title>Node9&#45;&gt;Node5</title>
<g id="a_edge13_Node000009_Node000005"><a xlink:title=" ">
<path fill="none" stroke="#63b8ff" d="M462.94,-141.91C532.98,-149.81 634.07,-161.22 699.66,-168.63"/>
<polygon fill="#63b8ff" stroke="#63b8ff" points="699.54,-172.13 709.87,-169.78 700.32,-165.18 699.54,-172.13"/>
</a>
</g>
</g>
<!-- Node11 -->
<g id="Node000011" class="node">
<title>Node11</title>
<g id="a_Node000011"><a xlink:href="classBusIO__7Semi.html#a855c7388d4118e632c84c7f8e2e3ddc2" target="_top" xlink:title=" ">
<polygon fill="white" stroke="#666666" points="656,-476.5 525,-476.5 525,-457.5 656,-457.5 656,-476.5"/>
<text text-anchor="middle" x="590.5" y="-464.5" font-family="Helvetica,sans-Serif" font-size="10.00">BusIO_7Semi::writeBits</text>
</a>
</g>
</g>
<!-- Node10&#45;&gt;Node11 -->
<g id="edge16_Node000010_Node000011" class="edge">
<title>Node10&#45;&gt;Node11</title>
<g id="a_edge16_Node000010_Node000011"><a xlink:title=" ">
<path fill="none" stroke="#63b8ff" d="M445.66,-467C467.29,-467 491.83,-467 514.44,-467"/>
<polygon fill="#63b8ff" stroke="#63b8ff" points="514.67,-470.5 524.67,-467 514.67,-463.5 514.67,-470.5"/>
</a>
</g>
</g>
<!-- Node11&#45;&gt;Node5 -->
<g id="edge18_Node000011_Node000005" class="edge">
<title>Node11&#45;&gt;Node5</title>
<g id="a_edge18_Node000011_Node000005"><a xlink:title=" ">
<path fill="none" stroke="#63b8ff" d="M609.57,-457.39C628.02,-446.77 656.38,-428.07 674,-405 725.38,-337.73 751.7,-237.65 761,-195.66"/>
<polygon fill="#63b8ff" stroke="#63b8ff" points="764.47,-196.16 763.14,-185.65 757.63,-194.7 764.47,-196.16"/>
</a>
</g>
</g>
<!-- Node11&#45;&gt;Node8 -->
<g id="edge17_Node000011_Node000008" class="edge">
<title>Node11&#45;&gt;Node8</title>
<g id="a_edge17_Node000011_Node000008"><a xlink:title=" ">
<path fill="none" stroke="#63b8ff" d="M656.1,-459.93C670.9,-458.3 686.62,-456.58 701.37,-454.97"/>
<polygon fill="#63b8ff" stroke="#63b8ff" points="701.85,-458.44 711.41,-453.87 701.08,-451.48 701.85,-458.44"/>
</a>
</g>
</g>
<!-- Node12&#45;&gt;Node4 -->
<g id="edge20_Node000012_Node000004" class="edge">
<title>Node12&#45;&gt;Node4</title>
<g id="a_edge20_Node000012_Node000004"><a xlink:title=" ">
<path fill="none" stroke="#63b8ff" d="M439.79,-284.98C450.19,-282.07 460.94,-279 471,-276 497.87,-267.99 527.96,-258.33 551.09,-250.76"/>
<polygon fill="#63b8ff" stroke="#63b8ff" points="552.46,-253.99 560.87,-247.55 550.28,-247.34 552.46,-253.99"/>
</a>
</g>
</g>
<!-- Node12&#45;&gt;Node11 -->
<g id="edge21_Node000012_Node000011" class="edge">
<title>Node12&#45;&gt;Node11</title>
<g id="a_edge21_Node000012_Node000011"><a xlink:title=" ">
<path fill="none" stroke="#63b8ff" d="M459.43,-315.17C463.61,-317.69 467.52,-320.61 471,-324 510.55,-362.59 467.72,-404.14 507,-443 510.98,-446.93 515.56,-450.23 520.48,-452.99"/>
<polygon fill="#63b8ff" stroke="#63b8ff" points="519.13,-456.23 529.66,-457.41 522.17,-449.92 519.13,-456.23"/>
</a>
</g>
</g>
<!-- Node13&#45;&gt;Node4 -->
<g id="edge23_Node000013_Node000004" class="edge">
<title>Node13&#45;&gt;Node4</title>
<g id="a_edge23_Node000013_Node000004"><a xlink:title=" ">
<path fill="none" stroke="#63b8ff" d="M408.81,-30.03C427.12,-41.79 452.04,-59.24 471,-78 517.1,-123.61 559.27,-188.29 578.51,-219.6"/>
<polygon fill="#63b8ff" stroke="#63b8ff" points="575.55,-221.46 583.73,-228.19 581.53,-217.83 575.55,-221.46"/>
</a>
</g>
</g>
<!-- Node13&#45;&gt;Node5 -->
<g id="edge24_Node000013_Node000005" class="edge">
<title>Node13&#45;&gt;Node5</title>
<g id="a_edge24_Node000013_Node000005"><a xlink:title=" ">
<path fill="none" stroke="#63b8ff" d="M460.55,-5.82C522.37,-2.17 609.41,-5.86 674,-44 718.17,-70.08 745.9,-127.01 757.97,-156.86"/>
<polygon fill="#63b8ff" stroke="#63b8ff" points="754.71,-158.14 761.59,-166.2 761.24,-155.61 754.71,-158.14"/>
</a>
</g>
</g>
<!-- Node14&#45;&gt;Node4 -->
<g id="edge26_Node000014_Node000004" class="edge">
<title>Node14&#45;&gt;Node4</title>
<g id="a_edge26_Node000014_Node000004"><a xlink:title=" ">
<path fill="none" stroke="#63b8ff" d="M200.22,-495.63C257.62,-512.29 385.61,-539.84 471,-486 513.2,-459.39 565.52,-310.8 583.27,-257.25"/>
<polygon fill="#63b8ff" stroke="#63b8ff" points="586.65,-258.19 586.44,-247.6 579.99,-256.01 586.65,-258.19"/>
</a>
</g>
</g>
<!-- Node14&#45;&gt;Node10 -->
<g id="edge27_Node000014_Node000010" class="edge">
<title>Node14&#45;&gt;Node10</title>
<g id="a_edge27_Node000014_Node000010"><a xlink:title=" ">
<path fill="none" stroke="#63b8ff" d="M259.28,-478.02C276.31,-476.49 293.96,-474.91 310.37,-473.43"/>
<polygon fill="#63b8ff" stroke="#63b8ff" points="310.77,-476.91 320.41,-472.53 310.14,-469.94 310.77,-476.91"/>
</a>
</g>
</g>
<!-- Node14&#45;&gt;Node11 -->
<g id="edge28_Node000014_Node000011" class="edge">
<title>Node14&#45;&gt;Node11</title>
<g id="a_edge28_Node000014_Node000011"><a xlink:title=" ">
<path fill="none" stroke="#63b8ff" d="M198.27,-495.58C223.23,-503.66 261.07,-514.58 295,-519 372.57,-529.11 394.44,-535.06 471,-519 505.01,-511.87 541.19,-494.37 564.49,-481.63"/>
<polygon fill="#63b8ff" stroke="#63b8ff" points="566.33,-484.62 573.35,-476.68 562.92,-478.51 566.33,-484.62"/>
</a>
</g>
</g>
<!-- Node15&#45;&gt;Node4 -->
<g id="edge30_Node000015_Node000004" class="edge">
<title>Node15&#45;&gt;Node4</title>
<g id="a_edge30_Node000015_Node000004"><a xlink:title=" ">
<path fill="none" stroke="#63b8ff" d="M448.63,-332.99C456.32,-330.38 463.94,-327.4 471,-324 509.79,-305.33 549.12,-273.72 571.3,-254.47"/>
<polygon fill="#63b8ff" stroke="#63b8ff" points="573.74,-256.99 578.92,-247.75 569.11,-251.74 573.74,-256.99"/>
</a>
</g>
</g>
<!-- Node15&#45;&gt;Node11 -->
<g id="edge31_Node000015_Node000011" class="edge">
<title>Node15&#45;&gt;Node11</title>
<g id="a_edge31_Node000015_Node000011"><a xlink:title=" ">
<path fill="none" stroke="#63b8ff" d="M399.37,-363.02C421.45,-383.81 464.19,-421.23 507,-443 515.98,-447.56 525.95,-451.39 535.78,-454.55"/>
<polygon fill="#63b8ff" stroke="#63b8ff" points="534.93,-457.95 545.52,-457.49 536.95,-451.25 534.93,-457.95"/>
</a>
</g>
</g>
<!-- Node16&#45;&gt;Node4 -->
<g id="edge33_Node000016_Node000004" class="edge">
<title>Node16&#45;&gt;Node4</title>
<g id="a_edge33_Node000016_Node000004"><a xlink:title=" ">
<path fill="none" stroke="#63b8ff" d="M253.3,-414.86C316.44,-415.06 403.7,-407.57 471,-372 522.06,-345.01 561.47,-286.51 579.21,-256.53"/>
<polygon fill="#63b8ff" stroke="#63b8ff" points="582.43,-257.96 584.38,-247.55 576.36,-254.47 582.43,-257.96"/>
</a>
</g>
</g>
<!-- Node16&#45;&gt;Node5 -->
<g id="edge34_Node000016_Node000005" class="edge">
<title>Node16&#45;&gt;Node5</title>
<g id="a_edge34_Node000016_Node000005"><a xlink:title=" ">
<path fill="none" stroke="#63b8ff" d="M229.02,-419.53C290.89,-427.27 390.48,-432.97 471,-406 598,-363.46 711.57,-239.69 750.61,-193.58"/>
<polygon fill="#63b8ff" stroke="#63b8ff" points="753.49,-195.6 757.21,-185.68 748.12,-191.11 753.49,-195.6"/>
</a>
</g>
</g>
<!-- Node16&#45;&gt;Node10 -->
<g id="edge35_Node000016_Node000010" class="edge">
<title>Node16&#45;&gt;Node10</title>
<g id="a_edge35_Node000016_Node000010"><a xlink:title=" ">
<path fill="none" stroke="#63b8ff" d="M205.9,-419.54C241.82,-429.22 297.54,-444.24 336.67,-454.78"/>
<polygon fill="#63b8ff" stroke="#63b8ff" points="335.92,-458.21 346.48,-457.43 337.74,-451.45 335.92,-458.21"/>
</a>
</g>
</g>
</g>
</svg>
