<?xml version="1.0" encoding="UTF-8" standalone="no"?>
<!DOCTYPE svg PUBLIC "-//W3C//DTD SVG 1.1//EN"
 "http://www.w3.org/Graphics/SVG/1.1/DTD/svg11.dtd">
<!-- Generated by graphviz version 2.43.0 (0)
 -->
<!-- Title: setup Pages: 1 -->
<svg width="818pt" height="502pt"
 viewBox="0.00 0.00 818.00 502.48" xmlns="http://www.w3.org/2000/svg" xmlns:xlink="http://www.w3.org/1999/xlink">
<g id="graph0" class="graph" transform="scale(1 1) rotate(0) translate(4 498.48)">
<title>setup</title>
<!-- Node1 -->
<g id="Node000001" class="node">
<title>Node1</title>
<g id="a_Node000001"><a xlink:title="Configure the IMU for gyroscope&#45;only operation over SPI.">
<polygon fill="#999999" stroke="#666666" points="44,-243.5 0,-243.5 0,-224.5 44,-224.5 44,-243.5"/>
<text text-anchor="middle" x="22" y="-231.5" font-family="Helvetica,sans-Serif" font-size="10.00">setup</text>
</a>
</g>
</g>
<!-- Node2 -->
<g id="Node000002" class="node">
<title>Node2</title>
<g id="a_Node000002"><a xlink:href="classDevLab__ICM20948.html#a31460c48549b1d3081e253706f8b15e6" target="_top" xlink:title=" ">
<polygon fill="white" stroke="#666666" points="454.5,-230 287.5,-230 287.5,-200 454.5,-200 454.5,-230"/>
<text text-anchor="start" x="295.5" y="-218" font-family="Helvetica,sans-Serif" font-size="10.00">DevLab_ICM20948::applyBasic</text>
<text text-anchor="middle" x="371" y="-207" font-family="Helvetica,sans-Serif" font-size="10.00">Defaults</text>
</a>
</g>
</g>
<!-- Node1&#45;&gt;Node2 -->
<g id="edge1_Node000001_Node000002" class="edge">
<title>Node1&#45;&gt;Node2</title>
<g id="a_edge1_Node000001_Node000002"><a xlink:title=" ">
<path fill="none" stroke="#63b8ff" d="M44.18,-232.84C89.41,-230.36 197.75,-224.43 277.13,-220.09"/>
<polygon fill="#63b8ff" stroke="#63b8ff" points="277.36,-223.58 287.15,-219.54 276.97,-216.59 277.36,-223.58"/>
</a>
</g>
</g>
<!-- Node5 -->
<g id="Node000005" class="node">
<title>Node5</title>
<g id="a_Node000005"><a xlink:href="classDevLab__ICM20948.html#a4386f310503153f3e28935cbdda75b18" target="_top" xlink:title=" ">
<polygon fill="white" stroke="#666666" points="241,-205.5 86,-205.5 86,-186.5 241,-186.5 241,-205.5"/>
<text text-anchor="middle" x="163.5" y="-193.5" font-family="Helvetica,sans-Serif" font-size="10.00">DevLab_ICM20948::beginSPI</text>
</a>
</g>
</g>
<!-- Node1&#45;&gt;Node5 -->
<g id="edge5_Node000001_Node000005" class="edge">
<title>Node1&#45;&gt;Node5</title>
<g id="a_edge5_Node000001_Node000005"><a xlink:title=" ">
<path fill="none" stroke="#63b8ff" d="M44.19,-228.23C63.61,-222.94 93.02,-214.93 117.65,-208.22"/>
<polygon fill="#63b8ff" stroke="#63b8ff" points="118.8,-211.53 127.53,-205.53 116.96,-204.78 118.8,-211.53"/>
</a>
</g>
</g>
<!-- Node12 -->
<g id="Node000012" class="node">
<title>Node12</title>
<g id="a_Node000012"><a xlink:href="classDevLab__ICM20948.html#a0bea2c662c285120253851c80289e077" target="_top" xlink:title=" ">
<polygon fill="white" stroke="#666666" points="240,-392.5 87,-392.5 87,-373.5 240,-373.5 240,-392.5"/>
<text text-anchor="middle" x="163.5" y="-380.5" font-family="Helvetica,sans-Serif" font-size="10.00">DevLab_ICM20948::setDLPF</text>
</a>
</g>
</g>
<!-- Node1&#45;&gt;Node12 -->
<g id="edge20_Node000001_Node000012" class="edge">
<title>Node1&#45;&gt;Node12</title>
<g id="a_edge20_Node000001_Node000012"><a xlink:title=" ">
<path fill="none" stroke="#63b8ff" d="M26.52,-243.59C33.91,-262.73 52.69,-306.2 80,-334 94.34,-348.6 113.93,-360.48 130.41,-368.88"/>
<polygon fill="#63b8ff" stroke="#63b8ff" points="129.18,-372.17 139.7,-373.42 132.25,-365.88 129.18,-372.17"/>
</a>
</g>
</g>
<!-- Node13 -->
<g id="Node000013" class="node">
<title>Node13</title>
<g id="a_Node000013"><a xlink:href="classDevLab__ICM20948.html#a16cc9db132bb7a2b706275c9f5a03773" target="_top" xlink:title=" ">
<polygon fill="white" stroke="#666666" points="447,-30 295,-30 295,0 447,0 447,-30"/>
<text text-anchor="start" x="303" y="-18" font-family="Helvetica,sans-Serif" font-size="10.00">DevLab_ICM20948::setGyro</text>
<text text-anchor="middle" x="371" y="-7" font-family="Helvetica,sans-Serif" font-size="10.00">DivRate</text>
</a>
</g>
</g>
<!-- Node1&#45;&gt;Node13 -->
<g id="edge24_Node000001_Node000013" class="edge">
<title>Node1&#45;&gt;Node13</title>
<g id="a_edge24_Node000001_Node000013"><a xlink:title=" ">
<path fill="none" stroke="#63b8ff" d="M29.95,-224.46C39.69,-211.82 58.61,-189.77 80,-178 146.78,-141.26 189.65,-189.2 247,-139 280.98,-109.26 250.43,-75.27 283,-44 286.48,-40.66 290.35,-37.71 294.47,-35.09"/>
<polygon fill="#63b8ff" stroke="#63b8ff" points="296.23,-38.12 303.25,-30.19 292.81,-32.01 296.23,-38.12"/>
</a>
</g>
</g>
<!-- Node14 -->
<g id="Node000014" class="node">
<title>Node14</title>
<g id="a_Node000014"><a xlink:href="classDevLab__ICM20948.html#a6a06dbd14558e50d40595de82502d632" target="_top" xlink:title=" ">
<polygon fill="white" stroke="#666666" points="447,-468 295,-468 295,-438 447,-438 447,-468"/>
<text text-anchor="start" x="303" y="-456" font-family="Helvetica,sans-Serif" font-size="10.00">DevLab_ICM20948::setGyro</text>
<text text-anchor="middle" x="371" y="-445" font-family="Helvetica,sans-Serif" font-size="10.00">Scale</text>
</a>
</g>
</g>
<!-- Node1&#45;&gt;Node14 -->
<g id="edge27_Node000001_Node000014" class="edge">
<title>Node1&#45;&gt;Node14</title>
<g id="a_edge27_Node000001_Node000014"><a xlink:title=" ">
<path fill="none" stroke="#63b8ff" d="M23.09,-243.83C23.93,-273 30.67,-359.69 80,-402 136.08,-450.09 221.26,-460.14 284.82,-459.77"/>
<polygon fill="#63b8ff" stroke="#63b8ff" points="284.88,-463.27 294.82,-459.63 284.77,-456.27 284.88,-463.27"/>
</a>
</g>
</g>
<!-- Node15 -->
<g id="Node000015" class="node">
<title>Node15</title>
<g id="a_Node000015"><a xlink:href="classDevLab__ICM20948.html#ae9c088334d6ec706bb08b47ef29bd186" target="_top" xlink:title=" ">
<polygon fill="white" stroke="#666666" points="247,-324.5 80,-324.5 80,-305.5 247,-305.5 247,-324.5"/>
<text text-anchor="middle" x="163.5" y="-312.5" font-family="Helvetica,sans-Serif" font-size="10.00">DevLab_ICM20948::setSensors</text>
</a>
</g>
</g>
<!-- Node1&#45;&gt;Node15 -->
<g id="edge30_Node000001_Node000015" class="edge">
<title>Node1&#45;&gt;Node15</title>
<g id="a_edge30_Node000001_Node000015"><a xlink:title=" ">
<path fill="none" stroke="#63b8ff" d="M39.55,-243.61C63.67,-257.62 108.69,-283.76 137.05,-300.22"/>
<polygon fill="#63b8ff" stroke="#63b8ff" points="135.57,-303.41 145.97,-305.4 139.08,-297.35 135.57,-303.41"/>
</a>
</g>
</g>
<!-- Node16 -->
<g id="Node000016" class="node">
<title>Node16</title>
<g id="a_Node000016"><a xlink:href="spi__gyro_8ino.html#a5f08ba3a5b3d8e5b3fa5a22429ecfa2b" target="_top" xlink:title="SPI bus object used by the IMU driver.">
<polygon fill="white" stroke="#666666" points="190,-129.5 137,-129.5 137,-110.5 190,-110.5 190,-129.5"/>
<text text-anchor="middle" x="163.5" y="-117.5" font-family="Helvetica,sans-Serif" font-size="10.00">spi_bus</text>
</a>
</g>
</g>
<!-- Node1&#45;&gt;Node16 -->
<g id="edge34_Node000001_Node000016" class="edge">
<title>Node1&#45;&gt;Node16</title>
<g id="a_edge34_Node000001_Node000016"><a xlink:title=" ">
<path fill="none" stroke="#63b8ff" d="M26.47,-224.23C33.56,-205.71 51.47,-165.45 80,-144 93.59,-133.78 111.45,-127.9 127.07,-124.53"/>
<polygon fill="#63b8ff" stroke="#63b8ff" points="127.77,-127.96 136.94,-122.65 126.46,-121.08 127.77,-127.96"/>
</a>
</g>
</g>
<!-- Node3 -->
<g id="Node000003" class="node">
<title>Node3</title>
<g id="a_Node000003"><a xlink:href="classDevLab__ICM20948.html#aaa26fcbfea0e67d45cb1c3ae39654c55" target="_top" xlink:title=" ">
<polygon fill="white" stroke="#666666" points="662,-243.5 495,-243.5 495,-224.5 662,-224.5 662,-243.5"/>
<text text-anchor="middle" x="578.5" y="-231.5" font-family="Helvetica,sans-Serif" font-size="10.00">DevLab_ICM20948::selectBank</text>
</a>
</g>
</g>
<!-- Node2&#45;&gt;Node3 -->
<g id="edge2_Node000002_Node000003" class="edge">
<title>Node2&#45;&gt;Node3</title>
<g id="a_edge2_Node000002_Node000003"><a xlink:title=" ">
<path fill="none" stroke="#63b8ff" d="M454.7,-222.65C464.65,-223.57 474.87,-224.51 484.95,-225.44"/>
<polygon fill="#63b8ff" stroke="#63b8ff" points="484.69,-228.93 494.97,-226.37 485.34,-221.96 484.69,-228.93"/>
</a>
</g>
</g>
<!-- Node4 -->
<g id="Node000004" class="node">
<title>Node4</title>
<g id="a_Node000004"><a xlink:href="classBusIO__7Semi.html#aa633479356af692cb9ea334771b7c0c5" target="_top" xlink:title=" ">
<polygon fill="white" stroke="#666666" points="810,-205.5 698,-205.5 698,-186.5 810,-186.5 810,-205.5"/>
<text text-anchor="middle" x="754" y="-193.5" font-family="Helvetica,sans-Serif" font-size="10.00">BusIO_7Semi::write</text>
</a>
</g>
</g>
<!-- Node2&#45;&gt;Node4 -->
<g id="edge4_Node000002_Node000004" class="edge">
<title>Node2&#45;&gt;Node4</title>
<g id="a_edge4_Node000002_Node000004"><a xlink:title=" ">
<path fill="none" stroke="#63b8ff" d="M454.67,-210.88C524.58,-207.39 623.37,-202.46 687.8,-199.25"/>
<polygon fill="#63b8ff" stroke="#63b8ff" points="688.02,-202.74 697.83,-198.75 687.67,-195.75 688.02,-202.74"/>
</a>
</g>
</g>
<!-- Node3&#45;&gt;Node4 -->
<g id="edge3_Node000003_Node000004" class="edge">
<title>Node3&#45;&gt;Node4</title>
<g id="a_edge3_Node000003_Node000004"><a xlink:title=" ">
<path fill="none" stroke="#63b8ff" d="M623.28,-224.41C646.49,-219.33 675.18,-213.04 699.67,-207.68"/>
<polygon fill="#63b8ff" stroke="#63b8ff" points="700.51,-211.08 709.53,-205.52 699.02,-204.24 700.51,-211.08"/>
</a>
</g>
</g>
<!-- Node5&#45;&gt;Node2 -->
<g id="edge6_Node000005_Node000002" class="edge">
<title>Node5&#45;&gt;Node2</title>
<g id="a_edge6_Node000005_Node000002"><a xlink:title=" ">
<path fill="none" stroke="#63b8ff" d="M241.02,-203.07C252.79,-204.16 265.05,-205.3 277.12,-206.41"/>
<polygon fill="#63b8ff" stroke="#63b8ff" points="276.93,-209.91 287.21,-207.35 277.58,-202.94 276.93,-209.91"/>
</a>
</g>
</g>
<!-- Node5&#45;&gt;Node3 -->
<g id="edge11_Node000005_Node000003" class="edge">
<title>Node5&#45;&gt;Node3</title>
<g id="a_edge11_Node000005_Node000003"><a xlink:title=" ">
<path fill="none" stroke="#63b8ff" d="M202.77,-186.42C216.86,-182.49 232.83,-177.55 247,-172 263.66,-165.48 265.59,-158.11 283,-154 359.13,-136.03 384.2,-131.11 459,-154 499.62,-166.43 538.89,-197.99 560.46,-217.55"/>
<polygon fill="#63b8ff" stroke="#63b8ff" points="558.12,-220.15 567.83,-224.4 562.88,-215.03 558.12,-220.15"/>
</a>
</g>
</g>
<!-- Node5&#45;&gt;Node4 -->
<g id="edge15_Node000005_Node000004" class="edge">
<title>Node5&#45;&gt;Node4</title>
<g id="a_edge15_Node000005_Node000004"><a xlink:title=" ">
<path fill="none" stroke="#63b8ff" d="M223.12,-186.35C231.87,-182.92 240.21,-178.28 247,-172 280.17,-141.36 245.84,-102.65 283,-77 347.37,-32.56 381.28,-68.12 459,-77 551.01,-87.51 578.55,-83.85 662,-124 691.02,-137.96 719.28,-162.56 736.41,-179.07"/>
<polygon fill="#63b8ff" stroke="#63b8ff" points="734.31,-181.91 743.88,-186.44 739.22,-176.92 734.31,-181.91"/>
</a>
</g>
</g>
<!-- Node6 -->
<g id="Node000006" class="node">
<title>Node6</title>
<g id="a_Node000006"><a xlink:href="classSPI__Interface.html#a24b5d68ff8da5578f56ee571d86ab289" target="_top" xlink:title=" ">
<polygon fill="white" stroke="#666666" points="435,-181.5 307,-181.5 307,-162.5 435,-162.5 435,-181.5"/>
<text text-anchor="middle" x="371" y="-169.5" font-family="Helvetica,sans-Serif" font-size="10.00">SPI_Interface::beginSPI</text>
</a>
</g>
</g>
<!-- Node5&#45;&gt;Node6 -->
<g id="edge7_Node000005_Node000006" class="edge">
<title>Node5&#45;&gt;Node6</title>
<g id="a_edge7_Node000005_Node000006"><a xlink:title=" ">
<path fill="none" stroke="#63b8ff" d="M241.02,-187.06C259.23,-184.94 278.62,-182.67 296.68,-180.56"/>
<polygon fill="#63b8ff" stroke="#63b8ff" points="297.32,-184.01 306.85,-179.38 296.51,-177.06 297.32,-184.01"/>
</a>
</g>
</g>
<!-- Node7 -->
<g id="Node000007" class="node">
<title>Node7</title>
<g id="a_Node000007"><a xlink:href="classDevLab__ICM20948.html#a8bef7eafb3b67eb736f491d0df453b9e" target="_top" xlink:title=" ">
<polygon fill="white" stroke="#666666" points="459,-267.5 283,-267.5 283,-248.5 459,-248.5 459,-267.5"/>
<text text-anchor="middle" x="371" y="-255.5" font-family="Helvetica,sans-Serif" font-size="10.00">DevLab_ICM20948::readWhoAmI</text>
</a>
</g>
</g>
<!-- Node5&#45;&gt;Node7 -->
<g id="edge8_Node000005_Node000007" class="edge">
<title>Node5&#45;&gt;Node7</title>
<g id="a_edge8_Node000005_Node000007"><a xlink:title=" ">
<path fill="none" stroke="#63b8ff" d="M187.8,-205.5C211.48,-214.91 249.36,-229.27 283,-239 292.04,-241.61 301.7,-244.06 311.17,-246.27"/>
<polygon fill="#63b8ff" stroke="#63b8ff" points="310.41,-249.69 320.94,-248.48 311.96,-242.86 310.41,-249.69"/>
</a>
</g>
</g>
<!-- Node9 -->
<g id="Node000009" class="node">
<title>Node9</title>
<g id="a_Node000009"><a xlink:href="classDevLab__ICM20948.html#a0d6774b76298645ee45ec0e9065a8891" target="_top" xlink:title=" ">
<polygon fill="white" stroke="#666666" points="450.5,-105.5 291.5,-105.5 291.5,-86.5 450.5,-86.5 450.5,-105.5"/>
<text text-anchor="middle" x="371" y="-93.5" font-family="Helvetica,sans-Serif" font-size="10.00">DevLab_ICM20948::softReset</text>
</a>
</g>
</g>
<!-- Node5&#45;&gt;Node9 -->
<g id="edge12_Node000005_Node000009" class="edge">
<title>Node5&#45;&gt;Node9</title>
<g id="a_edge12_Node000005_Node000009"><a xlink:title=" ">
<path fill="none" stroke="#63b8ff" d="M217.16,-186.5C227.66,-183.05 238.16,-178.36 247,-172 269.81,-155.57 260.08,-136.27 283,-120 289.15,-115.64 296.06,-112.06 303.23,-109.14"/>
<polygon fill="#63b8ff" stroke="#63b8ff" points="304.92,-112.25 313.12,-105.55 302.53,-105.67 304.92,-112.25"/>
</a>
</g>
</g>
<!-- Node10 -->
<g id="Node000010" class="node">
<title>Node10</title>
<g id="a_Node000010"><a xlink:href="classBusIO__7Semi.html#ac7b3d1c425f7187abbe1bbec64d9ccea" target="_top" xlink:title=" ">
<polygon fill="white" stroke="#666666" points="433.5,-381.5 308.5,-381.5 308.5,-362.5 433.5,-362.5 433.5,-381.5"/>
<text text-anchor="middle" x="371" y="-369.5" font-family="Helvetica,sans-Serif" font-size="10.00">BusIO_7Semi::writeBit</text>
</a>
</g>
</g>
<!-- Node5&#45;&gt;Node10 -->
<g id="edge16_Node000005_Node000010" class="edge">
<title>Node5&#45;&gt;Node10</title>
<g id="a_edge16_Node000005_Node000010"><a xlink:title=" ">
<path fill="none" stroke="#63b8ff" d="M175.84,-205.71C209.45,-234.5 308.81,-319.6 350.86,-355.61"/>
<polygon fill="#63b8ff" stroke="#63b8ff" points="348.82,-358.47 358.69,-362.32 353.38,-353.15 348.82,-358.47"/>
</a>
</g>
</g>
<!-- Node7&#45;&gt;Node3 -->
<g id="edge10_Node000007_Node000003" class="edge">
<title>Node7&#45;&gt;Node3</title>
<g id="a_edge10_Node000007_Node000003"><a xlink:title=" ">
<path fill="none" stroke="#63b8ff" d="M453.51,-248.48C464.13,-247.24 475.06,-245.96 485.83,-244.71"/>
<polygon fill="#63b8ff" stroke="#63b8ff" points="486.56,-248.14 496.08,-243.51 485.75,-241.19 486.56,-248.14"/>
</a>
</g>
</g>
<!-- Node8 -->
<g id="Node000008" class="node">
<title>Node8</title>
<g id="a_Node000008"><a xlink:href="classBusIO__7Semi.html#a933c66d9a1afe84102323e209a93dd31" target="_top" xlink:title=" ">
<polygon fill="white" stroke="#666666" points="808.5,-400.5 699.5,-400.5 699.5,-381.5 808.5,-381.5 808.5,-400.5"/>
<text text-anchor="middle" x="754" y="-388.5" font-family="Helvetica,sans-Serif" font-size="10.00">BusIO_7Semi::read</text>
</a>
</g>
</g>
<!-- Node7&#45;&gt;Node8 -->
<g id="edge9_Node000007_Node000008" class="edge">
<title>Node7&#45;&gt;Node8</title>
<g id="a_edge9_Node000007_Node000008"><a xlink:title=" ">
<path fill="none" stroke="#63b8ff" d="M399.4,-267.57C466.6,-291.02 639.62,-351.42 715.92,-378.06"/>
<polygon fill="#63b8ff" stroke="#63b8ff" points="715,-381.44 725.59,-381.43 717.3,-374.83 715,-381.44"/>
</a>
</g>
</g>
<!-- Node9&#45;&gt;Node3 -->
<g id="edge13_Node000009_Node000003" class="edge">
<title>Node9&#45;&gt;Node3</title>
<g id="a_edge13_Node000009_Node000003"><a xlink:title=" ">
<path fill="none" stroke="#63b8ff" d="M422.92,-105.51C435.21,-109.01 447.97,-113.72 459,-120 503.6,-145.4 544.01,-191.35 564.11,-216.46"/>
<polygon fill="#63b8ff" stroke="#63b8ff" points="561.42,-218.7 570.35,-224.41 566.92,-214.38 561.42,-218.7"/>
</a>
</g>
</g>
<!-- Node9&#45;&gt;Node4 -->
<g id="edge14_Node000009_Node000004" class="edge">
<title>Node9&#45;&gt;Node4</title>
<g id="a_edge14_Node000009_Node000004"><a xlink:title=" ">
<path fill="none" stroke="#63b8ff" d="M408.53,-105.59C478.23,-123.88 630.05,-163.73 706.72,-183.85"/>
<polygon fill="#63b8ff" stroke="#63b8ff" points="706.02,-187.29 716.58,-186.44 707.79,-180.52 706.02,-187.29"/>
</a>
</g>
</g>
<!-- Node11 -->
<g id="Node000011" class="node">
<title>Node11</title>
<g id="a_Node000011"><a xlink:href="classBusIO__7Semi.html#a855c7388d4118e632c84c7f8e2e3ddc2" target="_top" xlink:title=" ">
<polygon fill="white" stroke="#666666" points="644,-419.5 513,-419.5 513,-400.5 644,-400.5 644,-419.5"/>
<text text-anchor="middle" x="578.5" y="-407.5" font-family="Helvetica,sans-Serif" font-size="10.00">BusIO_7Semi::writeBits</text>
</a>
</g>
</g>
<!-- Node10&#45;&gt;Node11 -->
<g id="edge17_Node000010_Node000011" class="edge">
<title>Node10&#45;&gt;Node11</title>
<g id="a_edge17_Node000010_Node000011"><a xlink:title=" ">
<path fill="none" stroke="#63b8ff" d="M423.59,-381.54C451.56,-386.71 486.32,-393.14 515.73,-398.58"/>
<polygon fill="#63b8ff" stroke="#63b8ff" points="515.42,-402.08 525.89,-400.46 516.69,-395.2 515.42,-402.08"/>
</a>
</g>
</g>
<!-- Node11&#45;&gt;Node4 -->
<g id="edge19_Node000011_Node000004" class="edge">
<title>Node11&#45;&gt;Node4</title>
<g id="a_edge19_Node000011_Node000004"><a xlink:title=" ">
<path fill="none" stroke="#63b8ff" d="M595.87,-400.4C613.67,-389.38 642.22,-369.97 662,-348 699.92,-305.88 730.4,-245.64 744.5,-215.19"/>
<polygon fill="#63b8ff" stroke="#63b8ff" points="747.84,-216.29 748.79,-205.74 741.47,-213.4 747.84,-216.29"/>
</a>
</g>
</g>
<!-- Node11&#45;&gt;Node8 -->
<g id="edge18_Node000011_Node000008" class="edge">
<title>Node11&#45;&gt;Node8</title>
<g id="a_edge18_Node000011_Node000008"><a xlink:title=" ">
<path fill="none" stroke="#63b8ff" d="M644.1,-402.93C658.9,-401.3 674.62,-399.58 689.37,-397.97"/>
<polygon fill="#63b8ff" stroke="#63b8ff" points="689.85,-401.44 699.41,-396.87 689.08,-394.48 689.85,-401.44"/>
</a>
</g>
</g>
<!-- Node12&#45;&gt;Node3 -->
<g id="edge21_Node000012_Node000003" class="edge">
<title>Node12&#45;&gt;Node3</title>
<g id="a_edge21_Node000012_Node000003"><a xlink:title=" ">
<path fill="none" stroke="#63b8ff" d="M194.47,-392.58C250.03,-408.53 371.33,-434.67 459,-391 517.45,-361.89 554.7,-288.67 569.8,-253.48"/>
<polygon fill="#63b8ff" stroke="#63b8ff" points="573.19,-254.45 573.78,-243.87 566.72,-251.77 573.19,-254.45"/>
</a>
</g>
</g>
<!-- Node12&#45;&gt;Node10 -->
<g id="edge22_Node000012_Node000010" class="edge">
<title>Node12&#45;&gt;Node10</title>
<g id="a_edge22_Node000012_Node000010"><a xlink:title=" ">
<path fill="none" stroke="#63b8ff" d="M240.15,-378.95C259.07,-377.94 279.32,-376.85 298.06,-375.85"/>
<polygon fill="#63b8ff" stroke="#63b8ff" points="298.5,-379.33 308.3,-375.3 298.12,-372.34 298.5,-379.33"/>
</a>
</g>
</g>
<!-- Node12&#45;&gt;Node11 -->
<g id="edge23_Node000012_Node000011" class="edge">
<title>Node12&#45;&gt;Node11</title>
<g id="a_edge23_Node000012_Node000011"><a xlink:title=" ">
<path fill="none" stroke="#63b8ff" d="M172.43,-392.65C189.86,-413.02 233.9,-459.89 283,-477 356.87,-502.74 383.35,-496.9 459,-477 496.73,-467.07 535.08,-442.09 557.56,-425.59"/>
<polygon fill="#63b8ff" stroke="#63b8ff" points="559.74,-428.33 565.63,-419.53 555.53,-422.73 559.74,-428.33"/>
</a>
</g>
</g>
<!-- Node13&#45;&gt;Node3 -->
<g id="edge25_Node000013_Node000003" class="edge">
<title>Node13&#45;&gt;Node3</title>
<g id="a_edge25_Node000013_Node000003"><a xlink:title=" ">
<path fill="none" stroke="#63b8ff" d="M397.16,-30.01C415.42,-41.57 440.12,-58.63 459,-77 504.72,-121.48 546.81,-184.63 566.22,-215.53"/>
<polygon fill="#63b8ff" stroke="#63b8ff" points="563.46,-217.71 571.71,-224.36 569.41,-214.02 563.46,-217.71"/>
</a>
</g>
</g>
<!-- Node13&#45;&gt;Node4 -->
<g id="edge26_Node000013_Node000004" class="edge">
<title>Node13&#45;&gt;Node4</title>
<g id="a_edge26_Node000013_Node000004"><a xlink:title=" ">
<path fill="none" stroke="#63b8ff" d="M447.03,-4.88C509.37,-0.36 597.92,-3.33 662,-44 710.99,-75.09 737.2,-142.92 747.59,-176.44"/>
<polygon fill="#63b8ff" stroke="#63b8ff" points="744.34,-177.79 750.52,-186.39 751.06,-175.81 744.34,-177.79"/>
</a>
</g>
</g>
<!-- Node14&#45;&gt;Node3 -->
<g id="edge28_Node000014_Node000003" class="edge">
<title>Node14&#45;&gt;Node3</title>
<g id="a_edge28_Node000014_Node000003"><a xlink:title=" ">
<path fill="none" stroke="#63b8ff" d="M435.06,-437.86C443.61,-434.17 451.87,-429.62 459,-424 518.47,-377.13 556.04,-291.6 570.61,-253.36"/>
<polygon fill="#63b8ff" stroke="#63b8ff" points="574.07,-254.1 574.25,-243.51 567.51,-251.67 574.07,-254.1"/>
</a>
</g>
</g>
<!-- Node14&#45;&gt;Node11 -->
<g id="edge29_Node000014_Node000011" class="edge">
<title>Node14&#45;&gt;Node11</title>
<g id="a_edge29_Node000014_Node000011"><a xlink:title=" ">
<path fill="none" stroke="#63b8ff" d="M443.87,-437.96C469.5,-432.6 497.94,-426.65 521.98,-421.62"/>
<polygon fill="#63b8ff" stroke="#63b8ff" points="522.92,-425 531.99,-419.52 521.49,-418.14 522.92,-425"/>
</a>
</g>
</g>
<!-- Node15&#45;&gt;Node3 -->
<g id="edge31_Node000015_Node000003" class="edge">
<title>Node15&#45;&gt;Node3</title>
<g id="a_edge31_Node000015_Node000003"><a xlink:title=" ">
<path fill="none" stroke="#63b8ff" d="M247.27,-309.21C306.78,-303.87 388.61,-294.09 459,-277 489.33,-269.63 522.65,-257.13 546.21,-247.5"/>
<polygon fill="#63b8ff" stroke="#63b8ff" points="547.78,-250.64 555.67,-243.57 545.09,-244.17 547.78,-250.64"/>
</a>
</g>
</g>
<!-- Node15&#45;&gt;Node4 -->
<g id="edge32_Node000015_Node000004" class="edge">
<title>Node15&#45;&gt;Node4</title>
<g id="a_edge32_Node000015_Node000004"><a xlink:title=" ">
<path fill="none" stroke="#63b8ff" d="M247.38,-318.44C349.19,-319.62 525.21,-311.67 662,-253 687.53,-242.05 714.18,-224.53 731.98,-211.8"/>
<polygon fill="#63b8ff" stroke="#63b8ff" points="734.42,-214.36 740.44,-205.65 730.3,-208.7 734.42,-214.36"/>
</a>
</g>
</g>
<!-- Node15&#45;&gt;Node10 -->
<g id="edge33_Node000015_Node000010" class="edge">
<title>Node15&#45;&gt;Node10</title>
<g id="a_edge33_Node000015_Node000010"><a xlink:title=" ">
<path fill="none" stroke="#63b8ff" d="M198.72,-324.55C222.38,-331.15 254.6,-340.13 283,-348 296.85,-351.84 311.95,-356.01 325.62,-359.78"/>
<polygon fill="#63b8ff" stroke="#63b8ff" points="324.71,-363.16 335.28,-362.44 326.57,-356.41 324.71,-363.16"/>
</a>
</g>
</g>
</g>
</svg>
